<?xml version="1.0" encoding="utf-8"?>
<!-- Generator: Adobe Illustrator 15.0.0, SVG Export Plug-In . SVG Version: 6.00 Build 0)  -->
<!DOCTYPE svg PUBLIC "-//W3C//DTD SVG 1.1//EN" "http://www.w3.org/Graphics/SVG/1.1/DTD/svg11.dtd" [
	<!ENTITY ns_extend "http://ns.adobe.com/Extensibility/1.0/">
	<!ENTITY ns_ai "http://ns.adobe.com/AdobeIllustrator/10.0/">
	<!ENTITY ns_graphs "http://ns.adobe.com/Graphs/1.0/">
	<!ENTITY ns_vars "http://ns.adobe.com/Variables/1.0/">
	<!ENTITY ns_imrep "http://ns.adobe.com/ImageReplacement/1.0/">
	<!ENTITY ns_sfw "http://ns.adobe.com/SaveForWeb/1.0/">
	<!ENTITY ns_custom "http://ns.adobe.com/GenericCustomNamespace/1.0/">
	<!ENTITY ns_adobe_xpath "http://ns.adobe.com/XPath/1.0/">
]>
<svg version="1.1" id="Layer_1" xmlns:x="&ns_extend;" xmlns:i="&ns_ai;" xmlns:graph="&ns_graphs;"
	 xmlns="http://www.w3.org/2000/svg" xmlns:xlink="http://www.w3.org/1999/xlink" x="0px" y="0px" width="512px" height="512px"
	 viewBox="0 0 512 512" enable-background="new 0 0 512 512" xml:space="preserve">
<metadata>
	<sfw  xmlns="&ns_sfw;">
		<slices></slices>
		<sliceSourceBounds  height="364.773" width="423.958" y="-21.303" x="12.521" bottomLeftOrigin="true"></sliceSourceBounds>
	</sfw>
</metadata>
<path fill="#CFF219" d="M139.608,306.85c-22.55-20-59.8-25.012-75.998-20.422c26.529,53.543,32.152,104.394,67.632,130.32
	c75.178,48.401,291.381-81.81,336.621-16.045c3.586-118.57-77.752-136.936-88.793-141.046
	c-15.072-5.616-67.359-19.744-90.633-34.275c-37.875-20.171-63.229-53.995-40.26-162.353
	c-60.855,41.236-103.192,107.297-74.747,180.849c-24.635-14.411-91.03-20.502-129.409,12.459
	C63.602,258.834,123.74,267.221,139.608,306.85z"/>
<g>
	<path fill="#95BA55" d="M453.768,367.946c-32.619-51.925-74.346-54.17-122.449-56.758c-17.805-0.958-36.217-1.948-55.584-5.453
		c-36.346-6.58-79.321-32.97-93.4-77.089c-9.639-30.207-8.699-78.84,49.713-139.786c-8.196,50.165-6.692,83.444,4.813,107.63
		c12.709,26.716,37.841,40.789,63.106,52.018c11.958,4.542,24.472,8.267,36.573,11.867c25.848,7.691,52.574,15.646,73.82,31.687
		C432.938,309.106,447.168,333.969,453.768,367.946z"/>
	<path fill="#BAE24B" d="M230.546,91.896c-7.648,48.604-5.94,81.163,5.41,105.024c12.849,27.01,38.162,41.195,63.604,52.501
		l0.051,0.023l0.052,0.02c11.94,4.535,24.474,8.263,36.593,11.87c25.762,7.665,52.4,15.593,73.504,31.524
		c11.287,8.523,20.215,18.638,27.291,30.922c6.506,11.29,11.336,24.182,14.666,39.18c-32.438-48.043-73.367-50.242-120.344-52.77
		c-17.775-0.957-36.154-1.945-55.46-5.438c-19.972-3.617-39.905-12.637-56.131-25.397c-17.658-13.888-30.277-31.527-36.495-51.013
		c-6.415-20.104-5.996-41.611,1.246-63.925C192.271,140.572,207.74,116.199,230.546,91.896 M233.559,85.859
		c-113.577,116.221-34.132,207.076,41.998,220.859c73.816,13.357,135.709-9.588,180.152,66.356
		c-16.91-101.471-92.268-101.528-155.337-125.482C240.242,220.871,215.815,190.806,233.559,85.859L233.559,85.859z"/>
</g>
<g>
	<path fill="#95BA55" d="M247.887,368.824c-27.171-0.001-35.032-4.109-39.256-6.318c-0.798-0.416-1.487-0.776-2.185-1.061
		c-27.51-11.201-41.295-37.471-50.417-54.854c-1.814-3.457-3.382-6.443-4.874-8.978c-8.789-14.878-30.396-40.252-77.575-46.812
		c14.876-3.935,29.275-5.926,42.871-5.926c55.274,0,87.075,32.129,106.075,51.325c4.085,4.127,7.613,7.691,10.59,10.107
		c35.12,28.527,91.921,43.605,164.259,43.604c4.676,0,8.865-0.062,12.447-0.133c-73.359,12.638-127.803,19.041-161.926,19.041
		C247.892,368.824,247.892,368.824,247.887,368.824z"/>
	<path fill="#BAE24B" d="M116.452,245.878c54.857,0,86.474,31.943,105.364,51.029c4.105,4.147,7.651,7.729,10.67,10.181
		c35.27,28.647,92.217,43.803,164.7,43.828c-67.037,11.227-117.185,16.908-149.298,16.908c-26.925,0-34.645-4.036-38.792-6.204
		c-0.821-0.43-1.53-0.8-2.271-1.103c-27.171-11.062-40.854-37.137-49.908-54.391c-1.821-3.469-3.394-6.465-4.899-9.021
		c-8.571-14.513-29.201-38.901-73.415-46.532C91.704,247.455,104.399,245.878,116.452,245.878 M116.452,243.878
		c-14.375,0-30.311,2.171-47.98,7.308c49.892,5.317,72.835,31.722,81.823,46.938c9.087,15.431,22.512,50.704,55.775,64.248
		c4.403,1.792,9.628,7.453,41.817,7.453c29.306,0,80.964-4.688,174.734-21.26c-0.342-0.013-0.758-0.019-1.24-0.019
		c-3.928,0-12.453,0.369-24.006,0.369c-39.811,0-115.618-4.384-163.629-43.382C217.353,292.229,184.284,243.878,116.452,243.878
		L116.452,243.878z"/>
</g>
<g>
	<path fill="#95BA55" d="M181.296,415.383c-23.642,0-40.659-6.848-53.554-21.551c-11.683-13.32-18.975-31.955-26.693-51.684
		c-5.639-14.407-11.462-29.289-19.521-43.924c31.402,0.922,46.052,15.383,62.969,32.08c19.624,19.369,41.867,41.323,95.887,47.264
		c6.339,0.694,13.982,1.047,22.72,1.047c42.578,0,102.822-8.114,138.818-12.963c4.252-0.572,8.094-1.09,11.477-1.536
		c-128.476,34.151-188.893,45.179-218.435,50.57C190.253,415.145,185.627,415.383,181.296,415.383z"/>
	<path fill="#BAE24B" d="M83.25,299.293c29.813,1.393,44.1,15.491,60.545,31.725c19.74,19.484,42.115,41.567,96.481,47.546
		c6.374,0.698,14.055,1.052,22.828,1.052c40.969,0,98.223-7.494,134.598-12.385c-117.787,30.928-174.484,41.284-202.834,46.458
		c-4.731,0.462-9.297,0.694-13.57,0.694c-23.333,0-40.111-6.738-52.802-21.21c-11.567-13.188-18.828-31.743-26.515-51.389
		C96.529,327.854,90.904,313.479,83.25,299.293 M79.808,297.188c31.572,56.161,30.056,119.193,101.488,119.193
		c4.343,0,8.941-0.23,13.848-0.713c30.9-5.64,95.493-17.54,232.038-54.2c-16.936,1.387-107.059,16.146-164.078,16.146
		c-8.364,0-16.005-0.316-22.609-1.04C139.558,365.477,150.294,298.123,79.808,297.188L79.808,297.188z"/>
</g>
</svg>
