<?xml version="1.0" encoding="utf-8"?>
<!-- Generator: Adobe Illustrator 15.0.0, SVG Export Plug-In . SVG Version: 6.00 Build 0)  -->
<!DOCTYPE svg PUBLIC "-//W3C//DTD SVG 1.1//EN" "http://www.w3.org/Graphics/SVG/1.1/DTD/svg11.dtd" [
	<!ENTITY ns_extend "http://ns.adobe.com/Extensibility/1.0/">
	<!ENTITY ns_ai "http://ns.adobe.com/AdobeIllustrator/10.0/">
	<!ENTITY ns_graphs "http://ns.adobe.com/Graphs/1.0/">
	<!ENTITY ns_vars "http://ns.adobe.com/Variables/1.0/">
	<!ENTITY ns_imrep "http://ns.adobe.com/ImageReplacement/1.0/">
	<!ENTITY ns_sfw "http://ns.adobe.com/SaveForWeb/1.0/">
	<!ENTITY ns_custom "http://ns.adobe.com/GenericCustomNamespace/1.0/">
	<!ENTITY ns_adobe_xpath "http://ns.adobe.com/XPath/1.0/">
]>
<svg version="1.1" id="Layer_1" xmlns:x="&ns_extend;" xmlns:i="&ns_ai;" xmlns:graph="&ns_graphs;"
	 xmlns="http://www.w3.org/2000/svg" xmlns:xlink="http://www.w3.org/1999/xlink" x="0px" y="0px" width="48px" height="48px"
	 viewBox="0 0 48 48" enable-background="new 0 0 48 48" xml:space="preserve">
<metadata>
	<sfw  xmlns="&ns_sfw;">
		<slices></slices>
		<sliceSourceBounds  x="285.503" y="376.749" width="38.809" height="40.749" bottomLeftOrigin="true"></sliceSourceBounds>
	</sfw>
</metadata>
<path fill="#848778" d="M36.447,31.045c-1.922,0-3.641,0.856-4.812,2.203L16.49,25.099c0.154-0.549,0.245-1.123,0.245-1.724
	c0-0.595-0.091-1.172-0.245-1.716l15.146-8.151c1.171,1.349,2.89,2.205,4.812,2.205c3.511,0,6.365-2.85,6.365-6.347
	c0-3.509-2.854-6.363-6.365-6.363c-3.514,0-6.363,2.854-6.363,6.363c0,0.598,0.085,1.176,0.24,1.719l-15.151,8.139
	c-1.168-1.342-2.887-2.191-4.807-2.191c-3.508-0.001-6.362,2.833-6.362,6.342c0,3.517,2.854,6.346,6.362,6.346
	c1.92,0,3.639-0.85,4.809-2.188l15.149,8.142c-0.155,0.547-0.24,1.119-0.24,1.713c0,3.515,2.85,6.365,6.363,6.365
	c3.511,0,6.365-2.853,6.365-6.365C42.812,33.896,39.958,31.045,36.447,31.045z"/>
</svg>
