<?xml version="1.0" encoding="utf-8"?>
<!-- Generator: Adobe Illustrator 15.0.0, SVG Export Plug-In . SVG Version: 6.00 Build 0)  -->
<!DOCTYPE svg PUBLIC "-//W3C//DTD SVG 1.1//EN" "http://www.w3.org/Graphics/SVG/1.1/DTD/svg11.dtd" [
	<!ENTITY ns_extend "http://ns.adobe.com/Extensibility/1.0/">
	<!ENTITY ns_ai "http://ns.adobe.com/AdobeIllustrator/10.0/">
	<!ENTITY ns_graphs "http://ns.adobe.com/Graphs/1.0/">
	<!ENTITY ns_vars "http://ns.adobe.com/Variables/1.0/">
	<!ENTITY ns_imrep "http://ns.adobe.com/ImageReplacement/1.0/">
	<!ENTITY ns_sfw "http://ns.adobe.com/SaveForWeb/1.0/">
	<!ENTITY ns_custom "http://ns.adobe.com/GenericCustomNamespace/1.0/">
	<!ENTITY ns_adobe_xpath "http://ns.adobe.com/XPath/1.0/">
]>
<svg version="1.1" id="Layer_1" xmlns:x="&ns_extend;" xmlns:i="&ns_ai;" xmlns:graph="&ns_graphs;"
	 xmlns="http://www.w3.org/2000/svg" xmlns:xlink="http://www.w3.org/1999/xlink" x="0px" y="0px" width="48px" height="48px"
	 viewBox="0 0 48 48" enable-background="new 0 0 48 48" xml:space="preserve">
<metadata>
	<sfw  xmlns="&ns_sfw;">
		<slices></slices>
		<sliceSourceBounds  x="283.502" y="373.416" width="45.082" height="45.082" bottomLeftOrigin="true"></sliceSourceBounds>
	</sfw>
</metadata>
<path id="danger-3-icon_1_" fill="#848778" d="M27.923,18.558l5.099-8.831c5.07,2.934,8.479,8.412,8.479,14.688H31.311
	C31.311,21.915,29.943,19.73,27.923,18.558z M21.159,30.271l-5.098,8.832c2.496,1.44,5.391,2.27,8.482,2.27
	c3.088,0,5.984-0.828,8.477-2.27l-5.098-8.832C25.876,31.456,23.299,31.509,21.159,30.271z M21.161,18.558l-5.1-8.831
	c-5.066,2.934-8.475,8.412-8.475,14.688h10.189C17.776,21.915,19.14,19.73,21.161,18.558z M24.542,29.078
	c2.576,0,4.662-2.092,4.662-4.664c0-2.577-2.086-4.659-4.662-4.659c-2.573,0-4.664,2.082-4.664,4.659
	C19.878,26.986,21.968,29.078,24.542,29.078z"/>
<circle fill="none" stroke="#848778" stroke-width="2.5" stroke-miterlimit="10" cx="24.543" cy="24.543" r="21.291"/>
</svg>
