<?xml version="1.0" encoding="utf-8"?>
<!-- Generator: Adobe Illustrator 15.0.0, SVG Export Plug-In . SVG Version: 6.00 Build 0)  -->
<!DOCTYPE svg PUBLIC "-//W3C//DTD SVG 1.1//EN" "http://www.w3.org/Graphics/SVG/1.1/DTD/svg11.dtd" [
	<!ENTITY ns_extend "http://ns.adobe.com/Extensibility/1.0/">
	<!ENTITY ns_ai "http://ns.adobe.com/AdobeIllustrator/10.0/">
	<!ENTITY ns_graphs "http://ns.adobe.com/Graphs/1.0/">
	<!ENTITY ns_vars "http://ns.adobe.com/Variables/1.0/">
	<!ENTITY ns_imrep "http://ns.adobe.com/ImageReplacement/1.0/">
	<!ENTITY ns_sfw "http://ns.adobe.com/SaveForWeb/1.0/">
	<!ENTITY ns_custom "http://ns.adobe.com/GenericCustomNamespace/1.0/">
	<!ENTITY ns_adobe_xpath "http://ns.adobe.com/XPath/1.0/">
]>
<svg version="1.1" id="Layer_1" xmlns:x="&ns_extend;" xmlns:i="&ns_ai;" xmlns:graph="&ns_graphs;"
	 xmlns="http://www.w3.org/2000/svg" xmlns:xlink="http://www.w3.org/1999/xlink" x="0px" y="0px" width="48px" height="48px"
	 viewBox="0 0 48 48" enable-background="new 0 0 48 48" xml:space="preserve">
<metadata>
	<sfw  xmlns="&ns_sfw;">
		<slices></slices>
		<sliceSourceBounds  x="285.502" y="376.288" width="38.281" height="40.209" bottomLeftOrigin="true"></sliceSourceBounds>
	</sfw>
</metadata>
<g>
	<g>
		<path fill="#848778" d="M41.771,19.485c0.354-0.421,0.576-1.211,0.496-1.755L40.376,4.966c-0.08-0.544-0.597-0.977-1.146-0.962
			L26.324,4.357c-0.55,0.015-1.288,0.372-1.643,0.793L4.236,29.52c-0.354,0.42-0.298,1.055,0.124,1.407L19.915,43.98
			c0.422,0.354,1.056,0.297,1.409-0.123L41.771,19.485z M31.814,14.005c-1.459-1.225-1.65-3.4-0.427-4.86
			c1.226-1.457,3.399-1.648,4.859-0.424c1.457,1.224,1.647,3.399,0.424,4.857C35.445,15.038,33.271,15.23,31.814,14.005z"/>
	</g>
</g>
</svg>
