<?xml version="1.0" encoding="utf-8"?>
<!-- Generator: Adobe Illustrator 15.0.0, SVG Export Plug-In . SVG Version: 6.00 Build 0)  -->
<!DOCTYPE svg PUBLIC "-//W3C//DTD SVG 1.1//EN" "http://www.w3.org/Graphics/SVG/1.1/DTD/svg11.dtd" [
	<!ENTITY ns_extend "http://ns.adobe.com/Extensibility/1.0/">
	<!ENTITY ns_ai "http://ns.adobe.com/AdobeIllustrator/10.0/">
	<!ENTITY ns_graphs "http://ns.adobe.com/Graphs/1.0/">
	<!ENTITY ns_vars "http://ns.adobe.com/Variables/1.0/">
	<!ENTITY ns_imrep "http://ns.adobe.com/ImageReplacement/1.0/">
	<!ENTITY ns_sfw "http://ns.adobe.com/SaveForWeb/1.0/">
	<!ENTITY ns_custom "http://ns.adobe.com/GenericCustomNamespace/1.0/">
	<!ENTITY ns_adobe_xpath "http://ns.adobe.com/XPath/1.0/">
]>
<svg version="1.1" id="Layer_1" xmlns:x="&ns_extend;" xmlns:i="&ns_ai;" xmlns:graph="&ns_graphs;"
	 xmlns="http://www.w3.org/2000/svg" xmlns:xlink="http://www.w3.org/1999/xlink" x="0px" y="0px" width="65.003px" height="48px"
	 viewBox="0 0 65.003 48" enable-background="new 0 0 65.003 48" xml:space="preserve">
<metadata>
	<sfw  xmlns="&ns_sfw;">
		<slices></slices>
		<sliceSourceBounds  x="329.375" y="412.331" width="61.627" height="40.69" bottomLeftOrigin="true"></sliceSourceBounds>
	</sfw>
</metadata>
<polygon fill="#CFF219" points="16.124,38.715 6.342,24.839 16.124,10.96 12.157,10.96 2.376,24.839 12.157,38.715 "/>
<path fill="#CFF219" d="M27.372,30.673c-2.516-2.229-6.672-2.789-8.479-2.276c2.96,5.977,3.586,11.646,7.545,14.539
	c8.388,5.399,32.506-9.127,37.552-1.791c0.399-13.227-8.673-15.272-9.904-15.731c-1.681-0.627-7.516-2.202-10.109-3.824
	c-4.227-2.249-7.053-6.022-4.49-18.111c-6.789,4.6-11.513,11.97-8.34,20.175c-2.748-1.607-10.154-2.287-14.437,1.39
	C18.893,25.318,25.6,26.254,27.372,30.673z"/>
<g>
	<path fill="#A7CD5F" d="M62.066,36.658c-3.605-5.146-8.123-5.391-13.3-5.667c-1.979-0.106-4.029-0.218-6.183-0.606
		c-4.004-0.725-8.737-3.631-10.289-8.485c-1.039-3.261-0.953-8.479,5.136-15.032c-1.707,11.119,1.179,14.527,7.761,17.453
		c1.35,0.513,2.745,0.928,4.102,1.33C54.906,27.32,60.224,28.904,62.066,36.658z"/>
	<path fill="#BAE24B" d="M37.022,7.735c-1.438,10.577,1.524,13.938,8.056,16.84l0.016,0.005l0.017,0.007
		c1.343,0.511,2.745,0.929,4.104,1.331c5.18,1.542,10.102,3.007,12.195,9.423c-3.521-4.139-7.791-4.368-12.627-4.629
		c-1.974-0.106-4.013-0.217-6.146-0.603c-3.927-0.709-8.562-3.551-10.074-8.296C31.583,18.737,31.634,13.871,37.022,7.735
		 M37.853,6.021c-12.67,12.966-3.811,23.102,4.686,24.639c8.234,1.488,15.14-1.069,20.099,7.4
		c-1.888-11.317-10.293-11.324-17.33-13.999C38.597,21.083,35.873,17.729,37.853,6.021L37.853,6.021z"/>
</g>
<g>
	<path fill="#A7CD5F" d="M39.451,37.42c-2.99,0-3.844-0.445-4.302-0.688c-0.096-0.049-0.178-0.092-0.26-0.123
		c-3.013-1.229-4.532-4.125-5.538-6.041c-0.204-0.389-0.38-0.726-0.548-1.01c-0.942-1.601-3.19-4.266-7.959-5.17
		c1.362-0.305,2.685-0.459,3.944-0.459c6.096,0,9.612,3.553,11.713,5.674c0.459,0.465,0.854,0.862,1.194,1.142
		c3.837,3.116,9.966,4.806,17.75,4.897C48.298,36.822,42.927,37.42,39.451,37.42L39.451,37.42z"/>
	<path fill="#BAE24B" d="M24.789,24.208c5.979,0,9.444,3.502,11.515,5.594c0.465,0.472,0.867,0.876,1.217,1.16
		c3.406,2.765,8.576,4.421,15.082,4.853c-5.75,0.881-10.158,1.326-13.15,1.326c-2.92,0-3.731-0.426-4.172-0.65
		c-0.096-0.053-0.184-0.1-0.283-0.141c-2.916-1.187-4.408-4.029-5.396-5.91c-0.205-0.393-0.382-0.729-0.554-1.021
		c-0.88-1.485-2.855-3.877-6.854-5C23.08,24.278,23.949,24.208,24.789,24.208 M24.789,23.649c-1.604,0-3.383,0.242-5.354,0.815
		c5.565,0.593,8.125,3.538,9.127,5.237c1.016,1.722,2.512,5.654,6.225,7.165c0.49,0.2,1.071,0.832,4.664,0.832
		c3.271,0,9.033-0.523,19.493-2.371c-0.039-0.002-0.085-0.003-0.141-0.003c-0.438,0-1.392,0.041-2.679,0.041
		c-4.438,0-12.897-0.488-18.254-4.838C36.044,29.042,32.354,23.649,24.789,23.649L24.789,23.649z"/>
</g>
<g>
	<path fill="#A7CD5F" d="M32.021,42.614c-5.64,0-7.031-3.56-8.794-8.063c-0.598-1.525-1.213-3.102-2.045-4.658
		c3.237,0.185,4.81,1.733,6.618,3.521c2.208,2.18,4.712,4.648,10.796,5.316c0.715,0.08,1.569,0.117,2.553,0.117
		c4.246,0,10.054-0.72,14.113-1.261c-12.556,3.274-18.66,4.392-21.746,4.952C33.011,42.587,32.5,42.614,32.021,42.614z"/>
	<path fill="#BAE24B" d="M21.662,30.212c2.792,0.29,4.201,1.681,5.939,3.396c2.241,2.217,4.781,4.725,10.962,5.4
		c0.726,0.079,1.595,0.12,2.584,0.12c2.877,0,6.467-0.33,9.744-0.71c-9.657,2.425-14.688,3.346-17.401,3.84
		c-0.513,0.051-1.008,0.076-1.47,0.076c-5.448,0-6.812-3.48-8.533-7.886C22.944,33.061,22.385,31.634,21.662,30.212 M20.7,29.598
		c3.522,6.264,3.354,13.295,11.32,13.295c0.485,0,0.998-0.022,1.546-0.078c3.446-0.629,10.653-1.955,25.887-6.047
		c-1.89,0.153-11.941,1.801-18.306,1.801c-0.933,0-1.785-0.031-2.521-0.112C27.365,37.215,28.563,29.702,20.7,29.598L20.7,29.598z"
		/>
</g>
</svg>
