<?xml version="1.0" encoding="utf-8"?>
<!-- Generator: Adobe Illustrator 15.0.0, SVG Export Plug-In  -->
<!DOCTYPE svg PUBLIC "-//W3C//DTD SVG 1.1//EN" "http://www.w3.org/Graphics/SVG/1.1/DTD/svg11.dtd" [
	<!ENTITY ns_flows "http://ns.adobe.com/Flows/1.0/">
]>
<svg version="1.1"
	 xmlns="http://www.w3.org/2000/svg" xmlns:xlink="http://www.w3.org/1999/xlink" xmlns:a="http://ns.adobe.com/AdobeSVGViewerExtensions/3.0/"
	 x="0px" y="0px" width="200px" height="200px" viewBox="-36.069 -0.751 200 200"
	 overflow="visible" enable-background="new -36.069 -0.751 200 200" xml:space="preserve">
<defs>
</defs>
<polygon fill="#CECECC" stroke="#92938D" stroke-width="0.5" stroke-miterlimit="10" points="73.874,137.896 53.993,137.896 
	53.993,168.52 41.769,168.52 63.93,196.416 86.097,168.52 73.874,168.52 "/>
<path id="android-os-3-icon_1_" fill="#CECECC" stroke="#92938D" stroke-width="0.5" stroke-miterlimit="10" d="M54.46,35.459
	c0,1.178-0.96,2.136-2.144,2.137c-1.174-0.003-2.132-0.958-2.132-2.137c0.001-1.175,0.955-2.141,2.133-2.141
	C53.502,33.318,54.458,34.285,54.46,35.459z M75.543,33.312c-1.182,0.003-2.136,0.971-2.14,2.143c0,1.183,0.959,2.139,2.139,2.138
	c1.18,0,2.138-0.957,2.135-2.137C77.677,34.281,76.716,33.315,75.543,33.312z M127.616,15.707v96.452
	c0,8.536-6.921,15.457-15.457,15.457H15.707c-8.537,0-15.457-6.921-15.457-15.457V15.707C0.25,7.17,7.17,0.25,15.707,0.25h96.452
	C120.695,0.25,127.616,7.17,127.616,15.707z M38.627,46.836l50.623-0.005c0.001-8.758-5.064-16.371-12.821-20.388l3.951-7.216
	c0.212-0.377,0.072-0.858-0.31-1.071c-0.386-0.204-0.861-0.065-1.065,0.315l-3.992,7.292c-7.02-3.122-15.228-3.092-22.164-0.011
	l-3.996-7.273c-0.208-0.384-0.686-0.523-1.063-0.314c-0.385,0.207-0.525,0.688-0.312,1.063l3.955,7.212
	C43.663,30.449,38.623,38.077,38.627,46.836z M36.433,53.396c-0.001-3.123-2.539-5.661-5.666-5.658
	c-3.127-0.002-5.661,2.537-5.662,5.66l0.005,23.712c0,3.135,2.536,5.665,5.662,5.664c3.129,0,5.664-2.531,5.66-5.664V53.396
	L36.433,53.396z M89.256,85.544L89.25,48.798l-50.624,0.008l0.008,36.746c-0.002,3.342,2.701,6.041,6.042,6.041l4.118,0.001v12.546
	c0,3.124,2.539,5.663,5.659,5.663c3.128,0,5.663-2.541,5.664-5.667V91.593l7.645-0.001v12.545c-0.001,3.122,2.54,5.666,5.661,5.66
	c3.128,0.002,5.66-2.539,5.66-5.666V91.59l4.129-0.002C86.545,91.589,89.255,88.888,89.256,85.544z M102.761,77.102l-0.003-23.712
	c-0.001-3.126-2.535-5.662-5.663-5.661c-3.126-0.002-5.661,2.537-5.66,5.664l0.003,23.711c0,3.131,2.533,5.661,5.664,5.661
	C100.228,82.766,102.761,80.235,102.761,77.102z"/>
</svg>
