<?xml version="1.0" encoding="utf-8"?>
<!-- Generator: Adobe Illustrator 15.0.0, SVG Export Plug-In  -->
<!DOCTYPE svg PUBLIC "-//W3C//DTD SVG 1.1//EN" "http://www.w3.org/Graphics/SVG/1.1/DTD/svg11.dtd" [
	<!ENTITY ns_flows "http://ns.adobe.com/Flows/1.0/">
]>
<svg version="1.1"
	 xmlns="http://www.w3.org/2000/svg" xmlns:xlink="http://www.w3.org/1999/xlink" xmlns:a="http://ns.adobe.com/AdobeSVGViewerExtensions/3.0/"
	 x="0px" y="0px" width="200px" height="200px" viewBox="-20.426 -2.102 200 200"
	 overflow="visible" enable-background="new -20.426 -2.102 200 200" xml:space="preserve">
<defs>
</defs>
<polygon fill="#CECECC" points="111.161,0.604 111.161,48.137 158.692,48.135 "/>
<path fill="#92938D" d="M110.911,48.387V0l48.385,48.385L110.911,48.387z M111.411,1.207v46.68l46.678-0.002L111.411,1.207z"/>
<path fill="#CECECC" d="M98.631,60.667V0.46H0.25v194.875h158.624V60.667H98.631z M113.441,167.132
	c-14.513,9.112-33.735,4.72-42.846-9.793l-38.56-61.408c-6.772-10.787-3.509-25.071,7.277-31.844
	c10.786-6.771,25.071-3.508,31.846,7.279l29.284,46.645c4.409,7.023,2.284,16.324-4.74,20.735
	c-7.02,4.409-16.322,2.283-20.733-4.743l-22.688-36.13l9.175-5.763l22.688,36.132c1.232,1.965,3.832,2.559,5.799,1.327
	c1.965-1.234,2.557-3.833,1.323-5.799L61.979,77.128c-3.594-5.727-11.176-7.459-16.904-3.864
	c-5.726,3.595-7.459,11.178-3.864,16.904l38.56,61.408c5.935,9.453,18.453,12.315,27.907,6.379
	c9.454-5.937,12.315-18.455,6.379-27.908L74.802,67.529l9.178-5.761l39.257,62.516C132.348,138.798,127.952,158.02,113.441,167.132z
	"/>
<path fill="#92938D" d="M159.124,195.585H0V0.21h98.881v60.207h60.243V195.585z M0.5,195.085h158.124V60.917H98.381V0.71H0.5
	V195.085z M96.965,172.132c-10.882,0-20.818-5.481-26.581-14.661l-38.56-61.408c-6.846-10.903-3.545-25.343,7.356-32.188
	c3.719-2.334,7.999-3.568,12.379-3.568c8.108,0,15.515,4.084,19.812,10.926l29.284,46.645c4.482,7.14,2.32,16.596-4.819,21.08
	c-2.434,1.528-5.235,2.336-8.103,2.336c-5.311,0-10.161-2.676-12.976-7.159l-22.82-36.341l9.599-6.029l0.133,0.212l22.688,36.132
	c0.728,1.16,1.981,1.852,3.356,1.852c0.741,0,1.467-0.209,2.098-0.604c1.846-1.159,2.404-3.606,1.244-5.454L61.768,77.261
	c-2.209-3.52-6.018-5.621-10.189-5.621c-2.253,0-4.456,0.635-6.37,1.836c-5.608,3.521-7.307,10.95-3.785,16.559l38.56,61.408
	c3.678,5.859,10.02,9.356,16.963,9.356c3.75,0,7.415-1.057,10.6-3.056c9.336-5.863,12.162-18.228,6.3-27.563l-39.388-62.73
	l9.602-6.027l0.133,0.212l39.257,62.516c9.185,14.63,4.755,34.006-9.874,43.192C108.585,170.476,102.842,172.132,96.965,172.132z
	 M51.56,60.807c-4.286,0-8.475,1.208-12.113,3.492c-10.668,6.699-13.897,20.829-7.198,31.499l38.56,61.408
	c5.671,9.033,15.449,14.427,26.157,14.427c5.782,0,11.434-1.629,16.344-4.712c14.396-9.039,18.754-28.106,9.716-42.503L83.9,62.113
	l-8.754,5.495l39.122,62.307c6.009,9.569,3.112,22.243-6.458,28.253c-3.264,2.049-7.021,3.132-10.865,3.132
	c-7.116,0-13.616-3.585-17.387-9.591l-38.56-61.408c-3.668-5.842-1.898-13.58,3.943-17.249c1.994-1.251,4.288-1.913,6.636-1.913
	c4.345,0,8.312,2.189,10.613,5.855l29.287,46.642c1.306,2.082,0.677,4.837-1.402,6.144c-0.711,0.445-1.527,0.681-2.363,0.681
	c-1.548,0-2.961-0.78-3.78-2.086l-22.555-35.92l-8.751,5.497l22.555,35.918c2.722,4.336,7.414,6.924,12.552,6.924
	c2.773,0,5.483-0.782,7.837-2.26c6.906-4.337,8.997-13.484,4.661-20.391L70.947,71.499C66.743,64.804,59.495,60.807,51.56,60.807z"
	/>
</svg>
