<?xml version="1.0" encoding="utf-8"?>
<!-- Generator: Adobe Illustrator 15.0.0, SVG Export Plug-In  -->
<!DOCTYPE svg PUBLIC "-//W3C//DTD SVG 1.1//EN" "http://www.w3.org/Graphics/SVG/1.1/DTD/svg11.dtd" [
	<!ENTITY ns_flows "http://ns.adobe.com/Flows/1.0/">
]>
<svg version="1.1"
	 xmlns="http://www.w3.org/2000/svg" xmlns:xlink="http://www.w3.org/1999/xlink" xmlns:a="http://ns.adobe.com/AdobeSVGViewerExtensions/3.0/"
	 x="0px" y="0px" width="60px" height="60px" viewBox="-0.445 -1.368 60 60"
	 overflow="visible" enable-background="new -0.445 -1.368 60 60" xml:space="preserve">
<defs>
</defs>
<path fill="#CECECC" d="M8.098,28.629c0-4.683,1.547-9.165,4.397-12.831l8.37,8.374L23.174,1.1L0.105,3.411l6.968,6.966
	C2.805,15.51,0.45,21.91,0.453,28.632c0,15.76,12.822,28.586,28.584,28.586V49.57C17.492,49.57,8.098,40.174,8.098,28.629z"/>
<path fill="#92938D" d="M29.084,57.265h-0.047c-15.787,0-28.632-12.845-28.632-28.633C0.403,22,2.747,15.52,7.009,10.38L0,3.374
	l0.1-0.01l23.126-2.316l-0.005,0.057l-2.318,23.172l-0.071-0.072L12.5,15.87c-2.849,3.683-4.355,8.094-4.355,12.759
	c0,11.521,9.372,20.893,20.892,20.893h0.047V57.265z M0.209,3.448l6.928,6.926l-0.028,0.034C2.844,15.536,0.497,22.007,0.5,28.632
	c0,15.721,12.776,28.514,28.49,28.538v-7.554c-11.551-0.025-20.939-9.43-20.939-20.988c0-4.705,1.524-9.151,4.408-12.859
	l0.033-0.043l8.337,8.34l2.292-22.914L0.209,3.448z"/>
<path fill="#CECECC" d="M38.243,32.322l-2.308,23.074l23.069-2.314l-7.192-7.19c3.753-4.956,5.813-10.997,5.813-17.259
	c0-15.766-12.823-28.585-28.589-28.585v7.647c11.549,0,20.939,9.392,20.939,20.938c0,4.232-1.297,8.318-3.647,11.775L38.243,32.322z
	"/>
<path fill="#92938D" d="M35.883,55.45l0.006-0.058l2.317-23.175l0.07,0.071l8.046,8.045c2.359-3.49,3.607-7.535,3.607-11.701
	c0-11.519-9.373-20.891-20.893-20.891H28.99V0h0.047c15.79,0,28.637,12.844,28.637,28.632c0,6.266-2.006,12.231-5.799,17.254
	l7.234,7.232l-0.1,0.01L35.883,55.45z M38.28,32.427l-2.292,22.916L58.9,53.044l-7.151-7.148l0.024-0.033
	c3.798-5.014,5.805-10.972,5.805-17.23c0-15.72-12.777-28.513-28.494-28.538v7.553c11.551,0.025,20.94,9.43,20.94,20.985
	c0,4.203-1.265,8.285-3.656,11.803l-0.032,0.047L38.28,32.427z"/>
</svg>
