<?xml version="1.0" encoding="utf-8"?>
<!-- Generator: Adobe Illustrator 15.0.0, SVG Export Plug-In . SVG Version: 6.00 Build 0)  -->
<!DOCTYPE svg PUBLIC "-//W3C//DTD SVG 1.1//EN" "http://www.w3.org/Graphics/SVG/1.1/DTD/svg11.dtd" [
	<!ENTITY ns_extend "http://ns.adobe.com/Extensibility/1.0/">
	<!ENTITY ns_ai "http://ns.adobe.com/AdobeIllustrator/10.0/">
	<!ENTITY ns_graphs "http://ns.adobe.com/Graphs/1.0/">
	<!ENTITY ns_vars "http://ns.adobe.com/Variables/1.0/">
	<!ENTITY ns_imrep "http://ns.adobe.com/ImageReplacement/1.0/">
	<!ENTITY ns_sfw "http://ns.adobe.com/SaveForWeb/1.0/">
	<!ENTITY ns_custom "http://ns.adobe.com/GenericCustomNamespace/1.0/">
	<!ENTITY ns_adobe_xpath "http://ns.adobe.com/XPath/1.0/">
]>
<svg version="1.1" id="Layer_1" xmlns:x="&ns_extend;" xmlns:i="&ns_ai;" xmlns:graph="&ns_graphs;"
	 xmlns="http://www.w3.org/2000/svg" xmlns:xlink="http://www.w3.org/1999/xlink" x="0px" y="0px" width="38px" height="38px"
	 viewBox="0 0 38 38" enable-background="new 0 0 38 38" xml:space="preserve">
<metadata>
	<sfw  xmlns="&ns_sfw;">
		<slices></slices>
		<sliceSourceBounds  y="181.74" x="285.965" height="37.76" width="27.07" bottomLeftOrigin="true"></sliceSourceBounds>
	</sfw>
</metadata>
<path fill="#A4A59B" d="M19,0C11.535,0,5.462,4.809,5.465,10.725c0,5.001,4.341,9.198,10.19,10.382v2.621
	c2.138,0.549,4.537,0.556,6.688,0.004v-2.625c5.851-1.185,10.192-5.381,10.192-10.382C32.538,4.809,26.464,0,19,0z M18.999,15.001
	c-3.646,0-6.849-1.998-6.849-4.276c0-2.276,3.203-4.275,6.85-4.275c3.648,0,6.852,1.999,6.852,4.275
	C25.852,13.003,22.65,15.001,18.999,15.001z"/>
<path fill="#A4A59B" d="M19.001,23.941c-1.145,0-2.262-0.146-3.344-0.395l-0.002,4.357H8.68v3.869h6.978l-0.002,2.111L8.68,33.889
	v3.871l6.976-0.003l3.345,0.003h3.343V23.551C21.262,23.797,20.146,23.941,19.001,23.941z"/>
</svg>
