<?xml version="1.0" encoding="utf-8"?>
<!-- Generator: Adobe Illustrator 15.0.0, SVG Export Plug-In  -->
<!DOCTYPE svg PUBLIC "-//W3C//DTD SVG 1.1//EN" "http://www.w3.org/Graphics/SVG/1.1/DTD/svg11.dtd" [
	<!ENTITY ns_flows "http://ns.adobe.com/Flows/1.0/">
]>
<svg version="1.1"
	 xmlns="http://www.w3.org/2000/svg" xmlns:xlink="http://www.w3.org/1999/xlink" xmlns:a="http://ns.adobe.com/AdobeSVGViewerExtensions/3.0/"
	 x="0px" y="0px" width="60px" height="60px" viewBox="-0.907 -0.907 60 60"
	 overflow="visible" enable-background="new -0.907 -0.907 60 60" xml:space="preserve">
<defs>
</defs>
<path fill="#CECECC" d="M37.898,56.772c-2.778,0.886-5.737,1.363-8.806,1.363c-16.015,0-29.043-13.028-29.043-29.043
	c0-10.219,5.306-19.224,13.308-24.402l3.722,7.135C11.624,15.632,8.05,21.952,8.05,29.093c0,11.604,9.439,21.043,21.043,21.043
	c1.838,0,3.623-0.236,5.324-0.682L37.898,56.772z M39.806,47.198c6.18-3.67,10.33-10.412,10.33-18.105
	c0-11.603-9.44-21.043-21.043-21.043c-2.418,0-4.741,0.41-6.905,1.164l-3.4-7.275c3.204-1.221,6.678-1.889,10.306-1.889
	c16.014,0,29.043,13.029,29.043,29.043c0,10.889-6.022,20.396-14.91,25.367L39.806,47.198z"/>
<path fill="#92938D" d="M29.093,58.186C13.051,58.186,0,45.135,0,29.093c0-9.904,4.983-19.042,13.33-24.444l0.046-0.03l0.025,0.049
	l3.742,7.174l-0.036,0.025C11.467,15.802,8.1,22.242,8.1,29.093c0,11.575,9.418,20.993,20.993,20.993
	c1.801,0,3.588-0.229,5.312-0.681l0.04-0.01l0.018,0.037l3.506,7.37l-0.054,0.018C35.071,57.727,32.104,58.186,29.093,58.186z
	 M13.339,4.763C5.048,10.149,0.1,19.241,0.1,29.093c0,15.986,13.007,28.993,28.993,28.993c2.981,0,5.92-0.452,8.736-1.344
	l-3.439-7.229c-1.72,0.446-3.502,0.673-5.297,0.673C17.462,50.186,8,40.724,8,29.093c0-6.869,3.369-13.326,9.015-17.283
	L13.339,4.763z M43.203,54.529l-0.022-0.048l-3.439-7.303l0.039-0.023c6.356-3.775,10.306-10.696,10.306-18.062
	c0-11.575-9.418-20.993-20.993-20.993c-2.359,0-4.677,0.391-6.889,1.161l-0.043,0.016l-0.019-0.041l-3.424-7.324l0.051-0.02
	C22.064,0.637,25.538,0,29.093,0c16.042,0,29.093,13.051,29.093,29.093c0,10.521-5.723,20.258-14.936,25.411L43.203,54.529z
	 M39.87,47.218l3.378,7.172c9.153-5.143,14.838-14.83,14.838-25.297C58.086,13.106,45.079,0.1,29.093,0.1
	c-3.524,0-6.969,0.628-10.237,1.866l3.358,7.186C24.423,8.388,26.737,8,29.093,8c11.631,0,21.093,9.462,21.093,21.093
	c0,3.722-0.987,7.383-2.854,10.587C45.527,42.775,42.947,45.382,39.87,47.218z"/>
</svg>
