<?xml version="1.0" encoding="utf-8"?>
<!-- Generator: Adobe Illustrator 15.0.0, SVG Export Plug-In . SVG Version: 6.00 Build 0)  -->
<!DOCTYPE svg PUBLIC "-//W3C//DTD SVG 1.1//EN" "http://www.w3.org/Graphics/SVG/1.1/DTD/svg11.dtd" [
	<!ENTITY ns_extend "http://ns.adobe.com/Extensibility/1.0/">
	<!ENTITY ns_ai "http://ns.adobe.com/AdobeIllustrator/10.0/">
	<!ENTITY ns_graphs "http://ns.adobe.com/Graphs/1.0/">
	<!ENTITY ns_vars "http://ns.adobe.com/Variables/1.0/">
	<!ENTITY ns_imrep "http://ns.adobe.com/ImageReplacement/1.0/">
	<!ENTITY ns_sfw "http://ns.adobe.com/SaveForWeb/1.0/">
	<!ENTITY ns_custom "http://ns.adobe.com/GenericCustomNamespace/1.0/">
	<!ENTITY ns_adobe_xpath "http://ns.adobe.com/XPath/1.0/">
]>
<svg version="1.1" id="Layer_1" xmlns:x="&ns_extend;" xmlns:i="&ns_ai;" xmlns:graph="&ns_graphs;"
	 xmlns="http://www.w3.org/2000/svg" xmlns:xlink="http://www.w3.org/1999/xlink" x="0px" y="0px" width="48px" height="48px"
	 viewBox="0 0 48 48" enable-background="new 0 0 48 48" xml:space="preserve">
<metadata>
	<sfw  xmlns="&ns_sfw;">
		<slices></slices>
		<sliceSourceBounds  x="141.742" y="143.3" width="35.516" height="34.474" bottomLeftOrigin="true"></sliceSourceBounds>
	</sfw>
</metadata>
<path fill="#FFFFFF" d="M11.062,23.962c0-2.823,0.933-5.525,2.651-7.737l5.046,5.05l1.395-13.912L6.242,8.756l4.201,4.2
	C7.869,16.051,6.45,19.91,6.451,23.964c0,9.502,7.731,17.237,17.236,17.237V36.59C16.727,36.588,11.062,30.924,11.062,23.962z"/>
<path fill="#FFFFFF" d="M29.24,26.187l-1.393,13.915l13.91-1.396l-4.337-4.336c2.264-2.988,3.507-6.629,3.507-10.406
	c0-9.507-7.733-17.236-17.24-17.236v4.61c6.964,0,12.627,5.662,12.627,12.627c0,2.551-0.781,5.016-2.199,7.1L29.24,26.187z"/>
</svg>
