<?xml version="1.0" encoding="utf-8"?>
<!-- Generator: Adobe Illustrator 15.0.0, SVG Export Plug-In . SVG Version: 6.00 Build 0)  -->
<!DOCTYPE svg PUBLIC "-//W3C//DTD SVG 1.1//EN" "http://www.w3.org/Graphics/SVG/1.1/DTD/svg11.dtd" [
	<!ENTITY ns_extend "http://ns.adobe.com/Extensibility/1.0/">
	<!ENTITY ns_ai "http://ns.adobe.com/AdobeIllustrator/10.0/">
	<!ENTITY ns_graphs "http://ns.adobe.com/Graphs/1.0/">
	<!ENTITY ns_vars "http://ns.adobe.com/Variables/1.0/">
	<!ENTITY ns_imrep "http://ns.adobe.com/ImageReplacement/1.0/">
	<!ENTITY ns_sfw "http://ns.adobe.com/SaveForWeb/1.0/">
	<!ENTITY ns_custom "http://ns.adobe.com/GenericCustomNamespace/1.0/">
	<!ENTITY ns_adobe_xpath "http://ns.adobe.com/XPath/1.0/">
]>
<svg version="1.1" id="Layer_1" xmlns:x="&ns_extend;" xmlns:i="&ns_ai;" xmlns:graph="&ns_graphs;"
	 xmlns="http://www.w3.org/2000/svg" xmlns:xlink="http://www.w3.org/1999/xlink" x="0px" y="0px" width="36px" height="36px"
	 viewBox="0 0 36 36" enable-background="new 0 0 36 36" xml:space="preserve">
<metadata>
	<sfw  xmlns="&ns_sfw;">
		<slices></slices>
		<sliceSourceBounds  x="221.5" y="383.571" width="36" height="34.943" bottomLeftOrigin="true"></sliceSourceBounds>
	</sfw>
</metadata>
<path fill="#A4A59B" d="M4.885,17.455c0-2.861,0.946-5.601,2.688-7.841l5.115,5.117L14.1,0.629L0,2.042L4.259,6.3
	C1.65,9.438,0.212,13.35,0.213,17.457c0,9.634,7.836,17.472,17.471,17.472v-4.674C10.627,30.253,4.885,24.512,4.885,17.455z"/>
<path fill="#A4A59B" d="M23.311,19.712l-1.411,14.104L36,32.4l-4.396-4.396c2.293-3.027,3.552-6.72,3.552-10.548
	c0-9.636-7.837-17.472-17.474-17.472v4.674c7.059,0,12.8,5.74,12.8,12.798c0,2.588-0.793,5.086-2.229,7.196L23.311,19.712z"/>
</svg>
