<?xml version="1.0" encoding="utf-8"?>
<!-- Generator: Adobe Illustrator 18.1.1, SVG Export Plug-In . SVG Version: 6.00 Build 0)  -->
<svg version="1.1" id="Layer_1" xmlns="http://www.w3.org/2000/svg" xmlns:xlink="http://www.w3.org/1999/xlink" x="0px" y="0px"
	 viewBox="0 0 96 96" enable-background="new 0 0 96 96" xml:space="preserve">
<g>
	<g>
		<polygon fill="#A31837" points="14.9,16.2 21.5,35.1 25.8,21.2 		"/>
		<g>
			<path fill="#A31837" d="M58.2,42.3C58.2,42.4,58.2,42.4,58.2,42.3c0.7,7.3-2.6,14.5-9.6,20.9c-4.6,4.2-9.4,6.8-10.5,7.4L38,70.7
				l9,19.1c0.7,0,1.4,0.1,2,0.1c19.6,0,35.6-16,35.6-35.6c0-3.9-0.6-7.8-1.9-11.5c0-0.1-0.1-0.2-0.1-0.3c-0.1-0.4-0.3-0.9-0.5-1.3
				l0,0c-0.9-2.2-1.9-4.2-3.2-6.2l0,0c-0.2-0.4-0.5-0.8-0.8-1.1l0,0c-0.3-0.4-0.5-0.7-0.8-1.1l0,0c-0.3-0.4-0.5-0.7-0.8-1.1l0,0
				c-0.3-0.4-0.6-0.7-0.9-1l0,0c-0.3-0.3-0.6-0.7-0.9-1c0,0,0,0,0,0c-0.3-0.3-0.6-0.6-0.9-0.9c0,0,0,0,0,0c-0.3-0.3-0.6-0.6-1-0.9
				l0,0c-0.3-0.3-0.7-0.6-1-0.9l0,0c-0.3-0.3-0.7-0.6-1-0.8l0,0"/>
		</g>
	</g>
	<path fill="#F92A2E" d="M49.1,18.6c-3,0-6,0.4-8.8,1.1l-0.8,0.2l-7-13.6l-21.3,69c0.6,1.7,2.9,4.1,6.2,5.8
		c2.2,1.1,6.6,2.7,11.5,1.1L36.7,69l0.3-0.1c0.1,0,5.3-2.6,10.3-7.2c6.6-6.1,9.6-12.5,9-19.2c0,0,2-0.1,2-0.1l24.4,0
		C77.7,28.2,64.2,18.6,49.1,18.6z"/>
</g>
</svg>
