<?xml version="1.0" encoding="utf-8"?>
<!-- Generator: Adobe Illustrator 15.0.0, SVG Export Plug-In . SVG Version: 6.00 Build 0)  -->
<!DOCTYPE svg PUBLIC "-//W3C//DTD SVG 1.1//EN" "http://www.w3.org/Graphics/SVG/1.1/DTD/svg11.dtd" [
	<!ENTITY ns_extend "http://ns.adobe.com/Extensibility/1.0/">
	<!ENTITY ns_ai "http://ns.adobe.com/AdobeIllustrator/10.0/">
	<!ENTITY ns_graphs "http://ns.adobe.com/Graphs/1.0/">
	<!ENTITY ns_vars "http://ns.adobe.com/Variables/1.0/">
	<!ENTITY ns_imrep "http://ns.adobe.com/ImageReplacement/1.0/">
	<!ENTITY ns_sfw "http://ns.adobe.com/SaveForWeb/1.0/">
	<!ENTITY ns_custom "http://ns.adobe.com/GenericCustomNamespace/1.0/">
	<!ENTITY ns_adobe_xpath "http://ns.adobe.com/XPath/1.0/">
]>
<svg version="1.1" id="Layer_1" xmlns:x="&ns_extend;" xmlns:i="&ns_ai;" xmlns:graph="&ns_graphs;"
	 xmlns="http://www.w3.org/2000/svg" xmlns:xlink="http://www.w3.org/1999/xlink" x="0px" y="0px" width="377.781px"
	 height="285.979px" viewBox="0 0 377.781 285.979" enable-background="new 0 0 377.781 285.979" xml:space="preserve">
<metadata>
	<sfw  xmlns="&ns_sfw;">
		<slices></slices>
		<sliceSourceBounds  height="8049.785" width="8186.016" y="-72.296" x="-8037.391" bottomLeftOrigin="true"></sliceSourceBounds>
	</sfw>
</metadata>
<g opacity="0.72">
	<g opacity="0.26">
	</g>
</g>
<g>
	<g>
		<polygon fill="#A31837" points="100.953,43.653 119.653,97.588 131.884,58.018 		"/>
		<g>
			<path fill="none" d="M150.896,15.543L90.064,212.448c1.812,4.716,8.235,11.623,17.67,16.41
				c6.312,3.201,18.874,7.779,32.974,3.063l20.472-34.235L169.65,51.64L150.896,15.543z"/>
			<path fill="#A31837" d="M193.398,173.477c18.82-17.273,27.413-35.701,25.536-54.771l5.605-0.552
				c0.008,0.093,0.013,0.184,0.021,0.277c1.924,20.578-7.565,41.075-27.46,59.292c-13.191,12.078-26.666,19.338-30.009,21.05
				l-0.171,0.286l25.705,54.563c1.928,0.107,3.871,0.163,5.798,0.163c56.018,0,101.591-45.574,101.591-101.593
				c0-11.237-1.822-22.276-5.415-32.812c-0.104-0.308-0.216-0.611-0.325-0.917c-0.444-1.267-0.914-2.521-1.404-3.761
				c0-0.002-0.001-0.004-0.004-0.006c-2.463-6.215-5.502-12.092-9.04-17.578h-0.001c-0.708-1.098-1.435-2.179-2.181-3.243
				c-0.001-0.001-0.004-0.004-0.004-0.006c-0.746-1.062-1.511-2.11-2.294-3.142c-0.002-0.004-0.005-0.008-0.008-0.01
				c-0.781-1.03-1.583-2.041-2.4-3.036c-0.006-0.008-0.011-0.013-0.016-0.02c-0.818-0.993-1.652-1.969-2.503-2.928
				c-0.009-0.009-0.016-0.017-0.023-0.026c-0.851-0.956-1.718-1.895-2.603-2.816c-0.01-0.011-0.021-0.021-0.031-0.032
				c-0.88-0.918-1.779-1.819-2.693-2.704c-0.015-0.013-0.029-0.026-0.042-0.039c-0.912-0.88-1.839-1.744-2.783-2.588
				c-0.018-0.017-0.035-0.031-0.053-0.047c-0.94-0.841-1.896-1.664-2.867-2.469c-0.021-0.019-0.043-0.036-0.065-0.055
				c-0.967-0.801-1.948-1.584-2.945-2.349c-0.024-0.02-0.052-0.039-0.077-0.06c-0.993-0.76-2.002-1.503-3.023-2.229
				c-0.028-0.021-0.06-0.041-0.09-0.062c-1.018-0.722-2.05-1.423-3.093-2.104c-0.035-0.022-0.069-0.045-0.105-0.068
				c-1.041-0.678-2.094-1.338-3.159-1.979c-0.04-0.023-0.079-0.048-0.12-0.071c-1.063-0.638-2.137-1.255-3.224-1.854
				c-0.044-0.023-0.086-0.046-0.13-0.069c-1.085-0.596-2.183-1.171-3.291-1.728c-0.044-0.023-0.091-0.045-0.135-0.068
				c-1.107-0.552-2.226-1.087-3.354-1.602c-0.049-0.021-0.098-0.043-0.146-0.065c-1.128-0.51-2.265-1.001-3.411-1.471
				c-0.05-0.021-0.103-0.042-0.154-0.062c-1.147-0.468-2.302-0.916-3.468-1.342c-0.051-0.02-0.104-0.037-0.157-0.057
				c-1.167-0.424-2.341-0.829-3.524-1.21c-0.052-0.018-0.105-0.033-0.158-0.05c-1.186-0.38-2.38-0.74-3.581-1.079
				c-0.053-0.015-0.104-0.027-0.156-0.042c-1.205-0.337-2.418-0.651-3.64-0.944c-0.046-0.012-0.096-0.022-0.142-0.032
				c-1.228-0.293-2.461-0.563-3.7-0.811c-0.046-0.008-0.09-0.016-0.134-0.024c-1.246-0.246-2.5-0.471-3.759-0.669
				c-0.038-0.007-0.078-0.012-0.114-0.017c-1.267-0.2-2.54-0.377-3.818-0.529c-0.033-0.003-0.064-0.007-0.096-0.011
				c-1.288-0.149-2.58-0.279-3.88-0.382c-0.021-0.002-0.045-0.003-0.068-0.005c-1.308-0.102-2.622-0.18-3.941-0.232
				c-0.011,0-0.023-0.001-0.033-0.001c-1.332-0.053-2.669-0.079-4.008-0.079c-1.026,0-2.051,0.018-3.076,0.048
				c-0.339,0.01-0.679,0.03-1.02,0.044c-0.683,0.027-1.365,0.056-2.047,0.096c-0.407,0.024-0.815,0.058-1.223,0.087
				c-0.614,0.043-1.226,0.088-1.838,0.143c-0.434,0.039-0.866,0.086-1.299,0.131c-0.583,0.06-1.168,0.121-1.749,0.19
				c-0.447,0.054-0.891,0.114-1.337,0.174c-0.567,0.076-1.135,0.154-1.702,0.239c-0.449,0.067-0.897,0.141-1.347,0.215
				c-0.56,0.092-1.118,0.188-1.675,0.29c-0.451,0.082-0.899,0.165-1.349,0.254c-0.556,0.108-1.11,0.224-1.665,0.341
				c-0.443,0.096-0.887,0.191-1.332,0.293c-0.189,0.043-0.38,0.092-0.57,0.136l-8.066,139.071
				C172.367,189.436,183.094,182.933,193.398,173.477z"/>
			<path fill="#FFFFFF" d="M233.178,56.72c0.054,0.02,0.106,0.037,0.157,0.057C233.284,56.757,233.231,56.74,233.178,56.72z"/>
			<path fill="#FFFFFF" d="M236.803,58.118c0.052,0.021,0.104,0.042,0.154,0.062C236.907,58.16,236.854,58.139,236.803,58.118z"/>
			<path fill="#FFFFFF" d="M229.495,55.46c0.053,0.017,0.106,0.032,0.158,0.05C229.602,55.492,229.548,55.477,229.495,55.46z"/>
			<path fill="#FFFFFF" d="M225.758,54.339c0.052,0.015,0.104,0.027,0.156,0.042C225.861,54.366,225.81,54.354,225.758,54.339z"/>
			<path fill="#FFFFFF" d="M221.977,53.363c0.046,0.01,0.096,0.021,0.142,0.032C222.072,53.383,222.022,53.372,221.977,53.363z"/>
			<path fill="#FFFFFF" d="M247.293,63.115c0.044,0.023,0.086,0.046,0.13,0.069C247.379,63.16,247.337,63.138,247.293,63.115z"/>
			<path fill="#FFFFFF" d="M240.368,59.652c0.048,0.022,0.097,0.045,0.146,0.065C240.465,59.697,240.416,59.674,240.368,59.652z"/>
			<path fill="#FFFFFF" d="M250.646,65.037c0.041,0.023,0.08,0.048,0.12,0.071C250.727,65.085,250.688,65.061,250.646,65.037z"/>
			<path fill="#FFFFFF" d="M218.143,52.528c0.044,0.009,0.088,0.017,0.134,0.024C218.23,52.544,218.187,52.536,218.143,52.528z"/>
			<path fill="#FFFFFF" d="M243.867,61.319c0.044,0.023,0.091,0.045,0.135,0.068C243.958,61.364,243.911,61.342,243.867,61.319z"/>
			<path fill="#FFFFFF" d="M253.926,67.087c0.036,0.023,0.07,0.046,0.105,0.068C253.996,67.133,253.962,67.111,253.926,67.087z"/>
			<path fill="#FFFFFF" d="M187.923,51.151c0.433-0.045,0.865-0.092,1.299-0.131C188.788,51.059,188.355,51.106,187.923,51.151z"/>
			<path fill="#FFFFFF" d="M184.837,51.515c0.446-0.06,0.89-0.12,1.337-0.174C185.727,51.395,185.283,51.455,184.837,51.515z"/>
			<path fill="#FFFFFF" d="M178.765,52.513c0.449-0.089,0.897-0.172,1.349-0.254C179.662,52.341,179.214,52.424,178.765,52.513z"/>
			<path fill="#FFFFFF" d="M214.27,51.842c0.036,0.005,0.076,0.01,0.114,0.017C214.346,51.852,214.306,51.847,214.27,51.842z"/>
			<path fill="#FFFFFF" d="M181.788,51.969c0.449-0.074,0.897-0.147,1.347-0.215C182.686,51.822,182.237,51.895,181.788,51.969z"/>
			<path fill="#FFFFFF" d="M191.06,50.877c0.407-0.029,0.815-0.062,1.223-0.087C191.875,50.815,191.467,50.848,191.06,50.877z"/>
			<path fill="#FFFFFF" d="M206.407,50.915c0.023,0.002,0.047,0.003,0.068,0.005C206.454,50.918,206.431,50.917,206.407,50.915z"/>
			<path fill="#FFFFFF" d="M210.355,51.302c0.031,0.004,0.062,0.008,0.096,0.011C210.418,51.31,210.387,51.306,210.355,51.302z"/>
			<path fill="#FFFFFF" d="M194.329,50.695c0.341-0.014,0.681-0.034,1.02-0.044C195.009,50.66,194.67,50.681,194.329,50.695z"/>
			<path fill="#FFFFFF" d="M202.433,50.682c0.01,0,0.022,0.001,0.033,0.001C202.455,50.683,202.442,50.682,202.433,50.682z"/>
			<path fill="#FFFFFF" d="M175.768,53.147c0.445-0.102,0.889-0.197,1.332-0.293C176.656,52.949,176.213,53.045,175.768,53.147z"/>
			<path fill="#FFFFFF" d="M279.34,90.718c0.003,0.002,0.006,0.006,0.008,0.01C279.346,90.724,279.343,90.72,279.34,90.718z"/>
			<path fill="#FFFFFF" d="M276.924,87.662c0.005,0.007,0.01,0.012,0.016,0.02C276.934,87.674,276.929,87.669,276.924,87.662z"/>
			<path fill="#FFFFFF" d="M266.192,76.482c0.018,0.016,0.035,0.03,0.053,0.047C266.228,76.512,266.21,76.497,266.192,76.482z"/>
			<path fill="#FFFFFF" d="M274.397,84.708c0.008,0.01,0.015,0.018,0.023,0.026C274.412,84.726,274.405,84.718,274.397,84.708z"/>
			<path fill="#FFFFFF" d="M281.642,93.869c0,0.002,0.003,0.005,0.004,0.006C281.645,93.874,281.642,93.871,281.642,93.869z"/>
			<path fill="#FFFFFF" d="M269.028,79.116c0.013,0.013,0.027,0.026,0.042,0.039C269.056,79.143,269.041,79.129,269.028,79.116z"/>
			<path fill="#FFFFFF" d="M292.867,114.697c0.003,0.002,0.004,0.004,0.004,0.006C292.871,114.7,292.87,114.698,292.867,114.697z"/>
			<path fill="#FFFFFF" d="M283.826,97.118L283.826,97.118C283.826,97.118,283.826,97.118,283.826,97.118z"/>
			<path fill="#FFFFFF" d="M271.764,81.86c0.011,0.011,0.021,0.021,0.031,0.032C271.785,81.881,271.774,81.87,271.764,81.86z"/>
			<path fill="#FFFFFF" d="M263.26,73.958c0.022,0.019,0.044,0.036,0.065,0.055C263.304,73.994,263.282,73.977,263.26,73.958z"/>
			<path fill="#FFFFFF" d="M260.237,71.55c0.025,0.021,0.053,0.04,0.077,0.06C260.29,71.59,260.263,71.571,260.237,71.55z"/>
			<path fill="#FFFFFF" d="M257.124,69.26c0.03,0.021,0.062,0.041,0.09,0.062C257.186,69.301,257.154,69.281,257.124,69.26z"/>
			<path fill="#FFFFFF" d="M177.1,52.854c0.555-0.117,1.109-0.232,1.665-0.341C178.209,52.621,177.654,52.737,177.1,52.854z"/>
			<path fill="#FFFFFF" d="M175.198,53.271l-0.001,0.012c0.19-0.044,0.381-0.093,0.57-0.136
				C175.579,53.189,175.388,53.227,175.198,53.271z"/>
			<path fill="#FFFFFF" d="M283.827,97.118c3.538,5.486,6.577,11.363,9.04,17.578C290.403,108.482,287.365,102.605,283.827,97.118z"
				/>
			<path fill="#FFFFFF" d="M180.113,52.259c0.557-0.102,1.115-0.198,1.675-0.29C181.229,52.061,180.67,52.157,180.113,52.259z"/>
			<path fill="#FFFFFF" d="M281.646,93.875c0.746,1.064,1.473,2.146,2.181,3.243C283.118,96.021,282.392,94.94,281.646,93.875z"/>
			<path fill="#FFFFFF" d="M247.423,63.184c1.087,0.599,2.16,1.216,3.224,1.854C249.583,64.4,248.51,63.782,247.423,63.184z"/>
			<path fill="#FFFFFF" d="M183.135,51.754c0.567-0.085,1.135-0.163,1.702-0.239C184.27,51.591,183.702,51.669,183.135,51.754z"/>
			<path fill="#FFFFFF" d="M233.335,56.777c1.166,0.426,2.32,0.874,3.468,1.342C235.655,57.651,234.501,57.202,233.335,56.777z"/>
			<path fill="#FFFFFF" d="M250.767,65.109c1.065,0.641,2.118,1.301,3.159,1.979C252.885,66.409,251.832,65.749,250.767,65.109z"/>
			<path fill="#FFFFFF" d="M257.214,69.322c1.021,0.726,2.03,1.469,3.023,2.229C259.244,70.79,258.235,70.047,257.214,69.322z"/>
			<path fill="#FFFFFF" d="M292.871,114.702c0.49,1.24,0.96,2.494,1.404,3.761C293.831,117.197,293.361,115.943,292.871,114.702z"/>
			<path fill="#FFFFFF" d="M222.118,53.395c1.222,0.293,2.435,0.607,3.64,0.944C224.553,54.002,223.34,53.688,222.118,53.395z"/>
			<path fill="#FFFFFF" d="M254.031,67.156c1.043,0.682,2.075,1.383,3.093,2.104C256.106,68.538,255.074,67.837,254.031,67.156z"/>
			<path fill="#FFFFFF" d="M269.07,79.156c0.914,0.885,1.813,1.786,2.693,2.704C270.884,80.942,269.984,80.04,269.07,79.156z"/>
			<path fill="#FFFFFF" d="M218.276,52.552c1.239,0.247,2.473,0.518,3.7,0.811C220.749,53.07,219.516,52.799,218.276,52.552z"/>
			<path fill="#FFFFFF" d="M210.451,51.313c1.278,0.152,2.552,0.329,3.818,0.529C213.003,51.642,211.729,51.465,210.451,51.313z"/>
			<path fill="#FFFFFF" d="M214.384,51.859c1.259,0.198,2.513,0.423,3.759,0.669C216.896,52.281,215.643,52.057,214.384,51.859z"/>
			<path fill="#FFFFFF" d="M271.795,81.892c0.885,0.922,1.752,1.86,2.603,2.816C273.547,83.752,272.68,82.814,271.795,81.892z"/>
			<path fill="#FFFFFF" d="M229.653,55.51c1.184,0.381,2.357,0.786,3.524,1.21C232.011,56.296,230.837,55.891,229.653,55.51z"/>
			<path fill="#FFFFFF" d="M263.325,74.013c0.972,0.805,1.927,1.628,2.867,2.469C265.252,75.641,264.297,74.818,263.325,74.013z"/>
			<path fill="#FFFFFF" d="M266.245,76.529c0.944,0.844,1.871,1.708,2.783,2.588C268.116,78.237,267.189,77.372,266.245,76.529z"/>
			<path fill="#FFFFFF" d="M236.957,58.181c1.146,0.47,2.283,0.961,3.411,1.471C239.24,59.142,238.104,58.651,236.957,58.181z"/>
			<path fill="#FFFFFF" d="M244.002,61.387c1.108,0.557,2.206,1.132,3.291,1.728C246.208,62.519,245.11,61.944,244.002,61.387z"/>
			<path fill="#FFFFFF" d="M225.914,54.381c1.201,0.339,2.396,0.699,3.581,1.079C228.31,55.08,227.115,54.72,225.914,54.381z"/>
			<path fill="#FFFFFF" d="M260.314,71.61c0.997,0.765,1.979,1.548,2.945,2.349C262.293,73.157,261.312,72.374,260.314,71.61z"/>
			<path fill="#FFFFFF" d="M189.222,51.02c0.612-0.055,1.224-0.1,1.838-0.143C190.445,50.92,189.834,50.965,189.222,51.02z"/>
			<path fill="#FFFFFF" d="M192.282,50.79c0.682-0.04,1.364-0.068,2.047-0.096C193.646,50.722,192.964,50.75,192.282,50.79z"/>
			<path fill="#FFFFFF" d="M279.348,90.728c0.783,1.031,1.548,2.079,2.294,3.142C280.896,92.807,280.131,91.759,279.348,90.728z"/>
			<path fill="#FFFFFF" d="M276.939,87.682c0.817,0.995,1.619,2.006,2.4,3.036C278.558,89.688,277.757,88.677,276.939,87.682z"/>
			<path fill="#FFFFFF" d="M186.174,51.341c0.581-0.069,1.166-0.131,1.749-0.19C187.34,51.21,186.755,51.272,186.174,51.341z"/>
			<path fill="#FFFFFF" d="M240.514,59.717c1.128,0.515,2.246,1.05,3.354,1.602C242.76,60.767,241.642,60.232,240.514,59.717z"/>
			<path fill="#FFFFFF" d="M202.466,50.683c1.319,0.053,2.634,0.131,3.941,0.232C205.1,50.814,203.785,50.736,202.466,50.683z"/>
			<path fill="#FFFFFF" d="M274.421,84.735c0.851,0.959,1.685,1.935,2.503,2.928C276.105,86.669,275.271,85.694,274.421,84.735z"/>
			<path fill="#FFFFFF" d="M206.476,50.92c1.3,0.103,2.592,0.232,3.88,0.382C209.067,51.153,207.775,51.023,206.476,50.92z"/>
			<path fill="#FFFFFF" d="M198.425,50.603c1.339,0,2.676,0.026,4.008,0.079C201.101,50.629,199.764,50.603,198.425,50.603z"/>
			<path fill="#FFFFFF" d="M195.349,50.651c1.025-0.03,2.05-0.048,3.076-0.048C197.398,50.603,196.374,50.62,195.349,50.651z"/>
		</g>
	</g>
	<path fill="#F92A2E" d="M198.425,50.603c-8.539,0-17.025,1.062-25.221,3.155l-2.166,0.554l-20.142-38.768L90.064,212.448
		c1.812,4.716,8.235,11.623,17.67,16.41c6.312,3.201,18.874,7.779,32.974,3.063l22.401-37.46l0.753-0.367
		c0.151-0.073,15.251-7.509,29.536-20.617c18.82-17.273,27.413-35.701,25.536-54.771c0,0,5.618-0.368,5.627-0.274l69.718,0.039
		C279.991,77.836,241.595,50.603,198.425,50.603z"/>
</g>
</svg>
