<?xml version="1.0" encoding="utf-8"?>
<!-- Generator: Adobe Illustrator 15.0.0, SVG Export Plug-In . SVG Version: 6.00 Build 0)  -->
<!DOCTYPE svg PUBLIC "-//W3C//DTD SVG 1.1//EN" "http://www.w3.org/Graphics/SVG/1.1/DTD/svg11.dtd" [
	<!ENTITY ns_extend "http://ns.adobe.com/Extensibility/1.0/">
	<!ENTITY ns_ai "http://ns.adobe.com/AdobeIllustrator/10.0/">
	<!ENTITY ns_graphs "http://ns.adobe.com/Graphs/1.0/">
	<!ENTITY ns_vars "http://ns.adobe.com/Variables/1.0/">
	<!ENTITY ns_imrep "http://ns.adobe.com/ImageReplacement/1.0/">
	<!ENTITY ns_sfw "http://ns.adobe.com/SaveForWeb/1.0/">
	<!ENTITY ns_custom "http://ns.adobe.com/GenericCustomNamespace/1.0/">
	<!ENTITY ns_adobe_xpath "http://ns.adobe.com/XPath/1.0/">
]>
<svg version="1.1" id="Layer_1" xmlns:x="&ns_extend;" xmlns:i="&ns_ai;" xmlns:graph="&ns_graphs;"
	 xmlns="http://www.w3.org/2000/svg" xmlns:xlink="http://www.w3.org/1999/xlink" x="0px" y="0px" width="48px" height="48px"
	 viewBox="0 0 48 48" enable-background="new 0 0 48 48" xml:space="preserve">
<metadata>
	<sfw  xmlns="&ns_sfw;">
		<slices></slices>
		<sliceSourceBounds  x="844.504" y="844.836" width="38.66" height="38.66" bottomLeftOrigin="true"></sliceSourceBounds>
	</sfw>
</metadata>
<path id="gear-icon_3_" fill="#848778" d="M43.599,27.178l0.066-5.197l-2.796-1.033c-1.063-0.394-1.917-1.224-2.339-2.277v-0.003
	c-0.424-1.059-0.379-2.244,0.121-3.268l1.315-2.674L36.34,9.004l-2.707,1.244c-1.034,0.475-2.226,0.489-3.271,0.04H30.36
	c-1.045-0.449-1.85-1.317-2.218-2.395L27.179,5.07l-5.195-0.065L20.949,7.8c-0.394,1.066-1.223,1.917-2.28,2.339v0.002
	c-1.057,0.422-2.245,0.376-3.268-0.127l-2.676-1.312L9.003,12.33l1.245,2.706c0.478,1.033,0.491,2.225,0.041,3.271v0.003
	c-0.449,1.043-1.32,1.851-2.396,2.216l-2.821,0.963l-0.067,5.197l2.797,1.036c1.066,0.394,1.916,1.221,2.337,2.277h0.003
	c0.422,1.059,0.377,2.247-0.126,3.271l-1.312,2.674l3.627,3.722l2.707-1.244c1.036-0.476,2.224-0.492,3.271-0.04h0.003
	c1.045,0.446,1.851,1.316,2.217,2.395l0.961,2.82l5.198,0.068l1.029-2.777c0.396-1.076,1.232-1.935,2.299-2.363l0,0
	c1.05-0.42,2.226-0.377,3.24,0.121l2.688,1.323l3.723-3.629l-1.244-2.709c-0.477-1.033-0.491-2.222-0.042-3.269l0,0
	c0.45-1.046,1.321-1.854,2.397-2.222L43.599,27.178z M24.203,34.61c-5.674-0.074-10.215-4.73-10.144-10.408
	c0.072-5.675,4.732-10.215,10.406-10.144c5.676,0.074,10.217,4.733,10.146,10.408C34.538,30.142,29.878,34.684,24.203,34.61z"/>
</svg>
