<?xml version="1.0" encoding="utf-8"?>
<!-- Generator: Adobe Illustrator 15.0.0, SVG Export Plug-In . SVG Version: 6.00 Build 0)  -->
<!DOCTYPE svg PUBLIC "-//W3C//DTD SVG 1.1//EN" "http://www.w3.org/Graphics/SVG/1.1/DTD/svg11.dtd" [
	<!ENTITY ns_extend "http://ns.adobe.com/Extensibility/1.0/">
	<!ENTITY ns_ai "http://ns.adobe.com/AdobeIllustrator/10.0/">
	<!ENTITY ns_graphs "http://ns.adobe.com/Graphs/1.0/">
	<!ENTITY ns_vars "http://ns.adobe.com/Variables/1.0/">
	<!ENTITY ns_imrep "http://ns.adobe.com/ImageReplacement/1.0/">
	<!ENTITY ns_sfw "http://ns.adobe.com/SaveForWeb/1.0/">
	<!ENTITY ns_custom "http://ns.adobe.com/GenericCustomNamespace/1.0/">
	<!ENTITY ns_adobe_xpath "http://ns.adobe.com/XPath/1.0/">
]>
<svg version="1.1" id="Layer_1" xmlns:x="&ns_extend;" xmlns:i="&ns_ai;" xmlns:graph="&ns_graphs;"
	 xmlns="http://www.w3.org/2000/svg" xmlns:xlink="http://www.w3.org/1999/xlink" x="0px" y="0px" width="48px" height="48px"
	 viewBox="0 0 48 48" enable-background="new 0 0 48 48" xml:space="preserve">
<metadata>
	<sfw  xmlns="&ns_sfw;">
		<slices></slices>
		<sliceSourceBounds  height="38.402" width="38.553" y="132.001" x="204.765" bottomLeftOrigin="true"></sliceSourceBounds>
	</sfw>
</metadata>
<g>
	<path fill="#848778" d="M39.58,32.294c1.617-2.846,2.469-6.048,2.469-9.307c0-10.416-8.475-18.89-18.892-18.89
		S4.265,12.571,4.265,22.987c0,10.417,8.474,18.892,18.892,18.892c3.001,0,5.975-0.723,8.64-2.096l11.021,2.716L39.58,32.294z
		 M38.163,38.141l-6.796-1.677l-0.539,0.3c-2.34,1.307-4.992,1.996-7.671,1.996c-8.697,0-15.773-7.074-15.773-15.772
		c0-8.696,7.076-15.77,15.773-15.77c8.696,0,15.772,7.074,15.772,15.77c0,2.919-0.82,5.786-2.373,8.29l-0.379,0.609L38.163,38.141z"
		/>
	<circle fill="#848778" cx="14.359" cy="22.824" r="2.591"/>
	<circle fill="#848778" cx="23.144" cy="22.825" r="2.591"/>
	<circle fill="#848778" cx="32.191" cy="22.825" r="2.591"/>
</g>
</svg>
