<?xml version="1.0" encoding="utf-8"?>
<!-- Generator: Adobe Illustrator 15.0.0, SVG Export Plug-In . SVG Version: 6.00 Build 0)  -->
<!DOCTYPE svg PUBLIC "-//W3C//DTD SVG 1.1//EN" "http://www.w3.org/Graphics/SVG/1.1/DTD/svg11.dtd" [
	<!ENTITY ns_extend "http://ns.adobe.com/Extensibility/1.0/">
	<!ENTITY ns_ai "http://ns.adobe.com/AdobeIllustrator/10.0/">
	<!ENTITY ns_graphs "http://ns.adobe.com/Graphs/1.0/">
	<!ENTITY ns_vars "http://ns.adobe.com/Variables/1.0/">
	<!ENTITY ns_imrep "http://ns.adobe.com/ImageReplacement/1.0/">
	<!ENTITY ns_sfw "http://ns.adobe.com/SaveForWeb/1.0/">
	<!ENTITY ns_custom "http://ns.adobe.com/GenericCustomNamespace/1.0/">
	<!ENTITY ns_adobe_xpath "http://ns.adobe.com/XPath/1.0/">
]>
<svg version="1.1" id="Layer_1" xmlns:x="&ns_extend;" xmlns:i="&ns_ai;" xmlns:graph="&ns_graphs;"
	 xmlns="http://www.w3.org/2000/svg" xmlns:xlink="http://www.w3.org/1999/xlink" x="0px" y="0px" width="48px" height="48px"
	 viewBox="0 0 48 48" enable-background="new 0 0 48 48" xml:space="preserve">
<metadata>
	<sfw  xmlns="&ns_sfw;">
		<slices></slices>
		<sliceSourceBounds  height="39.579" width="47.387" y="620.917" x="335.5" bottomLeftOrigin="true"></sliceSourceBounds>
	</sfw>
</metadata>
<path fill="#D7DF23" d="M12.135,4.004v13.097H0v19.157l0,0c0.033,3.96,3.2,7.188,7.137,7.321v0.004h32.856
	c4.073,0,7.394-3.315,7.394-7.392V4.004H12.135z M7.392,40.938c-2.617,0-4.744-2.131-4.744-4.746V19.747h9.487v3.656H5.604v2.648
	h6.531v2.576H5.604v2.648h6.531v4.914C12.135,38.807,10.006,40.938,7.392,40.938z M44.738,36.191c0,2.615-2.129,4.746-4.745,4.746
	H13.058c1.075-1.287,1.727-2.94,1.727-4.746V6.652H44.74v29.54H44.738L44.738,36.191z"/>
<rect x="33.178" y="12.64" fill="#D7DF23" width="8.953" height="2.648"/>
<rect x="33.178" y="17.942" fill="#D7DF23" width="8.953" height="2.648"/>
<rect x="33.178" y="23.167" fill="#D7DF23" width="8.953" height="2.646"/>
<rect x="17.153" y="28.588" fill="#D7DF23" width="24.978" height="2.648"/>
<rect x="17.153" y="12.63" fill="#D7DF23" width="12.24" height="12.099"/>
</svg>
