<?xml version="1.0" encoding="utf-8"?>
<!-- Generator: Adobe Illustrator 15.0.0, SVG Export Plug-In . SVG Version: 6.00 Build 0)  -->
<!DOCTYPE svg PUBLIC "-//W3C//DTD SVG 1.1//EN" "http://www.w3.org/Graphics/SVG/1.1/DTD/svg11.dtd" [
	<!ENTITY ns_extend "http://ns.adobe.com/Extensibility/1.0/">
	<!ENTITY ns_ai "http://ns.adobe.com/AdobeIllustrator/10.0/">
	<!ENTITY ns_graphs "http://ns.adobe.com/Graphs/1.0/">
	<!ENTITY ns_vars "http://ns.adobe.com/Variables/1.0/">
	<!ENTITY ns_imrep "http://ns.adobe.com/ImageReplacement/1.0/">
	<!ENTITY ns_sfw "http://ns.adobe.com/SaveForWeb/1.0/">
	<!ENTITY ns_custom "http://ns.adobe.com/GenericCustomNamespace/1.0/">
	<!ENTITY ns_adobe_xpath "http://ns.adobe.com/XPath/1.0/">
]>
<svg version="1.1" id="Layer_1" xmlns:x="&ns_extend;" xmlns:i="&ns_ai;" xmlns:graph="&ns_graphs;"
	 xmlns="http://www.w3.org/2000/svg" xmlns:xlink="http://www.w3.org/1999/xlink" x="0px" y="0px" width="48px" height="48px"
	 viewBox="0 0 48 48" enable-background="new 0 0 48 48" xml:space="preserve">
<metadata>
	<sfw  xmlns="&ns_sfw;">
		<slices></slices>
		<sliceSourceBounds  x="137.831" y="138.832" width="43.336" height="43.337" bottomLeftOrigin="true"></sliceSourceBounds>
	</sfw>
</metadata>
<path id="help-3-icon_3_" fill="#848778" d="M23.999,6.54c9.649,0,17.463,7.81,17.463,17.461c0,9.65-7.812,17.46-17.463,17.46
	C14.35,41.461,6.54,33.65,6.54,24C6.54,14.352,14.347,6.54,23.999,6.54 M23.999,2.332c-11.967,0-21.667,9.7-21.667,21.669
	c0,11.966,9.7,21.667,21.667,21.667c11.968,0,21.669-9.701,21.669-21.667C45.668,12.032,35.967,2.332,23.999,2.332L23.999,2.332z
	 M24.211,36.99c-1.527,0-2.77-1.24-2.77-2.77c0-1.531,1.242-2.771,2.77-2.771c1.532,0,2.771,1.24,2.771,2.771
	C26.982,35.75,25.743,36.99,24.211,36.99z M26.391,28.803v0.496c0,0-4.154,0-4.565,0v-0.496c0-1.41,0.205-3.223,1.843-4.793
	c1.639-1.574,3.686-2.875,3.686-4.839c0-2.174-1.511-3.322-3.41-3.322c-3.169,0-3.375,3.286-3.453,4.008h-4.441
	c0.119-3.424,1.565-8.217,7.922-8.217c5.508,0,7.983,3.688,7.983,7.148C31.952,24.294,26.391,25.252,26.391,28.803z"/>
</svg>
