<?xml version="1.0" encoding="utf-8"?>
<!-- Generator: Adobe Illustrator 15.0.0, SVG Export Plug-In  -->
<!DOCTYPE svg PUBLIC "-//W3C//DTD SVG 1.1//EN" "http://www.w3.org/Graphics/SVG/1.1/DTD/svg11.dtd" [
	<!ENTITY ns_flows "http://ns.adobe.com/Flows/1.0/">
]>
<svg version="1.1"
	 xmlns="http://www.w3.org/2000/svg" xmlns:xlink="http://www.w3.org/1999/xlink" xmlns:a="http://ns.adobe.com/AdobeSVGViewerExtensions/3.0/"
	 x="0px" y="0px" width="278px" height="278px" viewBox="0 0 278 278" overflow="visible" enable-background="new 0 0 278 278"
	 xml:space="preserve">
<defs>
</defs>
<path fill="#FFFFFF" d="M159.2,102.4l31.2-54.1c31,18,51.9,51.5,51.9,89.9h-62.4C179.9,122.9,171.6,109.5,159.2,102.4z M117.8,174.1
	l-31.2,54.1c15.3,8.8,33,13.9,51.9,13.9c18.9,0,36.6-5.1,51.9-13.9l-31.2-54.1C146.7,181.3,130.9,181.6,117.8,174.1z M117.8,102.4
	L86.6,48.3c-31,18-51.9,51.5-51.9,89.9h62.4C97.1,122.9,105.4,109.5,117.8,102.4z M138.5,166.8c15.8,0,28.5-12.8,28.5-28.6
	c0-15.8-12.8-28.5-28.5-28.5c-15.8,0-28.6,12.7-28.6,28.5C109.9,154,122.7,166.8,138.5,166.8z"/>
<path fill="#FFFFFF" d="M138.5,277c-76.1,0-138-61.9-138-138c0-76.1,61.9-138,138-138c76.1,0,138,61.9,138,138
	C276.5,215.1,214.6,277,138.5,277z M138.5,16.3c-67.7,0-122.7,55-122.7,122.7s55,122.7,122.7,122.7s122.7-55,122.7-122.7
	S206.2,16.3,138.5,16.3z"/>
<rect display="none" opacity="0.82" fill="#FF5100" width="278" height="278"/>
</svg>
