<?xml version="1.0" encoding="utf-8"?>
<!-- Generator: Adobe Illustrator 15.0.0, SVG Export Plug-In . SVG Version: 6.00 Build 0)  -->
<!DOCTYPE svg PUBLIC "-//W3C//DTD SVG 1.1//EN" "http://www.w3.org/Graphics/SVG/1.1/DTD/svg11.dtd" [
	<!ENTITY ns_extend "http://ns.adobe.com/Extensibility/1.0/">
	<!ENTITY ns_ai "http://ns.adobe.com/AdobeIllustrator/10.0/">
	<!ENTITY ns_graphs "http://ns.adobe.com/Graphs/1.0/">
	<!ENTITY ns_vars "http://ns.adobe.com/Variables/1.0/">
	<!ENTITY ns_imrep "http://ns.adobe.com/ImageReplacement/1.0/">
	<!ENTITY ns_sfw "http://ns.adobe.com/SaveForWeb/1.0/">
	<!ENTITY ns_custom "http://ns.adobe.com/GenericCustomNamespace/1.0/">
	<!ENTITY ns_adobe_xpath "http://ns.adobe.com/XPath/1.0/">
]>
<svg version="1.1" id="Layer_1" xmlns:x="&ns_extend;" xmlns:i="&ns_ai;" xmlns:graph="&ns_graphs;"
	 xmlns="http://www.w3.org/2000/svg" xmlns:xlink="http://www.w3.org/1999/xlink" x="0px" y="0px" width="32px" height="32px"
	 viewBox="0 0 32 32" enable-background="new 0 0 32 32" xml:space="preserve">
<metadata>
	<sfw  xmlns="&ns_sfw;">
		<slices></slices>
		<sliceSourceBounds  width="32.029" height="32.03" x="943.485" y="211.485" bottomLeftOrigin="true"></sliceSourceBounds>
	</sfw>
</metadata>
<path id="network-5-icon" fill="#CECECC" d="M17.58,10.846h0.002c0.016,0.001,0.028-0.011,0.043-0.011
	c0.044-0.004,0.183,0.093,0.23,0.113c0.016,0.007,0.033,0.01,0.048,0.018c0.027,0.018,0.048,0.044,0.077,0.058
	c0.01,0.005,0.025,0.013,0.049,0.009c0.017-0.004,0.041-0.008,0.067-0.092c0.011-0.035-0.03-0.053-0.026-0.084
	c0.006-0.049,0.044-0.084,0.053-0.131c0.004-0.021-0.003-0.033-0.021-0.035c-0.002,0-0.006,0-0.008,0
	c-0.013,0.003-0.023,0.01-0.036,0.012c-0.041,0.004-0.036-0.014-0.071,0.006c-0.019,0.012-0.035,0.025-0.057,0.03
	c-0.02,0.005-0.038-0.009-0.059-0.007c-0.027,0.002-0.045,0.031-0.073,0.03c-0.039-0.001-0.063-0.034-0.1-0.04
	c-0.023-0.005-0.037,0.021-0.06,0.02c-0.021-0.002-0.016-0.012-0.034-0.018c-0.028-0.01-0.062,0.094-0.055,0.104
	C17.559,10.843,17.572,10.845,17.58,10.846z M14.636,6.545c-0.003-0.003-0.005-0.007-0.005-0.013
	c-0.002-0.018,0.017-0.079,0.043-0.084c0.001,0,0.002-0.001,0.002-0.001c0.007-0.001,0.011-0.001,0.021,0.013
	c0.002,0.004,0.005,0.005,0.009,0.004c0.002,0,0.003-0.002,0.004-0.004c0.008-0.018,0.01-0.037,0.019-0.056
	c0.002-0.005,0.002-0.01,0-0.015l0,0c-0.015,0.008-0.032,0.004-0.043-0.008s-0.013-0.029-0.004-0.043
	c0.007-0.012,0.016-0.021,0.028-0.027c0.002-0.001,0.002-0.002,0.004-0.002c0.007-0.003,0.015-0.003,0.021,0
	c0.012,0.005,0.024,0.004,0.035-0.004c0.002-0.002,0.004-0.004,0.006-0.005c0.037-0.03,0.069-0.063,0.097-0.103
	c0.014-0.019,0.027-0.033,0.038-0.037c0.018-0.006,0.035-0.009,0.053-0.009c0.045,0,0.092,0.006,0.136,0.018
	c0.019,0.005,0.061,0.024,0.011,0.056c-0.023,0.014-0.051,0.02-0.07,0.039c-0.016,0.014-0.017,0.035-0.027,0.051
	c-0.002,0.003-0.002,0.007,0,0.01c0.001,0.002,0.005,0.004,0.008,0.004c0.041-0.003,0.261-0.012,0.212,0.057
	c-0.021,0.029-0.038,0.062-0.052,0.096c-0.03,0.082-0.034,0.172-0.01,0.256c0.008,0.023,0.01,0.049,0.008,0.069
	c-0.002,0.024-0.009,0.048-0.007,0.071c0.003,0.023,0.028,0.041,0.021,0.066c-0.001,0.002,0,0.004,0.001,0.006
	c0,0.001,0.001,0.002,0.001,0.001c0.005-0.001,0.009-0.001,0.011-0.001c0.021,0,0.042,0,0.063-0.002
	c0.007,0,0.008,0.002,0.012,0.005c0,0.001,0.05,0.106,0.04,0.119c0,0,0,0.001-0.001,0.001c-0.01,0.015-0.009,0.035,0.004,0.049
	c0.014,0.016,0.026,0.031,0.027,0.056c0.001,0.011,0.001,0.011-0.048,0.049c-0.005,0.004-0.007,0.011-0.006,0.017
	c0.043,0.022,0.043,0.022,0.066,0.01c0.035-0.019,0.159,0.045,0.165,0.049h0.001c0.067,0.037,0.057,0.09,0.055,0.101
	c-0.008,0.032-0.018,0.05-0.032,0.058c-0.029,0.017-0.057,0.034-0.084,0.053c-0.004,0.004-0.011,0.002-0.022-0.006
	c-0.003-0.002-0.005-0.003-0.008-0.004c-0.003-0.004-0.007-0.004-0.01-0.002c-0.003,0-0.006,0.004-0.005,0.007
	c0.005,0.044,0.03,0.084,0.069,0.106c0,0.001,0.001,0.001,0.001,0.002c0.001,0,0.002,0.001,0.002,0.002
	c0.002,0.046-0.108,0.066-0.109,0.066l0,0c0,0,0,0-0.001,0c-0.036-0.003-0.07,0.02-0.107,0.014
	c-0.031-0.006-0.055-0.031-0.087-0.031c-0.077-0.002-0.077-0.002-0.092-0.011c-0.005-0.003-0.057-0.017-0.076-0.019
	c-0.051-0.002-0.09,0.033-0.138,0.044c-0.042,0.009-0.073-0.031-0.114-0.028c-0.058,0.006-0.078,0.061-0.117,0.09
	c-0.004,0.003-0.009,0.004-0.013,0.003c-0.001,0-0.001-0.001-0.002-0.001c-0.029-0.056-0.083-0.034-0.112-0.016
	c-0.009,0.005-0.017,0.01-0.024,0.014c-0.01,0.007-0.023,0.004-0.031-0.005s-0.007-0.023,0.002-0.032
	c0.016-0.016,0.033-0.033,0.05-0.051c0.05-0.049,0.114-0.08,0.183-0.087c0.022-0.003,0.045-0.003,0.067,0
	c0.042,0.005,0.072-0.017,0.102-0.038c0.008-0.006,0.011-0.016,0.008-0.023s-0.011-0.014-0.02-0.014
	c-0.012,0-0.023,0.004-0.034,0.014c-0.003,0.002-0.006,0.004-0.009,0.006c-0.014,0.006-0.028,0.006-0.042,0
	c-0.002-0.002-0.006-0.003-0.008-0.006c-0.027-0.028-0.062-0.05-0.102-0.06c-0.041-0.011-0.079,0.025-0.121,0.006
	C14.52,7.44,14.523,7.399,14.53,7.393c0.006-0.007,0.02-0.009,0.039-0.012c0.03-0.004,0.128-0.039,0.142-0.054
	c0.012-0.015,0.041-0.111,0.003-0.108c-0.021,0.002-0.036,0.019-0.055,0.022c-0.005,0.001-0.009,0-0.013-0.004
	c-0.003-0.002-0.005-0.006-0.004-0.011c0-0.002,0.001-0.004,0.002-0.005c0,0,0,0,0-0.001c0.013-0.022,0.055-0.01,0.056-0.043
	c0-0.009-0.006-0.015-0.011-0.022c-0.007-0.007-0.007-0.018-0.001-0.025c0.005-0.007,0.015-0.01,0.023-0.008l0,0
	c0.054,0.018,0.112,0.004,0.152-0.035c0.04-0.04,0.054-0.099,0.037-0.152C14.9,6.934,14.9,6.933,14.899,6.931
	c0-0.002,0-0.002-0.001-0.004c-0.004-0.021-0.018-0.039-0.037-0.049c-0.014-0.006-0.025-0.018-0.032-0.031
	c-0.001,0-0.001-0.001-0.003-0.001c-0.001-0.001-0.003-0.001-0.005,0.001c-0.052,0.031-0.053,0.031-0.062-0.008
	c-0.001-0.002-0.002-0.003-0.003-0.004c-0.002-0.002-0.002-0.002-0.002-0.002c-0.014,0.004-0.028-0.002-0.035-0.015
	S14.716,6.79,14.727,6.78c0.012-0.01,0.026-0.021,0.045-0.035c0.033-0.026,0.022-0.062,0.023-0.096c0-0.005-0.002-0.01-0.007-0.014
	c-0.004-0.004-0.011-0.005-0.016-0.003c-0.015,0.005-0.029,0.011-0.043,0.017c-0.018,0.008-0.021,0.012-0.033,0.027
	c-0.013,0.015-0.022,0.026-0.03,0.035c-0.007,0.008-0.018,0.01-0.025,0.004S14.629,6.7,14.634,6.69
	c0.003-0.004,0.005-0.008,0.009-0.012l0,0C14.672,6.638,14.67,6.582,14.636,6.545z M16-0.016c-8.845,0-16.015,7.17-16.015,16.015
	c0,8.844,7.17,16.016,16.015,16.016s16.015-7.172,16.015-16.016C32.015,7.154,24.845-0.016,16-0.016z M21.015,8.78
	c0.077,0.023,0.133,0.078,0.156,0.147c0.001,0.003,0.002,0.005,0.003,0.009c0.004,0.006,0.018,0.025,0.059,0.021
	c0.016-0.003,0.167-0.146,0.173-0.157c0.011-0.023-0.021-0.029-0.044-0.042c-0.055-0.028-0.09-0.083-0.094-0.145
	c-0.005-0.062,0.022-0.12,0.072-0.155c0-0.002,0-0.002,0-0.002l0.278-0.16l0,0c0.005-0.003,0.011-0.004,0.016-0.006
	c0.001,0,0.001,0,0.001,0c0.018-0.002,0.139-0.074,0.184-0.078c0.013-0.003,0.042,0.029,0.033,0.053
	c-0.006,0.016-0.02,0.04-0.051,0.059c-0.038,0.021-0.131,0.07-0.126,0.113c0.006,0.053,0.069,0.033,0.103,0.055
	c0.024,0.016,0.017,0.027,0.01,0.05c0,0.001,0,0.001,0,0.002c-0.019,0.064-0.048,0.124-0.087,0.179
	c-0.002,0.004-0.003,0.006-0.003,0.01c0.008,0.041,0.008,0.041,0.152,0.099c0.064,0.025,0.137-0.009,0.198,0.029
	c0.141,0.087,0.245,0.224,0.404,0.28c0.053,0.02,0.229,0.093,0.269,0.227c0.073,0.246-0.225,0.292-0.33,0.238
	c-0.061-0.03-0.089,0.039-0.132,0.059c-0.003,0.002-0.005,0.002-0.007,0.004c-0.031,0-0.063-0.007-0.085-0.013
	c-0.052-0.015-0.272-0.017-0.354-0.051c0-0.001-0.001-0.001-0.001-0.001c-0.019-0.01-0.297-0.113-0.317-0.107
	c-0.089,0.027-0.193-0.037-0.276,0.027C21.17,9.56,21.11,9.581,21.062,9.618c-0.067,0.053-0.07,0.056-0.07,0.07
	c-0.001,0.002-0.001,0.004-0.001,0.005c-0.002,0.018-0.004,0.032-0.025,0.042c-0.025,0.012-0.067,0.018-0.088,0.018
	c-0.06,0-0.119,0.011-0.18,0.004c-0.055-0.006-0.106,0.03-0.161,0.007l0,0c-0.1-0.042-0.185-0.111-0.248-0.199l-0.062-0.088
	c0,0,0,0,0-0.001c-0.005-0.006-0.005-0.015-0.001-0.021c0.005-0.01,0.017-0.016,0.038,0.006c0,0,0,0,0.001,0
	c0.003,0.003,0.008,0.004,0.012,0.002c0.005-0.002,0.007-0.008,0.006-0.012c-0.013-0.053-0.034-0.13-0.017-0.182l0,0
	c0.011-0.031,0.055-0.024,0.064-0.055c0.012-0.037-0.008-0.069-0.011-0.104c-0.001-0.017,0.017-0.168,0.017-0.168
	c0.002,0,0.003,0,0.003,0c0.028-0.015,0.042-0.037,0.048-0.061c0.016-0.066,0.045-0.126,0.086-0.18
	c0.011-0.016,0.022-0.049,0.053-0.133c0.012-0.032,0.014-0.04,0.062-0.054c0.06-0.017,0.122-0.021,0.184-0.013
	c0.032,0.004,0.071,0.01,0.118,0.021c0.004,0.001,0.008,0.004,0.01,0.008c0.002,0.005,0.001,0.012-0.005,0.014
	c-0.014,0.008-0.021,0.023-0.018,0.039c0.003,0.018,0.018,0.029,0.035,0.03c0.022,0,0.042-0.009,0.06-0.017
	c0.029-0.014,0.04-0.02,0.064-0.002c0.019,0.012,0.029,0.035,0.026,0.057c-0.007,0.051-0.074,0.05-0.074,0.09
	C20.989,8.761,20.999,8.774,21.015,8.78z M16,29.493c-3.836,0-7.296-1.602-9.753-4.172c-0.112-0.115-0.253-0.414-0.253-0.453
	c-0.004-0.094-0.022-0.188-0.057-0.275c-0.029-0.074-0.063-0.146-0.098-0.221c-0.112-0.246,0.396-0.289,0.538-0.52l0,0
	c0.011-0.021,0.097-0.033,0.198,0.041c0.082,0.057,0.201-0.078,0.189-0.125c-0.033-0.15-0.033-0.176-0.015-0.314
	c0.031-0.234-0.033-0.816-0.061-0.896c-0.093-0.266-0.112-0.4-0.114-0.465c-0.001-0.047,0.126-0.084,0.148-0.162
	c0.047-0.16,0.318-0.455,0.403-0.598c0.073-0.123,0.131-0.264,0.113-0.406c-0.04-0.32-1.06-1.486-1.349-1.703
	C5.664,19.051,5.5,19.05,5.5,19.05c0.014-0.145-0.042-0.285-0.148-0.381c-0.041-0.036-0.07-0.084-0.101-0.132
	c-0.04-0.065-0.11-0.104-0.187-0.104s-0.147,0.039-0.188,0.104l0,0c0.068-0.229,0.071-0.238-0.109-0.461
	c-0.098-0.119-0.109-0.107,0.008-0.326c0.017-0.3-0.569-1.256-1.089-1.841C3.67,15.89,3.645,15.88,3.614,15.885
	c-0.054-0.048-0.311-0.993-0.368-1.215c-0.002-0.011,0-0.022,0.008-0.03c0.045-0.055,0.063-0.127,0.05-0.195
	c-0.012-0.058-0.034-0.125-0.038-0.183c-0.006-0.108-0.107-0.196-0.125-0.183c-0.028,0.02-0.059,0.021-0.085,0.011
	s-0.047-0.034-0.053-0.068c-0.021-0.116-0.123-0.2-0.242-0.2c-0.05,0-0.058-0.01-0.065-0.049c-0.002-0.009-0.002-0.018,0-0.025
	c0.059-0.352,0.1-0.539,0.135-0.692c0-0.003,0.001-0.005,0.001-0.006c0.536-2.406,1.716-4.57,3.348-6.302
	c0.007-0.008,0.017-0.01,0.025-0.008c0.16,0.045,0.148,0.01,0.286-0.155c0.079-0.097,0.224-0.132,0.304-0.161
	c0.08-0.027,0.213-0.041,0.214-0.041C7.084,6.368,7.306,6.418,7.37,6.366C7.424,6.323,7.355,6.308,7.387,6.26
	c0.029-0.046,0.056-0.094,0.076-0.144c0.018-0.043,0.071-0.057,0.11-0.08C7.64,5.995,7.576,5.995,7.562,5.974
	c-0.01-0.018,0.001-0.078,0.025-0.082c0,0,0.001,0,0.002,0c0.035,0.032,0.084,0.045,0.13,0.034c0.04-0.009,0.056-0.022,0.067-0.048
	C7.795,5.86,7.81,5.848,7.828,5.843l0,0c0.11-0.264-0.377-0.115-0.377-0.115c-0.02-0.039,0.257-0.127,0.301-0.14
	c0,0.001,0,0.001,0,0.001s0,0,0.002,0c0.025,0.008,0.049,0.004,0.07-0.006c0.132-0.051,0.28,0.014,0.332,0.145v0.001
	C8.17,5.764,8.201,5.79,8.237,5.8C8.28,5.812,8.324,5.824,8.369,5.808c0.236-0.089,0.306-0.014,0.503-0.101
	c0.001,0,0.001-0.001,0.002-0.001c0.257-0.115,0.269-0.686,0.618-0.998c0.034-0.031,0.071-0.059,0.11-0.084
	c0.063-0.04,0.105-0.103,0.15-0.162c0.021-0.027,0.045-0.057,0.069-0.081c0.03-0.03,0.035-0.077,0.014-0.114
	c-0.022-0.037-0.068-0.054-0.109-0.04C9.697,4.235,9.643,4.255,9.625,4.229c-0.006-0.01-0.006-0.021,0-0.03
	C9.637,4.179,9.67,4.136,9.673,4.116c0.003-0.016,0.011-0.03,0.022-0.041C9.713,4.062,9.73,4.049,9.75,4.038
	c0.182-0.094,0.365-0.186,0.551-0.273c0.03-0.014,0.065-0.007,0.088,0.016c0.049,0.049,0.086-0.011,0.131-0.06
	c0.057-0.062,0.125-0.11,0.201-0.143l0,0c-0.01,0.008-0.018,0.017-0.025,0.028c0,0.066-0.087,0.104-0.021,0.122
	c0.021,0.006,0.075-0.042,0.081-0.046c0.008-0.004,0.016,0.001,0.005,0.02c0.056-0.029,0.134-0.098,0.2-0.159
	c0.078-0.073,0.172-0.132,0.271-0.171c0.113-0.042,0.109-0.007,0.084,0c-0.035,0.009-0.066,0.027-0.094,0.084
	c-0.009,0.018-0.059,0.064-0.074,0.078c0,0,0.133-0.056,0.237-0.074c0.03-0.004,0.062-0.024,0.114-0.059
	c0.014-0.009,0.017,0.002,0.026,0.015c0.011,0.013,0.083-0.019,0.099-0.033l0,0c0.01-0.011,0.012-0.024,0.005-0.038
	c-0.009-0.016-0.053-0.006-0.04-0.03c0.011-0.02,0.045-0.006,0.063-0.02c0.005-0.003,0.003-0.011-0.003-0.011
	c0-0.002,0-0.002,0-0.002c-0.003-0.008,0-0.018,0.006-0.023c0.012-0.012,0.108-0.059,0.105-0.072l0,0
	c0.463-0.154,0.906-0.299,1.396-0.379c0.099-0.017,0.099,0.084,0.052,0.101c-0.109,0.038-0.233,0.039-0.325,0.118
	c-0.008,0.007-0.011,0.019-0.005,0.027c0.005,0.01,0.016,0.014,0.025,0.011c0.02-0.005,0.053-0.018,0.133-0.048
	c0.014-0.005,0.031,0.004,0.029,0.02c-0.002,0.006-0.005,0.01-0.01,0.013c-0.04,0.018-0.084,0.024-0.122,0.045
	c-0.007,0.004-0.012,0.013-0.01,0.021c0.004,0.021-0.015,0.06-0.003,0.07c0,0.001,0,0.001,0,0.001
	c-0.002,0.004-0.389,0.267-0.535,0.276c-0.001,0-0.001,0-0.001,0C12.21,3.47,12.048,3.541,12,3.581
	c-0.049,0.039-0.102,0.074-0.158,0.102c-0.119,0.059-0.225,0.159-0.293,0.234c-0.035,0.038,0.026,0.053,0.075,0.071
	c0,0,0.033,0.011-0.019,0.018c-0.193,0.026-0.36,0.245-0.41,0.319c-0.01,0.014-0.01,0.032-0.001,0.045
	c0.001,0.002,0.001,0.002,0.001,0.002c-0.09,0.09-0.098,0.098-0.164,0.232c-0.004,0.008-0.003,0.018,0.003,0.025
	c0.009,0.01,0.114,0.016,0.124,0.035c0.015,0.027-0.041,0.052-0.028,0.074c0.003,0.007,0.009,0.012,0.017,0.013
	c0.017,0.004-0.054,0.073-0.063,0.088c-0.017,0.024,0.005,0.089,0.042,0.087c0.037-0.001,0.062-0.023,0.097-0.064
	c0,0,0.096-0.053,0.159-0.107c0.063-0.051,0.19-0.066,0.238-0.155c0.025-0.049,0.072-0.08,0.11-0.089
	c0.017-0.002,0.033,0.006,0.039,0.023c0.005,0.021,0.3-0.109,0.289-0.16c-0.009-0.047,0.019-0.053,0.049-0.039
	c0.021,0.009,0.039,0.002,0.053-0.01c0.089-0.073,0.223-0.162,0.334-0.134c0.026,0.007,0.056,0.003,0.079-0.011
	c0.111-0.063,0.124-0.033,0.098-0.023c-0.029,0.012-0.111,0.041-0.094,0.066c0.004,0.008,0.012,0.01,0.02,0.008
	c0.047-0.02,0.098-0.029,0.148-0.03c0.071-0.001,0.177-0.013,0.271-0.063c0.004-0.002,0.008-0.004,0.013-0.006
	c0,0,0.002,0,0.002-0.001c0.223-0.112,0.314-0.188,0.361-0.155c0.015,0.01,0.023,0.026,0.021,0.044c0,0,0,0,0.001,0.001
	c0.036,0.025,0.075,0,0.118-0.012c0,0,0.036,0.037,0.17,0.035c-0.031,0.082,1.373-0.223,2.263-0.96
	c0.243-0.202,0.515-0.389,0.785-0.556c1.469,0.08,2.874,0.395,4.181,0.908c0.043,0.017,0.069,0.062,0.062,0.107
	c-0.011,0.066-0.09,0.086-0.096,0.102c-0.019,0.049,0.108,0.113,0.145,0.15c0.021,0.021,0.021,0.054,0.002,0.076
	c0,0-0.001,0-0.002,0c-0.062-0.016-0.128,0-0.177,0.043c-0.048,0.041-0.114,0.07-0.153,0.084c-0.023,0.009-0.046,0.021-0.063,0.039
	l0,0c-0.022-0.006-0.046-0.006-0.067,0.002c-0.088,0.033-0.139,0.199-0.12,0.262c0.007,0.023,0.002,0.051-0.015,0.07
	c-0.021,0.025-0.055,0.036-0.086,0.025c-0.019-0.006-0.07,0.037-0.045,0.057c0.03,0.022-0.011,0.039-0.041,0.061
	c-0.015,0.01-0.034,0.014-0.053,0.008c-0.107-0.033-0.102-0.06-0.135,0.024c-0.015,0.039-0.036,0.077-0.062,0.11
	c-0.018,0.021-0.015,0.051,0.005,0.07c0.158,0.152-0.07,0.128-0.152,0.092c-0.073-0.034-0.117,0.092,0.021,0.092
	c0.037,0.001,0.073,0.017,0.099,0.045l0,0c0.07,0.078-0.092,0.053-0.191,0.018c-0.085-0.031-0.166-0.074-0.237-0.131
	c-0.045-0.036-0.062-0.096-0.042-0.15c0.02-0.053,0.071-0.088,0.128-0.087c0.083,0.003,0.153-0.06,0.163-0.142
	s-0.045-0.157-0.126-0.174c-0.198-0.041-0.419-0.016-0.603-0.102c-0.159-0.072-0.291-0.061-0.331-0.113
	c-0.018-0.023-0.024-0.053-0.021-0.081c-0.085-0.017-0.14-0.026-0.176-0.034c-0.035-0.008-0.143-0.01-0.29,0.037
	c-0.316,0.1-0.617,0.395-0.617,0.395s-0.061,0.104-0.119,0.17c-0.053,0.061-0.094,0.135-0.152,0.189
	c-0.024,0.021-0.04,0.051-0.046,0.082h-0.001l0,0c-0.031,0.01-0.056,0.033-0.064,0.064c-0.039,0.137-0.146,0.342-0.727,0.586l0,0
	c-0.17,0.072-0.277,0.243-0.269,0.428c0.01,0.185,0.134,0.344,0.31,0.398c0.22,0.066,0.271-0.176,0.519-0.102
	c0.093,0.027,0.167,0.098,0.2,0.189c0.041,0.113,0.097,0.18,0.102,0.324c0.05,0.05,0.194,0.159,0.212,0.085
	c0.041-0.176,0.219-0.06,0.295-0.206c0.065-0.125-0.032-0.257,0.016-0.383c0-0.001,0.001-0.002,0.001-0.002
	c0.061-0.148,0.076-0.31,0.046-0.467c-0.015-0.072,0.005-0.184,0.04-0.395c0.014-0.082,0.175-0.125,0.213-0.186
	c0.067-0.105-0.045-0.305,0.123-0.343c0.084-0.019,0.233,0.021,0.254,0.106c0.007,0.031,0,0.063-0.021,0.088
	c-0.047,0.061-0.068,0.144-0.11,0.209c-0.086,0.131-0.104,0.295-0.05,0.44c0.047,0.126,0.123,0.239,0.243,0.249
	c0.034,0.004,0.069-0.006,0.098-0.024c0.001,0,0.001,0,0.001,0c0-0.001,0-0.001,0.001-0.001l0,0l0.173-0.061
	c0.143-0.05,0.297-0.06,0.445-0.027c0.014,0.003,0.025,0.014,0.028,0.027c0.004,0.014-0.001,0.029-0.012,0.039
	C19.223,6.03,19.188,5.925,19,5.96c-0.064,0.012-0.113,0.062-0.122,0.128c-0.008,0.059,0.021,0.114,0.069,0.146
	c0.01,0.006,0.016,0.018,0.014,0.028c0,0.001,0,0.001,0,0.001c-0.004,0.057-0.039,0.107-0.092,0.129
	c-0.039,0.018-0.084,0.016-0.122-0.002c-0.029-0.012-0.063-0.01-0.091,0.008c-0.054,0.036-0.034,0.062-0.045,0.109
	c-0.017,0.074-0.013,0.152,0.013,0.227l0,0c0.041,0.119-0.181,0.334-0.27,0.316c-0.182-0.033-0.37-0.004-0.532,0.082
	c-0.078,0.041-0.173,0.029-0.236-0.029c-0.001,0-0.001-0.001-0.002-0.001c-0.043-0.04-0.002-0.058-0.056-0.091
	c-0.012-0.008-0.295,0.111-0.308,0.115c-0.014,0.006-0.027,0.004-0.039-0.004s-0.02-0.02-0.021-0.033c0,0,0-0.001,0-0.002
	c-0.01-0.081-0.378-0.07-0.091-0.391c0.001,0,0.001,0,0.002-0.001c0.029-0.032,0.043-0.077,0.036-0.121
	c-0.012-0.073,0.003-0.143-0.064-0.171h-0.001c-0.15,0.158-0.223,0.375-0.194,0.592c0.018,0.239-0.097,0.199-0.185,0.197
	c-0.037-0.002-0.072,0.014-0.096,0.041c0,0.001-0.001,0.001-0.002,0.002c-0.034,0-0.084,0-0.168,0.008
	c-0.035,0.003-0.068,0.021-0.09,0.05c-0.003,0.003-0.004,0.007-0.003,0.011c0.003,0.02-0.01,0.039-0.029,0.043
	c-0.064,0.016-0.124,0.047-0.174,0.092c-0.114,0.104-0.173,0.146-0.293,0.213c-0.084,0.047-0.157,0.108-0.221,0.182
	c-0.026,0.029-0.082,0.062-0.215,0.139c-0.013,0.006-0.021,0.018-0.024,0.031c-0.007,0.029-0.03,0.051-0.06,0.055
	c-0.117,0.018-0.151-0.012-0.22-0.056c-0.034-0.022-0.062,0.024-0.053,0.056v0.001c0.009,0.03,0.003,0.062-0.015,0.087
	c-0.019,0.025-0.047,0.041-0.078,0.042c-0.081,0.004-0.163-0.013-0.235-0.05c-0.007-0.004-0.014-0.004-0.021-0.002
	c-0.118,0.038-0.188,0.18-0.159,0.183c0.204,0.022,0.201,0.058,0.283,0.109c0.097,0.062,0.05,0.251,0.197,0.267
	c0.001,0,0.001,0,0.003,0.001c0.018,0.001,0.033,0.151,0.036,0.169c0.003,0.014-0.003,0.028-0.015,0.036
	c-0.045,0.029-0.073,0.076-0.081,0.128c-0.013,0.1-0.003,0.205-0.069,0.289c-0.028,0.037-0.092,0.104-0.168,0.074
	c-0.08-0.031-0.167-0.049-0.253-0.053c-0.356-0.018-0.565-0.093-0.67-0.146c-0.077-0.039-0.171-0.02-0.228,0.045
	c-0.024,0.002-0.055,0.004-0.084,0.004c-0.053,0.004-0.09,0.053-0.077,0.104c0.028,0.116,0.028,0.234-0.107,0.58
	c-0.005,0.014-0.013,0.032-0.02,0.045c-0.044,0.082-0.202,0.242-0.163,0.285c0.004,0.004,0.01,0.008,0.017,0.008
	c0.032,0,0.062,0.021,0.073,0.052c0.01,0.026,0.013,0.055,0.006,0.083c-0.012,0.045-0.061,0.202-0.041,0.24
	c0.012,0.022,0.031,0.039,0.055,0.045c0.034,0.011,0.058,0.038,0.088,0.057c0.021,0.013,0.094-0.019,0.137-0.037
	c0.031-0.014,0.052-0.023,0.122,0.059c0.065,0.074,0.015,0.247,0.152,0.25c0.038,0,0.059-0.036,0.068-0.059
	c0.01-0.023,0.01-0.023,0.275-0.082c0.118-0.025,0.232,0.049,0.351,0.014c0.09-0.027,0.095-0.147,0.188-0.174
	c0.061-0.018,0.126,0.018,0.187-0.014c0.032-0.018,0.002-0.117,0.038-0.148l0,0c0.055-0.048,0.077-0.123,0.055-0.191
	c-0.01-0.033-0.008-0.043-0.003-0.067c0.007-0.028,0.093-0.079,0.143-0.192c0.005-0.011,0.01-0.02,0.017-0.025
	c0.162-0.148,0.383-0.184,0.567-0.289c0.162-0.094,0.049-0.344,0.24-0.42c0.177-0.07,0.308,0.176,0.49,0.072
	c0.192-0.109,0.433-0.247,0.483-0.25c0.053-0.002,0.1,0.012,0.14,0.029c0.061,0.027,0.112,0.073,0.147,0.131
	c0.176,0.281,0.509,0.4,0.712,0.652c0.03,0.037,0.186,0.13,0.245,0.186c0.096,0.089,0.041-0.027,0.124,0.117
	c0,0,0.001,0,0.001,0.002c0.041,0.062,0.112,0.174,0.044,0.202c-0.047,0.021-0.047,0.034-0.046,0.051
	c0.001,0.036-0.03,0.07-0.008,0.108c0.007,0.01,0.03,0.043,0.082,0.018c0.061-0.031,0.038-0.043,0.062-0.089
	c0.069-0.138,0.057-0.126,0.057-0.126c0.02-0.015,0.059-0.002,0.065-0.037c0.016-0.084-0.043-0.111-0.081-0.129
	c-0.024-0.012-0.07-0.034-0.043-0.105c0.001-0.002,0.001-0.003,0.002-0.005c0-0.001,0.001-0.001,0.001-0.003
	c0.029-0.062,0.103-0.09,0.166-0.062c0.046,0.02,0.082,0.029,0.099,0.077c0.003,0.009,0.005,0.017,0.005,0.022
	c-0.001,0.021-0.002,0.041,0.007,0.05c0.014,0.012,0.058,0.001,0.069-0.021c0.007-0.013,0.016-0.056,0.015-0.069
	c0-0.001,0-0.001,0-0.001s0-0.001,0-0.002c0-0.002-0.001-0.004-0.002-0.006c-0.114-0.178-0.327-0.192-0.491-0.287
	c-0.019-0.01-0.03-0.028-0.031-0.048c-0.005-0.042-0.039-0.072-0.081-0.072c-0.101,0.001-0.195-0.048-0.253-0.132l-0.344-0.501
	c-0.015-0.021-0.028-0.042-0.041-0.065c-0.022-0.04-0.003-0.09,0.039-0.106c0.002-0.001,0.005-0.003,0.008-0.003
	c0.066-0.02,0.139,0.006,0.177,0.064c0.019,0.029,0.038,0.062,0.072,0.059c0.042-0.002,0.083,0.011,0.117,0.035l0.593,0.432
	c0,0,0,0,0.001,0.001c0,0,0.05,0.011,0.126,0.062c0.016,0.01,0.035,0.016,0.055,0.015c0.029-0.001,0.058,0.009,0.081,0.027
	c0.09,0.073,0.148,0.177,0.161,0.292c0.007,0.051,0.011,0.098,0.013,0.131l0,0c0.003,0.043,0.025,0.082,0.061,0.107
	c0.016,0.011,0.036,0.025,0.048,0.038c0.015,0.015,0.017,0.021,0.044,0.065c0.011,0.02,0.08,0.081,0.086,0.086
	c0.001,0,0.001,0.001,0.001,0.002c0.003,0.002,0.011,0.007,0.023,0.007c0.001,0,0.002,0,0.002,0
	c0.021,0.001,0.041-0.009,0.062-0.007c0.064,0.003,0.16,0.084,0.234,0.048c0.007-0.003,0.084-0.048,0.084-0.048l0.001-0.001
	c0.18-0.083-0.042-0.167-0.049-0.249c-0.003-0.029,0.008-0.051,0.027-0.064c0.019-0.013,0.043-0.016,0.066-0.004
	c0.014,0.006,0.029,0.004,0.042-0.004l0,0c0.015-0.011,0.024-0.026,0.028-0.044c0.02-0.094,0.116-0.121,0.211-0.121
	c0.079,0,0.157,0.021,0.227,0.059c0.028,0.015,0.061,0.022,0.094,0.021c0.062-0.003,0.12-0.023,0.17-0.061
	c0.023-0.018-0.029,0.046-0.146,0.09c-0.001,0.001-0.002,0.002-0.003,0.002c-0.049,0.02-0.076,0.072-0.064,0.123
	c0.024,0.104,0.239,0.205,0.099,0.338c-0.002,0.002-0.004,0.003-0.006,0.005c0.001,0,0.001,0,0.001,0
	c0.078,0.032,0.144,0.088,0.187,0.161c0.144,0.238,0.62,0.312,0.662,0.211c0,0,0,0,0.001,0c0.021-0.055,0.082-0.082,0.137-0.062
	c0.109,0.042,0.206,0.123,0.331,0.111c0.071-0.008,0.123-0.034,0.165-0.07c0.117-0.102,0.264-0.162,0.418-0.175
	c0.002,0,0.003,0.001,0.004,0.002s0.002,0.003,0.001,0.003c-0.077,0.456,0.43,0.963-0.07,1.376c-0.04,0.032-0.11,0.049-0.161,0.058
	c-0.451,0.08-0.908,0.008-1.36,0.039c-0.262,0.018-0.3-0.076-0.382-0.077c-0.001,0-0.001,0-0.001,0c-0.001,0-0.002,0-0.003,0
	c-0.088,0.001-0.104,0.001-0.236-0.028c-0.082-0.019-0.301-0.333-0.599-0.09c-0.086,0.07-0.137,0.16-0.135,0.212
	c0.037,0.745-0.88,0.197-0.948,0.116c-0.104-0.125-0.244-0.217-0.401-0.263c-0.172-0.05-0.38-0.118-0.512-0.187
	c-0.099-0.052-0.219-0.083-0.27-0.086c-0.02-0.003-0.028-0.094,0.028-0.15c0.147-0.148,0.194-0.209,0.147-0.289
	c-0.124-0.208-0.043-0.189-0.152-0.332c0,0,0,0-0.001,0c-0.038-0.051-0.099-0.077-0.162-0.073c-1.854,0.118-2.253,0.172-2.618,0.348
	c-0.032,0.015-0.099,0.046-0.202,0.001c-0.079-0.035-0.169-0.039-0.25-0.01c-0.12-0.08-0.277-0.071-0.389,0.02l-0.604,0.49
	c-0.062,0.049-0.114,0.109-0.157,0.176c-0.109,0.172-0.102,0.301-0.099,0.363c0.01,0.193-0.543,0.549-0.835,0.517
	c-0.001,0-0.001,0-0.002,0c0-0.001,0-0.001,0-0.001c-0.133,0.055-0.249,0.102-0.921,1.038c-0.369,0.515-0.369,0.515-0.294,0.656
	c0.04,0.077,0.121,0.232,0.06,0.659c-0.003,0.027-0.009,0.057-0.016,0.084c-0.003,0.013-0.007,0.025-0.011,0.038l-0.259,0.859
	c-0.072,0.24-0.024,0.502,0.128,0.701c0,0.001,0.002,0.001,0.002,0.003l0.057,0.106c0.009,0.018,0.018,0.036,0.026,0.054
	c0.056,0.125,0.133,0.828,0.34,1.146c0.032,0.05,0.07,0.096,0.112,0.139l0.654,0.643c0.115,0.113,0.344,0.189,0.502,0.221
	c0.467,0.09,0.962,0.094,1.421,0.266c0.022,0.008,0.052,0.021,0.076,0.021c0.531,0.037,0.968-0.406,1.482-0.443
	c0.121-0.008,0.367,0.071,0.43,0.432c0.047,0.268,0.461,0.184,0.656,0.127c0.088-0.025,0.183-0.021,0.269,0.014
	c0.001,0,0.001,0,0.002,0.002v0.002c0.006,0.059,0.058,0.102,0.115,0.096c0.002,0,0.004,0,0.006,0
	c0.033-0.004,0.066,0.012,0.084,0.039c0.106,0.162,0.086,0.266,0.07,0.344l0,0c-0.001,0.002-0.001,0.002-0.001,0.004l-0.006,0.025
	c0,0.002,0,0.002,0,0.004c-0.005,0.02-0.008,0.039-0.011,0.059c-0.054,0.395-0.021,0.578-0.204,0.725
	c-0.02,0.016-0.035,0.037-0.045,0.059c0.198,0.408,0.631,0.613,0.631,0.613c0.063,0.068,0.437,0.711,0.476,0.994
	c0.061,0.434,0.061,0.352,0.072,0.369c0.19,0.312,0.023,0.459-0.093,0.518c-0.035,0.02-0.054,0.033-0.063,0.053
	c-0.018,0.033-0.037,0.068-0.06,0.1c-0.019,0.027-0.258,0.67-0.257,0.805l0,0c0.002,0.123,0.204,0.24,0.275,0.34l0.459,0.641
	c0.008,0.012,0.016,0.023,0.024,0.033c0.158,0.199-0.086,0.482,0.057,0.684c0.046,0.066,0.159,0.328,0.219,0.369
	c0.093,0.064,0.481,0.627,0.366,0.723c-0.012,0.01-0.01,0.037-0.005,0.053c0.034,0.1,0.506,0.26,0.681,0.186
	c0.259-0.109,0.802-0.197,1.022-0.195c0.306,0.002,1.778-1.053,1.662-1.416c-0.002-0.006-0.002-0.01-0.001-0.016l0,0
	c0.172-0.203,0.671-0.453,0.658-0.479c-0.001,0-0.001,0-0.002-0.002c0.065-0.143,0.088-0.262,0.089-0.357
	c0.003-0.256,0.126-0.498,0.333-0.65c0.176-0.131,0.434-0.316,0.811-0.588c0.235-0.172,0.354-0.293,0.333-1.027
	c-0.018-0.674-0.138-1.199-0.178-1.312c-0.057-0.16-0.041-0.189,0.022-0.309c0.188-0.348,0.445-0.656,0.627-1.012
	c0.287-0.562,0.641-0.895,0.834-1.074c0.009-0.008,0.017-0.016,0.023-0.023c0.351-0.411,0.552-0.967,0.68-1.487
	c0.026-0.11,0.069-0.215,0.102-0.323c0.024-0.082,0.061-0.152,0.104-0.578c0.008-0.072-0.032-0.137-0.029-0.209
	c0.016-0.279-0.08-0.033-0.162,0.006c-0.209,0.1-0.096,0.064-0.187,0.124c-0.044,0.028-0.382,0.147-0.423,0.185
	c-0.048,0.044-0.092,0.094-0.161,0.103c-0.416,0.052-0.489,0.062-0.562-0.007c-0.069-0.064-0.113-0.145-0.132-0.237
	c-0.02-0.097-0.069-0.187-0.144-0.257c-0.398-0.371-1.178-0.613-1.362-1.619c-0.028-0.152-1.136-1.752-1.363-2.076
	c-0.025-0.035-0.034-0.081-0.022-0.124v-0.001c0.043,0.109,0.215,0.307,0.32,0.415c0.029,0.03,0.072,0.045,0.106,0.019
	c0.041-0.031,0.014-0.077,0.021-0.224c0.003-0.042,0.063-0.045,0.07-0.003c0.016,0.091,0.06,0.174,0.127,0.238
	c0.146,0.143,0.326,0.406,0.444,0.591c0.072,0.114,0.17,0.206,0.287,0.272c0.169,0.096,0.219,0.25,0.339,0.619
	c0.143,0.436,0.653,0.54,0.842,0.935c0.16,0.333,0.203,0.712,0.406,1.027c0.001,0.002,0.003,0.004,0.004,0.007
	c0.026,0.034,0.07,0.051,0.113,0.041c0.309-0.072,0.667-0.459,0.756-0.528c0.187-0.146,0.322-0.255,0.421-0.339
	c0.136-0.113,0.229-0.268,0.271-0.439c0.034-0.146,0.255-0.272,0.321-0.272c0.173-0.001,0.095-0.226,0.167-0.326
	c0.077-0.106,0.082-0.226,0.171-0.319c0.028-0.029,0.062-0.054,0.099-0.072c0.004-0.002,0.007-0.006,0.008-0.01
	c0.021-0.113-0.05-0.217-0.049-0.328c0.001-0.027,0.027-0.051,0.056-0.045c0.001,0,0.002,0,0.003,0s0.001-0.002,0.002-0.002
	c0.062-0.35,0.179-0.646-0.13-0.79c-0.122-0.058-0.27,0.032-0.385-0.065c0-0.001-0.001-0.002-0.002-0.002
	c-0.062-0.054-0.146-0.076-0.228-0.059c-0.081,0.016-0.15,0.07-0.186,0.144c-0.001,0.001-0.001,0.002-0.001,0.003
	c-0.032,0.064-0.094,0.107-0.165,0.118c-0.115,0.017-0.103,0.037-0.19,0.104c0,0.001,0,0.001,0,0.001
	c-0.188-0.1-0.304-0.107-0.966-1.095c-0.197-0.294,0.071-0.44,0.164-0.333l0,0h0.001c0.082,0.088,0.418,0.443,0.689,0.596
	c0.093,0.051,0.372,0.122,0.423,0.028c0.189-0.346,0.325-0.095,0.352-0.04c0.139,0.297,0.526,0.038,0.612,0.043
	c0.188,0.01,0.172-0.029,0.713-0.335c0.214-0.122,0.471-0.14,0.701-0.052c0.229,0.09,0.406,0.277,0.483,0.511
	c0.244,0.746,0.483,2.157,0.483,3.555C29.493,23.452,23.452,29.493,16,29.493z M13.828,7.387c-0.002-0.018-0.004-0.063,0.006-0.087
	c0.027-0.062,0.094-0.09,0.134-0.142c0.048-0.063,0.04-0.071,0.022-0.085c-0.021-0.021-0.016-0.037,0-0.057
	c0.019-0.024,0.044-0.043,0.062-0.066c0.017-0.02,0.019-0.047,0.04-0.064c0.027-0.021,0.047-0.02,0.088-0.018
	c0.033,0.002,0.111-0.141,0.209-0.164c0.093-0.025,0.243,0.154,0.2,0.218c-0.009,0.014-0.033,0.017-0.059,0.021
	c-0.026,0.004-0.042,0.006-0.064,0.073c-0.009,0.025,0.02,0.06-0.013,0.078c-0.029,0.017-0.006,0.048-0.016,0.069
	c-0.02,0.045-0.061,0.1-0.084,0.131c-0.025,0.031-0.097,0.009-0.179,0.031l-0.001,0.001c-0.06,0.016-0.112,0.05-0.168,0.073
	C13.943,7.427,13.842,7.453,13.828,7.387z"/>
</svg>
