<?xml version="1.0" encoding="utf-8"?>
<!-- Generator: Adobe Illustrator 15.0.0, SVG Export Plug-In . SVG Version: 6.00 Build 0)  -->
<!DOCTYPE svg PUBLIC "-//W3C//DTD SVG 1.1//EN" "http://www.w3.org/Graphics/SVG/1.1/DTD/svg11.dtd" [
	<!ENTITY ns_extend "http://ns.adobe.com/Extensibility/1.0/">
	<!ENTITY ns_ai "http://ns.adobe.com/AdobeIllustrator/10.0/">
	<!ENTITY ns_graphs "http://ns.adobe.com/Graphs/1.0/">
	<!ENTITY ns_vars "http://ns.adobe.com/Variables/1.0/">
	<!ENTITY ns_imrep "http://ns.adobe.com/ImageReplacement/1.0/">
	<!ENTITY ns_sfw "http://ns.adobe.com/SaveForWeb/1.0/">
	<!ENTITY ns_custom "http://ns.adobe.com/GenericCustomNamespace/1.0/">
	<!ENTITY ns_adobe_xpath "http://ns.adobe.com/XPath/1.0/">
]>
<svg version="1.1" id="Layer_1" xmlns:x="&ns_extend;" xmlns:i="&ns_ai;" xmlns:graph="&ns_graphs;"
	 xmlns="http://www.w3.org/2000/svg" xmlns:xlink="http://www.w3.org/1999/xlink" x="0px" y="0px" width="36px" height="36px"
	 viewBox="0 0 36 36" enable-background="new 0 0 36 36" xml:space="preserve">
<metadata>
	<sfw  xmlns="&ns_sfw;">
		<slices></slices>
		<sliceSourceBounds  x="5.5" y="6.697" width="35.805" height="35.803" bottomLeftOrigin="true"></sliceSourceBounds>
		<optimizationSettings>
			<targetSettings  targetSettingsID="0" fileFormat="GIFFormat">
				
					<GIFFormat  transparency="true" includeCaption="false" noMatteColor="false" interlaced="false" matteColor="#FFFFFF" ditherPercent="100" ditherAlgorithm="diffusion" webShiftPercent="0" reductionAlgorithm="selective" autoReduce="false" rolloverMasterPalette="false" numColors="256" lossy="0">
					<colorTable  isExact="false"></colorTable>
					<lockedColors></lockedColors>
					<colorShiftEntries></colorShiftEntries>
				</GIFFormat>
			</targetSettings>
		</optimizationSettings>
	</sfw>
</metadata>
<path fill="#FFFFFF" d="M17.902,0C8.031,0,0,8.031,0,17.902c0,9.872,8.031,17.901,17.902,17.901c9.872,0,17.903-8.031,17.903-17.901
	C35.805,8.031,27.771,0,17.902,0z M17.902,32.671c-8.144,0-14.77-6.625-14.77-14.769c0-8.145,6.626-14.77,14.77-14.77
	s14.769,6.625,14.769,14.77C32.671,26.046,26.046,32.671,17.902,32.671z"/>
<path fill="#FFFFFF" d="M13.038,17.659c0.4,0,0.801-0.153,1.108-0.458c0.61-0.612,0.61-1.603,0-2.215l-0.905-0.904l0.905-0.904
	c0.61-0.611,0.61-1.604,0-2.216c-0.612-0.61-1.604-0.61-2.216,0l-0.905,0.904l-0.903-0.904c-0.612-0.61-1.604-0.61-2.216,0
	c-0.611,0.611-0.611,1.604,0,2.216l0.905,0.904l-0.905,0.904c-0.611,0.611-0.611,1.602,0,2.215c0.306,0.305,0.707,0.458,1.107,0.458
	c0.4,0,0.801-0.153,1.107-0.458l0.904-0.904l0.905,0.904C12.236,17.506,12.637,17.659,13.038,17.659z"/>
<path fill="#FFFFFF" d="M27.607,10.963c-0.609-0.61-1.603-0.61-2.215,0l-0.903,0.904l-0.904-0.904c-0.61-0.61-1.604-0.61-2.215,0
	c-0.609,0.611-0.609,1.604,0,2.216l0.903,0.904l-0.903,0.904c-0.609,0.611-0.609,1.602,0,2.215c0.306,0.305,0.706,0.458,1.106,0.458
	s0.801-0.153,1.105-0.458l0.906-0.904l0.904,0.904c0.307,0.304,0.705,0.458,1.106,0.458s0.802-0.153,1.106-0.458
	c0.609-0.611,0.609-1.603,0-2.215l-0.903-0.904l0.903-0.904C28.221,12.568,28.221,11.576,27.607,10.963z"/>
<path fill="#FFFFFF" d="M19.629,22.62c-2.321,0.476-4.57,1.382-6.665,2.494l-0.028,0.016c-0.103,0.058-0.2,0.122-0.291,0.202
	c-0.657,0.572-0.726,1.57-0.152,2.227c0.571,0.656,1.569,0.726,2.225,0.152c0.825-0.719,1.667-1.382,2.566-1.99
	c0.895-0.606,1.838-1.15,2.827-1.609c1.971-0.914,4.16-1.477,6.44-1.377C24.357,22.111,21.941,22.137,19.629,22.62z"/>
</svg>
