<?xml version="1.0" encoding="utf-8"?>
<!-- Generator: Adobe Illustrator 15.0.0, SVG Export Plug-In . SVG Version: 6.00 Build 0)  -->
<!DOCTYPE svg PUBLIC "-//W3C//DTD SVG 1.1//EN" "http://www.w3.org/Graphics/SVG/1.1/DTD/svg11.dtd" [
	<!ENTITY ns_extend "http://ns.adobe.com/Extensibility/1.0/">
	<!ENTITY ns_ai "http://ns.adobe.com/AdobeIllustrator/10.0/">
	<!ENTITY ns_graphs "http://ns.adobe.com/Graphs/1.0/">
	<!ENTITY ns_vars "http://ns.adobe.com/Variables/1.0/">
	<!ENTITY ns_imrep "http://ns.adobe.com/ImageReplacement/1.0/">
	<!ENTITY ns_sfw "http://ns.adobe.com/SaveForWeb/1.0/">
	<!ENTITY ns_custom "http://ns.adobe.com/GenericCustomNamespace/1.0/">
	<!ENTITY ns_adobe_xpath "http://ns.adobe.com/XPath/1.0/">
]>
<svg version="1.1" id="Layer_1" xmlns:x="&ns_extend;" xmlns:i="&ns_ai;" xmlns:graph="&ns_graphs;"
	 xmlns="http://www.w3.org/2000/svg" xmlns:xlink="http://www.w3.org/1999/xlink" x="0px" y="0px" width="169.691px" height="115px"
	 viewBox="0 0 169.691 115" enable-background="new 0 0 169.691 115" xml:space="preserve">
<metadata>
	<sfw  xmlns="&ns_sfw;">
		<slices></slices>
		<sliceSourceBounds  height="98.217" width="169.689" y="432.736" x="184.656" bottomLeftOrigin="true"></sliceSourceBounds>
	</sfw>
</metadata>
<path fill="#92938D" d="M74.377,13.271H73.68c-14.169,0-24.082,11.527-24.082,25.693v66.3h12.849V38.965
	c0-7.083,4.15-12.846,11.235-12.846h0.695v6.361l16.974-12.717L74.377,7.047V13.271z"/>
<path fill="#94103C" d="M0.896,51.638c-0.221-0.055-0.327-0.025-0.327,0.083c0,0.109-0.084,0.163-0.243,0.163
	c0.054-0.271,0.188-0.394,0.407-0.365c0.215,0.026,0.375,0.034,0.483,0.034c2.385,0,4.686,0,6.906,0
	c2.223,0,4.793,0.031,7.719,0.085c0.16,0.269,0.188,0.487,0.077,0.649c-0.104,0.163-0.025,0.353,0.245,0.572
	c-0.322,0.216-0.407,0.458-0.245,0.734c0.165,0.267,0.134,0.54-0.077,0.808c0.107,0.107,0.228,0.164,0.363,0.164
	s0.255,0.028,0.364,0.08c0.106-0.431,0.165-0.905,0.165-1.423c0-0.514,0-1.014,0-1.501c2.434,0,5.144,0.016,8.116,0.039
	c2.982,0.03,5.662,0.042,8.046,0.042c0.104-0.052,0.202-0.013,0.284,0.123c0.084,0.133,0.174,0.228,0.285,0.284
	c0.379-0.27,0.705-0.325,0.976-0.161c0.27,0.161,0.516,0.27,0.729,0.324c0.056,0.326,0.206,0.6,0.449,0.808
	c0.244,0.219,0.419,0.518,0.526,0.899c-0.271,0.265-0.42,0.514-0.446,0.73c-0.027,0.216-0.179,0.431-0.444,0.642
	c0.108,0.117,0.188,0.13,0.243,0.047c0.051-0.08,0.133-0.067,0.241,0.042c-0.108,0.214-0.096,0.334,0.04,0.361
	c0.135,0.029,0.176,0.122,0.124,0.284c-0.164,0.11-0.231,0.243-0.205,0.405c0.026,0.17,0.121,0.248,0.285,0.248
	c-0.109,0.213-0.149,0.324-0.12,0.324c0.025,0,0.063,0.113,0.12,0.329c-0.057,0.056-0.12,0.095-0.204,0.117
	c-0.081,0.027-0.15,0.097-0.201,0.203c0.051,0.161,0.146,0.274,0.285,0.328c0.133,0.053,0.255,0.131,0.365,0.245
	c-0.325,0.052-0.65,0.111-0.976,0.158c-0.326,0.054-0.654,0.112-0.977,0.168c-0.054-0.114-0.097-0.181-0.123-0.211
	c-0.029-0.021-0.068-0.095-0.121-0.201c0.104-0.269,0.244-0.409,0.406-0.409c0.052-0.216-0.082-0.32-0.406-0.32
	c0.161-0.112,0.229-0.208,0.202-0.284c-0.028-0.084-0.065-0.15-0.12-0.207c-0.056-0.048-0.07-0.079-0.037-0.079
	c0.022,0,0.117,0,0.281,0c-0.22-0.38-0.367-0.418-0.445-0.129c-0.08,0.299-0.233,0.48-0.448,0.531
	c0.165,0.38,0.298,0.838,0.406,1.378c-1.245,0.221-2.501,0.4-3.778,0.531c-1.274,0.139-2.447,0.396-3.531,0.772
	c0.055,0.108,0.148,0.137,0.285,0.08c0.131-0.056,0.229-0.027,0.284,0.085c-0.107,0.159-0.138,0.279-0.083,0.361
	c0.054,0.082,0.135,0.177,0.244,0.285c-0.051,0.109-0.109,0.125-0.161,0.039c-0.054-0.082-0.138-0.065-0.244,0.041
	c-0.057,0.217-0.027,0.328,0.081,0.328c0.109,0,0.163,0.08,0.163,0.244c-0.325,0.322-0.664,0.637-1.014,0.932
	c-0.354,0.297-0.655,0.606-0.896,0.935c-0.245,0.323-0.42,0.688-0.526,1.098c-0.111,0.408-0.082,0.853,0.08,1.341
	c0.164,0.051,0.284,0.039,0.366-0.041c0.08-0.082,0.205-0.091,0.367-0.041c-0.059,0.108-0.155,0.146-0.288,0.123
	c-0.134-0.025-0.152,0.071-0.038,0.284c-0.113,0.054-0.165,0.054-0.165,0c0-0.051-0.054-0.082-0.164-0.082
	c-0.052,0.378-0.201,0.597-0.445,0.647c-0.24,0.054-0.443,0.167-0.607,0.326c-0.219,0.322-0.342,0.812-0.363,1.461
	c-0.028,0.652-0.258,1.115-0.69,1.386c0.053,0.378-0.053,0.59-0.326,0.644c0,0.439,0,0.75,0,0.938c0,0.19-0.055,0.418-0.162,0.688
	c0.162,0.116,0.353,0.164,0.57,0.164c0.213,0,0.406,0.053,0.569,0.159c0,0.106-0.029,0.177-0.082,0.203
	c-0.058,0.032-0.082,0.097-0.082,0.208c-0.272,0.048-0.436,0-0.487-0.167c-0.053-0.162-0.162-0.271-0.326-0.326
	c-0.055,0-0.094,0.017-0.119,0.046c-0.028,0.026-0.067,0.036-0.122,0.036c0,0.273,0.079,0.411,0.241,0.411
	c-0.055,0.107-0.147,0.159-0.285,0.159c-0.136,0-0.174,0.051-0.119,0.162c0.105,0.327,0.201,0.625,0.285,0.895
	c0.082,0.273,0.064,0.616-0.043,1.056c-0.268,0.106-0.43,0.297-0.483,0.569c-0.06,0.267-0.084,0.567-0.084,0.892
	c0,0.33-0.026,0.652-0.082,0.973c-0.054,0.33-0.188,0.572-0.404,0.732c-0.054,0.219-0.032,0.345,0.078,0.367
	c0.108,0.03,0.028,0.07-0.242,0.121c0.322,0.327,0.297,0.569-0.083,0.729c0.108,0.11,0.161,0.223,0.161,0.327
	c0,0.105,0.086,0.14,0.242,0.087c-0.103,0.053-0.195,0.118-0.281,0.2c-0.082,0.08-0.016,0.146,0.201,0.203
	c0,0.16-0.131,0.238-0.404,0.238c0.057,0.436-0.04,0.749-0.286,0.939c-0.238,0.188-0.474,0.394-0.685,0.606
	c-2.875,0-5.783-0.021-8.737-0.081c-2.952-0.053-6.103-0.104-9.466-0.164c-0.105-0.104-0.146-0.238-0.119-0.408
	c0.025-0.16-0.04-0.129-0.202,0.091c-0.106-0.06-0.106-0.113,0-0.167c0.107-0.051,0.161-0.133,0.161-0.242c-0.105,0-0.24,0-0.406,0
	c-0.162,0-0.24,0.109-0.24,0.32c-0.221-0.104-0.354-0.161-0.411-0.161c0.22-0.479,0.324-1.188,0.324-2.108
	c0.109,0,0.176-0.056,0.21-0.166c0.023-0.104,0.117-0.133,0.283-0.074c-0.164-0.104-0.22-0.273-0.164-0.49
	c0.056-0.215,0-0.432-0.162-0.647c0.219-0.161,0.422-0.297,0.607-0.407c0.19-0.107,0.312-0.3,0.368-0.572c0.214,0,0.336,0,0.365,0
	c0.024,0,0.093,0.057,0.201,0.168c-0.108-0.271-0.138-0.437-0.079-0.487c0.054-0.054,0-0.216-0.168-0.485
	c0.222-0.33,0.516-0.521,0.895-0.574c-0.111-0.166-0.232-0.189-0.364-0.08c-0.134,0.105-0.282,0.135-0.445,0.08
	c0-0.764,0.325-1.219,0.977-1.379c0-0.217-0.069-0.246-0.204-0.088c-0.136,0.17-0.205,0.113-0.205-0.16
	c0.163,0.056,0.271,0.039,0.327-0.035c0.049-0.09,0.134-0.129,0.242-0.129c0-0.104-0.056-0.157-0.16-0.157
	c-0.109,0-0.139-0.085-0.082-0.248h0.324c-0.054-0.052-0.082-0.189-0.082-0.4c0.326-0.166,0.649-0.396,0.979-0.69
	c0.32-0.295,0.431-0.66,0.32-1.098c0.273-0.06,0.46-0.179,0.568-0.365c0.11-0.188,0.217-0.416,0.325-0.691
	c-0.108,0-0.175,0.057-0.2,0.16c-0.031,0.113-0.097,0.191-0.203,0.246c-0.109-0.105-0.123-0.226-0.041-0.33
	c0.082-0.1,0.063-0.236-0.041-0.401c0.16,0,0.271-0.044,0.326-0.122c0.051-0.084,0.103-0.168,0.159-0.244
	c0.058-0.082,0.137-0.15,0.245-0.203c0.108-0.051,0.269-0.051,0.482,0c0-0.272-0.063-0.336-0.197-0.205
	c-0.138,0.136-0.231,0.096-0.286-0.121c0-0.168,0.062-0.258,0.203-0.282c0.133-0.032,0.226-0.097,0.28-0.203
	c-0.054-0.16-0.108-0.16-0.159,0c-0.056,0.16-0.135,0.188-0.242,0.08c-0.109-0.484-0.098-0.828,0.037-1.013
	c0.139-0.192,0.149-0.504,0.044-0.934c0.268-0.275,0.475-0.492,0.608-0.652c0.134-0.164,0.148-0.383,0.039-0.651
	c0.106,0,0.188,0.03,0.242,0.084c0.054,0.053,0.136,0.028,0.243-0.084c0-0.106-0.028-0.132-0.08-0.08
	c-0.056,0.055-0.137,0.08-0.245,0.08c0.108-0.106,0.126-0.203,0.041-0.281c-0.08-0.085-0.096-0.205-0.041-0.364
	c0.108,0.106,0.218,0.118,0.325,0.034c0.109-0.077,0.19-0.177,0.241-0.28c0.165,0.104,0.315,0.244,0.449,0.405
	c0.136,0.16,0.175,0.378,0.123,0.648c-0.216,0.055-0.3-0.052-0.244-0.324c-0.104,0.106-0.206,0.203-0.284,0.283
	c-0.082,0.079-0.176,0.125-0.286,0.125c0.159,0.106,0.292,0.135,0.407,0.077c0.105-0.055,0.244-0.024,0.407,0.082
	C7.93,65.665,7.86,65.73,7.836,65.812c-0.03,0.082-0.097,0.068-0.204-0.041c0.057,0.109,0.092,0.162,0.12,0.162
	c0.029,0,0.071,0.054,0.124,0.162c0.109-0.108,0.188-0.227,0.242-0.365c0.051-0.135,0.132-0.282,0.246-0.444
	c0.102,0.11,0.227,0.149,0.363,0.116c0.138-0.023,0.229-0.09,0.284-0.2c-0.054-0.106-0.111-0.132-0.162-0.08
	c-0.057,0.056-0.139,0.026-0.24-0.082c0.103-0.106,0.214-0.229,0.32-0.365c0.107-0.134,0.029-0.261-0.242-0.362
	c0.051-0.111,0.105-0.121,0.162-0.043c0.051,0.08,0.135,0.065,0.243-0.039c-0.597-0.272-1.107-0.272-1.544,0
	c-0.106,0-0.149-0.064-0.121-0.207c0.027-0.131,0.066-0.224,0.121-0.281c-0.273-0.215-0.502-0.174-0.688,0.119
	c-0.19,0.303-0.365,0.397-0.528,0.285c0,0.22,0.039,0.271,0.122,0.166c0.08-0.111,0.174-0.138,0.283-0.082
	c0,0.271-0.038,0.471-0.121,0.605c-0.082,0.141-0.176,0.312-0.284,0.528c-0.22,0-0.385-0.064-0.485-0.201
	c-0.108-0.133-0.302-0.174-0.568-0.123c0.05-0.271,0.094-0.476,0.122-0.606C5.427,64.3,5.466,64.119,5.52,63.9
	c-0.055-0.103-0.203-0.129-0.45-0.082c-0.242,0.058-0.26,0.139-0.035,0.252c-0.225,0.104-0.324,0.022-0.324-0.252
	c0-0.264,0.131-0.432,0.404-0.48c-0.109-0.059-0.22-0.139-0.327-0.248c-0.108-0.105-0.026-0.188,0.247-0.242
	c-0.056-0.106-0.123-0.145-0.207-0.113c-0.08,0.02-0.175,0.007-0.284-0.047c0-0.221,0.164-0.297,0.489-0.244
	c-0.162-0.105-0.355-0.176-0.566-0.206c-0.225-0.023-0.424-0.048-0.617-0.08c-0.186-0.025-0.332-0.079-0.438-0.164
	c-0.113-0.076-0.137-0.256-0.083-0.521h0.646c-0.105-0.107-0.228-0.158-0.363-0.127c-0.134,0.032-0.312,0.02-0.527-0.035
	c0.057-0.328-0.053-0.437-0.324-0.328c0.055-0.107,0.094-0.229,0.12-0.365c0.03-0.133,0.122-0.23,0.285-0.285
	c-0.111-0.162-0.271-0.297-0.484-0.404c-0.218-0.106-0.326-0.298-0.326-0.57c0.108,0,0.139,0.041,0.084,0.123
	c-0.059,0.08-0.029,0.149,0.08,0.203c0.108-0.108,0.19-0.16,0.243-0.16c-0.164-0.219-0.109-0.379,0.159-0.486
	c0-0.107-0.04-0.206-0.12-0.282c-0.08-0.086-0.094-0.209-0.039-0.366c0.324-0.113,0.488-0.33,0.488-0.658
	c-0.107-0.103-0.232-0.128-0.369-0.075c-0.136,0.053-0.254,0-0.362-0.161c-0.108,0.107-0.189,0.224-0.247,0.365
	c-0.049,0.133-0.159,0.228-0.319,0.283c0-0.106,0.022-0.214,0.078-0.327c0.055-0.104-0.056-0.136-0.326-0.084
	c0-0.103,0.041-0.158,0.128-0.158c0.08,0,0.12-0.054,0.12-0.166c-0.11-0.103-0.232-0.129-0.367-0.083
	c-0.139,0.058-0.259,0-0.367-0.16c0-0.217,0.164-0.376,0.486-0.487c-0.43-0.212-0.456-0.513-0.08-0.892
	c-0.161-0.054-0.271-0.038-0.322,0.042c-0.054,0.079-0.098,0.174-0.124,0.281c-0.026,0.114-0.056,0.192-0.08,0.244
	c-0.027,0.057-0.124,0.029-0.288-0.08c0.109-0.165,0.193-0.312,0.244-0.446c0.054-0.136,0.219-0.256,0.487-0.373
	c-0.105-0.158-0.204-0.184-0.28-0.073c-0.086,0.108-0.18,0.108-0.289,0c0.109,0.108,0.162,0.19,0.162,0.243
	c-0.217-0.11-0.432-0.202-0.649-0.287c-0.208-0.076-0.373-0.171-0.481-0.284c0.056-0.216,0.108-0.429,0.163-0.65
	c0.053-0.216,0.053-0.487,0-0.808c0.322-0.112,0.594-0.169,0.811-0.169c0.053,0.221,0.03,0.259-0.077,0.124
	c-0.111-0.131-0.164-0.096-0.164,0.123c0.215,0.052,0.339,0.012,0.364-0.123c0.025-0.131,0.177-0.149,0.445-0.041V53.18
	c0-0.104-0.081-0.104-0.24,0c-0.164,0.114-0.275,0.083-0.328-0.076c0.053-0.164,0.162-0.258,0.328-0.288
	c0.159-0.028,0.294-0.094,0.401-0.201c-0.159-0.219-0.377-0.246-0.648-0.084c-0.271,0.165-0.456,0.191-0.568,0.084
	c0.163-0.166,0.246-0.33,0.246-0.49C0.731,51.964,0.784,51.801,0.896,51.638z M1.38,57.002c0.216,0.104,0.438,0.048,0.649-0.164
	c-0.106,0-0.15-0.024-0.119-0.078c0.022-0.062-0.017-0.088-0.122-0.088c0,0.111-0.07,0.154-0.205,0.126
	C1.445,56.771,1.38,56.837,1.38,57.002z M4.142,53.262c-0.108-0.108-0.241-0.083-0.407,0.082c-0.16,0.161-0.298,0.136-0.404-0.082
	c0.161-0.27,0.352-0.351,0.568-0.242c0.214,0.107,0.435,0.026,0.647-0.246v-0.159c-0.16-0.11-0.258-0.11-0.281,0
	c-0.03,0.107-0.097,0.159-0.204,0.159c0-0.104-0.044-0.17-0.124-0.204c-0.086-0.024-0.096-0.121-0.038-0.285H3.493
	c-0.16,0.219-0.242,0.411-0.242,0.572s-0.057,0.38-0.163,0.647c0.272-0.055,0.352,0.087,0.245,0.408H2.924
	c0,0.273,0.069,0.324,0.205,0.166c0.135-0.166,0.204-0.108,0.204,0.158c-0.109,0.164-0.258,0.197-0.449,0.087
	c-0.19-0.109-0.336-0.031-0.442,0.242c0.054-0.329-0.059-0.54-0.326-0.653c-0.057,0.273-0.043,0.431,0.035,0.487
	c0.088,0.054,0.152,0.164,0.207,0.321c0.271,0.114,0.432,0.098,0.486-0.034c0.052-0.136,0.19-0.231,0.407-0.287
	c-0.057,0.272,0,0.321,0.163,0.164c0.159-0.164,0.269-0.132,0.321,0.08c-0.111,0.163-0.321,0.351-0.648,0.568
	c-0.324,0.218-0.594,0.193-0.813-0.083c-0.269,0.107-0.351,0.19-0.242,0.246c0.106,0.053,0.106,0.19,0,0.404
	c-0.106,0-0.16-0.054-0.16-0.16c0-0.11-0.053-0.135-0.167-0.081c0,0.265,0.071,0.406,0.208,0.406c0.134,0,0.254-0.028,0.361-0.084
	c0.107-0.057,0.302-0.161,0.57-0.322c-0.056,0.107-0.121,0.228-0.202,0.363c-0.082,0.144-0.065,0.234,0.041,0.284
	c0-0.101,0.056-0.14,0.161-0.12c0.108,0.029,0.19-0.012,0.243-0.12c0-0.27,0.026-0.435,0.08-0.495
	c0.111,0.17,0.258,0.259,0.446,0.292c0.19,0.026,0.344,0.062,0.449,0.12c0.106-0.216,0.106-0.322,0-0.322
	c-0.105,0-0.219-0.054-0.327-0.163c0.164-0.111,0.27-0.302,0.327-0.569c0.051-0.276,0-0.465-0.161-0.572
	c0.213-0.104,0.296-0.183,0.241-0.244c-0.054-0.053,0-0.158,0.161-0.322c-0.271,0-0.42,0.108-0.45,0.322
	c-0.021,0.219-0.145,0.33-0.36,0.33c0.053-0.271,0.149-0.45,0.284-0.531C3.909,53.708,4.033,53.534,4.142,53.262z M4.062,61.793
	c0.16,0.057,0.271,0.042,0.324-0.038c0.053-0.089,0.092-0.159,0.122-0.249c0.023-0.08,0.079-0.143,0.161-0.197
	c0.082-0.057,0.204-0.057,0.367,0c-0.056-0.113-0.073-0.193-0.044-0.244c0.03-0.055-0.012-0.084-0.119-0.084
	C4.386,61.09,4.114,61.363,4.062,61.793z M4.062,79.178c0.16-0.06,0.241-0.039,0.241,0.04c0,0.083,0.055,0.149,0.165,0.202
	c0.213-0.161,0.213-0.302,0-0.404C4.247,78.91,4.114,78.959,4.062,79.178z M4.304,58.951v0.404c0.22-0.109,0.313-0.197,0.284-0.285
	c-0.026-0.08,0.069-0.174,0.288-0.288c-0.16,0-0.258,0.042-0.288,0.124C4.562,58.991,4.47,59.002,4.304,58.951z M5.85,60.574
	c-0.107-0.105-0.247-0.18-0.408-0.203c-0.16-0.027-0.271-0.12-0.325-0.285c-0.108,0.109-0.135,0.164-0.079,0.164
	c0.159,0.217,0.213,0.418,0.159,0.605c-0.057,0.193-0.028,0.338,0.083,0.451c0.106-0.057,0.148-0.152,0.122-0.285
	c-0.029-0.138,0.011-0.232,0.121-0.285c0.103,0.324,0.218,0.541,0.325,0.648c0.159-0.107,0.338-0.179,0.526-0.201
	c0.19-0.031,0.338-0.123,0.445-0.289c-0.107-0.056-0.255-0.065-0.445-0.041c-0.188,0.03-0.312-0.015-0.365-0.117
	c0.107,0,0.188-0.027,0.242-0.08c0.051-0.062,0.137-0.086,0.245-0.086c-0.108-0.163-0.194-0.307-0.245-0.449
	c-0.055-0.131-0.135-0.256-0.242-0.36c-0.108,0.104-0.097,0.241,0.038,0.403C6.187,60.33,6.119,60.469,5.85,60.574z M5.443,75.034
	c0.216,0.056,0.336-0.009,0.364-0.206c0.029-0.182-0.064-0.279-0.283-0.279C5.414,74.758,5.388,74.926,5.443,75.034z M5.443,76.495
	c0.322,0,0.511-0.132,0.568-0.401c-0.16,0.045-0.297,0.09-0.408,0.116C5.496,76.239,5.443,76.332,5.443,76.495z M5.603,62.443
	c0.219,0,0.363,0.01,0.445,0.041c0.086,0.025,0.178-0.066,0.289-0.287c-0.11,0.105-0.231,0.152-0.369,0.125
	C5.837,62.295,5.715,62.334,5.603,62.443z M6.011,79.09c0,0.168,0.068,0.249,0.205,0.249c0.134,0,0.198,0.05,0.198,0.161
	c0.058-0.111,0.124-0.174,0.206-0.201c0.084-0.027,0.121-0.098,0.121-0.21c-0.219,0.058-0.364,0.046-0.445-0.038
	C6.217,78.975,6.119,78.988,6.011,79.09z M6.5,63.656c-0.057-0.271-0.041-0.428,0.037-0.479C6.62,63.12,6.606,62.958,6.5,62.688
	c-0.109,0.053-0.232,0.047-0.365-0.039c-0.142-0.084-0.15-0.066-0.041,0.039c0.212,0.16,0.269,0.353,0.16,0.57
	C6.144,63.471,6.226,63.607,6.5,63.656z M6.254,74.712c0.105,0,0.174,0.036,0.205,0.118c0.026,0.081,0.119,0.096,0.283,0.041
	c-0.056-0.113-0.037-0.176,0.043-0.2s0.091-0.121,0.036-0.285C6.444,74.491,6.254,74.602,6.254,74.712z M6.904,63.089
	c0.218-0.05,0.338-0.114,0.37-0.198c0.021-0.086,0.146-0.067,0.362,0.033c0.105-0.264,0-0.363-0.326-0.279
	C6.986,62.732,6.851,62.877,6.904,63.089z M6.904,81.123c0.271,0,0.437-0.055,0.484-0.164c-0.106,0-0.269-0.047-0.484-0.158V81.123z
	 M7.388,73.084c0.059,0.051,0.082,0.111,0.082,0.161c0.328-0.05,0.488-0.244,0.488-0.569c-0.217-0.055-0.34-0.025-0.367,0.082
	C7.569,72.867,7.5,72.973,7.388,73.084z M8.043,74.387c-0.107,0.053-0.217,0.053-0.326,0c-0.108-0.057-0.161-0.029-0.161,0.075
	c0.106,0.112,0.216,0.153,0.326,0.126C7.991,74.555,8.043,74.491,8.043,74.387z M8.043,61.553c0.27,0.053,0.429,0,0.482-0.164
	c0.057-0.166,0.137-0.106,0.243,0.164c0.109-0.109,0.136-0.272,0.086-0.488c-0.112,0-0.178-0.014-0.202-0.039
	c-0.03-0.029-0.096-0.045-0.207-0.045c0.056,0.218-0.015,0.316-0.2,0.285C8.056,61.234,7.991,61.332,8.043,61.553z M8.771,64.477
	c-0.106,0.104-0.212,0.17-0.323,0.201c-0.105,0.023-0.245,0.094-0.404,0.2c-0.053-0.271,0.025-0.394,0.242-0.362
	C8.502,64.544,8.662,64.529,8.771,64.477z M8.448,59.189c0.111-0.158,0.207-0.146,0.289,0.039c0.08,0.194,0.17,0.184,0.282-0.039
	c0-0.158-0.139-0.238-0.403-0.238C8.34,58.951,8.285,59.032,8.448,59.189z M8.856,72.354c0,0.053-0.015,0.094-0.04,0.123
	c-0.029,0.026-0.045,0.092-0.045,0.199c0.108-0.055,0.22-0.025,0.328,0.082c0-0.162,0.054-0.255,0.162-0.281
	c0.108-0.031,0.158-0.123,0.158-0.289c-0.268,0.164-0.416,0.209-0.447,0.123c-0.024-0.078-0.115-0.062-0.279,0.041L8.856,72.354
	L8.856,72.354z M8.771,60.49c0.22,0.107,0.3,0.072,0.246-0.119c-0.053-0.189-0.028-0.26,0.082-0.205
	c0,0.057,0.025,0.085,0.082,0.085c0-0.164-0.109-0.22-0.324-0.164c0.05,0.11,0.05,0.181,0,0.208
	C8.799,60.314,8.771,60.383,8.771,60.49z M8.856,60.898c0.215,0.053,0.337,0.017,0.362-0.119c0.022-0.133,0.092-0.234,0.199-0.289
	C9.153,60.439,8.965,60.574,8.856,60.898z M9.099,73.895c0-0.11,0.068-0.164,0.203-0.164c0.132,0,0.17-0.073,0.117-0.241
	c-0.107-0.052-0.226-0.022-0.361,0.086C8.922,73.684,8.935,73.783,9.099,73.895z M9.42,65.041c0.277,0,0.414-0.094,0.414-0.281
	c0-0.191-0.058-0.345-0.164-0.447c-0.055,0.104-0.135,0.203-0.249,0.28C9.31,64.678,9.31,64.822,9.42,65.041z M9.42,57.89
	c0.113,0,0.222-0.052,0.329-0.163c0.107-0.103,0.085-0.212-0.081-0.323c-0.054,0.112-0.107,0.195-0.162,0.249
	C9.45,57.706,9.42,57.785,9.42,57.89z M9.504,72.354c0.213,0.053,0.337,0.062,0.363,0.043c0.026-0.03,0.125-0.02,0.285,0.033
	c-0.109-0.16-0.078-0.289,0.084-0.363c0.164-0.08,0.164-0.18,0-0.284c-0.107,0.104-0.231,0.204-0.367,0.284
	C9.736,72.145,9.613,72.248,9.504,72.354z M9.994,70.404c0-0.326-0.113-0.484-0.326-0.484C9.776,70.24,9.879,70.404,9.994,70.404z
	 M9.832,59.439l0.242-0.084l0.24,0.084c0.056-0.215-0.03-0.299-0.24-0.248C9.857,59.246,9.776,59.325,9.832,59.439z M9.994,57.002
	c0.104,0,0.173,0.031,0.199,0.079c0.028,0.057,0.094,0.057,0.209,0v-0.32C10.179,56.761,10.043,56.837,9.994,57.002z M10.722,70.729
	c0.104-0.166,0.039-0.258-0.206-0.283c-0.239-0.03-0.363,0.011-0.363,0.115c0.106-0.053,0.192-0.037,0.248,0.043
	C10.449,70.688,10.56,70.729,10.722,70.729z M10.722,63.339c0.162,0,0.24-0.069,0.24-0.208c0-0.131,0.056-0.229,0.168-0.283h-0.408
	V63.339z M10.803,56.023c0.107-0.105,0.216-0.174,0.328-0.201c0.104-0.029,0.13-0.147,0.078-0.373c-0.11,0-0.216,0.091-0.323,0.25
	C10.775,55.862,10.749,55.977,10.803,56.023z M12.02,60.979c-0.16,0-0.292,0.136-0.402,0.41c0.268-0.056,0.338-0.025,0.198,0.081
	c-0.133,0.105-0.09,0.189,0.128,0.238c0.104-0.213,0.198-0.267,0.284-0.156c0.078,0.105,0.199,0.183,0.359,0.24
	c-0.16-0.377-0.271-0.679-0.322-0.896c-0.053-0.217-0.135-0.459-0.245-0.731c-0.104,0.11-0.136,0.243-0.076,0.408
	C11.994,60.739,12.02,60.871,12.02,60.979z M12.588,71.293c0.107-0.217,0.164-0.407,0.164-0.564h-0.243
	c0.106,0.107,0.124,0.205,0.04,0.281C12.469,71.093,12.486,71.189,12.588,71.293z M12.588,58.218
	c0.218-0.053,0.382-0.133,0.488-0.245c0.108-0.107,0.268-0.188,0.488-0.246c0-0.103,0.012-0.224,0.04-0.364
	c0.027-0.132-0.015-0.201-0.118-0.201c0,0.159-0.167,0.242-0.49,0.242c-0.056,0.271-0.017,0.342,0.121,0.205
	c0.137-0.136,0.202-0.151,0.202-0.038v0.241C12.888,57.706,12.642,57.838,12.588,58.218z M12.674,81.123
	c0.324,0.116,0.487,0,0.487-0.322c-0.111,0.055-0.221,0.084-0.325,0.084C12.728,80.885,12.674,80.959,12.674,81.123z M12.916,53.592
	c0.107-0.058,0.287-0.072,0.529-0.045c0.241,0.028,0.416-0.067,0.524-0.285c-0.106-0.05-0.296-0.05-0.569,0
	C13.131,53.316,12.969,53.423,12.916,53.592z M12.916,62.197c0.324,0,0.595,0.084,0.81,0.244c0.221,0.164,0.438,0.324,0.654,0.481
	c0.106-0.159,0.32-0.187,0.65-0.079c0-0.158,0-0.31,0-0.449c0-0.131-0.086-0.199-0.242-0.199c-0.113,0.105-0.258,0.137-0.452,0.084
	c-0.188-0.055-0.365-0.125-0.531-0.204c-0.159-0.087-0.315-0.126-0.483-0.126C13.161,61.951,13.024,62.035,12.916,62.197z
	 M13.076,67.969h0.323v-0.328h-0.323V67.969z M13.489,54.645c0.157,0,0.293-0.112,0.4-0.322c-0.271,0-0.4,0.021-0.4,0.078
	C13.593,54.455,13.593,54.531,13.489,54.645z M13.725,57.321c0.385-0.105,0.745-0.24,1.1-0.406c0.352-0.156,0.663-0.487,0.933-0.971
	c-0.322,0.273-0.677,0.5-1.057,0.686C14.321,56.827,13.998,57.05,13.725,57.321z M14.217,52.774
	c0.049-0.216-0.055-0.377-0.328-0.487c-0.106,0.11-0.106,0.21,0,0.285C13.998,52.653,14.11,52.724,14.217,52.774z M14.787,61.873
	c-0.114,0.059-0.139-0.01-0.087-0.207c0.058-0.188,0-0.223-0.161-0.113c-0.105,0.105-0.117,0.225-0.036,0.363
	C14.584,62.047,14.673,62.035,14.787,61.873z M14.538,72.189H14.7c0-0.053,0.028-0.08,0.088-0.08c0.051,0,0.051-0.053,0-0.158h-0.25
	V72.189z M15.031,81.365c0.159-0.049,0.257-0.033,0.281,0.042c0.027,0.079,0.096,0.118,0.202,0.118
	c0.057-0.16-0.016-0.281-0.202-0.359C15.117,81.088,15.031,81.157,15.031,81.365z M15.353,63.012
	c0.104,0.107,0.203,0.139,0.283,0.078c0.084-0.05,0.179-0.078,0.285-0.078c0.109-0.271,0.031-0.404-0.243-0.404
	c0.055,0.16,0,0.24-0.163,0.24C15.353,62.848,15.3,62.9,15.353,63.012z M16.894,55.45c0.055-0.101,0.083-0.236,0.083-0.4
	c0-0.159-0.083-0.242-0.24-0.242c0,0.107-0.021,0.225-0.044,0.363C16.664,55.311,16.737,55.406,16.894,55.45z M18.845,68.533
	c0.109,0.109,0.202,0.176,0.281,0.203c0.087,0.029,0.18-0.012,0.286-0.123c0.053-0.209-0.013-0.311-0.199-0.28
	C19.023,68.359,18.901,68.428,18.845,68.533z M19.905,62.197c0.104-0.106,0.227-0.162,0.362-0.162c0.134,0,0.229-0.057,0.278-0.16
	c-0.103,0-0.267,0.041-0.483,0.116C19.844,62.076,19.791,62.146,19.905,62.197z M20.387,57.081c0.219,0.057,0.379,0.041,0.488-0.038
	c0.106-0.079,0.24-0.069,0.404,0.038c0-0.213-0.024-0.32-0.078-0.32c-0.11,0.107-0.271,0.145-0.489,0.113
	C20.497,56.85,20.387,56.916,20.387,57.081z M22.013,82.182c-0.16,0.053-0.274,0.037-0.327-0.035
	c-0.054-0.086-0.158-0.127-0.326-0.127c0.108-0.11,0.243-0.16,0.411-0.16C21.931,81.857,22.013,81.968,22.013,82.182z
	 M140.204,42.541c0.271,0,0.449,0.079,0.529,0.243c0.081,0.161,0.135,0.354,0.163,0.569c0.023,0.218,0.05,0.46,0.079,0.733
	c0.023,0.273,0.121,0.481,0.284,0.653c-0.108,0.048-0.206,0.093-0.284,0.117c-0.079,0.025-0.18,0.069-0.283,0.123
	c0.103,0.22,0.205,0.243,0.283,0.078c0.078-0.16,0.175-0.213,0.284-0.16c-0.108,0.218-0.188,0.354-0.245,0.402
	c-0.051,0.058-0.078,0.167-0.078,0.332h-0.654c0,0.108,0.086,0.129,0.245,0.076c0.165-0.049,0.188,0.032,0.081,0.248
	c-0.105,0-0.178-0.027-0.201-0.081c-0.029-0.054-0.097-0.028-0.203,0.081c0.106,0.108,0.212,0.162,0.323,0.162
	c0,0.11-0.064,0.176-0.201,0.204c-0.139,0.03-0.203,0.096-0.203,0.2c0.27,0.164,0.351,0.351,0.242,0.574
	c-0.109,0.212-0.272,0.4-0.486,0.564c0.106,0.057,0.16,0.153,0.16,0.284c0,0.139,0.084,0.153,0.241,0.042
	c0.163,0.161,0.136,0.218-0.078,0.161c-0.217-0.052-0.353,0-0.405,0.161c0.16,0.057,0.273,0.123,0.323,0.208
	c0.051,0.081,0.096,0.146,0.12,0.201c0.028,0.054,0.067,0.107,0.125,0.161c0.048,0.051,0.159,0.051,0.322,0
	c-0.057,0.219-0.109,0.367-0.162,0.449c-0.053,0.08-0.025,0.171,0.083,0.284c0.105,0.104,0.215,0.233,0.325,0.363
	c0.107,0.138,0.107,0.316,0,0.527c-0.271-0.107-0.474-0.082-0.607,0.088c-0.139,0.159-0.341,0.237-0.607,0.237
	c0.048,0.222,0.132,0.274,0.239,0.167c0.112-0.107,0.27-0.14,0.485-0.083c0,0.432,0.161,0.673,0.49,0.729
	c0,0.326-0.141,0.46-0.409,0.41c0.106,0.484,0.053,0.946-0.159,1.375c-0.221,0.436-0.438,0.734-0.646,0.9
	c0,0.27,0.009,0.527,0.031,0.77c0.031,0.242-0.094,0.357-0.36,0.357c0.106,0.277,0.136,0.495,0.078,0.654
	c-0.052,0.165-0.105,0.38-0.159,0.657c-0.274-0.062-0.435-0.031-0.487,0.078c-0.058,0.106-0.11,0.213-0.164,0.323
	c0.164,0.114,0.232,0.082,0.205-0.081c-0.025-0.164,0.04-0.189,0.203-0.079c-0.163,0.65-0.353,1.314-0.571,1.989
	c-0.218,0.678-0.268,1.338-0.16,1.987c-0.105,0.058-0.216,0.125-0.324,0.207c-0.108,0.078-0.135,0.256-0.077,0.521
	c-0.273-0.049-0.466,0.018-0.568,0.209c-0.109,0.191-0.22,0.365-0.326,0.527c0.106,0.104,0.132,0.242,0.081,0.404
	c-0.059,0.163,0.027,0.219,0.245,0.163c-0.278,0.218-0.326,0.408-0.163,0.567c0.163,0.163,0.295,0.354,0.409,0.566
	c0.212-0.106,0.226-0.188,0.036-0.244c-0.188-0.055-0.229-0.187-0.117-0.401c0.206,0.058,0.403,0,0.562-0.161
	c-0.054-0.161-0.203-0.208-0.444-0.126c-0.243,0.08-0.312-0.013-0.204-0.288c0.27-0.158,0.377-0.145,0.325,0.051
	c-0.057,0.186,0.052,0.225,0.323,0.113c0.165-0.974,0.422-1.812,0.772-2.518s0.637-1.596,0.858-2.683
	c-0.112-0.105-0.164-0.129-0.164-0.08c0,0.053-0.058,0.028-0.162-0.084c0.049-0.646,0.162-1.159,0.326-1.542
	c0.16-0.38,0.291-0.863,0.404-1.464c0.216-0.377,0.419-0.751,0.611-1.128c0.186-0.38,0.414-0.704,0.686-0.977l25.347-0.085
	c0.757,0,1.288,0,1.583,0c0.297,0,0.742,0.054,1.339,0.165c0,0.215,0,0.415,0,0.606c0,0.189-0.136,0.255-0.407,0.202
	c-0.107-0.107-0.107-0.174,0-0.202c0.106-0.027,0.138-0.125,0.084-0.284c-0.272-0.049-0.412,0.012-0.412,0.202
	c0,0.193,0.112,0.284,0.328,0.284c-0.107,0.218-0.242,0.329-0.404,0.329c-0.057,0.103,0.012,0.135,0.201,0.079
	c0.188-0.054,0.257-0.027,0.203,0.08c-0.055,0.166-0.135,0.274-0.242,0.331c-0.108,0.051-0.243,0.133-0.406,0.243
	c0.109-0.222,0.16-0.38,0.16-0.486c-0.106,0.265-0.229,0.514-0.363,0.73c-0.137,0.215-0.258,0.484-0.367,0.812
	c-0.38-0.11-0.58-0.04-0.606,0.203c-0.028,0.242-0.096,0.417-0.207,0.525c-0.317,0-0.565,0.057-0.726,0.164
	c-0.16,0.108-0.382,0.077-0.651-0.085c0,0.218,0.067,0.344,0.203,0.37c0.135,0.027,0.204,0.117,0.204,0.282
	c-0.111,0.11-0.159,0.221-0.159,0.323c-0.115-0.103-0.239-0.147-0.368-0.117c-0.138,0.027-0.287-0.012-0.449-0.126
	c-0.322,0.273-0.569,0.514-0.729,0.73c0.326,0.115,0.66,0.062,1.016-0.163c0.351-0.212,0.664-0.323,0.935-0.323
	c-0.107-0.103-0.097-0.213,0.035-0.323c0.139-0.107,0.123-0.213-0.035-0.32c0.104-0.114,0.377-0.17,0.812-0.17
	c-0.11,0.223-0.275,0.301-0.486,0.248c0,0.054,0.053,0.126,0.16,0.204c0.11,0.081,0.084,0.173-0.078,0.28
	c0,0.112,0.066,0.127,0.194,0.041c0.142-0.076,0.21-0.171,0.21-0.282c0.104,0.274,0.051,0.506-0.16,0.688
	c-0.22,0.193-0.241,0.474-0.082,0.857c-0.274,0.158-0.477,0.188-0.61,0.084c-0.136-0.112-0.359-0.112-0.691,0
	c0-0.112,0.065-0.167,0.207-0.167c0.133,0,0.173-0.08,0.125-0.243c0.103,0.218,0.21,0.272,0.32,0.163
	c0.107-0.105,0.186-0.221,0.239-0.325c-0.319,0.104-0.7,0.161-1.131,0.161c-0.438,0-0.734,0.217-0.896,0.653
	c0.106,0.106,0.258,0.106,0.442,0c0.188-0.107,0.342-0.189,0.453-0.242v0.408c0.102,0.05,0.211,0.022,0.322-0.085
	c0.107-0.108,0.161-0.055,0.161,0.158c0.16,0.056,0.228,0,0.204-0.158c-0.028-0.162,0.093-0.188,0.361-0.081
	c0.054,0.164,0,0.239-0.158,0.239c-0.163,0-0.247,0.084-0.247,0.246c0.221,0,0.328-0.024,0.328-0.084
	c0.104,0.601-0.07,1.101-0.53,1.502c-0.461,0.408-0.824,0.83-1.096,1.261c0,0.057,0.083,0.081,0.245,0.081
	c-0.11,0.488-0.312,0.914-0.613,1.267c-0.295,0.349-0.5,0.815-0.609,1.414c-0.376,0.112-0.714,0.263-1.011,0.447
	c-0.299,0.19-0.635,0.342-1.015,0.446c0.267,0.162,0.496,0.162,0.685,0c0.192-0.162,0.396-0.299,0.613-0.405
	c-0.11,0.438-0.14,0.704-0.082,0.812c-0.329,0.221-0.486,0.516-0.486,0.893c0,0.109,0.025,0.142,0.079,0.084
	c0.054-0.057,0.141-0.084,0.244-0.084c0.055,0.271,0.037,0.474-0.038,0.611c-0.082,0.127-0.176,0.254-0.285,0.365
	c0.106,0.162,0.378,0.297,0.812,0.404c-0.221,0.381-0.206,0.689,0.035,0.934c0.244,0.244,0.312,0.498,0.203,0.768
	c0.219,0.105,0.394,0.238,0.53,0.369c0.137,0.138,0.174,0.393,0.123,0.771c-0.166,0.166-0.437,0.246-0.814,0.246
	c0.491,0.379,0.844,0.784,1.058,1.217c-0.11,0.276-0.216,0.461-0.326,0.565c-0.107,0.113-0.138,0.332-0.084,0.656
	c0.168,0.16,0.3,0.16,0.41,0c0.104-0.16,0.244-0.16,0.409,0c-0.062,0.217-0.164,0.352-0.328,0.408
	c-0.162,0.051-0.295,0.162-0.407,0.324c0.11,0.16,0.216,0.189,0.326,0.081c0.104-0.11,0.244-0.034,0.409,0.241
	c-0.062,0.107-0.083,0.216-0.083,0.32c0,0.118-0.058,0.223-0.164,0.325c0.436,0.113,0.677,0.439,0.732,0.978
	c0.049,0.545,0,0.869-0.162,0.973c0.055,0.277,0.153,0.314,0.285,0.127c0.135-0.189,0.285-0.148,0.445,0.122
	c0.053,0.38-0.107,0.622-0.481,0.729c0.211,0.213,0.269,0.381,0.158,0.482c-0.109,0.109-0.158,0.299-0.158,0.571l-0.979,0.487
	c0.104,0.111,0.217,0.217,0.326,0.326c0.105,0.107,0.135,0.293,0.083,0.568c-0.381,0-0.681,0.025-0.896,0.079
	c-0.22,0.058-0.463,0.083-0.734,0.083c0.061,0.219,0.152,0.352,0.288,0.412c0.133,0.052,0.228,0.156,0.28,0.315
	c0.38-0.265,0.856-0.43,1.428-0.483c0.569-0.051,1.066-0.269,1.5-0.648c0.162,0.322,0.189,0.686,0.084,1.096
	c-0.112,0.407-0.383,0.668-0.812,0.771c-0.329-0.216-0.629-0.32-0.897-0.32c-0.272,0-0.526,0.025-0.77,0.076
	c-0.246,0.053-0.487,0.084-0.735,0.084c-0.244,0-0.499-0.084-0.771-0.244c-0.104,0.053-0.215,0.189-0.323,0.406
	c-0.161-0.161-0.351-0.244-0.568-0.244c-6.61,0.107-12.875,0.205-18.804,0.283c-5.933,0.084-11.959,0.154-18.076,0.205
	c0-0.213-0.028-0.486-0.08-0.812c-0.055-0.324-0.162-0.648-0.326-0.976c0.271-0.164,0.516-0.488,0.731-0.976
	c0.214-0.486,0.271-0.842,0.163-1.059c0.106-0.213,0.204-0.419,0.284-0.607c0.08-0.19,0.255-0.281,0.529-0.281
	c-0.16-0.379-0.109-0.635,0.159-0.771c0.271-0.132,0.377-0.364,0.326-0.688c0.16-0.111,0.296-0.111,0.404,0
	c0.106,0.102,0.164,0.102,0.164,0c0-0.22-0.04-0.275-0.122-0.164c-0.081,0.106-0.176,0.077-0.286-0.084
	c0.109-0.218,0.123-0.446,0.039-0.688c-0.08-0.242-0.066-0.451,0.037-0.609c1.467-0.104,2.836-0.293,4.107-0.567
	c1.271-0.271,2.526-0.46,3.775-0.573c-1.41-0.104-2.871-0.009-4.387,0.291c-1.519,0.301-2.898,0.58-4.142,0.85
	c0.053,0.056,0.106,0.097,0.164,0.123c0.053,0.023,0.105,0.068,0.159,0.123c-8.23,1.244-16.812,2.531-25.751,3.859
	c-8.931,1.328-17.6,2.668-25.996,4.021c-7.092,1.135-13.101,2.098-18.026,2.881c-4.937,0.783-9.035,1.438-12.307,1.947
	c-3.284,0.52-5.889,0.922-7.84,1.219c-1.948,0.299-3.493,0.545-4.632,0.736c-1.137,0.188-2.006,0.319-2.598,0.403
	c-0.603,0.078-1.218,0.177-1.872,0.283c-0.921,0.108-1.866,0.229-2.844,0.36c-0.976,0.14-1.596-0.036-1.864-0.521
	c-0.22,0.213-0.49,0.229-0.812,0.041c-0.327-0.19-0.57-0.344-0.735-0.444c0.106-0.06,0.204-0.123,0.286-0.205
	s0.179-0.148,0.286-0.203c-0.105-0.115-0.188-0.137-0.245-0.086c-0.051,0.053-0.137,0.031-0.243-0.082
	c0-0.271-0.025-0.459-0.082-0.56c0.106-0.226,0.221-0.452,0.325-0.696c0.107-0.246,0.029-0.445-0.243-0.613
	c-0.105-0.211-0.082-0.319,0.085-0.319c0.158,0,0.242-0.055,0.242-0.162c-0.11-0.164-0.242-0.248-0.409-0.248
	c0.166-0.214,0.258-0.374,0.285-0.487c0.024-0.102,0.069-0.319,0.124-0.645c0.218,0.057,0.375-0.029,0.481-0.242
	c-0.052-0.164-0.106-0.207-0.156-0.123c-0.058,0.08-0.14,0.066-0.243-0.041c0.267-0.107,0.291-0.297,0.079-0.565
	c0.432-0.161,0.704-0.543,0.812-1.14c-0.326,0-0.42,0.077-0.285,0.244c0.131,0.162,0.096,0.271-0.121,0.326
	c-0.22-0.163-0.326-0.379-0.326-0.652c0-0.272,0.016-0.569,0.042-0.896c0.028-0.322,0.028-0.608,0-0.853
	c-0.027-0.246-0.177-0.393-0.446-0.449c0.271-0.161,0.419-0.321,0.446-0.481c0.028-0.159,0.17-0.243,0.446-0.243
	c-0.107-0.107-0.229-0.201-0.364-0.283c-0.136-0.086-0.204-0.256-0.204-0.527c0.269-0.271,0.365-0.557,0.281-0.855
	c-0.077-0.304-0.227-0.559-0.443-0.777c-0.054-0.102-0.016-0.237,0.121-0.4c0.137-0.164,0.121-0.296-0.037-0.404
	c0.104-0.109,0.187-0.214,0.243-0.332c0.048-0.106,0.188-0.129,0.405-0.078c-0.055-0.213-0.07-0.365-0.041-0.448
	c0.021-0.081,0.122-0.229,0.285-0.441c0-0.116-0.028-0.149-0.085-0.127c-0.057,0.028-0.105,0.011-0.159-0.034
	c0.271-0.383,0.485-0.707,0.65-0.977c0.051-0.166-0.017-0.207-0.205-0.129c-0.188,0.088-0.258,0.047-0.203-0.116
	c-0.275,0.108-0.326,0.285-0.161,0.528c0.161,0.24,0.054,0.395-0.33,0.449c0.11-0.273,0.126-0.494,0.045-0.654
	c-0.085-0.159-0.071-0.377,0.04-0.646c0.266,0.106,0.596-0.032,0.975-0.409c-0.108-0.16-0.229-0.283-0.364-0.371
	c-0.136-0.08-0.203-0.252-0.203-0.523c0.218-0.051,0.326-0.014,0.326,0.122c0,0.135,0.026,0.258,0.082,0.362
	c0.215-0.104,0.311-0.213,0.282-0.327c-0.026-0.101-0.121-0.21-0.282-0.32c0.159-0.216,0.311-0.419,0.442-0.606
	c0.137-0.191,0.229-0.418,0.289-0.692c-0.218-0.052-0.297,0.026-0.247,0.244c0.055,0.222-0.03,0.278-0.243,0.159
	c0.327-0.862,0.746-1.648,1.264-2.354c0.508-0.699,0.929-1.43,1.254-2.193c-0.105-0.213-0.239-0.271-0.406-0.16
	c-0.161,0.104-0.22,0.028-0.161-0.242c-0.324,0.051-0.567,0.146-0.733,0.281c-0.159,0.136-0.459,0.156-0.89,0.039
	c0.162-0.104,0.404-0.203,0.73-0.283c0.324-0.082,0.637-0.193,0.932-0.322c0.295-0.139,0.528-0.299,0.693-0.49
	c0.161-0.189,0.214-0.475,0.161-0.854c-0.059-0.158-0.139-0.205-0.243-0.117c-0.111,0.078-0.222,0.117-0.324,0.117
	c-0.055-0.27,0.025-0.375,0.24-0.321c0.217,0.053,0.409,0.079,0.567,0.079c-0.158-0.324-0.2-0.689-0.121-1.098
	c0.08-0.407,0.203-0.834,0.364-1.295c0.163-0.465,0.312-0.896,0.45-1.31c0.131-0.403,0.174-0.769,0.12-1.092
	c0.215-0.216,0.487-0.324,0.807-0.324c0.11-0.219,0.059-0.287-0.158-0.207c-0.216,0.08-0.271,0.015-0.16-0.196
	c18.791-2.875,37.363-5.752,55.726-8.654c18.357-2.899,36.741-5.787,55.152-8.654c0,0.217,0.126,0.366,0.368,0.446
	c0.242,0.081,0.416,0.174,0.526,0.288c0.214-0.112,0.275-0.247,0.161-0.41c-0.107-0.166,0-0.166,0.322,0
	C140.283,42.649,140.256,42.541,140.204,42.541z M23.155,57.081c0.052,0.11,0.116,0.15,0.196,0.123
	c0.086-0.031,0.15-0.095,0.207-0.201c-0.108-0.11-0.207-0.153-0.287-0.129C23.192,56.903,23.155,56.972,23.155,57.081z
	 M24.127,70.078c-0.162-0.055-0.406-0.055-0.732,0c0.217-0.211,0.283-0.43,0.201-0.654c-0.078-0.213-0.065-0.433,0.039-0.645
	c0.275,0.158,0.462,0.172,0.57,0.039c0.106-0.137,0.297-0.258,0.568-0.365c0,0.107,0.055,0.158,0.162,0.158
	c-0.216,0.111-0.396,0.222-0.531,0.326c-0.131,0.109-0.15,0.385-0.038,0.814c-0.215-0.105-0.286-0.105-0.202,0
	C24.246,69.867,24.235,69.969,24.127,70.078z M23.801,90.387c0-0.16-0.055-0.242-0.164-0.242c-0.055,0.213-0.014,0.336,0.123,0.363
	c0.136,0.023,0.258,0.07,0.367,0.121c0.049-0.107,0.105-0.256,0.159-0.445c0.054-0.194,0.028-0.311-0.081-0.363
	c-0.053,0.105-0.108,0.214-0.164,0.324C23.991,90.252,23.911,90.328,23.801,90.387z M24.853,67.641c0.111,0,0.218,0.031,0.33,0.084
	c0.107,0.055,0.238,0.055,0.404,0c-0.057,0.159-0.148,0.297-0.285,0.404c-0.137,0.109-0.256,0.221-0.362,0.325
	c-0.108-0.048-0.164-0.14-0.164-0.24c0-0.108-0.08-0.138-0.239-0.085c-0.11,0.109-0.246,0.186-0.407,0.245
	c-0.163,0.054-0.297,0.136-0.406,0.239c-0.11-0.266,0.064-0.434,0.525-0.484C24.707,68.074,24.91,67.913,24.853,67.641z
	 M23.722,56.761c0.484,0,0.752-0.114,0.812-0.332c-0.166,0.056-0.344,0.085-0.531,0.085C23.815,56.514,23.722,56.589,23.722,56.761z
	 M24.535,89.248c-0.062,0.109-0.11,0.109-0.166,0c-0.054-0.105-0.135-0.105-0.24,0c-0.109,0.268,0,0.367,0.32,0.285
	C24.775,89.453,24.802,89.357,24.535,89.248z M24.367,85.92c0.27,0,0.407-0.167,0.407-0.49c-0.108,0.055-0.239,0.055-0.407,0
	c-0.16-0.054-0.24-0.025-0.24,0.084c0.159-0.057,0.228-0.029,0.199,0.084C24.302,85.699,24.315,85.807,24.367,85.92z M25.994,65.041
	c-0.108,0.326-0.285,0.432-0.532,0.326c-0.24-0.106-0.415-0.08-0.524,0.082c-0.216-0.324-0.121-0.471,0.284-0.449
	C25.627,65.033,25.885,65.041,25.994,65.041z M24.94,89.412c0,0.219,0.079,0.256,0.243,0.119c0.162-0.129,0.296-0.201,0.404-0.201
	c-0.164-0.057-0.285-0.057-0.364,0C25.141,89.385,25.047,89.412,24.94,89.412z M25.671,84.617v-0.324h-0.325
	C25.345,84.514,25.451,84.617,25.671,84.617z M25.586,54.236c0.056-0.158,0.191-0.351,0.408-0.566c-0.108,0-0.176-0.012-0.203-0.043
	c-0.027-0.02-0.096-0.034-0.205-0.034c-0.057,0.05-0.094,0.158-0.124,0.321C25.439,54.079,25.479,54.185,25.586,54.236z
	 M25.671,86.32c0.106,0.055,0.171,0.055,0.198,0c0.031-0.047,0.095-0.077,0.206-0.077c-0.057-0.106-0.057-0.216,0-0.323
	c0.052-0.113,0.023-0.167-0.081-0.167c0.055,0.224,0.024,0.339-0.08,0.372C25.801,86.146,25.722,86.216,25.671,86.32z M26.4,53.834
	c0.271,0,0.406-0.138,0.406-0.413c-0.161-0.052-0.258-0.025-0.282,0.083C26.493,53.619,26.454,53.722,26.4,53.834z M26.482,86.73
	c-0.059,0.16-0.028,0.24,0.082,0.24c0.105,0,0.216,0,0.322,0v-0.32C26.67,86.652,26.534,86.678,26.482,86.73z M26.482,88.273
	c0.16,0.054,0.253,0.039,0.285-0.043c0.027-0.08,0.062-0.146,0.119-0.203C26.616,88.027,26.482,88.111,26.482,88.273z M26.564,53.18
	c0.105,0,0.229,0,0.363,0c0.133,0,0.148-0.051,0.038-0.16h-0.404v0.16H26.564z M26.724,87.705c0.271,0.057,0.418-0.014,0.447-0.205
	c0.026-0.188-0.068-0.309-0.285-0.364c0.054,0.163,0.041,0.272-0.038,0.327C26.767,87.514,26.724,87.598,26.724,87.705z
	 M28.267,88.273c0.16,0.11,0.302,0.054,0.406-0.162c-0.103-0.107-0.219-0.133-0.329-0.084
	C28.242,88.085,28.215,88.168,28.267,88.273z M29.325,87.782c0.163,0,0.244-0.021,0.244-0.077c0-0.059,0.054-0.028,0.16,0.077
	c0.108-0.048,0.147-0.136,0.119-0.241c-0.026-0.102,0.015-0.16,0.123-0.16c0.105,0.11,0.188,0.082,0.242-0.082
	c0.055-0.163,0.029-0.163-0.08,0c-0.271-0.105-0.436-0.078-0.488,0.082C29.595,87.541,29.489,87.678,29.325,87.782z M29.57,86.32
	c0,0.225,0.054,0.436,0.161,0.652c0.217-0.38,0.217-0.621,0-0.729C29.733,86.407,29.676,86.436,29.57,86.32z M32.33,85.352
	c0.054,0.053,0.106,0.104,0.162,0.16c0.05,0.055,0.161,0.055,0.322,0c0-0.057,0.054-0.137,0.163-0.248
	C32.655,84.945,32.437,84.968,32.33,85.352z M33.952,89.002c0.108,0.057,0.204,0.018,0.285-0.117
	c0.083-0.137,0.068-0.229-0.04-0.287c0,0.107-0.056,0.18-0.16,0.205C33.924,88.834,33.899,88.896,33.952,89.002z M34.687,86.08
	c0-0.102,0.05-0.102,0.16,0v-0.402c-0.11-0.109-0.19-0.08-0.246,0.075C34.549,85.92,34.576,86.027,34.687,86.08z M34.687,84.537
	c0.271,0.16,0.454,0.057,0.568-0.324c-0.114-0.109-0.234-0.125-0.367-0.044C34.752,84.251,34.687,84.378,34.687,84.537z
	 M37.207,87.782c0.375-0.104,0.595-0.212,0.646-0.319C37.47,87.463,37.256,87.57,37.207,87.782z M39.073,82.262
	c0.106,0,0.149,0.027,0.119,0.086c-0.025,0.055,0.016,0.076,0.125,0.076c0-0.107,0.036-0.146,0.118-0.119
	c0.081,0.027,0.097-0.016,0.043-0.123c0-0.104-0.067-0.148-0.202-0.121C39.14,82.088,39.073,82.159,39.073,82.262z M40.209,59.032
	c0.057-0.162-0.029-0.271-0.246-0.323c-0.218-0.055-0.379-0.029-0.481,0.074C39.692,59.117,39.94,59.189,40.209,59.032z
	 M40.209,66.914c0,0.107,0.013,0.166,0.039,0.197c0.027,0.029,0.038,0.102,0.038,0.211c0.222,0,0.409-0.086,0.57-0.249
	c0.158-0.159,0.188-0.296,0.079-0.408c-0.104,0.272-0.201,0.356-0.281,0.249C40.573,66.799,40.424,66.799,40.209,66.914z
	 M41.349,62.848c0.052-0.107,0.132-0.174,0.24-0.201c0.105-0.028,0.137-0.153,0.081-0.364c-0.159-0.056-0.284,0.014-0.365,0.202
	C41.226,62.674,41.236,62.793,41.349,62.848z M41.349,59.925c0.16,0.216,0.307,0.257,0.445,0.118
	c0.135-0.133,0.312-0.09,0.525,0.123c0-0.109,0.041-0.184,0.125-0.241c0.08-0.058,0.095-0.135,0.038-0.243
	c-0.271,0-0.499,0.014-0.688,0.038C41.603,59.751,41.453,59.816,41.349,59.925z M41.428,59.52c0.104,0,0.214-0.018,0.32-0.043
	c0.109-0.024,0.137-0.121,0.081-0.285c-0.104,0.054-0.175,0.054-0.197,0c-0.031-0.051-0.1-0.075-0.204-0.075V59.52z M41.671,64.312
	c0-0.112,0.04-0.112,0.124,0c0.081,0.102,0.172,0.102,0.285,0V63.82c-0.164,0-0.312,0.057-0.445,0.166
	C41.493,64.096,41.51,64.2,41.671,64.312z M43.052,61.951c-0.055-0.102-0.122-0.116-0.204-0.035
	c-0.081,0.075-0.15,0.062-0.203-0.041c0.109-0.166,0.285-0.256,0.529-0.279c0.24-0.033,0.333-0.209,0.284-0.533
	c-0.162-0.055-0.241-0.013-0.241,0.123c0,0.129-0.084,0.176-0.242,0.121c0-0.271,0.038-0.421,0.116-0.451
	c0.084-0.024,0.174-0.145,0.288-0.364c-0.161-0.052-0.288-0.052-0.364,0c-0.083,0.053-0.178,0.106-0.288,0.167
	c0-0.276-0.132-0.407-0.406-0.407c0.108,0.217,0.147,0.349,0.125,0.407c-0.032,0.054-0.101,0.16-0.203,0.32
	c0.102,0,0.188-0.027,0.241-0.082c0.056-0.055,0.134-0.106,0.241-0.16c0,0.104,0.016,0.229,0.042,0.365
	c0.027,0.133-0.013,0.205-0.122,0.205c-0.486-0.057-0.679,0.133-0.565,0.564c0.216,0,0.351,0.033,0.404,0.078
	c-0.055,0.223-0.148,0.438-0.285,0.656c-0.137,0.217-0.262,0.352-0.368,0.404c0.275-0.054,0.412,0.078,0.412,0.407
	c-0.328,0-0.517,0.108-0.571,0.324c0.27-0.052,0.555-0.124,0.854-0.204c0.295-0.075,0.582-0.094,0.854-0.038
	c0.051-0.161,0.065-0.258,0.036-0.289c-0.025-0.022-0.01-0.122,0.043-0.287c-0.381-0.211-0.555-0.317-0.528-0.317
	c0.029,0-0.175,0.106-0.609,0.317c0-0.264,0.108-0.432,0.325-0.481C42.862,62.389,42.998,62.227,43.052,61.951z M41.749,78.201
	c0.164-0.051,0.312-0.107,0.449-0.166c0.137-0.053,0.255-0.105,0.361-0.158c-0.106-0.109-0.226-0.146-0.361-0.122
	c-0.137,0.03-0.262-0.015-0.368-0.126c0.056,0.165,0.045,0.276-0.035,0.33C41.711,78.014,41.696,78.094,41.749,78.201z
	 M42.158,59.189c-0.107-0.104-0.135-0.213-0.079-0.32c0.052-0.107,0.187-0.135,0.404-0.087v-0.241
	c-0.271,0.053-0.518,0.111-0.734,0.166h0.164c-0.164,0.104-0.134,0.255,0.085,0.449C42.214,59.342,42.265,59.355,42.158,59.189z
	 M43.052,63.902c-0.162,0.056-0.243,0.033-0.243-0.082c0-0.104-0.084-0.129-0.247-0.078c-0.107,0.216-0.055,0.33,0.163,0.33
	C42.944,64.072,43.052,64.01,43.052,63.902z M43.379,58.625c-0.113-0.111-0.23-0.146-0.365-0.127
	c-0.137,0.031-0.258-0.004-0.367-0.115c-0.105,0.111-0.151,0.242-0.12,0.4c0.027,0.168,0.093,0.249,0.201,0.249
	c0.108-0.108,0.108-0.206,0-0.282c-0.108-0.086-0.108-0.125,0-0.125c0.057,0.219,0.163,0.312,0.326,0.283
	S43.323,58.783,43.379,58.625z M43.217,62.197c0.047,0.105,0.144,0.105,0.283,0c0.137-0.106,0.229-0.221,0.28-0.324
	C43.459,61.873,43.265,61.979,43.217,62.197z M43.459,64.23c0.217,0.051,0.321-0.015,0.321-0.207c0-0.183-0.104-0.252-0.321-0.203
	V64.23z M43.459,79.502c0.271-0.162,0.5-0.201,0.689-0.123c0.188,0.084,0.339-0.094,0.449-0.529
	c-0.271,0.062-0.507,0.109-0.693,0.166C43.718,79.068,43.568,79.234,43.459,79.502z M43.7,63.089
	c0.108,0.06,0.188,0.041,0.247-0.034c0.051-0.08,0.104-0.152,0.16-0.207c-0.16-0.107-0.298-0.133-0.407-0.082
	C43.592,62.824,43.592,62.925,43.7,63.089z M43.865,58.542c0.271,0,0.435-0.042,0.488-0.116c0.052-0.085,0.08-0.232,0.08-0.453
	h-0.327c-0.056,0.112-0.08,0.207-0.08,0.285C44.028,58.341,43.974,58.434,43.865,58.542z M44.271,63.012
	c0.217-0.107,0.419-0.162,0.607-0.162s0.312-0.108,0.367-0.322c-0.164-0.107-0.367-0.107-0.615,0
	C44.394,62.635,44.271,62.793,44.271,63.012z M45.489,63.258c0.27,0,0.475-0.031,0.607-0.082c0.135-0.057,0.312-0.027,0.527,0.082
	c0.11-0.107,0.15-0.246,0.124-0.41c-0.027-0.16,0.012-0.268,0.121-0.322c-0.162,0-0.312,0.021-0.445,0.082
	c-0.136,0.055-0.262,0-0.369-0.164c0,0.22-0.065,0.353-0.2,0.406C45.721,62.9,45.595,63.039,45.489,63.258z M45.651,58.951
	c0.105-0.055,0.203-0.096,0.281-0.125c0.087-0.028,0.229-0.043,0.45-0.043c0-0.102-0.136-0.188-0.404-0.241
	C45.705,58.494,45.595,58.625,45.651,58.951z M46.219,80.72c0.108,0.104,0.23,0.093,0.367-0.04c0.135-0.135,0.119-0.256-0.041-0.367
	c0.052,0.164,0.028,0.242-0.08,0.242C46.353,80.555,46.277,80.607,46.219,80.72z M47.276,71.136c-0.111-0.165-0.124-0.3-0.039-0.407
	c0.081-0.111,0.017-0.19-0.205-0.244c0.055,0.109,0.055,0.261,0,0.447C46.978,71.123,47.057,71.189,47.276,71.136z M47.599,70.486
	h0.41c-0.107-0.226-0.084-0.367,0.078-0.447c0.164-0.081,0.139-0.17-0.078-0.285c-0.107,0.113-0.179,0.23-0.202,0.363
	C47.776,70.252,47.707,70.379,47.599,70.486z M47.681,62.688c0.221,0,0.379-0.08,0.49-0.244
	C47.791,62.334,47.627,62.418,47.681,62.688z M47.761,60.49c0.162,0,0.231-0.107,0.204-0.324c-0.028-0.213-0.093-0.299-0.204-0.241
	c0.061,0.161,0.082,0.257,0.082,0.284C47.844,60.239,47.822,60.33,47.761,60.49z M49.148,57.811
	c0.052-0.104,0.134-0.159,0.239-0.159c0.109,0,0.165-0.083,0.165-0.249c-0.165-0.103-0.3-0.066-0.406,0.125
	C49.032,57.716,49.032,57.811,49.148,57.811z M49.148,85.92c0.052,0.107,0.187,0.145,0.406,0.119
	c0.215-0.023,0.293-0.094,0.241-0.207c0-0.102-0.14-0.156-0.408-0.156C49.114,85.678,49.032,85.753,49.148,85.92z M49.148,84.945
	c0.104,0.106,0.199,0.117,0.278,0.035c0.083-0.084,0.176-0.172,0.286-0.287C49.334,84.695,49.148,84.783,49.148,84.945z
	 M49.712,62.117c0.272-0.111,0.515-0.211,0.734-0.324c0.214-0.107,0.488-0.135,0.81-0.086v-0.566h-0.406
	c-0.106,0.11-0.106,0.203,0,0.285c0.108,0.08,0.108,0.127,0,0.127c-0.162-0.109-0.379-0.096-0.646,0.043
	C49.927,61.725,49.767,61.906,49.712,62.117z M51.092,58.783c0.111,0.113,0.273,0.168,0.488,0.168
	c0.051-0.271-0.079-0.41-0.404-0.41c0,0.053-0.018,0.096-0.041,0.123C51.107,58.693,51.092,58.736,51.092,58.783z M51.991,61.387
	c0.105-0.055,0.211-0.136,0.326-0.246c0.104-0.104,0.048-0.188-0.164-0.242c0.049,0.109,0.012,0.217-0.125,0.324
	C51.894,61.332,51.876,61.387,51.991,61.387z M52.317,85.678c0.104-0.109,0.251-0.152,0.443-0.125
	c0.188,0.029,0.256-0.068,0.199-0.287C52.636,85.215,52.42,85.352,52.317,85.678z M52.472,80.801c0.273,0,0.43-0.057,0.486-0.166
	c-0.058-0.102-0.147-0.129-0.284-0.08C52.543,80.607,52.472,80.693,52.472,80.801z M52.556,60.979
	c0.269,0.11,0.311,0.229,0.119,0.364c-0.188,0.136-0.227,0.289-0.119,0.449c0.107,0,0.175-0.019,0.204-0.038
	c0.024-0.029,0.096-0.046,0.199-0.046c-0.058-0.267,0-0.485,0.164-0.646c0.162-0.164,0.191-0.295,0.081-0.404
	c-0.054,0.107-0.16,0.16-0.323,0.16C52.719,60.82,52.608,60.871,52.556,60.979z M53.289,61.553c0.16-0.057,0.377-0.127,0.65-0.209
	c0.267-0.08,0.511-0.17,0.729-0.281c-0.159,0.052-0.239,0.013-0.239-0.125c0-0.133-0.058-0.197-0.165-0.197
	c-0.108,0.269-0.312,0.415-0.608,0.445C53.356,61.209,53.231,61.332,53.289,61.553z M54.261,56.837c0-0.053,0.055-0.191,0.165-0.41
	c-0.165,0-0.286,0.056-0.366,0.16C53.978,56.699,54.049,56.784,54.261,56.837z M54.1,80.801c0.159,0,0.284-0.043,0.368-0.121
	c0.076-0.08,0.062-0.174-0.042-0.285C54.316,80.396,54.205,80.531,54.1,80.801z M54.344,82.262v0.161
	c0,0.108,0.025,0.163,0.082,0.163c0.052-0.111,0.169-0.145,0.362-0.121c0.187,0.025,0.23-0.064,0.123-0.287
	c-0.168,0-0.256,0.039-0.287,0.123C54.595,82.387,54.507,82.373,54.344,82.262z M54.507,58.298c0.106,0.056,0.202-0.03,0.284-0.245
	c0.084-0.216,0.039-0.292-0.123-0.242C54.666,58.03,54.614,58.191,54.507,58.298z M55.157,59.355
	c0.268,0.059,0.403-0.08,0.403-0.404h-0.321c0,0.107-0.015,0.174-0.042,0.207C55.166,59.184,55.157,59.246,55.157,59.355z
	 M55.239,60.574c0.161,0.057,0.334,0.039,0.526-0.044c0.188-0.075,0.172-0.171-0.045-0.279c0,0.159-0.035,0.188-0.117,0.079
	c-0.082-0.105-0.179-0.133-0.288-0.079C55.314,60.409,55.29,60.521,55.239,60.574z M55.969,82.753c-0.162,0-0.299,0.106-0.408,0.323
	C55.834,83.076,55.969,82.968,55.969,82.753z M56.374,59.682c-0.056,0.166-0.028,0.324,0.08,0.484
	c0.11,0.162,0.03,0.324-0.243,0.491c0.757,0,1.188-0.19,1.303-0.571c-0.221-0.104-0.396-0.133-0.53-0.082
	c-0.138,0.051-0.175-0.104-0.118-0.484C56.646,59.52,56.485,59.572,56.374,59.682z M57.836,60.086
	c0.162-0.104,0.23-0.082,0.204,0.08c-0.025,0.162,0.041,0.193,0.201,0.085c0.058-0.22,0-0.351-0.159-0.403
	C57.918,59.79,57.836,59.867,57.836,60.086z M58.407,83.076c0.209,0.053,0.319-0.016,0.319-0.204c0-0.192-0.11-0.255-0.319-0.204
	V83.076z M59.541,80.555c-0.107-0.049-0.151-0.141-0.12-0.281c0.028-0.139-0.041-0.17-0.205-0.123h-0.164
	c-0.104,0.058-0.133,0.203-0.077,0.449c0.051,0.242,0.134,0.285,0.241,0.12c-0.107,0-0.122-0.04-0.039-0.12
	c0.084-0.082,0.173-0.095,0.286-0.045C59.513,80.607,59.541,80.607,59.541,80.555z M59.866,79.258h0.407
	c0.053-0.109,0.027-0.168-0.082-0.168c-0.107,0-0.19-0.021-0.244-0.074C59.947,79.118,59.918,79.201,59.866,79.258z M60.44,57.002
	c0-0.33-0.087-0.464-0.248-0.413C60.082,56.868,60.167,57.002,60.44,57.002z M62.223,56.673h0.406c0-0.159,0.082-0.305,0.244-0.443
	c0.161-0.136,0.108-0.253-0.162-0.368c-0.054,0.161-0.123,0.311-0.203,0.448C62.427,56.445,62.328,56.569,62.223,56.673z
	 M63.117,56.023c0.378,0.113,0.514,0.03,0.404-0.243C63.251,55.781,63.117,55.862,63.117,56.023z M64.987,61.47
	c0-0.219,0.024-0.354,0.077-0.407c-0.16,0.052-0.27,0.052-0.322,0c-0.055-0.055-0.108-0.11-0.159-0.164
	c-0.115,0.109-0.099,0.217,0.035,0.324C64.75,61.332,64.873,61.416,64.987,61.47z M64.74,55.213
	c0.161-0.108,0.341-0.139,0.527-0.083c0.189,0.056,0.341-0.057,0.447-0.323c-0.271,0.107-0.477,0.12-0.605,0.041
	C64.969,54.766,64.846,54.89,64.74,55.213z M65.552,55.862c0.381,0,0.572-0.108,0.572-0.322h-0.41
	C65.715,55.646,65.659,55.753,65.552,55.862z M68.557,55.862c0.162,0,0.299-0.108,0.407-0.322h-0.407V55.862z M69.048,55.62
	c0.108,0.105,0.213,0.147,0.323,0.122c0.105-0.032,0.135-0.122,0.083-0.292C69.29,55.406,69.157,55.45,69.048,55.62z M69.208,60.574
	c0.107,0,0.177-0.031,0.204-0.084c0.022-0.051,0.095-0.131,0.203-0.239c-0.108-0.11-0.217-0.14-0.323-0.085
	C69.18,60.223,69.157,60.359,69.208,60.574z M69.371,56.673h0.408v-0.325h-0.325C69.454,56.512,69.427,56.623,69.371,56.673z
	 M69.454,82.993c0.104,0.106,0.211,0.121,0.325,0.044c0.104-0.082,0.214-0.178,0.322-0.285c-0.108,0-0.242,0.01-0.406,0.036
	C69.533,82.822,69.454,82.889,69.454,82.993z M70.179,55.541c-0.107,0-0.171-0.054-0.2-0.163c-0.028-0.111-0.12-0.163-0.284-0.163
	c-0.108,0.218-0.069,0.354,0.121,0.408C70.009,55.677,70.128,55.646,70.179,55.541z M70.832,56.023c0-0.161,0.052-0.314,0.165-0.443
	c0.104-0.136,0.214-0.288,0.325-0.449c-0.167-0.108-0.303-0.121-0.411-0.038c-0.106,0.08-0.272,0.069-0.484-0.042
	c-0.108,0.054-0.162,0.243-0.162,0.57c0.213,0,0.354,0.014,0.408,0.039c0.052,0.029,0.064,0.067,0.038,0.121
	c-0.031,0.055-0.038,0.109-0.038,0.164C70.673,55.997,70.724,56.023,70.832,56.023z M71.732,56.348c-0.113,0-0.113-0.052,0-0.163
	c-0.113,0.11-0.251,0.136-0.409,0.084c-0.167-0.051-0.277,0.052-0.325,0.321c0.158-0.105,0.292-0.145,0.407-0.117
	C71.51,56.504,71.618,56.46,71.732,56.348z M71.323,57.973h0.322v-0.246h-0.322V57.973z M71.968,56.589
	c0.107-0.051,0.189-0.105,0.244-0.161c0.052-0.051,0.138-0.133,0.245-0.243c-0.162,0-0.312,0.044-0.45,0.125
	C71.874,56.391,71.86,56.484,71.968,56.589z M72.942,82.668c0.056-0.104,0.152-0.16,0.284-0.16c0.141,0,0.179-0.084,0.124-0.244
	c-0.215-0.162-0.408-0.162-0.569,0C72.621,82.424,72.677,82.564,72.942,82.668z M72.942,54.236c0.273,0.057,0.463-0.051,0.571-0.324
	c0.106-0.27,0.162-0.433,0.162-0.489c-0.108,0.111-0.229,0.235-0.368,0.37C73.176,53.927,73.052,54.079,72.942,54.236z
	 M73.757,58.383c-0.057,0-0.081,0.051-0.081,0.159c0.104,0.054,0.229,0.028,0.364-0.08c0.136-0.106,0.148-0.192,0.039-0.244
	c0,0.165-0.107,0.188-0.324,0.081c-0.217-0.105-0.243-0.105-0.081,0C73.732,58.298,73.757,58.33,73.757,58.383z M73.594,54.236
	c0.217,0.057,0.341,0.01,0.367-0.117c0.024-0.138,0.173-0.181,0.447-0.127c-0.107-0.105-0.162-0.251-0.162-0.445
	c0-0.186-0.085-0.229-0.248-0.124c0.219,0.221,0.208,0.355-0.035,0.413C73.717,53.886,73.594,54.025,73.594,54.236z M74.325,82.182
	c0.107-0.049,0.255-0.049,0.449,0c0.186,0.053,0.258-0.021,0.197-0.246c-0.104,0-0.242,0-0.4,0
	C74.408,81.934,74.325,82.02,74.325,82.182z M75.22,82.668c0-0.104-0.031-0.216-0.087-0.32c-0.054-0.113-0.134-0.113-0.239,0
	c0.105,0.055,0.123,0.129,0.041,0.24C74.854,82.697,74.947,82.719,75.22,82.668z M77.087,75.848
	c0.271,0.105,0.476,0.092,0.607-0.041c0.135-0.138,0.288-0.312,0.451-0.526C77.601,75.492,77.249,75.68,77.087,75.848z
	 M77.329,55.945c0.057-0.109,0.134-0.164,0.248-0.164c0.104,0,0.13-0.081,0.08-0.24c-0.106,0-0.222,0.05-0.328,0.159
	C77.219,55.805,77.219,55.89,77.329,55.945z M77.898,72.354c-0.271,0-0.406,0.025-0.406,0.078c0.216,0,0.351,0.029,0.406,0.084
	c0-0.055,0.031-0.137,0.085-0.242c0.048-0.11,0.026-0.162-0.085-0.162V72.354z M81.557,53.992c0.108,0,0.269-0.035,0.483-0.118
	c0.218-0.081,0.271-0.176,0.164-0.282c-0.113,0.104-0.234,0.173-0.364,0.201C81.702,53.82,81.612,53.886,81.557,53.992z
	 M81.798,53.104c0-0.11,0.068-0.164,0.204-0.164s0.205-0.081,0.205-0.242c-0.114,0-0.234,0.05-0.364,0.161
	C81.702,52.971,81.692,53.046,81.798,53.104z M82.449,55.45c0.271,0,0.528,0.021,0.771,0.047c0.243,0.023,0.444-0.092,0.606-0.366
	c-0.27,0-0.444-0.097-0.527-0.282c-0.081-0.191-0.121-0.257-0.121-0.205c0,0.271-0.107,0.406-0.326,0.406
	C82.637,55.049,82.503,55.187,82.449,55.45z M83.424,57.002c0.326,0.104,0.486-0.03,0.486-0.413
	C83.585,56.538,83.424,56.673,83.424,57.002z M86.266,56.589c0.053-0.161,0.106-0.185,0.159-0.077
	c0.057,0.108,0.136,0.133,0.245,0.077v-0.241c0-0.052-0.032-0.08-0.081-0.08c-0.055,0.107-0.164,0.15-0.325,0.122
	C86.106,56.368,86.106,56.429,86.266,56.589z M88.624,56.589c0,0.108,0.027,0.17,0.081,0.17c0-0.383-0.137-0.543-0.407-0.491
	c-0.106,0.159-0.079,0.234,0.081,0.204C88.536,56.445,88.624,56.484,88.624,56.589z M89.031,53.18c0-0.104,0.065-0.16,0.201-0.16
	c0.133,0,0.177-0.082,0.121-0.246h-0.322c0.051,0.114,0.026,0.196-0.084,0.246C88.839,53.074,88.866,53.127,89.031,53.18z
	 M88.947,56.673c0.16,0.111,0.339,0.088,0.523-0.083c0.191-0.161,0.155-0.269-0.117-0.321c0.056,0.159-0.015,0.234-0.202,0.204
	C88.956,56.445,88.891,56.512,88.947,56.673z M89.515,53.104c0.377,0,0.516-0.245,0.409-0.734c-0.164,0-0.297,0.08-0.409,0.246
	C89.408,52.774,89.408,52.938,89.515,53.104z M90.165,80.148c-0.107,0.112-0.23,0.112-0.365,0c-0.138-0.104-0.228-0.047-0.284,0.162
	h0.81c-0.104-0.162-0.117-0.32-0.039-0.49c0.084-0.16,0.039-0.242-0.12-0.242c-0.107,0.111-0.135,0.193-0.084,0.242
	C90.136,79.877,90.165,79.992,90.165,80.148z M89.923,52.208c0.107-0.218,0.158-0.407,0.158-0.57
	c-0.214-0.055-0.323,0.014-0.323,0.203C89.76,52.033,89.816,52.154,89.923,52.208z M90.165,56.589
	c0.159-0.105,0.351-0.171,0.569-0.199c0.214-0.024,0.322-0.173,0.322-0.446c-0.27-0.109-0.515-0.072-0.732,0.12
	C90.109,56.253,90.057,56.429,90.165,56.589z M90.251,55.45c-0.059,0.17-0.031,0.237,0.074,0.21
	c0.111-0.026,0.221-0.039,0.331-0.039v-0.243c-0.11-0.055-0.181-0.055-0.208,0C90.423,55.43,90.361,55.45,90.251,55.45z
	 M90.572,57.726c0.105,0.111,0.22,0.129,0.326,0.042c0.105-0.075,0.188-0.17,0.243-0.279c-0.165,0.055-0.274,0.072-0.325,0.038
	C90.764,57.502,90.677,57.57,90.572,57.726z M92.436,57.16c0.06-0.11,0.144-0.11,0.248,0c0.106,0.114,0.188,0.054,0.244-0.159
	c-0.109-0.058-0.257-0.058-0.445,0C92.29,57.05,92.274,57.107,92.436,57.16z M92.928,50.418c0.105,0.168,0.229,0.273,0.365,0.327
	c0.135,0.054,0.204,0.191,0.204,0.411c0.106-0.162,0.228-0.271,0.365-0.331c0.129-0.053,0.199-0.212,0.199-0.483
	c-0.159-0.16-0.354-0.153-0.564,0.038C93.28,50.573,93.088,50.586,92.928,50.418z M94.635,63.902c0-0.104-0.06-0.131-0.163-0.082
	c-0.105,0.057-0.217,0.057-0.328,0c-0.053,0.113,0.033,0.203,0.242,0.287C94.606,64.191,94.686,64.119,94.635,63.902z
	 M95.285,79.502c-0.056-0.162-0.029-0.174,0.078-0.039c0.106,0.132,0.192,0.116,0.241-0.041c-0.105-0.111-0.157-0.186-0.157-0.242
	c-0.114-0.061-0.191-0.029-0.246,0.08C95.151,79.367,95.176,79.445,95.285,79.502z M95.69,77.877c0-0.16,0.026-0.271,0.08-0.322
	h-0.482C95.231,77.661,95.364,77.768,95.69,77.877z M95.285,67.725c0.214,0,0.429-0.039,0.646-0.125
	c0.212-0.082,0.242-0.205,0.083-0.361c-0.109,0.271-0.229,0.376-0.364,0.32C95.512,67.507,95.393,67.559,95.285,67.725z
	 M96.175,69.186c0.219,0.054,0.326-0.041,0.326-0.287c0-0.239-0.107-0.336-0.326-0.285V69.186z M96.824,63.012
	c-0.323,0-0.455,0.107-0.401,0.327c0.159-0.059,0.258-0.013,0.282,0.126c0.026,0.129,0.119,0.145,0.281,0.035
	c0-0.273-0.055-0.352-0.16-0.242C96.715,63.368,96.715,63.279,96.824,63.012z M97.398,77.877c-0.164,0.104-0.279,0.096-0.327-0.039
	c-0.054-0.14-0.139-0.097-0.246,0.121c0.162,0,0.284,0.023,0.365,0.076C97.274,78.094,97.344,78.034,97.398,77.877z M96.987,70.486
	c0.109-0.105,0.193-0.178,0.247-0.207c0.052-0.027,0.078-0.096,0.078-0.201c-0.105-0.055-0.216-0.01-0.325,0.119
	C96.878,70.34,96.878,70.432,96.987,70.486z M97.722,78.607c0.052-0.107,0.094-0.135,0.121-0.082
	c0.024,0.053,0.092,0.082,0.199,0.082v-0.324c-0.107-0.055-0.216-0.025-0.32,0.076C97.611,78.473,97.611,78.555,97.722,78.607z
	 M97.722,79.178c0.213-0.107,0.455-0.15,0.73-0.125c0.267,0.03,0.458-0.035,0.568-0.203c-0.11-0.271-0.327-0.324-0.649-0.158
	C98.043,78.85,97.827,79.016,97.722,79.178z M98.043,75.279c0.11,0,0.174,0.025,0.207,0.074c0.023,0.058,0.096,0.088,0.203,0.088
	c-0.054-0.16-0.031-0.285,0.081-0.365c0.106-0.086,0.081-0.172-0.081-0.283c0,0.158-0.068,0.242-0.203,0.242
	S98.043,75.117,98.043,75.279z M99.259,69.264c0.223-0.052,0.38-0.188,0.494-0.404c-0.114-0.106-0.221-0.106-0.326,0
	C99.319,68.969,99.259,69.102,99.259,69.264z M99.992,72.924v0.238c0,0.054,0.029,0.083,0.084,0.083c0-0.11,0.12-0.161,0.365-0.161
	c0.241,0,0.229-0.083-0.039-0.246C100.402,72.889,100.264,72.924,99.992,72.924z M100.158,71.217
	c0.051-0.109,0.173-0.152,0.367-0.124c0.186,0.03,0.277-0.036,0.277-0.207c-0.159-0.05-0.337-0.034-0.523,0.046
	C100.088,71.008,100.052,71.107,100.158,71.217z M100.402,78.034c0.215,0,0.27,0.192,0.159,0.571h0.974
	c0.054-0.106,0.087-0.226,0.087-0.362c0-0.14,0.027-0.263,0.081-0.366c-0.165,0-0.274,0.028-0.328,0.082
	c-0.053,0.055-0.135,0.135-0.244,0.242c0.056-0.221-0.021-0.352-0.242-0.407C100.671,77.74,100.51,77.824,100.402,78.034z
	 M102.838,77.629c0,0.223,0.053,0.262,0.16,0.126c0.108-0.134,0.163-0.126,0.163,0.039c0,0.11-0.055,0.163-0.163,0.163
	c-0.107,0-0.132,0.077-0.077,0.242c0.212,0.057,0.47,0.068,0.771,0.042c0.295-0.027,0.497-0.121,0.604-0.286
	c-0.537,0.219-0.672,0.111-0.405-0.329c-0.163-0.048-0.258-0.007-0.283,0.126c-0.03,0.135-0.123,0.172-0.288,0.123
	c0-0.271,0.042-0.461,0.126-0.568c0.078-0.106,0.146-0.242,0.204-0.412c-0.272,0.058-0.446,0.22-0.53,0.492
	C103.042,77.661,102.948,77.74,102.838,77.629z M103.244,76.332c0,0.273,0.081,0.412,0.242,0.412c0-0.113,0.054-0.178,0.165-0.205
	c0.106-0.03,0.186-0.098,0.241-0.207c-0.109-0.107-0.202-0.122-0.285-0.038C103.527,76.374,103.407,76.386,103.244,76.332z
	 M104.385,75.439c0.103,0.106,0.241,0.136,0.404,0.082c0.161-0.047,0.188-0.19,0.081-0.404c-0.272,0.053-0.382,0.009-0.322-0.129
	c0.05-0.133,0-0.23-0.162-0.277c-0.058,0.323-0.152,0.387-0.288,0.199c-0.132-0.188-0.258-0.118-0.365,0.207
	c0.107,0,0.18,0.025,0.203,0.078c0.03,0.053,0.069,0.084,0.123,0.084c0.107-0.16,0.26-0.219,0.447-0.16
	C104.691,75.17,104.652,75.279,104.385,75.439z M105.517,75.925c0.106,0.056,0.205,0.105,0.286,0.169
	c0.081,0.045,0.145,0,0.201-0.169c-0.104,0-0.188-0.051-0.238-0.159C105.711,75.656,105.624,75.71,105.517,75.925z M109.256,77.223
	h0.323c-0.054-0.106-0.038-0.199,0.041-0.283c0.079-0.082,0.066-0.119-0.041-0.119c0.058,0.109,0,0.164-0.16,0.164
	C109.256,76.984,109.199,77.066,109.256,77.223z M109.418,68.779c0.161,0,0.296-0.111,0.407-0.326
	c-0.111-0.049-0.205-0.08-0.286-0.08c-0.079,0-0.175-0.061-0.286-0.16C109.256,68.374,109.305,68.562,109.418,68.779z
	 M109.825,53.18c0.104-0.209,0.174-0.405,0.2-0.563c0.027-0.166,0.096-0.299,0.203-0.408c-0.216,0-0.351,0.051-0.403,0.161
	c0.217,0.111,0.2,0.246-0.039,0.405C109.539,52.938,109.551,53.074,109.825,53.18z M110.714,49.609c0.272,0,0.436,0.017,0.49,0.038
	c0.057,0.028,0.136-0.01,0.244-0.114c-0.059,0.104-0.081,0.196-0.081,0.281c0,0.077,0.135,0.118,0.407,0.118
	c-0.055-0.219-0.03-0.351,0.08-0.399c0.107-0.06,0.161-0.169,0.161-0.333c-0.329,0.054-0.515-0.025-0.567-0.236
	c-0.108,0.108-0.229,0.213-0.368,0.32C110.947,49.396,110.826,49.498,110.714,49.609z M110.798,53.992h0.65v-0.4
	c-0.108,0.05-0.244,0.09-0.407,0.116C110.879,53.74,110.798,53.834,110.798,53.992z M111.856,76.744
	c0.27,0.156,0.646,0.188,1.136,0.076c0.489-0.11,0.621-0.27,0.406-0.486c-0.217,0.107-0.5,0.135-0.852,0.081
	C112.191,76.363,111.963,76.467,111.856,76.744z M112.749,48.876c0.16,0.111,0.283,0.097,0.363-0.044
	c0.081-0.126,0.068-0.256-0.035-0.362c0,0.106-0.072,0.164-0.21,0.164C112.734,48.634,112.697,48.715,112.749,48.876z
	 M118.838,55.049c0.545,0,0.814-0.216,0.814-0.65c-0.271,0.054-0.478,0.107-0.611,0.164
	C118.907,54.621,118.838,54.783,118.838,55.049z M118.838,73.245c0.057,0.106,0.177,0.14,0.366,0.079
	c0.189-0.053,0.34-0.189,0.448-0.4c-0.222,0.049-0.404,0.077-0.566,0.077C118.921,73.001,118.838,73.084,118.838,73.245z
	 M118.838,75.604c1.087-0.271,1.733-0.892,1.952-1.873c-0.162,0-0.272,0.031-0.327,0.088c-0.054,0.055-0.136,0.027-0.245-0.088
	c0.109,0.324-0.026,0.438-0.401,0.324c0.052-0.104,0.094-0.17,0.12-0.195c0.025-0.031,0.042-0.098,0.042-0.202
	c-0.219,0.104-0.354,0.143-0.408,0.112c-0.056-0.021-0.14-0.039-0.244-0.039c0.056,0.324,0,0.614-0.161,0.857
	C119.002,74.83,118.894,75.17,118.838,75.604z M118.921,75.848c0.216,0.055,0.436,0.039,0.65-0.041
	c0.216-0.082,0.188-0.176-0.081-0.285c-0.06,0.107-0.163,0.147-0.326,0.119C119.002,75.616,118.921,75.68,118.921,75.848z
	 M119.327,74.55c0.271,0,0.408,0.106,0.408,0.321c-0.109,0.109-0.221,0.139-0.329,0.078
	C119.299,74.902,119.275,74.758,119.327,74.55z M119.491,65.609c0.325,0,0.539-0.189,0.648-0.568c-0.109,0-0.161-0.008-0.161-0.041
	c0-0.021-0.054-0.037-0.161-0.037c0.107,0.271,0.066,0.395-0.121,0.362C119.507,65.303,119.431,65.396,119.491,65.609z
	 M119.978,54.565c0.272-0.057,0.477-0.095,0.607-0.127c0.137-0.02,0.342-0.064,0.608-0.115c-0.108-0.271-0.34-0.367-0.692-0.29
	C120.156,54.119,119.978,54.292,119.978,54.565z M121.275,57.16c-0.271,0.054-0.323,0.013-0.16-0.119
	c0.16-0.138,0.134-0.227-0.085-0.282c0.057,0.156,0,0.225-0.163,0.204c-0.16-0.032-0.188,0.038-0.078,0.197
	c0.109-0.053,0.207-0.024,0.286,0.082C121.156,57.354,121.225,57.321,121.275,57.16z M120.951,47.093
	c0.054-0.107,0.095-0.223,0.123-0.331c0.026-0.101,0.064-0.213,0.12-0.323c-0.217-0.051-0.354,0.032-0.406,0.245
	C120.735,46.898,120.79,47.035,120.951,47.093z M121.031,73.164c0.108,0.16,0.244,0.257,0.406,0.287
	c0.16,0.025,0.298-0.045,0.409-0.205c0.106-0.16,0.082-0.229-0.078-0.203c-0.171,0.027-0.193-0.04-0.085-0.205
	c0.486,0.107,0.841,0,1.057-0.322c0.218-0.326,0.515-0.562,0.892-0.732c-0.104,0.054-0.19,0.04-0.242-0.038
	c-0.057-0.08-0.108-0.15-0.162-0.203c-0.054-0.06-0.096-0.097-0.124-0.12c-0.025-0.031-0.09,0.012-0.202,0.12
	c-0.106,0.319-0.396,0.58-0.851,0.771C121.586,72.503,121.249,72.788,121.031,73.164z M122.17,52.697h0.569
	c-0.056-0.165-0.029-0.32,0.085-0.446c0.104-0.138,0.075-0.233-0.085-0.288c-0.056,0.222-0.163,0.338-0.324,0.361
	C122.252,52.356,122.17,52.482,122.17,52.697z M122.496,63.656c0.328-0.098,0.595-0.146,0.809-0.117
	c0.223,0.031,0.38-0.068,0.489-0.281c-0.217,0-0.445,0.012-0.692,0.033C122.865,63.326,122.658,63.445,122.496,63.656z
	 M122.576,71.217c0.107,0,0.188-0.029,0.248-0.081c0.053-0.06,0.16-0.06,0.321,0c-0.056-0.112-0.069-0.25-0.044-0.407
	c0.028-0.168-0.012-0.244-0.117-0.244c-0.107,0.109-0.178,0.228-0.205,0.365C122.754,70.982,122.684,71.107,122.576,71.217z
	 M122.9,53.423c0.058-0.105,0.066-0.226,0.043-0.363c-0.03-0.131-0.097-0.2-0.203-0.2C122.631,53.18,122.684,53.371,122.9,53.423z
	 M124.203,61.873c-0.162,0.104-0.245,0.132-0.245,0.078c0-0.045-0.109-0.078-0.327-0.078c-0.051,0.161-0.148,0.354-0.281,0.568
	c-0.136,0.22-0.283,0.244-0.449,0.084c-0.054-0.223,0.017-0.299,0.202-0.244c0.191,0.053,0.26,0,0.202-0.164
	c-0.104,0-0.186-0.039-0.235-0.126c-0.055-0.075-0.142-0.085-0.242-0.038c-0.062,0.222-0.087,0.438-0.087,0.656
	c0,0.216,0.087,0.375,0.245,0.479c0.162-0.164,0.403-0.351,0.729-0.562c0.111,0.106,0.096,0.207-0.043,0.281
	c-0.134,0.086-0.229,0.176-0.283,0.282c0.38-0.051,0.652-0.213,0.814-0.481c-0.111-0.271-0.274-0.408-0.488-0.408
	c0.111-0.107,0.216-0.162,0.326-0.162C124.153,62.039,124.203,61.979,124.203,61.873z M123.304,60.086
	c-0.051-0.161,0.02-0.227,0.207-0.199c0.188,0.023,0.257-0.039,0.203-0.207c-0.108-0.054-0.241-0.022-0.41,0.082
	C123.146,59.867,123.146,59.982,123.304,60.086z M123.304,51.72c0-0.107,0.058-0.149,0.168-0.125
	c0.104,0.031,0.158-0.012,0.158-0.115c-0.103,0-0.214-0.054-0.326-0.166c0,0.054-0.024,0.135-0.078,0.239
	C123.173,51.67,123.2,51.72,123.304,51.72z M123.304,60.898c-0.051,0.274-0.064,0.434-0.036,0.487
	c0.027,0.056,0.014,0.188-0.04,0.406c0.271,0.058,0.443,0.019,0.528-0.127c0.084-0.129,0.286-0.17,0.606-0.113
	c0-0.108,0.027-0.163,0.085-0.163c-0.107-0.166-0.15-0.283-0.125-0.363c0.025-0.088-0.015-0.205-0.117-0.365
	c-0.275,0.055-0.436,0.094-0.489,0.119C123.659,60.805,123.527,60.844,123.304,60.898z M123.958,70.324v-0.328
	c-0.162-0.053-0.273-0.038-0.327,0.042c-0.054,0.079-0.135,0.069-0.242-0.042C123.388,70.213,123.577,70.324,123.958,70.324z
	 M123.714,57.973c-0.055-0.161-0.109-0.15-0.163,0.046c-0.055,0.184-0.023,0.172,0.08-0.046c0.109,0.112,0.312,0.112,0.608,0
	c0.302-0.107,0.501-0.246,0.612-0.403c-0.111-0.054-0.23-0.04-0.37,0.037c-0.136,0.087-0.308,0.068-0.523-0.037
	c-0.111,0.104-0.135,0.191-0.081,0.241C123.928,57.865,123.877,57.922,123.714,57.973z M123.551,58.709
	c0.326,0,0.489-0.055,0.489-0.167C123.877,58.383,123.714,58.434,123.551,58.709z M124.446,73.164
	c-0.104-0.053-0.139-0.096-0.084-0.121c0.056-0.027,0.11-0.07,0.165-0.117c0.051-0.057,0.095-0.095,0.119-0.129
	c0.028-0.021-0.014-0.064-0.119-0.119c-0.109,0.055-0.23,0.11-0.363,0.16c-0.14,0.051-0.26,0.031-0.367-0.08
	c0,0.326,0.081,0.487,0.244,0.487c0.049-0.11,0.123-0.113,0.199-0.04C124.324,73.287,124.391,73.271,124.446,73.164z M123.958,73.73
	c0.107,0.275,0.131,0.465,0.082,0.571c-0.057,0.111-0.137,0.271-0.244,0.489c0.379-0.109,0.565-0.121,0.565-0.044
	c0,0.082,0.056,0.178,0.165,0.287c0.051-0.277,0.105-0.363,0.159-0.287c0.054,0.082,0.188,0.069,0.409-0.036
	c0-0.271-0.163-0.409-0.491-0.409c0,0.159-0.054,0.247-0.158,0.247c-0.161,0-0.242-0.089-0.242-0.247
	c0.104-0.053,0.214-0.097,0.323-0.12c0.105-0.031,0.214-0.064,0.325-0.127c-0.111-0.16-0.126-0.306-0.042-0.439
	c0.081-0.139,0.066-0.262-0.042-0.369c-0.106,0.107-0.196,0.23-0.286,0.369C124.401,73.75,124.228,73.783,123.958,73.73z
	 M124.768,47.173c-0.106,0-0.162-0.112-0.162-0.327c-0.215,0-0.353,0.079-0.402,0.247c0.104,0,0.229,0.034,0.368,0.117
	C124.706,47.291,124.768,47.277,124.768,47.173z M124.203,51.638c0.216-0.212,0.393-0.363,0.526-0.444
	c0.134-0.086,0.337-0.039,0.607,0.119c0.056-0.268,0.178-0.377,0.367-0.322c0.191,0.054,0.394,0,0.607-0.167
	c-0.272-0.268-0.541-0.284-0.812-0.037c-0.273,0.24-0.485,0.259-0.648,0.037c-0.22,0.06-0.355,0.167-0.406,0.331
	C124.391,51.313,124.307,51.479,124.203,51.638z M124.362,58.625c0-0.055,0.084-0.084,0.242-0.084
	c0.055,0.053,0.07,0.096,0.042,0.123c-0.026,0.029,0.013,0.043,0.122,0.043c0-0.326-0.109-0.49-0.323-0.49
	c0,0.111-0.057,0.188-0.16,0.244C124.175,58.514,124.203,58.57,124.362,58.625z M124.446,69.598c0,0.213-0.028,0.348-0.084,0.4
	c0.379-0.053,0.653-0.242,0.813-0.571c-0.16,0-0.285,0.038-0.365,0.124C124.726,69.632,124.604,69.648,124.446,69.598z
	 M124.446,46.439c0.16,0,0.261-0.039,0.285-0.12c0.024-0.089,0.146-0.069,0.364,0.042c0-0.225-0.123-0.29-0.364-0.202
	C124.482,46.23,124.391,46.331,124.446,46.439z M124.604,51.72c0.055-0.107,0.137-0.149,0.248-0.125
	c0.108,0.031,0.136-0.012,0.08-0.115c-0.105-0.112-0.218-0.112-0.328,0C124.496,51.583,124.496,51.67,124.604,51.72z M126.15,82.262
	c0.164,0,0.244,0.053,0.244,0.161c0.217,0,0.448,0.021,0.688,0.042c0.246,0.025,0.423-0.014,0.53-0.117
	c-0.106-0.115-0.245-0.13-0.41-0.045c-0.16,0.084-0.239,0.068-0.239-0.041c0.051-0.103,0.119-0.162,0.2-0.162
	c0.084,0,0.096-0.08,0.039-0.242c-0.269-0.053-0.5-0.053-0.688,0C126.326,81.906,126.203,82.048,126.15,82.262z M126.394,51.072
	c0.328,0,0.485-0.08,0.485-0.247c-0.106,0.06-0.177,0.042-0.202-0.037c-0.031-0.082-0.095-0.123-0.202-0.123
	C126.477,50.884,126.446,51.016,126.394,51.072z M127.368,46.362c0-0.111,0.139-0.168,0.407-0.168c0.271,0,0.299-0.057,0.079-0.161
	c-0.054,0.104-0.184,0.138-0.402,0.085C127.235,46.062,127.203,46.137,127.368,46.362z M129.967,48.065
	c0.16,0.107,0.272,0.035,0.326-0.208c0.054-0.237-0.029-0.332-0.242-0.28c0.051,0.11,0.039,0.187-0.042,0.245
	C129.927,47.88,129.911,47.956,129.967,48.065z M130.051,46.925c0.321,0.11,0.539,0.062,0.648-0.161
	c-0.109-0.101-0.232-0.128-0.364-0.078C130.198,46.741,130.101,46.816,130.051,46.925z M131.838,82.348
	c0.108,0.104,0.188,0.129,0.243,0.076c0.054-0.051,0.08-0.135,0.08-0.242c0-0.104-0.026-0.186-0.08-0.246
	c-0.056-0.047-0.108-0.047-0.159,0c0.159,0.062,0.188,0.125,0.081,0.211C131.885,82.219,131.838,82.289,131.838,82.348z
	 M134.843,81.934c-0.108-0.102-0.22-0.102-0.325,0c-0.109,0.113-0.083,0.226,0.083,0.328c0.109-0.215,0.218-0.215,0.321,0
	c0.109,0.215,0.195,0.215,0.243,0c-0.105,0-0.134-0.07-0.08-0.201c0.056-0.136,0.056-0.229,0-0.287
	c-0.217,0-0.327,0.029-0.327,0.082C134.871,81.857,134.899,81.887,134.843,81.934z M134.843,80.801
	c0.057,0.109,0.07,0.203,0.043,0.287c-0.028,0.08,0.014,0.119,0.12,0.119c0.051-0.107,0.108-0.107,0.159,0
	c0.054,0.109,0.138,0.109,0.248,0c0.104-0.107,0.124-0.191,0.039-0.248c-0.081-0.047-0.175-0.135-0.289-0.238
	C135.165,80.771,135.059,80.801,134.843,80.801z M135.085,44.328c0.218,0.056,0.353,0,0.404-0.16
	c0.056-0.162,0.027-0.301-0.076-0.406c0,0.164-0.056,0.257-0.161,0.282C135.14,44.074,135.085,44.168,135.085,44.328z
	 M135.983,73.164c0.054,0.107,0.157,0.154,0.32,0.123c0.163-0.03,0.271-0.07,0.325-0.123c0-0.219-0.039-0.498-0.123-0.854
	c-0.079-0.351-0.135-0.703-0.161-1.055c-0.024-0.351,0-0.675,0.084-0.979c0.079-0.295,0.256-0.5,0.526-0.608
	c-0.056-0.103-0.067-0.229-0.042-0.362c0.03-0.141-0.014-0.173-0.116-0.121c0,0.268-0.3,0.41-0.896,0.41
	c-0.218,0.372-0.218,0.684,0,0.928c0.216,0.246,0.19,0.64-0.081,1.18c0.105,0.158,0.24,0.299,0.406,0.408
	c-0.109,0.162-0.202,0.377-0.285,0.647c-0.082,0.275-0.258,0.326-0.526,0.166c-0.056,0.271-0.109,0.443-0.16,0.525
	c-0.062,0.08-0.033,0.256,0.074,0.528c0.162-0.106,0.354-0.152,0.572-0.119c0.216,0.024,0.325-0.041,0.325-0.203
	c-0.271,0.104-0.436,0.074-0.49-0.083C135.682,73.404,135.763,73.271,135.983,73.164z M136.224,69.023
	c0-0.162-0.084-0.242-0.241-0.242c0.054,0.158,0.054,0.27,0,0.32c-0.059,0.058-0.112,0.138-0.165,0.246h0.566
	c-0.056-0.273,0-0.377,0.16-0.324c0.165,0.051,0.303,0.026,0.409-0.084c-0.106,0-0.16-0.105-0.16-0.326
	c-0.221,0.055-0.381,0-0.49-0.159c0.109-0.325,0.241-0.483,0.406-0.483c-0.108,0.053-0.15,0.135-0.12,0.243
	c0.025,0.101,0.095,0.192,0.207,0.24c-0.058-0.378-0.058-0.675,0-0.896c0.051-0.217,0.051-0.432,0-0.645
	c-0.275,0.053-0.397,0.27-0.368,0.645c0.026,0.379-0.123,0.655-0.444,0.815c0.105,0,0.211,0.106,0.321,0.317
	C136.413,68.912,136.385,69.023,136.224,69.023z M136.794,64.634c0.103,0.327,0.079,0.489-0.086,0.489
	c-0.163,0-0.271,0.08-0.324,0.242c0.278,0.054,0.479,0.083,0.61,0.083s0.283,0.054,0.442,0.159c0-0.159,0.055-0.395,0.167-0.687
	c0.104-0.299,0.053-0.446-0.167-0.446c0,0.158-0.077,0.241-0.239,0.241C137.036,64.717,136.899,64.688,136.794,64.634z
	 M136.545,52.287c0.117,0.055,0.249,0.085,0.409,0.085c0.163,0,0.245-0.111,0.245-0.324c-0.114,0.051-0.217,0.079-0.326,0.079
	C136.766,52.125,136.662,52.185,136.545,52.287z M136.545,66.665c0.328,0.11,0.515,0.224,0.572,0.321
	c0.106-0.1,0.245-0.301,0.41-0.604c0.157-0.293,0.102-0.528-0.165-0.69c0,0.113-0.055,0.147-0.161,0.123
	c-0.114-0.027-0.162-0.01-0.162,0.039c0.048,0.112,0.123,0.19,0.203,0.244c0.08,0.057,0.123,0.16,0.123,0.327
	c-0.109,0-0.194,0.026-0.245,0.082c-0.058,0.05-0.163,0.081-0.323,0.081c0-0.059-0.016-0.081-0.042-0.081
	c-0.03,0-0.042-0.032-0.042-0.082c0.107-0.061,0.188-0.205,0.244-0.45c0.055-0.242-0.028-0.342-0.244-0.285
	c-0.108,0.113-0.135,0.256-0.081,0.446C136.682,66.329,136.662,66.508,136.545,66.665z M136.71,50.014
	c0.326,0,0.461-0.108,0.41-0.327c-0.165-0.05-0.258-0.04-0.285,0.04C136.802,49.812,136.766,49.906,136.71,50.014z M136.71,51.479
	c0.107,0,0.177-0.043,0.203-0.123c0.028-0.083,0.069-0.181,0.123-0.287c-0.111,0-0.162-0.026-0.162-0.08
	c0-0.056-0.055-0.083-0.161-0.083v0.572L136.71,51.479L136.71,51.479z M137.609,52.046c0.102-0.163,0.266-0.218,0.48-0.163
	c0-0.331-0.132-0.423-0.407-0.288C137.416,51.735,137.386,51.884,137.609,52.046z M139.151,45.298c0.319,0,0.509-0.046,0.57-0.158
	c-0.223-0.111-0.356-0.163-0.41-0.163C139.311,45.086,139.256,45.197,139.151,45.298z M141.507,63.258
	c0.103,0.11,0.197,0.116,0.284,0.033c0.082-0.08,0.171-0.064,0.281,0.047c-0.055-0.111-0.067-0.189-0.039-0.249
	c0.029-0.05-0.016-0.078-0.123-0.078c0.055,0.164-0.016,0.2-0.203,0.119C141.515,63.055,141.447,63.089,141.507,63.258z
	 M141.749,74.712c0.27-0.108,0.458-0.25,0.568-0.409c-0.161,0.055-0.287,0.066-0.365,0.042
	C141.872,74.312,141.802,74.439,141.749,74.712z M143.288,54.079c0.115,0.158,0.19,0.188,0.245,0.08
	c0.057-0.104,0.137-0.188,0.246-0.245C143.56,53.912,143.404,53.969,143.288,54.079z M145.97,81.123
	c0.106,0.059,0.203,0.018,0.284-0.119c0.084-0.135,0.069-0.232-0.04-0.284c-0.05,0.104-0.105,0.175-0.16,0.206
	C145.998,80.951,145.97,81.016,145.97,81.123z M146.132,81.773h0.246c0-0.104,0.011-0.156,0.037-0.156
	c0.028,0,0.042-0.061,0.042-0.168h-0.326L146.132,81.773L146.132,81.773z M146.213,54.972h0.569c0-0.215-0.108-0.327-0.323-0.327
	c0,0.112-0.03,0.163-0.081,0.163C146.323,54.808,146.268,54.864,146.213,54.972z M147.274,54.808c0.431,0,0.672-0.087,0.729-0.243
	c-0.109,0.106-0.253,0.129-0.446,0.08C147.365,54.591,147.274,54.645,147.274,54.808z M148.162,81.207
	c-0.106,0-0.147-0.066-0.116-0.203c0.023-0.135-0.044-0.203-0.204-0.203c-0.113,0.109-0.094,0.244,0.036,0.406
	C148.015,81.365,148.112,81.365,148.162,81.207z M148.002,55.541c-0.109,0.159-0.017,0.214,0.283,0.159
	c0.301-0.055,0.449-0.133,0.449-0.25c-0.22-0.043-0.365-0.043-0.449,0C148.204,55.51,148.112,55.541,148.002,55.541z
	 M149.381,53.506c-0.105-0.055-0.19-0.135-0.241-0.243c-0.055-0.108-0.187-0.135-0.407-0.083c-0.106,0.219-0.028,0.342,0.244,0.367
	C149.246,53.573,149.381,53.56,149.381,53.506z M151.169,61.793c0.057,0.057,0.191,0.07,0.405,0.042
	c0.22-0.024,0.352-0.128,0.409-0.284c-0.056,0-0.084-0.082-0.084-0.244C151.574,61.416,151.332,61.574,151.169,61.793z
	 M154.094,79.42c-0.105-0.219-0.051-0.302,0.165-0.242c0.215,0.057,0.271,0,0.158-0.16h-0.323c0.107,0.102,0.107,0.187,0,0.241
	C153.987,79.311,153.987,79.367,154.094,79.42z M155.151,81.207c-0.056,0.109-0.032,0.177,0.084,0.201
	c0.107,0.027,0.213,0.041,0.322,0.041c0.106,0,0.186-0.025,0.24-0.084c0.055-0.049,0.055-0.104,0-0.16
	C155.638,81.365,155.422,81.365,155.151,81.207z M155.151,62.443c0.379-0.107,0.592-0.217,0.646-0.326c-0.159,0-0.322,0-0.485,0
	C155.151,62.117,155.095,62.227,155.151,62.443z M155.798,79.578c0.164,0.111,0.301,0.053,0.407-0.16
	c-0.105-0.109-0.215-0.146-0.323-0.119C155.767,79.326,155.742,79.42,155.798,79.578z M156.777,79.502
	c0-0.111,0.081-0.162,0.237-0.162c0.169,0,0.224-0.081,0.169-0.248c-0.169-0.047-0.302-0.021-0.409,0.088
	C156.666,79.285,156.666,79.389,156.777,79.502z M157.183,64.557h0.322V64.23h-0.243c0,0.104-0.018,0.158-0.043,0.158
	C157.193,64.387,157.183,64.441,157.183,64.557z M158.641,56.589c-0.27-0.051-0.434-0.171-0.485-0.359
	c-0.058-0.184-0.137-0.34-0.245-0.449c0,0.218-0.041,0.392-0.118,0.529c-0.081,0.136-0.042,0.281,0.118,0.451
	c0.108-0.062,0.136-0.138,0.085-0.247c-0.054-0.107-0.03-0.164,0.082-0.164c0.05,0.112,0.146,0.205,0.286,0.284
	C158.492,56.718,158.591,56.699,158.641,56.589z M158.641,63.418c0.216,0,0.378-0.139,0.491-0.407
	c-0.113,0.054-0.22,0.099-0.328,0.119C158.693,63.16,158.641,63.258,158.641,63.418z M160.267,64.877
	c-0.106,0-0.133-0.029-0.084-0.084c0.056,0,0.136-0.049,0.246-0.159c0,0.159,0.055,0.355,0.16,0.569
	c0.271,0.057,0.449,0.029,0.528-0.08c0.084-0.109,0.177-0.217,0.284-0.33c-0.271-0.049-0.416-0.076-0.443-0.076
	c-0.026,0,0.013-0.084,0.122-0.242h-0.813c-0.106,0.104-0.164,0.226-0.164,0.361C160.103,64.979,160.16,64.992,160.267,64.877z
	 M164.655,60.086c0.106-0.055,0.228-0.082,0.364-0.082c0.136,0,0.256-0.051,0.364-0.158c-0.108-0.166-0.229-0.205-0.364-0.127
	C164.882,59.805,164.761,59.925,164.655,60.086z M166.034,80.148c0.274,0.112,0.274,0.266,0,0.449
	c-0.272,0.194-0.519,0.258-0.73,0.202c-0.054-0.27,0.027-0.422,0.247-0.446C165.761,80.326,165.927,80.264,166.034,80.148z
	 M165.466,60.086c0.163,0.053,0.245-0.031,0.245-0.238c0-0.222-0.057-0.328-0.158-0.328
	C165.491,59.627,165.466,59.816,165.466,60.086z M166.197,55.213c0.165,0,0.19,0.052,0.084,0.163h0.244
	c0-0.163-0.028-0.246-0.081-0.246c-0.057,0-0.028-0.057,0.081-0.159c-0.219,0-0.328,0.026-0.328,0.079
	C166.306,55.049,166.306,55.104,166.197,55.213z M166.444,56.023c0.157,0.06,0.268,0.041,0.324-0.034
	c0.049-0.088,0.134-0.154,0.242-0.209c-0.162,0-0.313,0-0.452,0C166.427,55.781,166.387,55.862,166.444,56.023z"/>
<g>
	<path fill="#FFFFFF" stroke="#FFFFFF" stroke-width="0.5" stroke-miterlimit="10" d="M35.235,81.402l-0.94,0.147l-0.604-3.8
		l0.944-0.146c0.158,0.873,0.56,1.549,1.194,2.019c0.634,0.471,1.496,0.619,2.584,0.448c1.087-0.174,1.815-0.491,2.188-0.963
		c0.375-0.465,0.497-1.104,0.372-1.906c-0.129-0.803-0.375-1.344-0.74-1.622c-0.368-0.281-0.981-0.435-1.845-0.468l-1.621-0.047
		c-1.294-0.047-2.214-0.268-2.759-0.66c-0.543-0.397-0.909-1.174-1.095-2.325c-0.182-1.159-0.04-2.095,0.414-2.818
		c0.46-0.72,1.372-1.188,2.745-1.405c1.593-0.252,2.788,0.108,3.585,1.088l-0.213-1.371l0.942-0.15l0.492,3.133l-0.938,0.151
		c-0.479-1.515-1.626-2.127-3.439-1.837c-1.057,0.167-1.745,0.498-2.057,0.99c-0.312,0.492-0.407,1.146-0.281,1.957
		c0.129,0.811,0.351,1.347,0.667,1.607c0.314,0.266,0.919,0.411,1.803,0.436l1.601,0.057c1.318,0.041,2.265,0.27,2.844,0.674
		c0.575,0.409,0.958,1.186,1.139,2.328c0.179,1.145,0.022,2.066-0.482,2.773c-0.503,0.705-1.527,1.18-3.073,1.424
		c-1.547,0.246-2.766-0.161-3.662-1.223L35.235,81.402z"/>
	<path fill="#FFFFFF" stroke="#FFFFFF" stroke-width="0.5" stroke-miterlimit="10" d="M44.753,79.893l-0.14-0.877l1.047-0.17
		l-1.759-11.084l-1.049,0.164l-0.139-0.881l8.2-1.299l0.439,2.781l-0.975,0.154L50.1,66.938l-4.917,0.781l0.752,4.749l5.022-0.796
		l0.169,1.053l-5.024,0.799l0.788,4.961l5.268-0.834l-0.275-1.741l0.976-0.153l0.442,2.781L44.753,79.893z"/>
	<path fill="#FFFFFF" stroke="#FFFFFF" stroke-width="0.5" stroke-miterlimit="10" d="M61.186,64.119l0.943-0.148l0.604,3.801
		l-0.944,0.149c-0.225-0.964-0.613-1.661-1.162-2.101c-0.554-0.435-1.382-0.562-2.486-0.387c-1.139,0.18-1.927,0.627-2.359,1.347
		c-0.358,0.61-0.479,1.569-0.371,2.874c0.037,0.512,0.116,1.166,0.241,1.966c0.126,0.798,0.241,1.428,0.346,1.891
		c0.104,0.466,0.262,0.956,0.474,1.478c0.213,0.519,0.464,0.894,0.753,1.128c0.668,0.544,1.579,0.721,2.731,0.539
		c1.151-0.183,1.896-0.563,2.24-1.148c0.342-0.582,0.457-1.331,0.35-2.254l1.035-0.112c0.058,0.64,0.053,1.193-0.007,1.649
		c-0.057,0.461-0.193,0.901-0.416,1.321c-0.44,0.813-1.406,1.342-2.896,1.576c-1.467,0.232-2.571,0.131-3.319-0.303
		c-0.396-0.236-0.729-0.511-1.008-0.82c-0.275-0.312-0.511-0.734-0.701-1.271c-0.327-0.873-0.6-1.967-0.806-3.272
		c-0.208-1.307-0.312-2.34-0.317-3.097c-0.011-0.758,0.098-1.469,0.317-2.144c0.223-0.672,0.625-1.201,1.207-1.586
		c0.582-0.391,1.362-0.661,2.338-0.813c1.524-0.241,2.662,0.106,3.419,1.045L61.186,64.119z"/>
	<path fill="#FFFFFF" stroke="#FFFFFF" stroke-width="0.5" stroke-miterlimit="10" d="M64.193,64.544l-0.14-0.88l3.35-0.532
		l0.14,0.88l-1.048,0.168l1.225,7.725c0.231,1.469,0.729,2.369,1.482,2.703c0.36,0.162,0.715,0.252,1.071,0.275
		c0.355,0.023,0.772-0.009,1.256-0.083c0.481-0.075,0.889-0.181,1.218-0.31c0.334-0.129,0.648-0.331,0.954-0.592
		c0.615-0.558,0.807-1.566,0.576-3.033l-1.227-7.727l-1.046,0.168l-0.14-0.882l3.348-0.532l0.14,0.883l-1.048,0.166l1.228,7.725
		c0.235,1.502,0.104,2.658-0.396,3.473c-0.208,0.357-0.509,0.661-0.902,0.908c-0.396,0.25-0.787,0.43-1.164,0.538
		c-0.385,0.11-0.846,0.206-1.379,0.291c-0.536,0.085-0.997,0.134-1.39,0.147c-0.39,0.015-0.81-0.037-1.259-0.152
		c-0.448-0.115-0.824-0.309-1.132-0.586c-0.729-0.618-1.213-1.68-1.451-3.182l-1.225-7.722L64.193,64.544z"/>
	<path fill="#FFFFFF" stroke="#FFFFFF" stroke-width="0.5" stroke-miterlimit="10" d="M82.283,68.441l-1.378,0.219l0.712,4.486
		l1.046-0.168l0.14,0.883l-3.347,0.531l-0.141-0.883l1.047-0.165l-1.758-11.087l-1.048,0.17l-0.137-0.883l4.707-0.746
		c1.863-0.295,3.105,0.053,3.727,1.049c0.207,0.33,0.356,0.647,0.448,0.961c0.094,0.309,0.172,0.688,0.242,1.131
		c0.069,0.447,0.108,0.838,0.117,1.172c0.004,0.341-0.042,0.689-0.141,1.05c-0.18,0.737-0.72,1.302-1.63,1.685
		c0.365,0.186,0.711,0.524,1.041,1.026l2.058,3.267l1.081-0.175l0.139,0.88l-2.044,0.325l-2.424-3.892
		c-0.287-0.45-0.612-0.723-0.973-0.83C83.407,68.344,82.912,68.342,82.283,68.441z M80.741,67.621l2.405-0.381
		c1.118-0.182,1.8-0.562,2.038-1.151c0.119-0.295,0.186-0.591,0.191-0.882c0.005-0.291-0.023-0.648-0.091-1.074
		c-0.067-0.431-0.151-0.783-0.248-1.053c-0.096-0.275-0.251-0.533-0.454-0.775c-0.41-0.488-1.173-0.645-2.293-0.467l-2.405,0.379
		L80.741,67.621z"/>
	<path fill="#FFFFFF" stroke="#FFFFFF" stroke-width="0.5" stroke-miterlimit="10" d="M90.954,72.566l-0.138-0.881l1.047-0.166
		l-1.759-11.088l-1.048,0.17l-0.138-0.881l8.196-1.302l0.443,2.78l-0.978,0.152l-0.275-1.742l-4.918,0.785l0.749,4.75l5.026-0.799
		l0.169,1.055l-5.023,0.8l0.784,4.965l5.271-0.838l-0.278-1.742l0.977-0.153l0.442,2.778L90.954,72.566z"/>
</g>
<g>
	<path fill="#94103C" stroke="#94103C" stroke-width="0.7" stroke-miterlimit="10" d="M67.851,100.602l-0.944,0.146l-0.604-3.801
		l0.942-0.149c0.163,0.879,0.562,1.55,1.198,2.021c0.638,0.471,1.493,0.619,2.581,0.447c1.089-0.174,1.818-0.49,2.188-0.963
		c0.377-0.466,0.498-1.104,0.373-1.908c-0.126-0.802-0.375-1.34-0.741-1.619S71.866,94.339,71,94.309l-1.617-0.049
		c-1.298-0.048-2.215-0.267-2.759-0.664c-0.547-0.394-0.911-1.168-1.095-2.322c-0.184-1.156-0.044-2.094,0.412-2.815
		c0.459-0.72,1.374-1.19,2.741-1.408c1.599-0.253,2.793,0.11,3.594,1.091l-0.222-1.375l0.944-0.147l0.496,3.132l-0.942,0.148
		c-0.477-1.512-1.624-2.123-3.438-1.834c-1.061,0.168-1.746,0.5-2.062,0.992c-0.313,0.494-0.405,1.147-0.278,1.959
		c0.126,0.81,0.35,1.344,0.663,1.604c0.319,0.265,0.919,0.412,1.808,0.438l1.601,0.053c1.314,0.043,2.267,0.269,2.839,0.678
		c0.577,0.406,0.96,1.184,1.14,2.329c0.181,1.14,0.021,2.063-0.48,2.771c-0.504,0.707-1.524,1.182-3.07,1.426
		c-1.552,0.244-2.771-0.162-3.663-1.222L67.851,100.602z"/>
	<path fill="#94103C" stroke="#94103C" stroke-width="0.7" stroke-miterlimit="10" d="M84.686,97.93l-0.142-0.88l1.048-0.167
		l-0.798-5.014l-6.068,0.965l0.798,5.014l1.049-0.164l0.136,0.877l-3.351,0.533l-0.139-0.88l1.049-0.164L76.51,86.961l-1.049,0.166
		l-0.137-0.879l3.347-0.531l0.141,0.879l-1.049,0.166l0.797,5.016l6.069-0.965l-0.796-5.015l-1.048,0.168l-0.14-0.883l3.35-0.532
		l0.141,0.883l-1.048,0.164l1.76,11.088l1.046-0.164l0.139,0.877L84.686,97.93z"/>
	<path fill="#94103C" stroke="#94103C" stroke-width="0.7" stroke-miterlimit="10" d="M100.434,94.532l0.143,0.88l-3.107,0.492
		l-0.139-0.883l1.031-0.158l-1.585-3.104l-4.957,0.783l-0.541,3.442l1.045-0.168l0.141,0.883l-3.106,0.492l-0.138-0.881l0.801-0.127
		l2.063-12.595l1.692-0.269l5.839,11.342L100.434,94.532z M93.094,84.562l-1.089,6.881l4.277-0.676L93.094,84.562z"/>
	<path fill="#94103C" stroke="#94103C" stroke-width="0.7" stroke-miterlimit="10" d="M104.715,89.254l-1.378,0.215l0.711,4.489
		l1.049-0.165l0.141,0.879l-3.352,0.532l-0.14-0.879l1.049-0.169l-1.76-11.086l-1.046,0.166l-0.139-0.879l4.71-0.746
		c1.859-0.297,3.103,0.053,3.728,1.049c0.207,0.328,0.356,0.645,0.448,0.957c0.09,0.311,0.171,0.688,0.24,1.133
		c0.07,0.445,0.106,0.838,0.115,1.176c0.006,0.334-0.04,0.684-0.136,1.049c-0.186,0.738-0.725,1.301-1.632,1.686
		c0.363,0.181,0.711,0.523,1.037,1.023l2.059,3.265l1.081-0.171l0.138,0.882l-2.042,0.321l-2.423-3.893
		c-0.285-0.447-0.608-0.724-0.971-0.829C105.838,89.157,105.344,89.152,104.715,89.254z M103.171,88.432l2.408-0.382
		c1.115-0.177,1.793-0.56,2.037-1.149c0.118-0.295,0.183-0.59,0.188-0.881c0.011-0.289-0.023-0.646-0.091-1.076
		c-0.064-0.428-0.146-0.778-0.246-1.051c-0.097-0.273-0.248-0.533-0.454-0.774c-0.414-0.49-1.177-0.644-2.294-0.468l-2.406,0.381
		L103.171,88.432z"/>
	<path fill="#94103C" stroke="#94103C" stroke-width="0.7" stroke-miterlimit="10" d="M113.365,93.379l-0.139-0.879l1.047-0.166
		l-1.757-11.086l-1.05,0.17l-0.136-0.882l8.198-1.302l0.439,2.779l-0.979,0.153l-0.273-1.737l-4.921,0.776l0.753,4.754l5.025-0.797
		l0.166,1.055l-5.024,0.796l0.789,4.963l5.271-0.836l-0.279-1.742l0.975-0.154l0.443,2.781L113.365,93.379z"/>
</g>
<path fill="#92938D" d="M118.881,54.287V38.514c0-14.17-9.914-25.697-24.084-25.697h-1.352v12.85h1.353
	c7.085,0,11.238,5.762,11.238,12.849V54.29h-6.294l6.294,8.401v0.004h0.003l6.418,8.566l6.418-8.566h0.007v-0.004l6.294-8.401
	h-6.294L118.881,54.287L118.881,54.287z"/>
</svg>
