<?xml version="1.0" encoding="utf-8"?>
<!-- Generator: Adobe Illustrator 15.0.0, SVG Export Plug-In . SVG Version: 6.00 Build 0)  -->
<!DOCTYPE svg PUBLIC "-//W3C//DTD SVG 1.1//EN" "http://www.w3.org/Graphics/SVG/1.1/DTD/svg11.dtd">
<svg version="1.1" id="Layer_1" xmlns="http://www.w3.org/2000/svg" xmlns:xlink="http://www.w3.org/1999/xlink" x="0px" y="0px"
	 width="150px" height="200px" viewBox="0 0 150 200" enable-background="new 0 0 150 200" xml:space="preserve">
<g>
	<g id="danger-3-icon_5_">
		<g>
			<path fill="#231F20" d="M75.001,131.5c-5.771,0-11.46-1.395-16.558-4.051l9.703-16.807c2.145,0.984,4.479,1.5,6.837,1.5
				c2.368,0.002,4.707-0.514,6.85-1.5l9.703,16.811C86.457,130.105,80.768,131.5,75.001,131.5z M74.998,104.447
				c-4.812,0-8.733-3.916-8.733-8.729c0-4.806,3.921-8.717,8.733-8.717c4.809,0,8.724,3.911,8.724,8.717
				C83.719,100.531,79.804,104.447,74.998,104.447z M74.998,104.447c-4.812,0-8.733-3.916-8.733-8.729
				c0-4.806,3.921-8.717,8.733-8.717c4.809,0,8.724,3.911,8.724,8.717C83.719,100.531,79.804,104.447,74.998,104.447z
				 M91.354,94.183c-0.45-4.734-2.968-9.08-6.855-11.851l9.703-16.808c9.83,6.269,16.044,17.021,16.552,28.659H91.354z
				 M39.255,94.183c0.503-11.633,6.706-22.383,16.535-28.659l9.702,16.808c-3.884,2.769-6.399,7.116-6.852,11.851H39.255z"/>
		</g>
		<g>
			<path fill="#231F20" d="M94.713,67.715c8.199,5.79,13.482,14.948,14.391,24.93h-16.41c-0.733-4.172-2.935-7.979-6.193-10.708
				L94.713,67.715 M55.277,67.717l8.215,14.221c-3.258,2.727-5.459,6.536-6.19,10.708H40.896
				C41.802,82.665,47.084,73.509,55.277,67.717 M74.998,88.538c3.962,0,7.187,3.223,7.187,7.181c0,3.965-3.228,7.192-7.187,7.192
				c-3.967,0-7.197-3.227-7.197-7.192C67.806,91.76,71.029,88.538,74.998,88.538 M81.181,112.58l8.207,14.219
				c-4.486,2.08-9.4,3.166-14.384,3.166c-4.979,0-9.899-1.086-14.396-3.168l8.209-14.219c1.967,0.727,4.067,1.104,6.182,1.104
				C77.11,113.682,79.203,113.305,81.181,112.58 M94.713,67.715c8.199,5.79,13.482,14.948,14.391,24.93h-16.41
				c-0.733-4.172-2.935-7.979-6.193-10.708L94.713,67.715 M55.277,67.717l8.215,14.221c-3.258,2.727-5.459,6.536-6.19,10.708H40.896
				C41.802,82.665,47.084,73.509,55.277,67.717 M81.181,112.58l8.207,14.219c-4.486,2.08-9.4,3.166-14.384,3.166
				c-4.979,0-9.899-1.086-14.396-3.168l8.209-14.219c1.967,0.727,4.067,1.104,6.182,1.104
				C77.11,113.682,79.203,113.305,81.181,112.58 M93.654,63.395L82.437,82.833c4.449,2.58,7.455,7.389,7.455,12.89h22.427
				C112.317,81.906,104.817,69.851,93.654,63.395L93.654,63.395z M56.333,63.395c-11.149,6.456-18.65,18.513-18.65,32.325h22.425
				c0-5.501,3-10.311,7.451-12.891L56.333,63.395L56.333,63.395z M74.998,85.464c-5.668,0-10.271,4.582-10.271,10.254
				c0,5.665,4.6,10.266,10.271,10.266c5.669,0,10.261-4.602,10.261-10.266C85.256,90.045,80.665,85.464,74.998,85.464L74.998,85.464
				z M82.434,108.607c-2.273,1.318-4.85,2.004-7.453,2.002c-2.537,0-5.102-0.654-7.438-2.002l-11.215,19.438
				c5.493,3.17,11.867,4.994,18.67,4.994c6.794,0,13.165-1.824,18.659-4.994L82.434,108.607L82.434,108.607z"/>
		</g>
	</g>
	<g>
		<path fill="#231F20" d="M75.001,145.162c-27.108,0-49.163-22.053-49.163-49.162c0-27.108,22.055-49.162,49.163-49.162
			c27.107,0,49.161,22.054,49.161,49.162C124.162,123.109,102.108,145.162,75.001,145.162z M75.001,51.45
			C50.436,51.45,30.449,71.435,30.449,96c0,24.566,19.986,44.55,44.552,44.55s44.55-19.984,44.55-44.55
			C119.551,71.435,99.566,51.45,75.001,51.45z"/>
	</g>
</g>
</svg>
