<?xml version="1.0" encoding="utf-8"?>
<!-- Generator: Adobe Illustrator 15.0.0, SVG Export Plug-In . SVG Version: 6.00 Build 0)  -->
<!DOCTYPE svg PUBLIC "-//W3C//DTD SVG 1.1//EN" "http://www.w3.org/Graphics/SVG/1.1/DTD/svg11.dtd" [
	<!ENTITY ns_extend "http://ns.adobe.com/Extensibility/1.0/">
	<!ENTITY ns_ai "http://ns.adobe.com/AdobeIllustrator/10.0/">
	<!ENTITY ns_graphs "http://ns.adobe.com/Graphs/1.0/">
	<!ENTITY ns_vars "http://ns.adobe.com/Variables/1.0/">
	<!ENTITY ns_imrep "http://ns.adobe.com/ImageReplacement/1.0/">
	<!ENTITY ns_sfw "http://ns.adobe.com/SaveForWeb/1.0/">
	<!ENTITY ns_custom "http://ns.adobe.com/GenericCustomNamespace/1.0/">
	<!ENTITY ns_adobe_xpath "http://ns.adobe.com/XPath/1.0/">
]>
<svg version="1.1" id="Layer_1" xmlns:x="&ns_extend;" xmlns:i="&ns_ai;" xmlns:graph="&ns_graphs;"
	 xmlns="http://www.w3.org/2000/svg" xmlns:xlink="http://www.w3.org/1999/xlink" x="0px" y="0px" width="350px" height="219px"
	 viewBox="0 0 350 219" enable-background="new 0 0 350 219" xml:space="preserve">
<metadata>
	<sfw  xmlns="&ns_sfw;">
		<slices></slices>
		<sliceSourceBounds  height="181.803" width="321.503" y="138.532" x="347.507" bottomLeftOrigin="true"></sliceSourceBounds>
	</sfw>
</metadata>
<path fill="none" stroke="#231F20" stroke-miterlimit="10" d="M17.609,107.983c9.474-0.854,106.904-8.22,116.316-8.746
	c8.637-0.481,17.891-2.123,26.792-3c17.602-1.733,35.799-4.101,53.369-4.983c20.82-1.048,39.422,3.209,57.77-6.95
	c16.246-8.994,26.564-7.481,43.441,0.273c5.754,2.644,11.072,5.227,17.094,6.699"/>
<g>
	<path fill="#FFFFFF" stroke="#231F20" stroke-width="2" stroke-miterlimit="10" d="M135.844,40.827
		c4.902,15.332,20.443,74.96,24.166,98.048c1.551,9.604,2.946,8.75-6.419,11.34c-6.172,1.707-37.772,8.5-53.231,11.982
		C89.285,127.168,82.215,90.765,72.775,55.301C84.834,52.967,123.939,43.303,135.844,40.827z"/>
	<path fill="#FFFFFF" stroke="#231F20" stroke-width="0.5" stroke-miterlimit="10" d="M132.64,47.982
		c4.347,13.663,18.189,66.75,21.593,87.284c1.428,8.553,2.605,7.809-5.354,10.008c-5.24,1.459-32.104,7.176-45.246,10.092
		c-9.797-31.207-16.025-62.956-24.434-94.536C90.048,57.829,122.52,50.061,132.64,47.982z"/>
	<path fill="#FFFFFF" stroke="#231F20" stroke-width="2" stroke-miterlimit="10" d="M166.148,111.52
		c3.563-2.42,5.604-7.572,4.164-11.012c-1.824-4.351-7.185-3.807-10.846-3.111c-6.834,1.297-18.52,9.432-12.886,18.016
		C150.396,121.227,162.736,114.512,166.148,111.52"/>
	<path fill="#FFFFFF" stroke="#231F20" stroke-width="2" stroke-miterlimit="10" d="M150.9,79.691
		c2.562-1.916,9.008-3.786,9.115,3.55c0.088,6.016-4.835,12.176-8.67,15.501c-2.771,2.404-8.396,6.924-11.949,2.921
		c-4.093-4.608-0.457-10.043,2.252-13.588C144.263,84.656,147.475,81.81,150.9,79.691"/>
	<path fill="#FFFFFF" stroke="#231F20" stroke-width="2" stroke-miterlimit="10" d="M149.734,63.305
		c4.143-1.457,10.426-2.334,10.502,4.066c0.061,5.051-3.57,8.31-7.48,10.101c-4.163,1.904-8.573,2.84-12.984,3.127
		c-3.979,0.261-9.631-2.289-7.436-7.37c1.373-3.182,5.65-5.61,8.631-6.843C144.531,64.912,146.072,64.592,149.734,63.305"/>
	<path fill="#FFFFFF" stroke="#231F20" stroke-width="2" stroke-miterlimit="10" d="M156.904,116.479
		c3.314-0.688,8.22-0.666,7.666,4.459c-0.436,4.043-3.532,6.229-6.703,7.213c-3.375,1.043-6.846,1.285-10.258,1.008
		c-3.076-0.25-7.17-2.938-5-6.746c1.356-2.385,4.869-3.837,7.274-4.479c2.875-0.769,5.646-1.404,8.577-2.012"/>
	<path fill="#FFFFFF" stroke="#231F20" stroke-width="2" stroke-miterlimit="10" d="M55.742,220.741
		c23.453-22.204,59.926-58.86,63.632-63.007h-0.001c0.251,0.041-19.165,5.358-19.357,2.922c-0.853-10.795-5.568-43.182-5.393-44.77
		c0.322-2.875,2.271-14.252,2.738-17.076c1.217-7.328-9.285-10.532-11.514-9.661c-9.947,3.893-9.767,23.532-8.678,34.388
		c0.469,4.668,1.857,9.162,2.762,13.742c1.139,5.771,3.172,11.156,2.891,15.203c-6.627,13.031-71.028,67.3-70.815,67.396"/>
</g>
<g>
	<path fill-rule="evenodd" clip-rule="evenodd" fill="#FFFFFF" stroke="#000000" stroke-width="0.75" stroke-miterlimit="10" d="
		M262.999,126.307c-1.096-0.051-2.014-0.275-2.935-0.582c-1.742,0.871-3.309,0.961-5.605,0.504c-1.108-0.51-1.755-1.242-2.566-2.264
		c0.162-0.195,1.308-0.41,2.061-0.73c-0.673-1.652-2.113-2.65-4.459-2.875c0.704-16.138,1.41-33.095,3.332-48.571
		c0.667-1.29,2.08-2.021,2.816-3.26c0.154-0.816-0.621-0.839-0.466-1.657c0.466-1.117,1.589-1.74,2.421-2.58
		c-0.261-0.691-0.402-1.534,0.361-1.85c-1.261-1.436-2.508-2.883-3.062-4.921c0.371-1.354,1.492-3.006,1.969-3.737
		c0.867-0.61,4.169-1.615,7.276-0.385c1.833,1.607,2.956,5.429,3.788,8.243c0.644,2.179,1.32,4.527,1.652,6.468
		c0.366,2.156-0.492,3.437-0.891,5.042c-0.821,3.312-0.613,7.472-0.289,11.207c0.397,4.571-0.634,8.744-0.217,13.545
		c0.256,2.965,0.846,6.274,0.69,9.173c-0.087,1.63-0.565,3.261-0.683,5.033c-0.279,4.275,0.832,8.434,1.412,12.328
		C268.141,125.033,265.695,126.639,262.999,126.307z"/>
</g>
<g>
	<path fill="#FFFFFF" stroke="#000000" stroke-width="0.75" stroke-miterlimit="10" d="M245.379,52.069
		c1.895,1.588,2.6,6.119,1.457,9.22c-0.348,1.317,2.287-0.346,1.939,0.971c0.172,0.638,0.855,0.763,0.971,1.456
		c2.092,0.172,3.438,1.096,4.854,1.939c1.623,4.914-0.432,18.762-0.971,20.379c-0.059,0.171-0.459,0.004-0.482,0.485
		c-0.092,1.712,0.168,4.7,0.482,7.277c0.422,3.447,0.682,9.6,0.486,15.041c0.357,1.655,0.555,23.678,0.484,26.204
		c-1.109,0.34-3.281,1.885-5.338,0.48c-0.906-0.447,0.062-1.297,0-1.939c0.002,0.027-0.469-0.154-0.486-0.482
		c-0.023-0.467-0.041-0.992,0-1.457c0.109-1.205,0.082-28.823-2.695-30.856c-2.148,0.484,0.111,31.934-0.701,34.735
		c-1.932,0.49-3.148,0.301-4.85-0.482c-0.971,0-1.941,0-2.91,0c-0.475-0.496-0.963-0.98-1.459-1.457
		c0.672-0.297,0.076-1.865,0.973-1.939c0.869,0.061,1.021-0.594,1.939-0.486c0.604-0.707-2.811-38.559-2.426-40.27
		c0.068-0.309-0.076-0.666,0-0.972c0.109-0.443,0.178-1.114,0.486-2.426c0.094-0.404,0.447-0.477,0.486-0.97
		c0.119-1.709-1.338-3.646,0-5.337c-0.205-1.091-2.578-0.014-2.914-0.972c-0.461-3.103-0.184-8.005,0.486-10.673
		c0.584-2.334,2.445-4.235,5.338-4.854c-0.213-0.596-0.623-0.996-1.459-0.969c-0.287-0.812,0.084-1.77-0.482-2.913
		c-0.07-0.14-0.867,0.128-0.971,0c-0.203-0.247,0.24-1.257,0-1.455c-0.617-0.507-0.193-0.831-0.484-2.425
		c-0.115-0.627-0.668-2.159,0.484-3.398c0.242-0.262,0.932-1.062,1.453-1.455C239.244,51.94,243.049,51.221,245.379,52.069z"/>
</g>
<g>
	<path fill="#FFFFFF" stroke="#000000" stroke-width="0.75" stroke-miterlimit="10" d="M211.282,50.407
		c0.491,0.369,1.137,1.121,1.364,1.365c1.082,1.164,0.562,2.602,0.455,3.19c-0.273,1.496,0.125,1.801-0.455,2.276
		c-0.225,0.186,0.191,1.134,0,1.366c-0.098,0.12-0.844-0.132-0.911,0c-0.53,1.073-0.183,1.972-0.453,2.733
		c-0.784-0.024-1.169,0.352-1.368,0.911c2.714,0.579,4.463,2.364,5.01,4.556c0.629,2.504,0.889,7.106,0.457,10.02
		c-0.314,0.898-2.544-0.112-2.735,0.912c1.255,1.587-0.112,3.405,0,5.01c0.036,0.463,0.368,0.531,0.456,0.91
		c0.29,1.231,0.354,1.861,0.456,2.277c0.072,0.287-0.063,0.623,0,0.912c0.361,1.606-2.844,37.14-2.276,37.802
		c0.861-0.1,1.005,0.514,1.82,0.457c0.842,0.07,0.281,1.543,0.912,1.82c-0.465,0.447-0.922,0.902-1.368,1.369
		c-0.91,0-1.821,0-2.731,0c-1.598,0.734-2.74,0.912-4.554,0.451c-0.763-2.629,1.358-32.151-0.658-32.606
		c-2.607,1.909-2.632,27.834-2.53,28.965c0.039,0.436,0.023,0.93,0,1.367c-0.016,0.309-0.459,0.479-0.455,0.453
		c-0.06,0.604,0.85,1.4,0,1.82c-1.932,1.318-3.971-0.131-5.012-0.451c-0.066-2.369,0.119-23.044,0.455-24.597
		c-0.184-5.107,0.061-10.884,0.456-14.12c0.296-2.419,0.539-5.225,0.453-6.831c-0.022-0.451-0.399-0.295-0.453-0.456
		c-0.507-1.518-2.435-14.518-0.912-19.13c1.331-0.793,2.593-1.66,4.556-1.821c0.109-0.651,0.752-0.769,0.912-1.366
		c-0.326-1.236,2.146,0.324,1.821-0.912c-1.073-2.91-0.411-7.164,1.367-8.654C207.547,49.61,211.12,50.286,211.282,50.407z"/>
</g>
<g>
	<path fill-rule="evenodd" clip-rule="evenodd" fill="#FFFFFF" stroke="#000000" stroke-width="0.75" stroke-miterlimit="10" d="
		M216.457,134.582c1.173-0.055,2.155-0.295,3.141-0.623c1.865,0.932,3.543,1.027,6,0.539c1.188-0.545,1.879-1.33,2.748-2.422
		c-0.174-0.211-1.399-0.439-2.205-0.783c0.72-1.77,2.262-2.838,4.773-3.078c-0.755-17.275-1.511-35.427-3.567-51.994
		c-0.715-1.381-2.228-2.162-3.016-3.489c-0.165-0.874,0.665-0.898,0.499-1.774c-0.499-1.195-1.701-1.861-2.592-2.761
		c0.279-0.741,0.431-1.644-0.387-1.979c1.35-1.538,2.685-3.086,3.278-5.27c-0.397-1.448-1.598-3.217-2.107-4
		c-0.929-0.653-4.463-1.729-7.79-0.412c-1.962,1.721-3.164,5.812-4.054,8.824c-0.689,2.332-1.414,4.846-1.769,6.924
		c-0.393,2.309,0.527,3.679,0.953,5.396c0.879,3.545,0.656,8,0.309,11.998c-0.425,4.893,0.68,9.359,0.233,14.499
		c-0.274,3.174-0.905,6.717-0.739,9.819c0.092,1.744,0.604,3.492,0.73,5.389c0.299,4.576-0.891,9.025-1.512,13.195
		C210.952,133.217,213.571,134.938,216.457,134.582z"/>
</g>
</svg>
