<?xml version="1.0" encoding="utf-8"?>
<!-- Generator: Adobe Illustrator 15.0.0, SVG Export Plug-In . SVG Version: 6.00 Build 0)  -->
<!DOCTYPE svg PUBLIC "-//W3C//DTD SVG 1.1//EN" "http://www.w3.org/Graphics/SVG/1.1/DTD/svg11.dtd">
<svg version="1.1" id="Layer_1" xmlns="http://www.w3.org/2000/svg" xmlns:xlink="http://www.w3.org/1999/xlink" x="0px" y="0px"
	 width="350px" height="319px" viewBox="0 0 350 319" enable-background="new 0 0 350 319" xml:space="preserve">
<g>
	<g>
		<g>
			<path fill="#231F20" d="M63.679,294.579c-2.269,0-4.103-1.838-4.103-4.105V174.339c0-2.266,1.834-4.102,4.103-4.102
				c2.264,0,4.1,1.836,4.1,4.102v116.135C67.779,292.741,65.943,294.579,63.679,294.579z"/>
		</g>
		<g>
			<path fill="#231F20" d="M115.918,294.579c-2.265,0-4.103-1.838-4.103-4.105V163.388c0-2.267,1.837-4.1,4.103-4.1
				c2.269,0,4.105,1.833,4.105,4.1v127.086C120.023,292.741,118.187,294.579,115.918,294.579z"/>
		</g>
		<g>
			<path fill="#231F20" d="M115.918,166.122c-2.265,0-4.103-1.836-4.103-4.105c0-2.263,1.837-4.097,4.103-4.097
				c17.336,0,31.445-10.051,31.445-22.396c0-2.271,1.836-4.103,4.104-4.105c2.265,0,4.102,1.834,4.102,4.105
				C155.568,152.394,137.783,166.122,115.918,166.122z"/>
		</g>
		<g>
			<path fill="#231F20" d="M117.825,150.365c-5.308,0-10.375-1.753-14.321-5.093c-1.727-1.466-1.942-4.058-0.477-5.787
				c1.463-1.727,4.052-1.94,5.782-0.477c3.602,3.052,8.592,3.955,13.695,2.475c5.025-1.458,8.944-4.903,10.219-8.986
				c0.682-2.167,2.976-3.366,5.143-2.691c2.164,0.677,3.366,2.979,2.69,5.14c-2.092,6.68-8.13,12.203-15.768,14.417
				C122.468,150.035,120.123,150.365,117.825,150.365z"/>
		</g>
		<g>
			<path fill="#231F20" d="M52.364,193.745c-2.264,0-4.103-1.838-4.103-4.104v-32.387c0-2.264,1.839-4.103,4.103-4.103
				c2.269,0,4.105,1.836,4.105,4.103v32.387C56.469,191.907,54.633,193.745,52.364,193.745z"/>
		</g>
		<g>
			<path fill="#231F20" d="M61.341,205.198c-7.706,0-13.08-8.199-13.08-15.557c0-2.268,1.839-4.104,4.103-4.104
				c2.269,0,4.105,1.836,4.105,4.104c0,3.572,2.503,7.352,4.872,7.352c2.266,0,4.103,1.836,4.103,4.102
				S63.607,205.198,61.341,205.198z"/>
		</g>
		<g>
			<path fill="#231F20" d="M52.364,161.359c-2.264,0-4.103-1.836-4.103-4.105c0-2.894,1.307-12.391,18.13-13.075
				c2.276-0.107,4.176,1.67,4.267,3.934c0.09,2.267-1.67,4.174-3.934,4.267c-2.406,0.1-10.255,0.736-10.255,4.875
				C56.469,159.523,54.633,161.356,52.364,161.359z"/>
		</g>
		<g>
			<path fill="#231F20" d="M68.213,152.382c-2.271,0-4.104-1.834-4.104-4.103c0-2.264,1.834-4.103,4.104-4.103
				c3.571,0,7.348-2.506,7.348-4.872c0-2.266,1.839-4.105,4.104-4.105c2.268,0,4.102,1.839,4.102,4.105
				C83.766,147.011,75.571,152.382,68.213,152.382z"/>
		</g>
		<g>
			<circle fill="#231F20" cx="91.662" cy="112.74" r="32.202"/>
		</g>
		<g>
			<path fill="#231F20" d="M88.933,289.78c-2.267,0-4.104-1.838-4.104-4.104v-30.162c0-2.266,1.837-4.1,4.104-4.1
				c2.269,0,4.103,1.834,4.103,4.1v30.162C93.035,287.942,91.201,289.78,88.933,289.78z"/>
		</g>
		<g>
			<path fill="#231F20" d="M115.918,233.774h-52.24c-2.269,0-4.103-1.838-4.103-4.102c0-2.27,1.834-4.105,4.103-4.105h52.24
				c2.269,0,4.105,1.836,4.105,4.105C120.023,231.937,118.187,233.774,115.918,233.774z"/>
		</g>
	</g>
	<g>
		<g>
			<path fill="#231F20" d="M288.329,294.579c2.267,0,4.101-1.838,4.101-4.105V174.339c0-2.266-1.834-4.102-4.101-4.102
				c-2.271,0-4.104,1.836-4.104,4.102v116.135C284.225,292.741,286.059,294.579,288.329,294.579z"/>
		</g>
		<g>
			<path fill="#231F20" d="M236.086,294.579c2.264,0,4.103-1.838,4.103-4.105V163.388c0-2.267-1.839-4.1-4.103-4.1
				c-2.269,0-4.104,1.833-4.104,4.1v127.086C231.981,292.741,233.817,294.579,236.086,294.579z"/>
		</g>
		<g>
			<path fill="#231F20" d="M236.086,166.122c2.264,0,4.103-1.839,4.103-4.105c0-2.263-1.839-4.1-4.103-4.1
				c-17.336,0-31.444-10.048-31.444-22.394c0-2.271-1.837-4.105-4.105-4.105c-2.264,0-4.1,1.834-4.1,4.105
				C196.437,152.394,214.22,166.122,236.086,166.122z"/>
		</g>
		<g>
			<path fill="#231F20" d="M234.179,150.365c5.312,0,10.378-1.753,14.319-5.093c1.729-1.466,1.943-4.058,0.479-5.787
				c-1.463-1.729-4.053-1.94-5.779-0.477c-3.606,3.052-8.595,3.955-13.699,2.473c-5.022-1.456-8.939-4.901-10.22-8.986
				c-0.677-2.164-2.975-3.364-5.143-2.689c-2.16,0.677-3.366,2.979-2.688,5.14c2.089,6.678,8.132,12.203,15.769,14.417
				C229.534,150.035,231.879,150.365,234.179,150.365z"/>
		</g>
		<g>
			<path fill="#231F20" d="M299.637,193.745c2.271,0,4.104-1.838,4.104-4.105v-32.385c0-2.264-1.834-4.105-4.104-4.105
				c-2.267,0-4.101,1.836-4.101,4.105v32.385C295.536,191.907,297.37,193.745,299.637,193.745z"/>
		</g>
		<g>
			<path fill="#231F20" d="M290.662,205.198c7.706,0,13.079-8.201,13.079-15.559c0-2.266-1.834-4.102-4.104-4.102
				c-2.267,0-4.101,1.836-4.101,4.102c0,3.57-2.503,7.354-4.874,7.354c-2.267,0-4.101,1.836-4.101,4.1
				C286.562,203.36,288.396,205.198,290.662,205.198z"/>
		</g>
		<g>
			<path fill="#231F20" d="M299.637,161.359c2.271,0,4.104-1.839,4.104-4.105c0-2.894-1.306-12.391-18.13-13.075
				c-2.274-0.109-4.172,1.667-4.265,3.934c-0.093,2.264,1.67,4.174,3.933,4.267c2.404,0.1,10.257,0.736,10.257,4.875
				C295.536,159.521,297.37,161.356,299.637,161.359z"/>
		</g>
		<g>
			<path fill="#231F20" d="M283.792,152.382c2.267,0,4.104-1.834,4.104-4.103c0-2.264-1.838-4.103-4.104-4.103
				c-3.571,0-7.351-2.506-7.351-4.872c0-2.266-1.837-4.105-4.103-4.105c-2.267,0-4.103,1.839-4.103,4.105
				C268.236,147.011,276.434,152.382,283.792,152.382z"/>
		</g>
		<g>
			<circle fill="#231F20" cx="260.341" cy="112.74" r="32.202"/>
		</g>
		<g>
			<path fill="#231F20" d="M263.071,289.78c2.267,0,4.103-1.838,4.103-4.104v-30.162c0-2.266-1.836-4.1-4.103-4.1
				c-2.269,0-4.1,1.834-4.1,4.1v30.162C258.972,287.942,260.803,289.78,263.071,289.78z"/>
		</g>
		<g>
			<path fill="#231F20" d="M236.086,233.774h52.243c2.267,0,4.101-1.838,4.101-4.102c0-2.27-1.834-4.105-4.101-4.105h-52.243
				c-2.269,0-4.104,1.836-4.104,4.105C231.981,231.937,233.817,233.774,236.086,233.774z"/>
		</g>
	</g>
	<g>
		<path fill="#231F20" d="M165.129,127.708h-32.307V76.891h32.307V127.708z M140.12,120.41h17.712V84.188H140.12V120.41z"/>
	</g>
	<g>
		<path fill="#231F20" d="M211.87,127.708h-32.307V76.891h32.307V127.708z M186.861,120.41h17.711V84.188h-17.711V120.41z"/>
	</g>
	<path fill="#231F20" d="M173.636,36.939h-10.421c-5.435,0-8.431,4.005-8.431,8.932v19.265h-11.36V45.872
		c0-11.188,8.091-20.292,19.791-20.292h10.421"/>
	<path fill="#231F20" d="M170.636,36.939h9.747c6.267,0,9.934,5.093,9.934,11.36v7.749h-5.562l5.562,7.431l0,0l5.681,7.578
		l5.678-7.578l0.002-0.005l0,0l5.563-7.426h-5.563v-7.749c0-12.528-8.766-22.719-21.294-22.719h-9.747"/>
</g>
</svg>
