<?xml version="1.0" encoding="utf-8"?>
<!-- Generator: Adobe Illustrator 15.0.0, SVG Export Plug-In . SVG Version: 6.00 Build 0)  -->
<!DOCTYPE svg PUBLIC "-//W3C//DTD SVG 1.1//EN" "http://www.w3.org/Graphics/SVG/1.1/DTD/svg11.dtd">
<svg version="1.1" id="Layer_1" xmlns="http://www.w3.org/2000/svg" xmlns:xlink="http://www.w3.org/1999/xlink" x="0px" y="0px"
	 width="350px" height="219px" viewBox="0 0 350 219" enable-background="new 0 0 350 219" xml:space="preserve">
<g>
	<g>
		<g>
			<path fill="#231F20" d="M65.102,198.105c-2.269,0-4.103-1.838-4.103-4.104V152.19c0-2.266,1.834-4.103,4.103-4.103
				c2.264,0,4.1,1.837,4.1,4.103v41.811C69.202,196.268,67.366,198.105,65.102,198.105z"/>
		</g>
		<g>
			<path fill="#231F20" d="M117.341,198.105c-2.265,0-4.103-1.838-4.103-4.104V141.24c0-2.268,1.837-4.101,4.103-4.101
				c2.269,0,4.105,1.833,4.105,4.101v52.761C121.446,196.268,119.61,198.105,117.341,198.105z"/>
		</g>
		<g>
			<path fill="#231F20" d="M117.341,143.974c-2.265,0-4.103-1.836-4.103-4.104c0-2.264,1.837-4.098,4.103-4.098
				c17.336,0,31.445-10.051,31.445-22.396c0-2.271,1.836-4.104,4.104-4.105c2.265,0,4.102,1.834,4.102,4.105
				C156.991,130.245,139.206,143.974,117.341,143.974z"/>
		</g>
		<g>
			<path fill="#231F20" d="M119.248,128.217c-5.308,0-10.375-1.753-14.321-5.093c-1.727-1.467-1.942-4.059-0.477-5.787
				c1.463-1.728,4.052-1.94,5.782-0.478c3.602,3.052,8.592,3.955,13.695,2.476c5.025-1.459,8.944-4.903,10.219-8.986
				c0.682-2.167,2.976-3.366,5.143-2.691c2.164,0.678,3.366,2.979,2.69,5.141c-2.092,6.68-8.13,12.203-15.768,14.416
				C123.891,127.887,121.546,128.217,119.248,128.217z"/>
		</g>
		<g>
			<path fill="#231F20" d="M53.787,171.597c-2.264,0-4.103-1.838-4.103-4.104v-32.387c0-2.264,1.839-4.103,4.103-4.103
				c2.269,0,4.105,1.836,4.105,4.103v32.387C57.892,169.759,56.056,171.597,53.787,171.597z"/>
		</g>
		<g>
			<path fill="#231F20" d="M62.764,183.05c-7.706,0-13.08-8.199-13.08-15.558c0-2.268,1.839-4.104,4.103-4.104
				c2.269,0,4.105,1.836,4.105,4.104c0,3.572,2.503,7.353,4.872,7.353c2.266,0,4.103,1.836,4.103,4.103
				C66.867,181.213,65.03,183.05,62.764,183.05z"/>
		</g>
		<g>
			<path fill="#231F20" d="M53.787,139.211c-2.264,0-4.103-1.837-4.103-4.105c0-2.894,1.307-12.392,18.13-13.075
				c2.276-0.106,4.176,1.67,4.267,3.934c0.09,2.268-1.67,4.175-3.934,4.268c-2.406,0.1-10.255,0.736-10.255,4.875
				C57.892,137.374,56.056,139.207,53.787,139.211z"/>
		</g>
		<g>
			<path fill="#231F20" d="M69.636,130.233c-2.271,0-4.104-1.834-4.104-4.104c0-2.264,1.834-4.103,4.104-4.103
				c3.571,0,7.348-2.506,7.348-4.872c0-2.266,1.839-4.104,4.104-4.104c2.268,0,4.102,1.839,4.102,4.104
				C85.189,124.862,76.994,130.233,69.636,130.233z"/>
		</g>
		<g>
			<circle fill="#231F20" cx="93.085" cy="90.592" r="32.202"/>
		</g>
	</g>
	<g>
		<path fill="#231F20" d="M166.552,105.56h-32.307V54.743h32.307V105.56z M141.543,98.262h17.712V62.04h-17.712V98.262z"/>
	</g>
</g>
<path fill="#231F20" d="M212.925,33.339v119.823l43.7-26.994l43.691,26.994V33.339H212.925z M277.32,113.205l-20.695-12.431
	l-20.723,12.431l5.41-23.551l-18.198-15.852l24.051-2.115l9.46-22.219l9.441,22.219l24.068,2.115l-18.216,15.852L277.32,113.205z"/>
<line fill="none" stroke="#231F20" stroke-width="4" stroke-linecap="round" stroke-linejoin="round" stroke-miterlimit="10" x1="150.398" y1="92.278" x2="212.925" y2="92.278"/>
</svg>
