<?xml version="1.0" encoding="utf-8"?>
<!-- Generator: Adobe Illustrator 15.0.0, SVG Export Plug-In . SVG Version: 6.00 Build 0)  -->
<!DOCTYPE svg PUBLIC "-//W3C//DTD SVG 1.1//EN" "http://www.w3.org/Graphics/SVG/1.1/DTD/svg11.dtd" [
	<!ENTITY ns_extend "http://ns.adobe.com/Extensibility/1.0/">
	<!ENTITY ns_ai "http://ns.adobe.com/AdobeIllustrator/10.0/">
	<!ENTITY ns_graphs "http://ns.adobe.com/Graphs/1.0/">
	<!ENTITY ns_vars "http://ns.adobe.com/Variables/1.0/">
	<!ENTITY ns_imrep "http://ns.adobe.com/ImageReplacement/1.0/">
	<!ENTITY ns_sfw "http://ns.adobe.com/SaveForWeb/1.0/">
	<!ENTITY ns_custom "http://ns.adobe.com/GenericCustomNamespace/1.0/">
	<!ENTITY ns_adobe_xpath "http://ns.adobe.com/XPath/1.0/">
]>
<svg version="1.1" id="Layer_1" xmlns:x="&ns_extend;" xmlns:i="&ns_ai;" xmlns:graph="&ns_graphs;"
	 xmlns="http://www.w3.org/2000/svg" xmlns:xlink="http://www.w3.org/1999/xlink" x="0px" y="0px" width="350px" height="219px"
	 viewBox="0 0 350 219" enable-background="new 0 0 350 219" xml:space="preserve">
<metadata>
	<sfw  xmlns="&ns_sfw;">
		<slices></slices>
		<sliceSourceBounds  height="380.278" width="882.327" y="-31.641" x="353.064" bottomLeftOrigin="true"></sliceSourceBounds>
	</sfw>
</metadata>
<path fill="none" stroke="#231F20" stroke-miterlimit="10" d="M16.609,125.982c9.474-0.854,106.904-8.219,116.316-8.746
	c8.637-0.48,17.891-2.123,26.792-3c17.602-1.732,35.799-4.1,53.369-4.983c20.82-1.048,39.422,3.209,57.77-6.95
	c16.246-8.994,26.564-7.481,43.441,0.273c5.754,2.644,11.072,5.227,17.094,6.699"/>
<g>
	<path fill-rule="evenodd" clip-rule="evenodd" fill="#FFFFFF" stroke="#000000" stroke-width="0.75" stroke-miterlimit="10" d="
		M118.075,142.02c-1.096-0.052-2.014-0.275-2.934-0.582c-1.742,0.87-3.309,0.96-5.605,0.503c-1.109-0.509-1.755-1.242-2.567-2.263
		c0.163-0.196,1.308-0.41,2.061-0.731c-0.672-1.652-2.113-2.65-4.459-2.874c0.705-16.139,1.411-33.096,3.332-48.571
		c0.667-1.291,2.08-2.02,2.817-3.26c0.155-0.816-0.622-0.839-0.466-1.657c0.466-1.117,1.589-1.74,2.42-2.58
		c-0.26-0.692-0.402-1.535,0.362-1.85c-1.261-1.436-2.508-2.883-3.062-4.921c0.371-1.354,1.492-3.006,1.968-3.737
		c0.867-0.611,4.169-1.615,7.277-0.385c1.833,1.607,2.956,5.429,3.788,8.243c0.644,2.178,1.321,4.527,1.652,6.468
		c0.367,2.156-0.492,3.436-0.891,5.042c-0.821,3.312-0.613,7.472-0.288,11.207c0.397,4.571-0.634,8.744-0.218,13.545
		c0.256,2.965,0.846,6.274,0.691,9.173c-0.086,1.63-0.565,3.262-0.682,5.033c-0.28,4.275,0.832,8.433,1.412,12.327
		C123.217,140.745,120.771,142.352,118.075,142.02z"/>
</g>
<path display="none" d="M688.285,162.477c0.479,0,0.96,0,1.438,0c0,0.479,0,0.959,0,1.439c-0.479,0-0.96,0-1.438,0
	C688.285,163.436,688.285,162.956,688.285,162.477z"/>
<path display="none" d="M670.285,163.916C672.763,165.775,666.582,165.654,670.285,163.916L670.285,163.916z"/>
<path display="none" d="M651.564,166.076C646.977,168.609,647.207,164.318,651.564,166.076L651.564,166.076z"/>
<path display="none" d="M663.085,166.076c0.116-0.844,1.312-0.607,2.16-0.721C665.128,166.2,663.932,165.963,663.085,166.076z"/>
<path display="none" d="M639.325,166.796c0.02-0.7,0.881-0.56,1.438-0.72C640.745,166.775,639.884,166.635,639.325,166.796z"/>
<path display="none" d="M641.485,166.796c0.114-0.844,1.312-0.608,2.157-0.72C643.528,166.919,642.332,166.684,641.485,166.796z"/>
<path display="none" d="M669.564,177.596c2.528,2.371,0.875,1.502,3.601,0c0.638,2.854-0.156,4.399,0.72,5.76
	c-0.484,2.693-2.393-0.53-2.88,2.16C669.227,182.943,669.021,181.124,669.564,177.596z M671.004,181.916
	C670.396,186.174,671.417,179.027,671.004,181.916L671.004,181.916z"/>
<path display="none" d="M655.165,182.636c-1.43,1.361-1.229,2.524-0.72,4.32c-1.962-0.679-1.648-3.633-2.16-5.761
	c3.937-0.66,7.055,2.293,7.919-1.439c1.92,0,3.84,0,5.76,0c-0.265,1.225,0.562,1.358,1.439,1.439
	c-0.742,2.789,0.376,2.966-0.72,5.041c-2.993-1,0.211-3.721-1.44-5.76c-0.579,0.381-1.169,0.75-2.16,0.719
	c-0.963,0.498,0.355,1.921-0.72,3.601c-1.387-1.333-0.569-1.319-2.88-0.72C659.044,181.125,657.507,182.634,655.165,182.636z"/>
<path display="none" fill="none" d="M671.004,181.916C671.417,179.027,670.396,186.174,671.004,181.916L671.004,181.916z"/>
<path display="none" d="M657.325,182.636c0.7,0.021,0.559,0.882,0.72,1.44c0.116,0.844,1.312,0.607,2.16,0.72
	C659.527,187.607,656.293,185.688,657.325,182.636z"/>
<path display="none" fill="none" d="M640.765,184.076c0.181-0.906,1.435-0.727,1.44,0
	C641.886,185.122,641.573,184.003,640.765,184.076z"/>
<path display="none" d="M679.645,184.076c1.282,0.527,0.104,1.309,0,2.16C678.363,185.708,679.541,184.926,679.645,184.076z"/>
<path display="none" d="M627.805,186.956C628.218,184.066,627.196,191.215,627.805,186.956L627.805,186.956z"/>
<path display="none" d="M627.805,189.835C628.639,186.991,628.639,192.682,627.805,189.835L627.805,189.835z"/>
<path display="none" d="M666.686,189.835c1.424,0.498,1.92,1.92,2.159,3.601c-5.09,0.834,2.047,4.078-3.6,4.319
	C664.245,194.867,665.058,193.052,666.686,189.835z"/>
<path display="none" d="M660.925,191.275c1.832,0.089,2.792,1.048,2.88,2.881c-2.979,0.41-2.658,0.762-2.16,3.6
	C657.975,196.432,661.044,193.001,660.925,191.275z"/>
<path display="none" d="M679.645,191.996c0.021-0.701,0.884-0.559,1.44-0.721C681.064,191.977,680.203,191.834,679.645,191.996z"/>
<path display="none" d="M681.805,191.275c1.735,1.865,5.331,1.869,5.762,5.041c-2.676,1.47-3.295-1.482-7.199-0.721
	C680.016,193.329,682.574,193.966,681.805,191.275z"/>
<path display="none" d="M647.245,194.156c1.163-0.203,1.24,0.681,2.16,0.72c-0.309,1.912-2.729,2.431,0.721,2.88
	c-0.626,1.055-1.078,2.282-2.88,2.16c0.521-2.202-1.242-2.118-0.72-4.32C647.225,195.576,647.083,194.715,647.245,194.156z"/>
<path display="none" d="M650.845,194.875c1.66-0.221,0.8,2.08,2.16,2.16c-0.474,2.156-1.539-0.688-2.88,0
	C650.506,196.457,650.876,195.867,650.845,194.875z"/>
<path display="none" d="M672.445,194.875c2.203,0.895,2.297,2.094,0.72,3.6C671.604,198.598,672.838,195.922,672.445,194.875z"/>
<path display="none" d="M655.165,197.036c0.952-2.213,3.292,1.251,1.438,2.159C655.567,199.033,656.354,197.047,655.165,197.036z"/>
<path display="none" d="M628.523,198.477C628.938,195.587,627.917,202.734,628.523,198.477L628.523,198.477z"/>
<path display="none" d="M652.285,198.477c2.374,0.416,1.031,2.719,0.72,4.319C651,202.074,652.083,199.891,652.285,198.477z"/>
<path display="none" fill="none" d="M738.686,209.996c-4.407-0.15-6.646-2.475-10.08-3.6c-2.156,3.449,0.804,7.114,1.439,10.08
	c-7.8,0.133-8.867-4.312-8.64-10.803c4.422-1.816,9.202-3.277,11.52-7.197C737.537,199.52,741.421,206.032,738.686,209.996z
	 M732.925,203.516c-0.217,1.897,0.997,2.364,2.88,2.16c-0.123-1.076,0.258-2.656-0.72-2.88
	C734.963,203.634,733.946,203.578,732.925,203.516z"/>
<path display="none" d="M636.445,200.637C637.278,197.791,637.278,203.48,636.445,200.637L636.445,200.637z"/>
<path display="none" d="M735.085,202.796c0.979,0.224,0.597,1.804,0.72,2.88c-1.883,0.204-3.097-0.263-2.88-2.16
	C733.946,203.578,734.963,203.634,735.085,202.796z"/>
<path display="none" d="M705.564,204.236C706.398,201.391,706.398,207.081,705.564,204.236L705.564,204.236z"/>
<path display="none" d="M657.325,207.116c0.02-0.7,0.881-0.56,1.438-0.72C658.745,207.096,657.884,206.955,657.325,207.116z"/>
<path display="none" fill="none" d="M730.045,209.275c3.711,1.199,5.639,0.945,8.641,3.601
	C736.018,218.602,730.006,215.471,730.045,209.275z"/>
<path display="none" fill="none" d="M653.005,215.756c3.243,0.596,5.681,2,5.76,5.76c-3.377-0.822-2.336-1.846-5.76-2.88
	C653.005,217.676,653.005,216.716,653.005,215.756z"/>
<path display="none" d="M638.604,218.637c0.021-0.701,0.884-0.56,1.44-0.721C640.023,218.616,639.164,218.475,638.604,218.637z"/>
<path display="none" fill="none" d="M778.285,217.916c2.849,1.725,3.634,0.975,7.2,0.721c-0.866,3.215-3.99,4.17-7.2,5.039
	C778.174,220.395,777.689,220.852,778.285,217.916z"/>
<path display="none" fill="none" d="M664.523,222.236c-0.024,2.375-2.049,2.752-4.319,2.88c0-0.959,0-1.921,0-2.88
	C662.47,222.596,663.02,220.667,664.523,222.236z"/>
<path display="none" fill="none" d="M658.045,222.956c0.479,0,0.96,0,1.44,0c0,0.959,0,1.92,0,2.879c-0.48,0-0.96,0-1.44,0
	C658.045,224.876,658.045,223.916,658.045,222.956z"/>
<path display="none" fill="none" d="M665.965,229.436c0.917-0.162,0.943-2.146,0-2.16c1.942-2.105,2.795-0.616,5.04,0
	c0.151,1.231-1.227,1.865,0,2.16c-2.901,1.931-5.952,1.25-7.919,2.162c-2.888-0.924,2.137-3.429,0-3.601
	C663.377,226.404,667.305,227.033,665.965,229.436z"/>
<path display="none" fill="none" d="M660.205,227.996c0.984,1.003,1.553,3.553,0.72,4.32
	C659.145,231.307,659.654,229.835,660.205,227.996z"/>
<path display="none" fill="none" d="M657.325,228.716c1.067,0.61,1.042,2.318,1.438,3.601c-4.56-0.103-5.012,1.033-8.64,0
	C651.593,230.184,655.43,230.421,657.325,228.716z"/>
<path display="none" fill="none" d="M629.245,235.916c4.812-1.367,14.744-4.298,17.28-1.439c-4.689,0.323-8.19,3.271-13.683,5.039
	c-0.194,8.033,3.893,19.961,7.92,28.082c-0.886,0.313-1.479,0.92-1.438,2.159C633.229,261.773,629.335,245.259,629.245,235.916z"/>
<path display="none" fill="none" d="M662.365,235.916c-1.228,0.264-1.359-0.562-1.44-1.439c0.612,0.131,0.679-0.278,0.72-0.721
	C662.488,233.872,662.252,235.068,662.365,235.916z"/>
<path display="none" d="M666.686,234.477c0.021-0.701,0.884-0.56,1.439-0.721C668.105,234.456,667.243,234.314,666.686,234.477z"/>
<path display="none" fill="none" d="M686.125,235.916c0.345,4.27,0.43,8.499-2.16,10.8c-1.773-2.305-1.812-6.345-2.88-9.36
	C683.319,237.43,683.139,235.09,686.125,235.916z"/>
<path display="none" fill="none" d="M735.805,245.275c2.025,0.136,3.067,1.252,2.881,3.601c-0.642-0.56-1.627-0.772-2.881-0.72
	C735.805,247.195,735.805,246.234,735.805,245.275z"/>
<path display="none" d="M642.925,253.916c9.09,1.704,15.191-4.034,25.2-5.041c1.268-0.173,1.641-1.238,1.439-2.879
	c2.559,0.082,2.896,2.383,2.881,5.04c-0.827,0.666-8.943,0.106-8.643,1.44C657.891,251.626,645.48,263.6,642.925,253.916z"/>
<path display="none" fill="none" d="M719.965,245.996c0.479,0,0.96,0,1.44,0c0,0.48,0,0.959,0,1.439c-0.48,0-0.96,0-1.44,0
	C719.965,246.956,719.965,246.477,719.965,245.996z"/>
<path display="none" fill="none" d="M717.085,247.436c1.163-0.201,1.24,0.684,2.16,0.723
	C719.53,249.553,715.965,249.208,717.085,247.436z"/>
<path display="none" fill="none" d="M689.004,260.396c2.85-0.933,1.471,2.369,4.32,1.438c0.583,3.57,0.832,5.251-3.602,5.04
	C690.135,264.055,687.227,262.385,689.004,260.396z"/>
<path display="none" d="M809.965,264.716C810.798,261.871,810.798,267.561,809.965,264.716L809.965,264.716z"/>
<path display="none" d="M810.686,269.756C813.1,268.016,808.944,272.171,810.686,269.756L810.686,269.756z"/>
<path display="none" fill="none" d="M696.204,269.756c0.253,2.592,1.102,3.471,0,5.76c-0.835-0.604-1.931-0.949-3.603-0.72
	c0.522-2.203-1.239-2.118-0.72-4.319C692.735,269.646,694.43,269.661,696.204,269.756z"/>
<path display="none" d="M642.925,271.916C643.759,269.07,643.759,274.761,642.925,271.916L642.925,271.916z"/>
<path display="none" fill="none" d="M806.365,272.636c0.482,4.12,0.906,8.49-3.603,9.36c0.312-1.333,3.446-5.682-0.72-5.04
	c0-1.2,0-2.399,0-3.601C804.247,273.878,804.162,272.114,806.365,272.636z"/>
<path display="none" fill="none" d="M699.805,280.557c2.022,2.41-0.748,6.282,0.723,7.199c-0.61,1.07-2.318,1.042-3.603,1.439
	c-0.789-3.051-3.149-4.526-2.88-8.639C697.162,279.586,698.812,280.9,699.805,280.557z"/>
<path display="none" d="M717.085,282.716c0.81,1.505,0.458,3.438,0,5.761C715.597,287.857,716.325,283.464,717.085,282.716z"/>
<path display="none" fill="none" d="M662.365,284.156c-1.535,2.39-1.135,6.042-1.44,7.92c-1.2,0-2.397,0-3.6,0
	c-0.185-2.458-1.821-3.459-1.44-6.479C659.638,284.773,658.245,283.348,662.365,284.156z"/>
<path display="none" fill="none" d="M647.245,287.756c0.729,0.469,0.745,1.655,2.16,1.439c-0.48,9.767,5.147,14.957,5.041,25.921
	C652.105,305.809,644.896,297.471,647.245,287.756z"/>
<path display="none" d="M716.365,289.195c1.667,2.053,0.142,5.396,0,6.479C714.074,293.77,716.368,291.58,716.365,289.195z"/>
<path display="none" d="M712.045,292.076c0.021-0.7,0.881-0.559,1.44-0.721C713.465,292.057,712.604,291.915,712.045,292.076z"/>
<path display="none" fill="none" d="M658.765,294.236c2.854-2.729,7.061-0.426,8.643,2.16c-0.812-3.06,3.993-2.028,7.92-2.16
	c0,0.959,0,1.92,0,2.88c-4.16,0.464-10.546,2.688-15.12,2.88C660.095,297.706,658.572,296.829,658.765,294.236z"/>
<path display="none" d="M766.045,294.956C766.878,292.111,766.878,297.8,766.045,294.956L766.045,294.956z"/>
<path display="none" fill="none" d="M669.564,299.996c2.34-0.061,4.43-0.372,5.761-1.439c3.241,1.799,1.149,8.93,5.04,10.079
	c1.408-2.872-1.827-7.274-2.16-10.8c3.643,3.559,6.316,8.085,7.92,13.68c-2.458,0.185-3.459,1.82-6.48,1.44
	c-2.205-1.746-4.009-5.71-7.197-4.32C671.305,305.936,669.449,303.951,669.564,299.996z"/>
<path display="none" fill="none" d="M713.485,299.996c-0.979,1.191-4.228-0.611-5.763,1.439
	C705.427,297.812,712.236,297.254,713.485,299.996z"/>
<path display="none" fill="none" d="M670.285,309.355c-2.393-0.229-2.721,1.601-4.32,2.158c-3.381-1.418-3.972-5.625-5.04-9.357
	c1.794-1.35,5.734-0.981,6.479-1.44C669.821,302.139,670.107,305.693,670.285,309.355z"/>
<path display="none" d="M766.045,302.875C766.878,300.031,766.878,305.721,766.045,302.875L766.045,302.875z"/>
<path display="none" fill="none" d="M673.885,311.516c1.434,0.012,0.916,1.967,2.88,1.44c-0.762,2.015-5.095,3.019-6.479,2.16
	C670.607,313.038,673.383,313.414,673.885,311.516z"/>
<path display="none" fill="none" d="M667.404,313.676c0.521,2.202-1.242,2.118-0.723,4.32c-5.146,0.285-10.353,4.352-12.237-1.439
	C660.039,316.701,661.41,315.465,667.404,313.676z"/>
<path display="none" fill="none" d="M688.285,313.676c-0.6,3.727-4.159,4.481-6.48,6.48c0.118-2.278-1.913-2.406-1.438-5.04
	C683.48,315.111,684.933,313.443,688.285,313.676z"/>
<path display="none" fill="none" d="M690.445,317.996c0.798,1.361,0.918,3.4,1.438,5.04c-3.683,0.696-5,0.582-7.92-0.72
	C685.833,320.584,686.52,317.671,690.445,317.996z"/>
<path display="none" d="M796.285,320.156c0.781,0.178,0.488,1.432,1.438,1.438c-3.312,3.874,0.41,7.793-3.6,10.08
	C793.246,328.646,795.878,323.176,796.285,320.156z"/>
<path display="none" d="M779.724,322.316c0.48,0,0.96,0,1.44,0c0,0.479,0,0.959,0,1.438c-0.48,0-0.96,0-1.44,0
	C779.724,323.275,779.724,322.796,779.724,322.316z"/>
<path display="none" fill="none" d="M730.764,325.916c1.896,0.745,4.419,0.861,7.2,0.72c-0.074,2.234,2.265,2.058,1.44,5.04
	c-4.314,0.07-6.043,1.23-8.643,0.723C732.22,330.268,729.401,327.663,730.764,325.916z"/>
<path display="none" d="M773.965,330.236c0.021-0.7,0.881-0.562,1.44-0.723C775.385,330.216,774.523,330.075,773.965,330.236z"/>
<path display="none" d="M666.686,355.436c1.269,0.178,1.643,1.239,1.439,2.883C666.87,357.667,665.352,356.704,666.686,355.436z"/>
<path display="none" fill="none" d="M722.845,358.314c1.536-0.338,1.372,1.027,1.44,2.158c-0.583-0.135-0.719-0.721-1.44-0.719
	C722.845,359.275,722.845,358.796,722.845,358.314z"/>
<path display="none" d="M703.405,169.676c-1.819-2.037-3.194-8.303-5.761-7.199C698.436,158.707,704.891,166.271,703.405,169.676z"
	/>
<path display="none" fill="none" d="M704.845,169.676c0.065,0.585-1.229-3.74-1.438-1.439
	C703.561,166.532,705.074,171.734,704.845,169.676z M697.645,162.477c2.566-1.104,3.941,5.162,5.763,7.199
	C704.891,166.271,698.436,158.707,697.645,162.477z M691.165,163.195C697.737,161.956,690.657,161.079,691.165,163.195
	L691.165,163.195z M688.285,163.916c0.479,0,0.96,0,1.438,0c0-0.48,0-0.96,0-1.439c-0.479,0-0.96,0-1.438,0
	C688.285,162.956,688.285,163.436,688.285,163.916z M680.365,163.916C683.104,165.286,676.559,162.014,680.365,163.916
	L680.365,163.916z M670.285,163.916C666.582,165.654,672.763,165.775,670.285,163.916L670.285,163.916z M651.564,166.076
	C647.207,164.318,646.977,168.609,651.564,166.076L651.564,166.076z M658.045,166.076c5.098,1.781,3.92-0.428-0.72-0.721
	C655.537,166.605,656.146,167.217,658.045,166.076z M665.245,165.355c-0.847,0.11-2.043-0.123-2.16,0.721
	C663.932,165.963,665.128,166.2,665.245,165.355z M630.686,168.236c2.424-0.459,5.248-0.51,6.479-2.16
	C635.836,167.627,630.654,165.326,630.686,168.236z M640.765,166.076c-0.559,0.16-1.42,0.02-1.438,0.72
	C639.884,166.635,640.745,166.775,640.765,166.076z M643.645,166.076c-0.847,0.111-2.043-0.124-2.157,0.72
	C642.332,166.684,643.528,166.919,643.645,166.076z M671.004,185.516c0.488-2.69,2.395,0.533,2.88-2.16
	c-0.876-1.357-0.082-2.905-0.72-5.76c-2.725,1.502-1.07,2.371-3.6,0C669.021,181.124,669.227,182.943,671.004,185.516z
	 M675.325,182.636c1.358-0.161,1.588,0.812,2.88,0.72c-0.758-3.383,2.429,1.187,2.88-1.438c-1.121-0.188-0.499-1.58,0-2.16
	c-1.361,0.162-1.589-0.812-2.88-0.72C676.729,183.523,675.023,176.3,675.325,182.636z M627.805,179.756
	C626.581,183.496,629.669,181.668,627.805,179.756L627.805,179.756z M660.205,184.796c-0.847-0.112-2.043,0.124-2.16-0.72
	c-0.161-0.559-0.02-1.42-0.72-1.44C656.293,185.688,659.527,187.607,660.205,184.796z M659.485,184.076
	c2.311-0.6,1.491-0.613,2.88,0.72c1.076-1.68-0.243-3.103,0.72-3.601c0.991,0.031,1.581-0.338,2.16-0.719
	c1.649,2.041-1.554,4.762,1.438,5.76c1.099-2.075-0.021-2.252,0.723-5.041c-0.878-0.081-1.704-0.215-1.439-1.439
	c-1.92,0-3.84,0-5.76,0c-0.865,3.732-3.983,0.779-7.919,1.439c0.512,2.128,0.197,5.082,2.16,5.761
	c-0.51-1.796-0.709-2.959,0.72-4.32C657.507,182.634,659.044,181.125,659.485,184.076z M647.245,186.956
	c-0.959,0.937-2.173,0.442-2.88-0.72c-0.625-3.104-0.504-2.276,1.438-3.603c-2.188-1.032-4.912-0.733-5.76,1.44
	c1.465,0.693,1.555,2.765,1.44,5.039c1.358-0.161,1.588,0.812,2.88,0.721C643.451,187.414,649.526,188.369,647.245,186.956z
	 M679.645,186.236c0.104-0.854,1.282-1.633,0-2.16C679.541,184.926,678.363,185.708,679.645,186.236z M627.805,186.956
	C627.196,191.215,628.218,184.066,627.805,186.956L627.805,186.956z M689.724,197.036c0.721-2.075,1.164-9.418-2.157-7.92
	C687.982,190.206,687.857,195.307,689.724,197.036z M627.805,189.835C628.639,192.682,628.639,186.991,627.805,189.835
	L627.805,189.835z M679.645,196.316c-0.541-0.967,0.477-6.959-2.88-7.2C676.442,192.346,677.513,197.93,679.645,196.316z
	 M665.245,197.756c5.646-0.242-1.49-3.486,3.6-4.32c-0.239-1.68-0.735-3.102-2.159-3.6
	C665.058,193.052,664.245,194.867,665.245,197.756z M661.645,197.756c-0.496-2.838-0.817-3.189,2.16-3.6
	c-0.088-1.833-1.048-2.793-2.88-2.881C661.044,193.001,657.975,196.432,661.645,197.756z M681.085,191.275
	c-0.559,0.162-1.42,0.021-1.44,0.721C680.203,191.834,681.064,191.977,681.085,191.275z M680.365,195.596
	c3.906-0.763,4.523,2.19,7.199,0.721c-0.431-3.172-4.024-3.176-5.762-5.041C682.574,193.966,680.016,193.329,680.365,195.596z
	 M735.085,251.756c1.983-1.713,3.777-0.406,5.76-2.88c-0.438-5.09-0.671-13.375-4.317-17.278c-1.542,2.922,2.039,9,0.72,11.521
	c-5.691-1.887-8.724,0.027-13.681,2.158c-6.509-1.545-0.445-8.566-4.319-12.238c2.699,9.631-5.482,11.675-3.601,19.438
	c5.812-1.865,9.009-6.352,15.118-7.92c1.479,1.402,3.517,2.248,3.603,5.041c-5.081,5.488-11.411,6.719-20.16,9.36
	c-3.021-5.922,0.797-14.804-2.16-15.84c0.741,2.935-0.12,5.786-2.16,8.64c2.455,3.305,2.327,9.193,6.48,10.801
	c-1.239,2.135,1.158,11.103,1.438,11.521c0.832-2.371-0.709-4.249,1.44-4.32c-3.724-1.021-0.596-6.438-2.16-9.357
	c7.345-2.027,16.146-8.678,20.88-5.041c0.656,3.103,1.31,9.226-0.72,12.24c-7.714,0.366-10.586,1.905-16.56,2.158
	c0.398,1.258,11.014-0.589,16.56-0.72c1.341,20.483,3.593,36.603,0,54.72c-2.626-0.672-4.865-0.935-7.92,0.723
	c-0.878-6.397-2.306-14.273-5.76-18.723c3.914-5.4,1.14-17.447,2.88-23.76c-3.159,6.505-2.514,14.643-2.88,23.04
	c-7.08,2.021-7.45-7.433-11.521-12.24c0.614,4.9-3.627,1.498-6.479,3.603c-6.04-6.25-1.084-8.447-2.16-17.28
	c-2.136-0.265-3.552-1.248-4.32-2.88c2.005-2.838-0.774-7.967-3.6-10.08c3.718-4.975-4.604-10.407-8.64-8.641
	c-4.188-10.373,6.17-13.332,0-24.479c-3.203-0.563-4.321,0.959-7.2,0.72c-0.745-6.808-6.285-9.787-7.2-14.4
	c-1.799,1.275-0.778,0.918-0.721,3.603c-2.994,0.96-5.552,2.188-6.479-1.438c0.847-0.111,2.043,0.125,2.16-0.721
	c-2.21-0.822-5.505-0.711-6.479,0.721c-2.373-0.748-1.962-4.277-3.6-5.76c-2.627,0.641-3.835-1.271-5.04,0
	c-1.003-0.918-0.312-3.527-2.16-3.602c2.246,3.895-2.536,4.495-6.479,4.318c-2.365-5.09-0.354,2.593,3.6,1.439
	c3.558-2.611,8.239,4.863,10.08,8.641c-11.496,3.812-18.39,4.604-28.8,6.479c-1.17,3.625-2.329,4.045-2.16,7.92
	c4.458,8.624,5.718,19.825,9.36,28.8c-0.002-0.4,0.583-0.816,0.72,0c0.296,8.264-7.273,14.118-11.521,20.16
	c2.427,7.926,7.952,16.139,11.521,23.04c1.595,3.085,7.99,11.506,8.64,15.84c0.455,3.035-3.752,10.409-5.04,12.959
	c-0.729,1.451-0.716,4.998-1.438,6.48c-2.033,4.161-5.847,9.841-7.92,14.397c-0.611,1.348-5.985,5.426-0.72,7.199
	c2.896-3.582,2.446-7.961,4.317-12.238c4.282-9.793,14.032-20.144,12.959-29.521c-0.376-3.29-3.382-5.853-5.04-8.64
	c-4.941-8.323-10.689-18.336-14.397-28.803c6.175-6.783,9.339-16.58,16.56-22.32c2.547,1.055,3.741,3.459,5.76,5.041
	c0.223,8.769-8.166,13.541-7.197,21.602c0.274,2.312,3.758,5.814,5.039,8.643c3.898,8.596,2.887,17.289,7.92,21.6
	c1.903-0.571-1.61-3.385,1.438-3.602c3.29,1.322,6.087-2.013,10.8-1.438c0.357,3.243,2.175,5.024,2.882,7.92
	c-1.36,0.162-1.59-0.812-2.882-0.72c-3.509,12.236-9.738,22.564-14.397,32.398c-1.486,3.135-3.202,8.299-2.16,11.521
	c9.11-11.445,10.317-38.027,23.76-41.041c4.999,13.063,23.527,7.985,30.96,17.276c14.963,0.212,16.335,23.947,27.36,28.082
	c-1.489-5.719-8.761-9.471-7.92-15.12c1.85,3.188,3.224,6.856,7.2,7.921c-1.028-5.276,3.112-1.518,2.88-6.479
	c-7.905-3.612-13.982-9.058-18.721-15.84c-10.111-2.203-22.227-7.812-33.12-9.359c-0.26-0.036,1.196-1.489,0-1.438
	c-6.263,0.271-9.461-10.854-12.239-17.28c1.76-0.641,3.122-1.678,5.76-1.438c2.828,7.381,9.544,12.795,17.28,7.92
	c0.042-6.319-5.224-8.05-2.16-13.683c-1.52-1.27-2.128-1.623-4.32-0.72c-3.475-7.962-6.331-16.672-14.397-18.722
	c-3.891-0.985-7.71,1.845-10.8-2.158c0.267-2.373,1.682-3.6,2.879-5.04c5.381,1.131,10.142-1.509,14.398,0
	c6.943,2.458,9,12.127,15.841,15.84c0.13,2.271,0.507,4.294,2.882,4.32c1.978-4.349-4.105-6.302-2.882-12.24
	c8.175-1.562,5.798,12.653,12.239,15.12c0.833-2.436-0.509-3.072,0.722-4.32c1.371,1.354,1.304-0.427,3.601,0
	c0.652,2.229,1.794,3.966,2.88,5.761c5.127,0.172,4.653,1.911,7.92,4.319c2.395,19,11.055,33.924,22.32,47.521
	c1.752-3.996-2.604-3.42-2.16-7.92c3.569-0.933,3.538,1.74,6.479,1.438c-4.137-8.104-12.39-12.091-17.279-19.438
	c2.555-1.676,6.021,1.228,9.358-0.722c-0.507-2.569-2.285-8.638-5.041-8.64c0.65-1.271,1.61-2.229,2.881-2.881
	c0.201-20.096-0.536-44.928-0.722-65.521c3.779-1.295,4.89-2.863,7.92-2.16c0.161-0.559,0.021-1.42,0.722-1.438
	c-1.39-4.742-0.729-10.96-2.88-17.28c-1.55-4.547-8.424-15.046-7.921-19.438c0.077-0.682,3.193-2.711,3.601-3.602
	c3.797-8.283-0.425-10.146-4.319-15.119c-2.069-2.644-2.986-5.91-7.92-6.479c-8.565,1.916-20.947,14.202-10.8,21.6
	c-0.555-4.75-2.961-9.743,1.439-14.399c2.687-2.84,10.109-5.637,12.96-2.879c-1.198,1.433,0.063,0.916,0,2.879
	c-6.659,3.308-17.12,6.176-10.802,16.562c-1.068,2.006-3.217-1.521-2.88,1.438c4.694-1.586,8.711,3.617,15.12,1.439
	c-1.012,2.52,2.021,4.609,0,5.762c-1.389-2.311-2.104-2.08-4.319-4.32c-1.467,3.132,0.413,5.177-2.159,7.199
	c-1.396-1.746-2.363-4.353-1.439-6.479c-5.776,1.086-0.209,7.147,0.72,10.08c4.083,0.724,3.672-3.049,5.762-4.32
	c4.287,1.823,5.36,0.187,6.479-2.157C742.459,231.626,754.079,257.128,735.085,251.756z M642.205,218.637
	c0.041,0.205,3.789,1.611,5.04,0C645.122,218.293,641.17,217.902,642.205,218.637z M628.523,194.875
	C629.882,197.219,626.474,191.333,628.523,194.875L628.523,194.875z M639.325,195.596c0.575-1.218,4.828-0.084,4.317,2.16
	c-0.222,2.854-2.5-0.805-2.157,2.16c0.105,1.332,2.438,0.441,2.88,1.439c0.512-1.726,0.338-2.65,0.72-5.76
	c-2.118-0.522-2.756-2.525-5.76-2.16C639.609,194.675,638.256,195.281,639.325,195.596z M646.523,195.596
	c-0.521,2.202,1.24,2.118,0.721,4.32c1.802,0.122,2.254-1.105,2.88-2.16c-3.447-0.449-1.026-0.968-0.721-2.88
	c-0.921-0.039-0.997-0.922-2.16-0.72C647.083,194.715,647.225,195.576,646.523,195.596z M650.125,197.036
	c1.341-0.688,2.406,2.157,2.88,0c-1.36-0.08-0.5-2.38-2.16-2.16C650.876,195.867,650.506,196.457,650.125,197.036z M673.165,198.477
	c1.577-1.506,1.483-2.707-0.72-3.601C672.838,195.922,671.604,198.598,673.165,198.477z M656.604,199.195
	c1.854-0.908-0.484-4.372-1.438-2.159C656.354,197.047,655.567,199.033,656.604,199.195z M781.165,226.557
	c5.308-0.757,11.389,2.131,16.56-3.601c-0.195-3.531-1.068-4.791,0.723-7.92c1.373-1.353,1.303,0.428,3.6,0
	c7.422-13.92-14.605-21.14-20.88-15.12c9.7-2.259,25.395,4.126,19.438,12.959c-2.628,0.484-1.691-2.537-4.318-3.6
	c-1.594,1.037,0.906,1.757-0.722,2.16c-2.697-2.104-3.354-6.244-7.198-7.201c-2.948,0.173-4.058,2.186-7.2,2.16
	c0.216-1.416-0.972-1.43-1.44-2.16c-0.348-2.27,2.211-1.629,1.44-4.319c-5.117,7.14-7.45,21.267-0.72,26.64
	c0.616,8.459,0.052,14.729,3.6,20.881C783.341,238.994,782.296,233.206,781.165,226.557z M808.523,249.596
	c-3.493-4.56-4.193-19.521-13.682-22.32c-4.29,7.414-4.149,16.951-9.357,21.603c-0.113-0.849,0.124-2.043-0.723-2.16
	c-1.56,1.646-0.261,4.492,2.16,4.32c3.812-6.513,6.037-14.604,9.36-21.603C802.885,233.159,803.61,246.586,808.523,249.596z
	 M628.523,198.477C627.917,202.734,628.938,195.587,628.523,198.477L628.523,198.477z M653.005,202.796
	c0.312-1.601,1.654-3.903-0.72-4.319C652.083,199.891,651,202.074,653.005,202.796z M636.445,200.637
	C637.278,203.48,637.278,197.791,636.445,200.637L636.445,200.637z M636.445,217.195c-6.797-1.363-5.33-10.989-7.92-16.562
	C629.047,207.279,629.459,216.834,636.445,217.195z M705.564,204.236C706.398,207.081,706.398,201.391,705.564,204.236
	L705.564,204.236z M709.165,205.676c-1.674,0.438-6.782,1.288-6.479,2.881c1.497-1.562,2.326,0.088,3.602,0.719
	C704.725,205.979,711.352,207.221,709.165,205.676z M658.765,206.396c-0.559,0.16-1.42,0.02-1.438,0.72
	C657.884,206.955,658.745,207.096,658.765,206.396z M641.485,213.596c-0.398-1.281-0.37-2.99-1.44-3.6
	C639.972,211.352,640.925,215.243,641.485,213.596z M704.845,214.316C707.018,208.675,703.314,211.177,704.845,214.316
	L704.845,214.316z M685.405,212.875C683.439,215.066,687.595,210.911,685.405,212.875L685.405,212.875z M696.204,218.637
	c2.22-1.143,7.865,0.815,7.2-2.16C702.586,217.779,695.382,216.656,696.204,218.637z M676.764,219.355
	c2.746-0.342,15.851-0.451,17.28-2.16C689.359,217.566,682.512,217.273,676.764,219.355z M640.045,217.916
	c-0.559,0.161-1.42,0.02-1.439,0.721C639.164,218.475,640.023,218.616,640.045,217.916z M713.485,237.355
	c-1.188-0.103,0.754-3.002,0-5.039c1.913,2.084,3.521-3.129,2.157-4.32c1.86-1.021,5.7-0.061,5.763-2.88
	c-0.396-1.72-4.497,2.59-5.04,0.72c1.117-3.684,5.003-4.598,7.199-7.2C715.239,217.309,710.643,233.296,713.485,237.355z
	 M769.645,231.596c-2.078,18.051-16.675,37.84-4.317,54c0.966,3.157-0.483,4.279,1.438,6.479c-0.402-6.056,1.48-5.636,0.723-10.8
	c3.4-0.217,9.172-1.842,12.237,0c0.097,9.779-3.229,23.043-0.72,30.959c1.646-13.963,0.924-22.24,3.603-31.68
	c2.854,8.272-1.248,32.066,2.158,36.721c-0.608-13.086,0.953-26.065,0-36.721c4.321-0.507,10.78-0.191,13.682,0
	c-1.742,3.229,2.107,9.883-1.44,13.68c5.416,5.682-4.094,14.658,0,19.438c2.142-7.491,3.45-18.479,2.88-28.077
	c9.066,0.426,6.867-10.414,11.521-14.4c-4.688-1.078-5.718,1.707-8.642,0c0.933-11.684-0.25-24.401-4.318-33.12
	c1.306,13.377,6.219,29.187,0.72,40.319c-11.183-0.295-26.285,3.188-35.28-3.602c1.498,3.311,3.368,7.191,0.722,9.359
	c-2.079-3.682-4.316-7.202-3.602-13.682c1.682,0,3.36,0,5.04,0c1.652,0.75-0.341,5.143,1.439,5.76
	c0.82-3.336-0.339-5.602-0.72-8.639c1.983-4.468,3.16-9.816,4.318-15.841c0.967-5.024,2.785-10.883,2.16-14.399
	c-4.761,9.014-4.445,23.732-8.641,32.399c-0.441-0.999-2.771-0.108-2.881-1.44c3.181-10.088,4.657-26.854,10.802-37.438
	c2.094-0.786,5.086-0.673,6.479-2.16C775.812,227.023,772.464,230.598,769.645,231.596z M712.764,240.236
	C714.121,242.579,710.713,236.693,712.764,240.236L712.764,240.236z M811.405,262.557c-2.189-3.351-1.552-8.365-2.88-9.361
	C807.946,254.76,809.567,263.471,811.405,262.557z M809.965,264.716C810.798,267.561,810.798,261.871,809.965,264.716
	L809.965,264.716z M810.686,269.756C808.944,272.171,813.1,268.016,810.686,269.756L810.686,269.756z M642.925,271.916
	C643.759,274.761,643.759,269.07,642.925,271.916L642.925,271.916z M717.085,277.676
	C718.987,281.48,715.714,274.936,717.085,277.676L717.085,277.676z M717.085,280.557
	C719.275,282.521,715.119,278.366,717.085,280.557L717.085,280.557z M717.085,288.477c0.458-2.319,0.81-4.254,0-5.761
	C716.325,283.464,715.597,287.857,717.085,288.477z M716.365,295.676c0.142-1.082,1.667-4.428,0-6.48
	C716.368,291.58,714.074,293.77,716.365,295.676z M713.485,291.355c-0.562,0.162-1.421,0.021-1.44,0.721
	C712.604,291.915,713.465,292.057,713.485,291.355z M766.045,294.956C766.878,297.8,766.878,292.111,766.045,294.956
	L766.045,294.956z M766.764,299.996c1.144-1.078,0.531-2.945-0.72-3.6C767.28,298.234,765.22,298.916,766.764,299.996z
	 M766.045,302.875C766.878,305.721,766.878,300.031,766.045,302.875L766.045,302.875z M766.764,306.477
	C768.732,314.335,767.054,304.396,766.764,306.477L766.764,306.477z M768.204,312.956c0.951-1.992-2.847-2.474-0.719-1.44
	C767.43,312.525,767.646,314.27,768.204,312.956z M797.724,318.716c-1.902-0.571,1.612-3.384-1.438-3.6
	C795.817,316.867,796.77,320.758,797.724,318.716z M786.204,325.196c-0.907-2.267-0.571-5.923-2.88-6.48
	c-0.605,3.65-1.219,7.402,0.72,10.08c2.604,0.522,2.604-1.243,0-0.72c0.364-2.262-1.697-2.942,0.72-3.602
	C784.938,325.257,785.95,326.205,786.204,325.196z M760.285,339.596c6.375,3.118,14.053,1.158,20.88-2.16
	c-0.155-3.203-0.169-6.551-2.88-7.199c-0.236,1.84,2.164,2.707,1.438,7.199c-7.101,1.403-12.202,2.703-18,1.439
	c-0.552-5.752,6.224-8.859,9.36-6.479c-1.137-2.818,1.869-1.491,2.16-2.883c-4.643-0.382-4.124-6.664-1.44-8.64
	c-1.952-0.388-1.792-0.576-4.317-1.44C774.241,331.648,760.27,327.85,760.285,339.596z M794.125,331.676
	c4.01-2.287,0.286-6.206,3.6-10.08c-0.949-0.009-0.656-1.262-1.438-1.438C795.878,323.176,793.246,328.646,794.125,331.676z
	 M779.724,323.756c0.48,0,0.96,0,1.44,0c0-0.479,0-0.96,0-1.438c-0.48,0-0.96,0-1.44,0
	C779.724,322.796,779.724,323.275,779.724,323.756z M780.445,325.916C781.801,328.259,778.393,322.373,780.445,325.916
	L780.445,325.916z M799.165,328.796C801.355,330.761,797.199,326.605,799.165,328.796L799.165,328.796z M775.405,329.516
	c-0.561,0.161-1.42,0.021-1.44,0.723C774.523,330.075,775.385,330.216,775.405,329.516z M802.764,339.596
	c0.231-1.992-3.021-9.048-6.479-7.197c2.312,1.525,4.799,2.879,5.04,6.479c-3.293,0.938-10.069-2.155-12.96,1.439
	c-5.963-0.104-3.096-7.385-3.603-10.08c-0.041,0.438-0.104,0.854-0.72,0.721c-0.008-0.727-1.262-0.906-1.439,0
	C779.469,342.792,795.22,341.236,802.764,339.596z M668.125,358.314c0.201-1.643-0.173-2.705-1.439-2.883
	C665.352,356.704,666.87,357.667,668.125,358.314z"/>
<path display="none" d="M703.405,168.236c0.209-2.301,1.505,2.022,1.438,1.438C705.074,171.734,703.561,166.532,703.405,168.236z"/>
<path display="none" d="M691.165,163.195C690.657,161.079,697.737,161.956,691.165,163.195L691.165,163.195z"/>
<path display="none" d="M680.365,163.916C676.559,162.014,683.104,165.286,680.365,163.916L680.365,163.916z"/>
<path display="none" d="M657.325,165.355c4.641,0.293,5.815,2.502,0.72,0.721C656.146,167.217,655.537,166.605,657.325,165.355z"/>
<path display="none" d="M637.165,166.076c-1.231,1.65-4.058,1.703-6.479,2.16C630.654,165.326,635.836,167.627,637.165,166.076z"/>
<path display="none" d="M678.204,179.036c1.292-0.091,1.519,0.882,2.88,0.72c-0.499,0.581-1.121,1.973,0,2.16
	c-0.452,2.624-3.638-1.943-2.88,1.439c-1.291,0.092-1.521-0.881-2.88-0.722C675.023,176.3,676.729,183.523,678.204,179.036z"/>
<path display="none" d="M627.805,179.756C629.669,181.668,626.581,183.496,627.805,179.756L627.805,179.756z"/>
<path display="none" d="M644.365,189.835c-1.292,0.092-1.521-0.881-2.88-0.72c0.112-2.275,0.022-4.346-1.44-5.04
	c0.848-2.175,3.569-2.474,5.76-1.44c-1.941,1.324-2.062,0.499-1.438,3.6c0.707,1.164,1.921,1.658,2.88,0.723
	C649.526,188.369,643.451,187.414,644.365,189.835z M642.205,184.076c-0.008-0.727-1.262-0.906-1.44,0
	C641.573,184.003,641.886,185.122,642.205,184.076z"/>
<path display="none" d="M687.564,189.116c3.322-1.499,2.878,5.845,2.158,7.92C687.857,195.307,687.982,190.206,687.564,189.116z"/>
<path display="none" d="M676.764,189.116c3.354,0.243,2.34,6.233,2.881,7.2C677.513,197.93,676.442,192.346,676.764,189.116z"/>
<path display="none" d="M738.686,223.676c-1.117,2.344-2.192,3.983-6.479,2.16c-2.088,1.271-1.677,5.043-5.76,4.32
	c-0.932-2.93-6.497-8.994-0.723-10.08c-0.924,2.128,0.045,4.732,1.44,6.48c2.574-2.023,0.694-4.068,2.16-7.201
	c2.217,2.242,2.932,2.012,4.317,4.318c2.021-1.148-1.011-3.238,0-5.76c-6.406,2.175-10.426-3.025-15.117-1.438
	c-0.34-2.961,1.811,0.563,2.88-1.44c-6.32-10.386,4.14-13.254,10.8-16.56c0.062-1.966-1.199-1.449,0-2.879
	c-2.852-2.76-10.274,0.036-12.96,2.879c-4.401,4.653-1.994,9.646-1.44,14.397c-10.146-7.396,2.233-19.687,10.801-21.603
	c4.934,0.568,5.851,3.838,7.921,6.48c3.896,4.971,8.115,6.835,4.318,15.12c-0.407,0.888-3.521,2.92-3.6,3.601
	c-0.502,4.396,6.372,14.895,7.92,19.439c2.149,6.318,1.492,12.538,2.88,17.279c-0.7,0.021-0.559,0.882-0.72,1.438
	c-3.032-0.703-4.144,0.865-7.92,2.16c0.183,20.596,0.923,45.425,0.72,65.521c-1.271,0.648-2.23,1.609-2.88,2.88
	c2.755,0.002,4.534,6.066,5.041,8.641c-3.339,1.947-6.808-0.954-9.36,0.721c4.894,7.351,13.146,11.334,17.28,19.438
	c-2.942,0.303-2.91-2.37-6.479-1.44c-0.438,4.5,3.911,3.924,2.159,7.92c-11.266-13.596-19.927-28.52-22.318-47.52
	c-3.269-2.408-2.793-4.15-7.92-4.32c-1.087-1.794-2.229-3.53-2.882-5.76c-2.297-0.429-2.227,1.353-3.6,0
	c-1.229,1.248,0.114,1.887-0.72,4.32c-6.444-2.466-4.067-16.684-12.24-15.12c-1.224,5.938,4.858,7.892,2.88,12.238
	c-2.374-0.024-2.752-2.047-2.88-4.318c-6.84-3.715-8.896-13.383-15.84-15.842c-4.259-1.508-9.021,1.133-14.4,0
	c-1.198,1.443-2.611,2.668-2.88,5.041c3.09,4.002,6.912,1.174,10.8,2.16c8.07,2.047,10.925,10.758,14.4,18.721
	c2.19-0.903,2.8-0.551,4.319,0.72c-3.062,5.63,2.201,7.361,2.158,13.68c-7.733,4.877-14.449-0.539-17.277-7.92
	c-2.641-0.234-4.001,0.801-5.762,1.44c2.778,6.426,5.979,17.552,12.239,17.279c1.198-0.054-0.258,1.401,0,1.438
	c10.896,1.547,23.008,7.156,33.12,9.359c4.738,6.781,10.815,12.227,18.72,15.84c0.235,4.965-3.905,1.203-2.88,6.479
	c-3.976-1.062-5.351-4.729-7.2-7.92c-0.84,5.649,6.435,9.401,7.921,15.12c-11.022-4.135-12.396-27.872-27.358-28.081
	c-7.435-9.293-25.961-4.215-30.96-17.278c-13.442,3.015-14.649,29.596-23.76,41.041c-1.045-3.222,0.674-8.386,2.157-11.521
	c4.66-9.833,10.895-20.163,14.4-32.401c1.291-0.09,1.519,0.882,2.88,0.723c-0.707-2.896-2.521-4.68-2.88-7.921
	c-4.713-0.571-7.51,2.764-10.8,1.438c-3.052,0.215,0.465,3.028-1.44,3.601c-5.034-4.31-4.02-13.005-7.92-21.601
	c-1.282-2.824-4.763-6.326-5.04-8.641c-0.965-8.06,7.42-12.832,7.2-21.601c-2.019-1.582-3.213-3.987-5.76-5.039
	c-7.224,5.737-10.388,15.535-16.562,22.318c3.708,10.469,9.456,20.479,14.4,28.8c1.658,2.791,4.664,5.354,5.04,8.642
	c1.072,9.378-8.677,19.729-12.959,29.521c-1.872,4.277-1.422,8.656-4.32,12.238c-5.266-1.774,0.108-5.854,0.721-7.199
	c2.072-4.56,5.889-10.237,7.922-14.398c0.725-1.481,0.706-5.028,1.438-6.479c1.288-2.55,5.495-9.925,5.04-12.959
	c-0.65-4.333-7.045-12.754-8.64-15.84c-3.568-6.901-9.099-15.115-11.521-23.041c4.247-6.041,11.816-11.896,11.521-20.159
	c-0.14-0.816-0.725-0.398-0.723,0c-3.642-8.978-4.899-20.177-9.357-28.8c-0.169-3.875,0.99-4.295,2.16-7.92
	c10.407-1.879,17.305-2.668,28.8-6.48c-1.841-3.775-6.523-11.252-10.08-8.641c-3.954,1.148-5.965-6.529-3.603-1.438
	c3.944,0.177,8.729-0.427,6.48-4.319c1.847,0.073,1.157,2.684,2.16,3.601c1.205-1.272,2.412,0.64,5.04,0
	c1.638,1.481,1.228,5.013,3.6,5.761c0.976-1.431,4.269-1.545,6.479-0.721c-0.115,0.844-1.312,0.607-2.159,0.721
	c0.93,3.629,3.482,2.398,6.479,1.439c-0.057-2.685-1.079-2.325,0.72-3.601c0.916,4.611,6.455,7.593,7.2,14.398
	c2.88,0.239,3.997-1.283,7.2-0.72c6.17,11.146-4.186,14.104,0,24.479c4.038-1.768,12.358,3.665,8.641,8.639
	c2.822,2.113,5.604,7.242,3.602,10.08c0.768,1.633,2.184,2.617,4.319,2.881c1.074,8.834-3.88,11.031,2.158,17.279
	c2.854-2.102,7.097,1.301,6.48-3.6c4.067,4.811,4.438,14.259,11.52,12.24c0.367-8.399-0.276-16.535,2.88-23.041
	c-1.737,6.312,1.034,18.356-2.88,23.76c3.454,4.446,4.883,12.323,5.763,18.721c3.055-1.653,5.294-1.392,7.92-0.72
	c3.593-18.121,1.341-34.233,0-54.72c-5.548,0.131-16.158,1.975-16.562,0.719c5.977-0.252,8.847-1.791,16.562-2.159
	c2.024-3.015,1.377-9.138,0.72-12.239c-4.734-3.638-13.535,3.014-20.88,5.039c1.562,2.92-1.564,8.34,2.16,9.359
	c-2.148,0.072-0.607,1.949-1.44,4.32c-0.282-0.418-2.678-9.384-1.439-11.521c-4.151-1.604-4.023-7.493-6.479-10.801
	c2.04-2.854,2.901-5.705,2.16-8.641c2.957,1.037-0.864,9.918,2.16,15.842c8.749-2.645,15.078-3.873,20.158-9.36
	c-0.088-2.794-2.12-3.64-3.601-5.041c-6.112,1.567-9.306,6.055-15.12,7.921c-1.882-7.766,6.299-9.811,3.603-19.439
	c3.873,3.672-2.188,10.694,4.317,12.239c4.957-2.131,7.989-4.043,13.683-2.16c1.316-2.519-2.265-8.599-0.723-11.521
	c3.649,3.904,3.884,12.188,4.32,17.279c-1.981,2.475-3.777,1.166-5.76,2.879C754.079,257.128,742.459,231.626,738.686,223.676z
	 M732.925,198.477c-2.315,3.92-7.098,5.381-11.52,7.199c-0.229,6.49,0.84,10.934,8.64,10.801c-0.637-2.963-3.598-6.629-1.439-10.08
	c3.436,1.125,5.673,3.449,10.08,3.602C741.421,206.032,737.537,199.52,732.925,198.477z M738.686,212.875
	c-3.002-2.654-4.93-2.4-8.641-3.6C730.006,215.471,736.018,218.602,738.686,212.875z M735.805,248.156
	c1.254-0.055,2.239,0.16,2.881,0.72c0.188-2.347-0.854-3.465-2.881-3.601C735.805,246.234,735.805,247.195,735.805,248.156z
	 M719.965,247.436c0.479,0,0.96,0,1.44,0c0-0.479,0-0.959,0-1.438c-0.48,0-0.96,0-1.44,0
	C719.965,246.477,719.965,246.956,719.965,247.436z M719.244,248.156c-0.92-0.04-0.997-0.922-2.16-0.721
	C715.965,249.208,719.53,249.553,719.244,248.156z M653.005,218.637c3.424,1.033,2.383,2.057,5.76,2.879
	c-0.079-3.76-2.517-5.164-5.76-5.76C653.005,216.716,653.005,217.676,653.005,218.637z M639.325,269.756
	c-0.039-1.238,0.554-1.846,1.438-2.16c-4.027-8.119-8.114-20.047-7.92-28.08c5.489-1.771,8.991-4.717,13.683-5.041
	c-2.536-2.854-12.469,0.074-17.28,1.44C629.335,245.259,633.229,261.773,639.325,269.756z M660.205,222.236c0,0.959,0,1.92,0,2.88
	c2.273-0.128,4.294-0.505,4.32-2.88C663.02,220.667,662.47,222.596,660.205,222.236z M658.045,225.835c0.479,0,0.96,0,1.44,0
	c0-0.959,0-1.92,0-2.879c-0.48,0-0.96,0-1.44,0C658.045,223.916,658.045,224.876,658.045,225.835z M663.085,227.996
	c2.137,0.172-2.888,2.677,0,3.6c1.968-0.912,5.017-0.23,7.919-2.16c-1.227-0.295,0.151-0.93,0-2.16c-2.245-0.617-3.098-2.106-5.04,0
	c0.943,0.013,0.917,1.996,0,2.16C667.305,227.033,663.377,226.404,663.085,227.996z M660.925,232.316
	c0.833-0.77,0.267-3.316-0.72-4.32C659.654,229.835,659.145,231.307,660.925,232.316z M671.724,281.996
	c9.826-3.414,14.309,5.549,21.603,10.08c0.524-3.24,1.47-1.893,0.72-5.76c-1.037-1.594-1.757,0.906-2.16-0.723
	c0.162-8.012-3.31-13.543-5.76-20.88c-4.152-12.435-5.45-30.444-13.68-36.72c1.265,6.331,6.03,16.312,4.317,20.879
	c-0.16-0.561-0.02-1.42-0.72-1.438c-0.043,2.684,0.726,4.555,1.44,6.479c-10.812,1.638-21.405,5.541-35.28,7.919
	c-1.625-5.187-2.189-7.272-3.603-12.96c8.657-0.982,16.966-8.446,28.803-8.641c0.637-3.308,1.567-2.57,5.041-2.16
	c0.113-2.274,0.022-4.346-1.44-5.039c-1.746,1.434,1.216,3.074-1.438,3.6c0-1.439,0-2.88,0-4.318
	c-2.685-0.043-4.556,0.727-6.479,1.438c-0.597,1.88,2.177,3.95,0,5.04c-0.123-1.078,0.257-2.657-0.72-2.88
	c-1.793,3.854-1.901-1.124-2.88-1.44c-6.774-2.188-15.638,4.106-24.48,6.48c-0.16,8.296,4.314,16.958,6.48,25.199
	c11.555-0.248,12.315,12.227,6.479,20.881c4.284-1.881,1.825,6.876,4.32,7.199c0.185-1.496,3.163-0.196,3.6-1.439
	c-1.039-2.914-2.568-7.146-5.04-6.479c5.906-5.36,16.231-4.388,24.48-9.36c2.899-1.75,7.323-3.234,10.8-2.16
	C682.857,278.257,672.247,278.188,671.724,281.996z M661.645,233.756c-0.041,0.439-0.104,0.852-0.72,0.721
	c0.081,0.877,0.216,1.705,1.44,1.439C662.252,235.068,662.488,233.872,661.645,233.756z M650.125,232.316
	c3.628,1.033,4.08-0.104,8.64,0c-0.396-1.282-0.37-2.99-1.438-3.603C655.43,230.421,651.593,230.184,650.125,232.316z
	 M681.085,237.355c1.065,3.016,1.104,7.056,2.88,9.358c2.59-2.301,2.505-6.528,2.16-10.8
	C683.139,235.09,683.319,237.43,681.085,237.355z M674.605,251.036c0.104-4.187-1.903-6.257-2.16-10.08
	c-13.055,2.433-20.936,6.108-31.683,10.08c0.761,2.841,1.144,6.06,2.881,7.92C655.026,256.186,664.502,256.922,674.605,251.036z
	 M689.724,266.875c4.435,0.211,4.186-1.469,3.603-5.04c-2.853,0.931-1.473-2.369-4.32-1.438
	C687.227,262.385,690.135,264.055,689.724,266.875z M691.885,270.477c-0.521,2.201,1.242,2.117,0.723,4.319
	c1.67-0.229,2.764,0.115,3.6,0.72c1.102-2.289,0.253-3.166,0-5.76C694.43,269.661,692.735,269.646,691.885,270.477z
	 M694.045,280.557c-0.271,4.112,2.091,5.588,2.88,8.642c1.282-0.398,2.99-0.37,3.603-1.44c-1.471-0.917,1.302-4.79-0.723-7.197
	C698.812,280.9,697.162,279.586,694.045,280.557z M655.885,285.596c-0.381,3.021,1.258,4.021,1.44,6.479c1.2,0,2.397,0,3.6,0
	c0.308-1.878-0.095-5.53,1.44-7.921C658.245,283.348,659.638,284.773,655.885,285.596z M654.445,315.116
	c0.106-10.964-5.521-16.154-5.041-25.921c-1.415,0.216-1.43-0.971-2.16-1.439C644.896,297.471,652.105,305.809,654.445,315.116z
	 M657.325,294.956c-2.842,0.856-3.915-0.245-5.761,2.16c3.088,4.833,3.701,12.139,6.479,17.28c0.133-1.066,1.739-0.662,2.88-0.723
	c2.524-3.781-0.16-7.021-0.72-11.521c-3.119-0.529-4.459,1.63-5.76-0.721C660.385,301.45,659.316,298.523,657.325,294.956z
	 M667.404,300.716c-0.745,0.458-4.688,0.091-6.479,1.44c1.068,3.73,1.659,7.939,5.04,9.357c1.6-0.56,1.93-2.39,4.32-2.158
	C670.107,305.693,669.821,302.139,667.404,300.716z M672.445,308.636c3.188-1.39,4.992,2.574,7.197,4.32
	c3.021,0.38,4.022-1.258,6.48-1.44c-1.604-5.595-4.278-10.121-7.92-13.68c0.333,3.525,3.566,7.93,2.16,10.8
	c-3.891-1.149-1.801-8.28-5.04-10.079c-1.331,1.068-3.421,1.379-5.763,1.439C669.449,303.951,671.305,305.936,672.445,308.636z
	 M660.205,299.996c4.574-0.191,10.96-2.416,15.12-2.88c0-0.959,0-1.921,0-2.88c-3.927,0.132-8.732-0.897-7.92,2.16
	c-1.582-2.586-5.785-4.891-8.643-2.16C658.572,296.829,660.095,297.706,660.205,299.996z M707.724,301.436
	c1.536-2.051,4.783-0.248,5.763-1.438C712.236,297.254,705.427,297.812,707.724,301.436z M670.285,315.116
	c1.384,0.856,5.718-0.146,6.479-2.16c-1.964,0.524-1.447-1.431-2.88-1.44C673.383,313.414,670.607,313.038,670.285,315.116z
	 M654.445,316.557c1.887,5.791,7.092,1.728,12.238,1.439c-0.521-2.203,1.242-2.118,0.722-4.32
	C661.41,315.465,660.039,316.701,654.445,316.557z M680.365,315.116c-0.476,2.634,1.558,2.762,1.438,5.04
	c2.321-1.999,5.884-2.756,6.48-6.48C684.933,313.443,683.48,315.111,680.365,315.116z M683.965,322.316
	c2.92,1.302,4.237,1.416,7.92,0.72c-0.521-1.638-0.642-3.679-1.438-5.04C686.52,317.671,685.833,320.584,683.965,322.316z
	 M730.764,332.396c2.6,0.51,4.326-0.65,8.643-0.723c0.822-2.982-1.517-2.806-1.44-5.04c-2.781,0.144-5.306,0.025-7.2-0.72
	C729.401,327.663,732.22,330.268,730.764,332.396z M722.845,359.757c0.724-0.002,0.857,0.584,1.44,0.72
	c-0.069-1.132,0.096-2.494-1.44-2.158C722.845,358.796,722.845,359.275,722.845,359.757z"/>
<path display="none" d="M647.245,218.637c-1.251,1.611-5,0.205-5.04,0C641.17,217.902,645.122,218.293,647.245,218.637z"/>
<path display="none" d="M628.523,194.875C626.474,191.333,629.882,197.219,628.523,194.875L628.523,194.875z"/>
<path display="none" d="M639.325,193.436c3.004-0.362,3.643,1.641,5.76,2.162c-0.382,3.108-0.208,4.035-0.72,5.76
	c-0.442-1-2.772-0.106-2.88-1.438c-0.341-2.965,1.938,0.69,2.159-2.16c0.509-2.243-3.744-3.378-4.319-2.159
	C638.256,195.281,639.609,194.675,639.325,193.436z"/>
<path display="none" d="M784.045,247.436c-3.548-6.148-2.982-12.42-3.6-20.879c-6.73-5.373-4.397-19.5,0.72-26.641
	c0.771,2.689-1.788,2.052-1.44,4.32c0.471,0.729,1.656,0.744,1.44,2.16c3.146,0.021,4.252-1.988,7.2-2.16
	c3.844,0.955,4.501,5.099,7.199,7.199c1.627-0.401-0.872-1.123,0.721-2.16c2.626,1.062,1.691,4.084,4.32,3.601
	c5.953-8.833-9.74-15.219-19.44-12.959c6.271-6.019,28.302,1.2,20.88,15.12c-2.297,0.428-2.227-1.352-3.6,0
	c-1.791,3.13-0.919,4.39-0.723,7.92c-5.171,5.73-11.25,2.844-16.56,3.6C782.296,233.206,783.341,238.994,784.045,247.436z
	 M784.045,224.396c2.166,0.369,7.412,1.004,11.521-1.44c3.088-7.924-1.656-10.271-5.039-16.56c-3.209-1.261-8.361,3.949-11.521,0.72
	c-3.08,7.308-0.663,12.372,7.92,9.36c0.734,0.943,0.706,2.651,1.44,3.6C786.636,220.783,783.558,223.861,784.045,224.396z
	 M778.285,223.676c3.21-0.869,6.334-1.824,7.2-5.039c-3.566,0.254-4.354,1.004-7.2-0.721
	C777.689,220.852,778.174,220.395,778.285,223.676z"/>
<path display="none" d="M796.285,229.436c-3.323,6.998-5.553,15.09-9.36,21.603c-2.421,0.172-3.72-2.677-2.16-4.32
	c0.847,0.116,0.608,1.312,0.723,2.16c5.208-4.647,5.067-14.188,9.357-21.603c9.486,2.803,10.188,17.763,13.683,22.32
	C803.61,246.586,802.885,233.159,796.285,229.436z"/>
<path display="none" fill="none" d="M788.365,220.076c-0.734-0.946-0.706-2.654-1.44-3.6c-8.583,3.012-11-2.055-7.92-9.36
	c3.159,3.229,8.312-1.979,11.521-0.72c3.383,6.289,8.127,8.636,5.039,16.56c-4.107,2.444-9.354,1.81-11.521,1.44
	C783.558,223.861,786.636,220.783,788.365,220.076z M783.325,212.156C785.52,213.473,779.609,209.927,783.325,212.156
	L783.325,212.156z"/>
<path display="none" d="M628.523,200.637c2.592,5.569,1.125,15.195,7.921,16.562C629.459,216.834,629.047,207.279,628.523,200.637z"
	/>
<path display="none" d="M706.285,209.275c-1.273-0.631-2.104-2.281-3.602-0.719c-0.303-1.595,4.808-2.443,6.479-2.883
	C711.352,207.221,704.725,205.979,706.285,209.275z"/>
<path display="none" d="M640.045,209.996c1.07,0.609,1.042,2.318,1.44,3.6C640.925,215.243,639.972,211.352,640.045,209.996z"/>
<path display="none" d="M704.845,214.316C703.314,211.177,707.018,208.675,704.845,214.316L704.845,214.316z"/>
<path display="none" d="M783.325,212.156C779.609,209.927,785.52,213.473,783.325,212.156L783.325,212.156z"/>
<path display="none" d="M685.405,212.875C687.595,210.911,683.439,215.066,685.405,212.875L685.405,212.875z"/>
<path display="none" d="M703.405,216.477c0.665,2.979-4.98,1.021-7.2,2.16C695.382,216.656,702.586,217.779,703.405,216.477z"/>
<path display="none" d="M694.045,217.195c-1.432,1.709-14.534,1.818-17.28,2.16C682.512,217.273,689.359,217.566,694.045,217.195z"
	/>
<path display="none" d="M723.564,218.637c-2.196,2.604-6.082,3.516-7.199,7.199c0.542,1.87,4.646-2.439,5.04-0.72
	c-0.062,2.819-3.9,1.86-5.761,2.88c1.362,1.191-0.246,6.404-2.159,4.32c0.754,2.037-1.188,4.938,0,5.039
	C710.643,233.296,715.239,217.309,723.564,218.637z"/>
<path display="none" fill="none" d="M686.125,274.796c-3.477-1.073-7.898,0.411-10.8,2.16c-8.249,4.976-18.574,4-24.48,9.36
	c2.472-0.668,4.001,3.563,5.04,6.479c-0.437,1.243-3.415-0.057-3.6,1.439c-2.496-0.323-0.036-9.078-4.32-7.199
	c5.838-8.654,5.075-21.128-6.479-20.881c-2.166-8.241-6.643-16.903-6.48-25.199c8.845-2.374,17.706-8.669,24.48-6.479
	c0.979,0.313,1.086,5.295,2.88,1.438c0.977,0.224,0.597,1.802,0.72,2.88c2.177-1.09-0.597-3.16,0-5.04
	c1.926-0.714,3.796-1.48,6.479-1.438c0,1.438,0,2.879,0,4.317c2.654-0.522-0.308-2.166,1.438-3.6c1.466,0.692,1.557,2.765,1.44,5.04
	c-3.474-0.411-4.403-1.146-5.041,2.158c-11.837,0.192-20.146,7.656-28.803,8.642c1.411,5.688,1.979,7.772,3.603,12.96
	c13.875-2.379,24.468-6.281,35.28-7.919c-0.717-1.927-1.484-3.797-1.44-6.479c0.7,0.021,0.561,0.881,0.72,1.438
	c1.716-4.565-3.054-14.549-4.317-20.879c8.229,6.272,9.525,24.286,13.68,36.72c2.45,7.337,5.922,12.869,5.76,20.881
	c0.403,1.627,1.123-0.873,2.16,0.721c0.75,3.867-0.193,2.521-0.72,5.761c-7.294-4.531-11.774-13.493-21.603-10.08
	C672.247,278.188,682.857,278.257,686.125,274.796z M668.125,233.756c-0.558,0.161-1.421,0.02-1.439,0.721
	C667.243,234.314,668.105,234.456,668.125,233.756z M687.564,286.316c1.255,0.054,2.237-0.162,2.881-0.721
	c-0.383-2.764-2.337-7.713-4.32-6.479C687.28,281.318,687.003,282.372,687.564,286.316z"/>
<path display="none" d="M779.004,228.716c-1.394,1.486-4.386,1.374-6.479,2.16c-6.145,10.585-7.621,27.353-10.802,37.44
	c0.108,1.332,2.438,0.438,2.88,1.438c4.194-8.667,3.882-23.388,8.642-32.398c0.625,3.518-1.193,9.375-2.16,14.398
	c-1.159,6.021-2.335,11.374-4.32,15.842c0.383,3.036,1.541,5.303,0.723,8.641c-1.781-0.619,0.211-5.012-1.44-5.76
	c-1.68,0-3.359,0-5.04,0c-0.717,6.477,1.521,10,3.602,13.68c2.646-2.168,0.776-6.051-0.722-9.36
	c8.995,6.788,24.101,3.304,35.28,3.601c5.499-11.135,0.586-26.941-0.72-40.318c4.066,8.719,5.25,21.438,4.318,33.12
	c2.925,1.704,3.954-1.078,8.642,0c-4.652,3.985-2.454,14.823-11.521,14.397c0.57,9.598-0.737,20.59-2.88,28.08
	c-4.094-4.778,5.416-13.759,0-19.439c3.55-3.797-0.302-10.451,1.44-13.68c-2.899-0.19-9.358-0.506-13.683,0
	c0.954,10.654-0.607,23.635,0,36.721c-3.404-4.651,0.697-28.445-2.158-36.721c-2.679,9.438-1.957,17.715-3.602,31.682
	c-2.512-7.918,0.813-21.184,0.722-30.963c-3.066-1.84-8.837-0.217-12.239,0c0.76,5.166-1.125,4.744-0.723,10.803
	c-1.922-2.201-0.474-3.322-1.438-6.479c-12.355-16.16,2.239-35.951,4.32-54C772.464,230.598,775.812,227.023,779.004,228.716z
	 M802.045,273.355c0,1.201,0,2.398,0,3.601c4.165-0.642,1.03,3.707,0.72,5.04c4.507-0.87,4.086-5.24,3.603-9.359
	C804.162,272.114,804.247,273.878,802.045,273.355z M767.485,279.116C772.161,283.49,764.545,276.366,767.485,279.116
	L767.485,279.116z"/>
<path display="none" d="M712.764,240.236C710.713,236.693,714.121,242.579,712.764,240.236L712.764,240.236z"/>
<path display="none" fill="none" d="M643.645,258.956c-1.736-1.86-2.119-5.079-2.88-7.92c10.747-3.972,18.628-7.647,31.683-10.08
	c0.257,3.823,2.266,5.894,2.16,10.08C664.502,256.922,655.026,256.186,643.645,258.956z M663.805,252.477
	c-0.303-1.334,7.813-0.772,8.643-1.438c0.017-2.657-0.322-4.958-2.881-5.04c0.199,1.643-0.174,2.706-1.439,2.879
	c-10.009,1.007-16.11,6.745-25.2,5.041C645.48,263.6,657.891,251.626,663.805,252.477z"/>
<path display="none" d="M808.523,253.195c1.326,0.996,0.689,6.011,2.881,9.361C809.567,263.471,807.946,254.76,808.523,253.195z"/>
<path display="none" d="M717.085,277.676C715.714,274.936,718.987,281.48,717.085,277.676L717.085,277.676z"/>
<path display="none" fill="none" d="M767.485,279.116C764.545,276.366,772.161,283.49,767.485,279.116L767.485,279.116z"/>
<path display="none" d="M686.125,279.116c1.982-1.23,3.938,3.718,4.32,6.479c-0.644,0.559-1.626,0.771-2.881,0.721
	C687.003,282.372,687.28,281.318,686.125,279.116z"/>
<path display="none" d="M717.085,280.557C715.119,278.366,719.275,282.521,717.085,280.557L717.085,280.557z"/>
<path display="none" fill="none" d="M654.445,301.436c1.301,2.352,2.641,0.189,5.76,0.723c0.56,4.496,3.245,7.736,0.72,11.52
	c-1.141,0.062-2.747-0.346-2.88,0.723c-2.778-5.145-3.394-12.447-6.479-17.28c1.847-2.405,2.919-1.302,5.761-2.16
	C659.316,298.523,660.385,301.45,654.445,301.436z"/>
<path display="none" d="M766.045,296.396c1.25,0.652,1.861,2.521,0.72,3.6C765.22,298.916,767.28,298.234,766.045,296.396z"/>
<path display="none" d="M766.764,306.477C767.054,304.396,768.732,314.335,766.764,306.477L766.764,306.477z"/>
<path display="none" d="M767.485,311.516c-2.128-1.029,1.67-0.552,0.719,1.44C767.646,314.27,767.43,312.525,767.485,311.516z"/>
<path display="none" d="M796.285,315.116c3.052,0.216-0.466,3.026,1.438,3.6C796.77,320.758,795.817,316.867,796.285,315.116z"/>
<path display="none" d="M784.764,324.477c-2.417,0.657-0.354,1.34-0.72,3.602c2.604-0.521,2.604,1.242,0,0.72
	c-1.938-2.678-1.325-6.43-0.72-10.08c2.309,0.56,1.972,4.216,2.88,6.48C785.95,326.205,784.938,325.257,784.764,324.477z"/>
<path display="none" d="M767.485,319.436c2.525,0.864,2.366,1.055,4.317,1.44c-2.684,1.976-3.201,8.258,1.44,8.64
	c-0.29,1.393-3.297,0.062-2.16,2.883c-3.139-2.383-9.912,0.728-9.36,6.479c5.801,1.264,10.899-0.036,18-1.438
	c0.728-4.494-1.675-5.36-1.438-7.201c2.71,0.648,2.725,3.996,2.88,7.201c-6.827,3.316-14.504,5.276-20.88,2.158
	C760.27,327.85,774.241,331.648,767.485,319.436z"/>
<path display="none" d="M780.445,325.916C778.393,322.373,781.801,328.259,780.445,325.916L780.445,325.916z"/>
<path display="none" d="M799.165,328.796C797.199,326.605,801.355,330.761,799.165,328.796L799.165,328.796z"/>
<path display="none" d="M782.605,330.956c0.178-0.906,1.432-0.729,1.438,0c0.612,0.132,0.679-0.281,0.72-0.72
	c0.508,2.693-2.36,9.976,3.603,10.08c2.891-3.598,9.667-0.502,12.96-1.44c-0.241-3.599-2.729-4.951-5.04-6.479
	c3.457-1.848,6.71,5.211,6.479,7.201C795.22,341.236,779.469,342.792,782.605,330.956z"/>
<rect x="530.891" y="143.973" display="none" fill="#EEE232" width="368" height="247.668"/>
<path fill="#FFFFFF" stroke="#231F20" stroke-width="2" stroke-miterlimit="10" d="M268.139,227.107
	c-4.713-10.744-13.097-22.23-14.179-34.084c-3.711-2.06-7.694-3.394-11.492-5.57c-4.249-2.438-7.702-6.068-10.747-9.848
	c-5.783-7.185-3.847-17.422-2.767-25.494c-4.953-1.523-11.396-0.74-10.321-7.762c1.315-8.623,6.895-3.845,12.668-4.101
	c0.246-1.097,0.51-2.119,0.596-3.149c-5.039-0.248-11.428-0.17-9.308-7.104c2.47-8.08,8.354,1.821,12.175,0
	c-4.164-1.896-15.859-5.843-7.896-11.851c2.191-1.653,6.947-1.516,9.426-0.74c3.592,1.125,2.531,3.48,3.898,6.312
	c0.998-2.787,2.65-7.951,1.477-11.102c-1.079-2.9-4.971-4.533-6.275-7.637c-1.942-4.628-1.705-18.574,6.637-12.438
	c3.494,2.57,6.341,8.807,8.977,12.372c3.26,4.412,6.467,9.057,8.536,14.193c1.83,4.545,4.632,10.498,4.771,15.303
	c0.185,6.32-0.918,12.514-2.653,18.539c-0.55,1.904-2.771,7.141-1.486,8.918c0.92,1.271,6.17,1.846,7.656,2.184
	c3.055,0.695,5.644,1.77,7.588-0.52c1.451-1.711,2-4.023,2.804-6.101c3.233-8.366-8.604-17.938-4.701-25.956
	c2.155-4.433,6.557-7.062,10.438-3.16c3.172,3.184,5.492,7.891,7.955,11.674c4.732,14.354-14.645,47.24-14.949,51.219
	c-0.178,2.275,1.883,5.078,2.875,7.064c1.814,3.625,3.637,7.299,5.648,10.812c1.834,3.203,3.678,6.42,5.688,9.489
	c1.387,2.119,4.244,5.306,3.744,7.945"/>
<path fill="#FFFFFF" stroke="#231F20" stroke-width="2" stroke-miterlimit="10" d="M214.17,175.164
	c0.609-0.883,0.794-2.451,1.282-3.52c0.401-0.884,0.791-1.791,1.192-2.668c0.301-0.652,0.535-1.625,1.103-2.086"/>
<g>
	<path fill="#FFFFFF" stroke="#231F20" stroke-width="2" stroke-miterlimit="10" d="M246.096,91.036
		c-4.855,12.483-20.809,61.208-25.08,80.192c-1.776,7.896-2.893,7.117,4.75,9.746c5.041,1.733,30.938,8.989,43.596,12.67
		c10.988-28.525,18.719-58.396,28.371-87.366C287.837,103.725,255.855,93.7,246.096,91.036z"/>
	<path fill="#FFFFFF" stroke="#231F20" stroke-width="0.5" stroke-miterlimit="10" d="M248.391,97.143
		c-4.308,11.125-18.517,54.505-22.393,71.384c-1.621,7.029-2.562,6.353,3.936,8.584c4.278,1.479,26.295,7.601,37.061,10.693
		c9.73-25.416,16.525-51.467,25.121-77.262C283.259,107.496,256.689,99.386,248.391,97.143z"/>
	
		<line fill="none" stroke="#231F20" stroke-width="0.5" stroke-miterlimit="10" x1="230.945" y1="150.393" x2="275.163" y2="163.525"/>
	
		<line fill="none" stroke="#231F20" stroke-width="0.5" stroke-miterlimit="10" x1="228.4" y1="159.244" x2="272.618" y2="172.377"/>
	
		<line fill="none" stroke="#231F20" stroke-width="0.5" stroke-miterlimit="10" x1="226.186" y1="167.725" x2="269.951" y2="180.725"/>
	<polyline fill="none" stroke="#231F20" stroke-width="0.5" stroke-miterlimit="10" points="248.02,109.535 247.35,111.432 
		284.598,122.957 285.38,120.91 	"/>
	
		<rect x="245.538" y="111.533" transform="matrix(0.9542 0.2993 -0.2993 0.9542 46.6781 -74.5386)" fill="none" stroke="#231F20" stroke-width="0.25" stroke-miterlimit="10" width="42.284" height="7.168"/>
	
		<line fill="none" stroke="#231F20" stroke-width="0.5" stroke-miterlimit="10" x1="238.909" y1="152.758" x2="231.312" y2="177.559"/>
	
		<line fill="none" stroke="#231F20" stroke-width="0.5" stroke-miterlimit="10" x1="247.843" y1="155.545" x2="240.247" y2="180.346"/>
	
		<line fill="none" stroke="#231F20" stroke-width="0.5" stroke-miterlimit="10" x1="256.854" y1="158.129" x2="249.257" y2="182.932"/>
	
		<line fill="none" stroke="#231F20" stroke-width="0.5" stroke-miterlimit="10" x1="266.186" y1="160.639" x2="258.59" y2="185.439"/>
</g>
<g>
	<path fill="#92938D" d="M225.961,67.159c3.2-5.632,4.885-11.967,4.885-18.416c0-20.612-16.771-37.38-37.384-37.38
		c-20.613,0-37.382,16.768-37.382,37.38c0,20.614,16.769,37.382,37.382,37.382c5.938,0,11.823-1.43,17.099-4.147l21.806,5.375
		L225.961,67.159z M223.154,78.728l-13.448-3.315l-1.062,0.592c-4.631,2.582-9.881,3.949-15.183,3.949
		c-17.211,0-31.211-14.001-31.211-31.21c0-17.208,14.003-31.207,31.211-31.207s31.211,13.999,31.21,31.208
		c0,5.774-1.623,11.446-4.693,16.403l-0.748,1.207L223.154,78.728z"/>
	<circle fill="#92938D" cx="176.053" cy="48.421" r="5.126"/>
	<circle fill="#92938D" cx="193.438" cy="48.422" r="5.127"/>
	<circle fill="#92938D" cx="211.341" cy="48.422" r="5.127"/>
</g>
<path fill="#FFFFFF" stroke="#231F20" stroke-width="2" stroke-miterlimit="10" d="M222.814,177.023
	c1.918-4.562,2.959-8.678,6.356-12.586c-2.039-1.242-5.847-2.396-8.04-0.869c-2.006,1.397-2.605,5.049-3.674,7.246
	c-5.836-1.715-13.176-1.674-13.229,6.459c-5.703-0.248-5.978,3.961-6.709,8.586c-0.688,4.356-2.066,8.992-3.261,13.229
	c-1.307,4.646-1.151,10.338-3.891,14.061c-2.943,4.006-6.529,7.144-10.813,9.865c-4.566,2.904-9.05,5.307-13.177,8.818
	c-3.145,2.676-6.521,5.555-10.034,7.645c1.326,1.232,6.288,0.533,8.217,0.244c2.304-0.342,4.237-0.877,6.737-0.896
	c4.484-0.035,8.222-0.177,12.671,0.812c3.174,0.702,6.702,1.491,9.953,1.198c1.23-2.459,3.118-5.026,4.834-7.242
	c2.788-3.594,5.485-7.848,8.461-11.262c2.95-3.39,7.754-4.707,12.065-5.567c8.204-1.642,19.36-1.4,25.227-8.308
	c3.423-4.031,6.136-9.412,7.798-14.36c1.322-3.941-0.719-10.679-6.254-7.439c-3.056,1.789-4.603,7.498-7.273,10.16
	c-2.139,2.127-9.355,4.971-10.668,0.811c0-5.582,7.193-17.488,9.336-22.814c2.064-5.135,4.988-9.266,10.676-9.262
	c4.203,0.004,10.932,0.789,12.131-3.762c1.369-5.201-3.645-6.129-7.652-6.896c-6.479-1.244-21.533,1.482-23.018,9.775"/>
<g>
	<path fill="#FFFFFF" stroke="#000000" stroke-width="0.75" stroke-miterlimit="10" d="M100.456,67.782
		c1.894,1.588,2.6,6.119,1.456,9.219c-0.347,1.317,2.288-0.346,1.94,0.971c0.171,0.638,0.854,0.763,0.971,1.456
		c2.092,0.172,3.437,1.095,4.854,1.94c1.622,4.913-0.432,18.762-0.972,20.378c-0.058,0.171-0.459,0.005-0.482,0.486
		c-0.092,1.711,0.168,4.7,0.482,7.277c0.422,3.447,0.682,9.6,0.486,15.041c0.357,1.654,0.555,23.678,0.484,26.203
		c-1.109,0.34-3.281,1.885-5.338,0.48c-0.906-0.447,0.062-1.297,0-1.939c0.003,0.027-0.469-0.154-0.485-0.482
		c-0.024-0.467-0.042-0.992,0-1.457c0.108-1.205,0.082-28.822-2.695-30.855c-2.148,0.484,0.11,31.934-0.701,34.734
		c-1.933,0.49-3.149,0.301-4.851-0.482c-0.971,0-1.94,0-2.91,0c-0.475-0.496-0.963-0.98-1.458-1.457
		c0.672-0.297,0.076-1.865,0.972-1.939c0.869,0.061,1.021-0.594,1.939-0.486c0.604-0.707-2.81-38.559-2.425-40.27
		c0.067-0.309-0.077-0.666,0-0.972c0.109-0.443,0.177-1.114,0.485-2.425c0.094-0.405,0.447-0.477,0.486-0.97
		c0.12-1.709-1.337-3.646,0-5.336c-0.204-1.091-2.578-0.014-2.914-0.972c-0.46-3.103-0.183-8.005,0.486-10.673
		c0.584-2.334,2.446-4.235,5.338-4.853c-0.213-0.596-0.623-0.997-1.458-0.97c-0.288-0.812,0.083-1.769-0.482-2.913
		c-0.071-0.14-0.867,0.128-0.971,0c-0.204-0.248,0.239-1.257,0-1.455c-0.618-0.507-0.194-0.831-0.485-2.425
		c-0.114-0.627-0.667-2.159,0.485-3.398c0.242-0.261,0.931-1.062,1.453-1.455C94.32,67.653,98.125,66.933,100.456,67.782z"/>
</g>
<g>
	<path fill="#FFFFFF" stroke="#000000" stroke-width="0.75" stroke-miterlimit="10" d="M66.358,66.119
		c0.491,0.369,1.137,1.121,1.364,1.366c1.082,1.164,0.563,2.602,0.456,3.19c-0.273,1.496,0.125,1.801-0.456,2.276
		c-0.225,0.186,0.191,1.134,0,1.366c-0.097,0.121-0.844-0.131-0.911,0c-0.531,1.073-0.183,1.972-0.453,2.734
		c-0.784-0.025-1.169,0.351-1.369,0.911c2.714,0.58,4.463,2.364,5.011,4.556c0.628,2.504,0.889,7.106,0.457,10.019
		c-0.315,0.899-2.544-0.112-2.735,0.913c1.255,1.587-0.113,3.405,0,5.01c0.037,0.463,0.369,0.531,0.457,0.911
		c0.29,1.231,0.353,1.86,0.456,2.277c0.072,0.287-0.063,0.623,0,0.912c0.361,1.606-2.844,37.141-2.276,37.803
		c0.862-0.1,1.005,0.514,1.821,0.457c0.841,0.07,0.281,1.543,0.912,1.82c-0.465,0.447-0.923,0.902-1.369,1.369
		c-0.91,0-1.821,0-2.732,0c-1.597,0.734-2.739,0.912-4.553,0.451c-0.762-2.629,1.358-32.151-0.658-32.606
		c-2.607,1.909-2.632,27.835-2.53,28.966c0.039,0.436,0.023,0.93,0,1.367c-0.016,0.309-0.458,0.479-0.456,0.453
		c-0.059,0.604,0.851,1.4,0,1.82c-1.931,1.318-3.97-0.131-5.011-0.451c-0.066-2.369,0.119-23.045,0.455-24.598
		c-0.183-5.107,0.061-10.884,0.457-14.12c0.295-2.419,0.539-5.225,0.453-6.831c-0.022-0.452-0.399-0.295-0.453-0.456
		c-0.507-1.518-2.435-14.518-0.912-19.13c1.331-0.793,2.593-1.66,4.556-1.821c0.109-0.651,0.751-0.768,0.912-1.367
		c-0.327-1.236,2.147,0.325,1.821-0.911c-1.073-2.911-0.411-7.164,1.367-8.655C62.624,65.323,66.196,65.998,66.358,66.119z"/>
</g>
<g>
	<path fill-rule="evenodd" clip-rule="evenodd" fill="#FFFFFF" stroke="#000000" stroke-width="0.75" stroke-miterlimit="10" d="
		M71.533,150.294c1.173-0.055,2.155-0.294,3.141-0.622c1.865,0.931,3.542,1.027,6,0.538c1.187-0.545,1.879-1.33,2.748-2.422
		c-0.174-0.211-1.4-0.439-2.206-0.783c0.72-1.769,2.262-2.838,4.773-3.077c-0.755-17.275-1.511-35.428-3.567-51.994
		c-0.715-1.382-2.227-2.163-3.016-3.49c-0.166-0.874,0.666-0.898,0.499-1.774c-0.499-1.196-1.701-1.862-2.591-2.761
		c0.278-0.741,0.43-1.643-0.387-1.98c1.35-1.538,2.685-3.086,3.278-5.269c-0.397-1.449-1.598-3.217-2.107-4
		c-0.928-0.654-4.463-1.729-7.79-0.413c-1.962,1.72-3.164,5.812-4.054,8.824c-0.689,2.332-1.414,4.846-1.769,6.924
		c-0.393,2.308,0.527,3.678,0.953,5.396c0.879,3.545,0.657,7.999,0.309,11.997c-0.425,4.893,0.679,9.36,0.233,14.5
		c-0.274,3.174-0.906,6.717-0.74,9.819c0.093,1.744,0.605,3.491,0.73,5.388c0.3,4.576-0.89,9.026-1.511,13.196
		C66.028,148.93,68.647,150.649,71.533,150.294z"/>
</g>
</svg>
