<?xml version="1.0" encoding="utf-8"?>
<!-- Generator: Adobe Illustrator 15.0.0, SVG Export Plug-In . SVG Version: 6.00 Build 0)  -->
<!DOCTYPE svg PUBLIC "-//W3C//DTD SVG 1.1//EN" "http://www.w3.org/Graphics/SVG/1.1/DTD/svg11.dtd">
<svg version="1.1" id="Layer_1" xmlns="http://www.w3.org/2000/svg" xmlns:xlink="http://www.w3.org/1999/xlink" x="0px" y="0px"
	 width="350px" height="219px" viewBox="0 0 350 219" enable-background="new 0 0 350 219" xml:space="preserve">
<g>
	<g>
		<g>
			<path fill="#231F20" d="M72.434,204.472c-2.12,0-3.833-1.717-3.833-3.834v-38.896c0-2.116,1.712-3.829,3.833-3.829
				c2.113,0,3.827,1.713,3.827,3.829v38.896C76.261,202.755,74.547,204.472,72.434,204.472z"/>
		</g>
		<g>
			<path fill="#231F20" d="M121.217,204.472c-2.117,0-3.833-1.717-3.833-3.834v-49.123c0-2.115,1.716-3.827,3.833-3.827
				s3.833,1.712,3.833,3.827v49.123C125.05,202.755,123.334,204.472,121.217,204.472z"/>
		</g>
		<g>
			<path fill="#231F20" d="M121.217,154.068c-2.117,0-3.833-1.714-3.833-3.832c0-2.115,1.716-3.828,3.833-3.828
				c16.189,0,29.362-9.386,29.362-20.914c0-2.119,1.716-3.83,3.833-3.835c2.116,0,3.83,1.716,3.83,3.835
				C158.242,141.248,141.633,154.068,121.217,154.068z"/>
		</g>
		<g>
			<path fill="#231F20" d="M122.997,139.354c-4.957,0-9.69-1.638-13.375-4.756c-1.613-1.369-1.812-3.789-0.446-5.404
				c1.367-1.613,3.786-1.812,5.398-0.446c3.364,2.85,8.024,3.693,12.79,2.312c4.69-1.36,8.352-4.578,9.543-8.392
				c0.637-2.022,2.779-3.144,4.803-2.513c2.021,0.632,3.143,2.781,2.512,4.8c-1.952,6.238-7.591,11.396-14.725,13.463
				C127.331,139.046,125.143,139.354,122.997,139.354z"/>
		</g>
		<g>
			<path fill="#231F20" d="M61.866,187.099c-2.114,0-3.831-1.717-3.831-3.832v-37.479c0-2.114,1.717-3.833,3.831-3.833
				c2.119,0,3.833,1.717,3.833,3.833v37.479C65.7,185.382,63.985,187.099,61.866,187.099z"/>
		</g>
		<g>
			<path fill="#231F20" d="M70.249,196.759c-7.195,0-12.213-7.656-12.213-14.526c0-2.118,1.717-3.832,3.831-3.832
				c2.119,0,3.833,1.714,3.833,3.832c0,3.335,2.339,6.864,4.549,6.864c2.118,0,3.833,1.715,3.833,3.832
				C74.081,195.044,72.367,196.759,70.249,196.759z"/>
		</g>
		<g>
			<path fill="#231F20" d="M61.866,149.621c-2.114,0-3.831-1.714-3.831-3.833c0-2.703,1.22-11.572,16.931-12.21
				c2.125-0.101,3.899,1.559,3.982,3.673c0.085,2.117-1.559,3.897-3.672,3.985c-2.246,0.092-9.577,0.688-9.577,4.552
				C65.7,147.907,63.985,149.619,61.866,149.621z"/>
		</g>
		<g>
			<path fill="#231F20" d="M76.668,141.237c-2.121,0-3.833-1.712-3.833-3.831c0-2.113,1.712-3.83,3.833-3.83
				c3.334,0,6.861-2.341,6.861-4.552c0-2.115,1.716-3.831,3.834-3.831c2.116,0,3.827,1.716,3.827,3.831
				C91.19,136.223,83.537,141.237,76.668,141.237z"/>
		</g>
		<g>
			<circle fill="#231F20" cx="98.564" cy="104.218" r="30.072"/>
		</g>
	</g>
	<g>
		<path fill="#231F20" d="M282.22,204.47c2.116,0,3.829-1.715,3.829-3.832v-38.896c0-2.116-1.713-3.829-3.829-3.829
			c-2.12,0-3.834,1.713-3.834,3.829v38.896C278.386,202.755,280.1,204.47,282.22,204.47z"/>
	</g>
	<g>
		<path fill="#231F20" d="M233.433,204.47c2.114,0,3.831-1.715,3.831-3.832v-49.123c0-2.115-1.717-3.827-3.831-3.827
			c-2.118,0-3.832,1.712-3.832,3.827v49.123C229.601,202.755,231.314,204.47,233.433,204.47z"/>
	</g>
	<g>
		<path fill="#231F20" d="M233.433,154.068c2.114,0,3.831-1.717,3.831-3.832s-1.717-3.829-3.831-3.829
			c-16.188,0-29.364-9.385-29.364-20.913c0-2.119-1.715-3.835-3.833-3.835c-2.112,0-3.83,1.716-3.83,3.835
			C196.405,141.248,213.013,154.068,233.433,154.068z"/>
	</g>
	<g>
		<path fill="#231F20" d="M231.651,139.354c4.961,0,9.691-1.638,13.373-4.756c1.615-1.369,1.814-3.789,0.447-5.404
			c-1.367-1.616-3.785-1.812-5.396-0.446c-3.367,2.85-8.026,3.693-12.794,2.31c-4.689-1.358-8.347-4.576-9.543-8.392
			c-0.633-2.021-2.776-3.142-4.804-2.511c-2.018,0.632-3.142,2.781-2.509,4.8c1.95,6.235,7.595,11.396,14.726,13.463
			C227.315,139.046,229.503,139.354,231.651,139.354z"/>
	</g>
	<g>
		<path fill="#231F20" d="M292.779,187.099c2.12,0,3.834-1.717,3.834-3.834v-37.477c0-2.114-1.714-3.835-3.834-3.835
			c-2.115,0-3.83,1.717-3.83,3.835v37.477C288.949,185.382,290.664,187.099,292.779,187.099z"/>
	</g>
	<g>
		<path fill="#231F20" d="M284.398,196.635c7.196,0,12.215-7.657,12.215-14.527c0-2.116-1.714-3.83-3.834-3.83
			c-2.115,0-3.83,1.714-3.83,3.83c0,3.336-2.338,6.866-4.551,6.866c-2.117,0-3.831,1.715-3.831,3.828
			C280.567,194.921,282.281,196.635,284.398,196.635z"/>
	</g>
	<g>
		<path fill="#231F20" d="M292.779,149.621c2.12,0,3.834-1.719,3.834-3.833c0-2.703-1.224-11.572-16.931-12.21
			c-2.126-0.103-3.896,1.558-3.982,3.673c-0.088,2.115,1.559,3.897,3.67,3.985c2.246,0.092,9.579,0.688,9.579,4.552
			C288.949,147.902,290.664,149.619,292.779,149.621z"/>
	</g>
	<g>
		<path fill="#231F20" d="M277.984,141.237c2.115,0,3.832-1.712,3.832-3.831c0-2.113-1.717-3.83-3.832-3.83
			c-3.338,0-6.867-2.341-6.867-4.552c0-2.115-1.714-3.831-3.831-3.831c-2.114,0-3.829,1.716-3.829,3.831
			C263.457,136.223,271.112,141.237,277.984,141.237z"/>
	</g>
	<g>
		<circle fill="#231F20" cx="256.085" cy="104.218" r="30.071"/>
	</g>
	<g>
		<path fill="#231F20" d="M167.17,118.195h-30.169V70.741h30.169V118.195z M143.817,111.381h16.538V77.556h-16.538V111.381z"/>
	</g>
	<g>
		<path fill="#231F20" d="M210.819,118.195h-30.17V70.741h30.17V118.195z M187.464,111.381h16.541V77.556h-16.541V111.381z"/>
	</g>
	<path fill="#231F20" d="M175.113,33.433h-9.73c-5.076,0-7.873,3.741-7.873,8.342v17.99h-10.607v-17.99
		c0-10.449,7.555-18.949,18.48-18.949h9.73"/>
	<path fill="#231F20" d="M172.314,33.433h9.1c5.852,0,9.278,4.758,9.278,10.607v7.238h-5.196l5.196,6.938l0,0l5.305,7.076
		l5.301-7.076l0.002-0.004l0,0l5.195-6.934H201.3V44.04c0-11.698-8.185-21.215-19.886-21.215h-9.1"/>
</g>
</svg>
