<?xml version="1.0" encoding="utf-8"?>
<!-- Generator: Adobe Illustrator 15.0.0, SVG Export Plug-In . SVG Version: 6.00 Build 0)  -->
<!DOCTYPE svg PUBLIC "-//W3C//DTD SVG 1.1//EN" "http://www.w3.org/Graphics/SVG/1.1/DTD/svg11.dtd">
<svg version="1.1" id="Layer_1" xmlns="http://www.w3.org/2000/svg" xmlns:xlink="http://www.w3.org/1999/xlink" x="0px" y="0px"
	 width="350px" height="219px" viewBox="0 0 350 219" enable-background="new 0 0 350 219" xml:space="preserve">
<g id="Layer_1_1_">
	<g>
		<g>
			<g>
				<g>
					<path fill="#231F20" d="M320.31,203.587c1.807,0,3.266-1.461,3.266-3.269v-28.271c0-1.802-1.459-3.265-3.266-3.265
						c-1.801,0-3.265,1.463-3.265,3.265v28.271C317.045,202.126,318.509,203.587,320.31,203.587z"/>
				</g>
				<g>
					<path fill="#231F20" d="M280.131,203.587c1.807,0,3.27-1.461,3.27-3.269V163.33c0-1.803-1.463-3.264-3.27-3.264
						c-1.805,0-3.267,1.461-3.267,3.264v36.988C276.864,202.126,278.326,203.587,280.131,203.587z"/>
				</g>
				<g>
					<path fill="#231F20" d="M280.131,165.507c1.807,0,3.27-1.461,3.27-3.266c0-1.804-1.463-3.263-3.27-3.263
						c-13.799,0-25.029-8.002-25.029-17.828c0-1.809-1.463-3.269-3.267-3.269s-3.267,1.46-3.267,3.269
						C248.568,154.582,262.727,165.507,280.131,165.507z"/>
				</g>
				<g>
					<path fill="#231F20" d="M278.616,152.965c4.226,0,8.258-1.396,11.397-4.055c1.375-1.166,1.547-3.229,0.381-4.605
						c-1.166-1.373-3.225-1.546-4.602-0.381c-2.874,2.43-6.845,3.148-10.902,1.973c-3.998-1.162-7.119-3.904-8.138-7.155
						c-0.538-1.724-2.364-2.679-4.096-2.144c-1.716,0.538-2.679,2.371-2.138,4.096c1.66,5.315,6.474,9.713,12.547,11.474
						C274.921,152.702,276.783,152.965,278.616,152.965z"/>
				</g>
				<g>
					<path fill="#231F20" d="M330.722,187.497c1.807,0,3.265-1.464,3.265-3.269V158.45c0-1.806-1.458-3.271-3.265-3.271
						c-1.801,0-3.263,1.465-3.263,3.271v25.778C327.459,186.033,328.921,187.497,330.722,187.497z"/>
				</g>
				<g>
					<path fill="#231F20" d="M323.579,196.611c6.132,0,10.406-6.522,10.406-12.383c0-1.805-1.458-3.266-3.265-3.266
						c-1.801,0-3.263,1.461-3.263,3.266c0,2.844-1.998,5.852-3.88,5.852c-1.803,0-3.271,1.464-3.271,3.264
						C320.31,195.15,321.776,196.611,323.579,196.611z"/>
				</g>
				<g>
					<path fill="#231F20" d="M330.722,161.714c1.807,0,3.265-1.46,3.265-3.264c0-2.304-1.038-9.866-14.43-10.408
						c-1.811-0.088-3.322,1.327-3.396,3.131c-0.071,1.802,1.328,3.32,3.131,3.396c1.917,0.078,8.168,0.587,8.168,3.883
						C327.459,160.254,328.921,161.714,330.722,161.714z"/>
				</g>
				<g>
					<path fill="#231F20" d="M318.111,154.57c1.8,0,3.264-1.459,3.264-3.266c0-1.804-1.464-3.267-3.264-3.267
						c-2.847,0-5.855-1.995-5.855-3.879c0-1.804-1.462-3.267-3.266-3.267c-1.803,0-3.27,1.463-3.27,3.267
						C305.723,150.296,312.252,154.57,318.111,154.57z"/>
				</g>
				<g>
					<path fill="#231F20" d="M299.439,102.68c11.213,0,20.338,9.125,20.338,20.333c0,11.213-9.125,20.338-20.338,20.338
						s-20.338-9.125-20.338-20.338C279.102,111.805,288.229,102.68,299.439,102.68 M299.439,97.379
						c-14.157,0-25.633,11.478-25.633,25.633c0,14.159,11.476,25.639,25.633,25.639s25.635-11.479,25.635-25.639
						C325.074,108.857,313.598,97.379,299.439,97.379L299.439,97.379z M299.439,102.68c11.213,0,20.338,9.125,20.338,20.333
						c0,11.213-9.125,20.338-20.338,20.338s-20.338-9.125-20.338-20.338C279.102,111.805,288.229,102.68,299.439,102.68"/>
				</g>
			</g>
			<g>
				<path fill="#231F20" d="M265.195,133.139h-25.555V92.841h25.555V133.139L265.195,133.139z M245.288,127.486h14.258V98.491
					h-14.258V127.486z"/>
			</g>
		</g>
		<rect x="12.307" y="25.125" fill="#594A42" width="233.224" height="177.148"/>
		<g>
			<g>
				<defs>
					<rect id="SVGID_1_" x="19.223" y="25.635" width="219.396" height="176.96"/>
				</defs>
				<clipPath id="SVGID_2_">
					<use xlink:href="#SVGID_1_"  overflow="visible"/>
				</clipPath>
			</g>
		</g>
		<g>
			<rect x="48.091" y="124.521" fill="#CE9C14" width="125.196" height="25.012"/>
			<text transform="matrix(1 0 0 1 67.2773 139.9297)" fill="#FFFFFF" font-family="'Roboto-Light'" font-size="8.0593">RECEIVE A SHARE</text>
		</g>
	</g>
</g>
<g id="Layer_3">
	<rect x="23.167" y="28.333" fill="#231F20" width="20.333" height="87.533"/>
	<rect x="175.953" y="28.333" fill="#231F20" width="20.333" height="87.533"/>
</g>
<g id="Layer_2">
	<path fill="#FFD400" d="M30.328,68.263v12.976l4.732-2.923l4.732,2.923V68.263H30.328z M37.302,76.912l-2.242-1.346l-2.243,1.346
		l0.586-2.55l-1.972-1.717l2.605-0.229l1.024-2.406l1.023,2.406l2.606,0.229l-1.972,1.717L37.302,76.912z"/>
	<g>
		<path fill="#FFD400" d="M40.868,108.549v-1.616c0-2.614-1.829-4.74-4.441-4.74h-0.25v2.37h0.25c1.306,0,2.073,1.063,2.073,2.371
			v1.617h-1.161l1.161,1.551l0,0l0,0l1.183,1.58l1.183-1.58h0.001l0,0l1.161-1.551L40.868,108.549L40.868,108.549L40.868,108.549z"
			/>
		<path fill="#FFD400" d="M32.66,102.192h-0.128c-2.613,0-4.441,2.126-4.441,4.739v3.488h2.369v-3.488
			c0-1.306,0.766-2.369,2.073-2.369h0.128v1.173l3.13-2.346l-3.131-2.345V102.192z"/>
	</g>
	<g>
		<g>
			<path fill="#FFD400" d="M31.751,35.478v3.89h-3.604v5.688l0,0c0.01,1.178,0.951,2.135,2.121,2.175v0.002h9.758
				c1.209,0,2.195-0.984,2.195-2.195v-9.561L31.751,35.478L31.751,35.478z M30.343,46.447c-0.777,0-1.409-0.634-1.409-1.409v-4.885
				h2.817v1.086h-1.939v0.788h1.939v0.764h-1.939v0.786h1.939v1.46C31.751,45.813,31.12,46.447,30.343,46.447z M41.435,45.039
				c0,0.775-0.632,1.409-1.409,1.409h-8c0.319-0.383,0.513-0.874,0.513-1.409v-8.774h8.897L41.435,45.039L41.435,45.039
				L41.435,45.039z"/>
		</g>
		<rect x="38.001" y="38.043" fill="#FFD400" width="2.659" height="0.786"/>
		<rect x="38.001" y="39.618" fill="#FFD400" width="2.659" height="0.786"/>
		<rect x="38.001" y="41.17" fill="#FFD400" width="2.659" height="0.786"/>
		<rect x="33.242" y="42.778" fill="#FFD400" width="7.418" height="0.788"/>
		<rect x="33.242" y="38.04" fill="#FFD400" width="3.635" height="3.592"/>
	</g>
	<circle fill="#FFD400" cx="186.119" cy="73.953" r="7.286"/>
	<circle fill="#FFD400" cx="186.119" cy="106.937" r="7.286"/>
	<text transform="matrix(1 0 0 1 182.1777 76.332)" font-family="'Roboto-Regular'" font-size="7">15</text>
	<text transform="matrix(1 0 0 1 182.1777 109.4199)" font-family="'Roboto-Regular'" font-size="7">20</text>
</g>
<g>
	<rect x="55.389" y="25.125" fill="#EFEFEF" width="183.23" height="177.148"/>
	<rect x="19.223" y="25.125" fill="#231F20" width="183.23" height="177.148"/>
	<path fill="#FFD400" d="M30.212,69.054v12.647l4.612-2.85l4.612,2.85V69.054H30.212z M37.009,77.483l-2.185-1.311l-2.186,1.311
		L33.21,75l-1.922-1.674l2.539-0.224l0.998-2.344l0.997,2.344l2.54,0.224L36.439,75L37.009,77.483z"/>
	<g>
		<path fill="#FFD400" d="M41.2,109.318v-1.589c0-2.571-1.798-4.661-4.367-4.661h-0.246v2.331h0.246c1.285,0,2.038,1.044,2.038,2.33
			v1.589h-1.141l1.141,1.524l0,0h0l1.164,1.555l1.164-1.555H41.2l0,0l1.142-1.524H41.2L41.2,109.318z"/>
		<path fill="#FFD400" d="M32.252,103.069h-0.126c-2.569,0-4.367,2.09-4.367,4.659v3.43h2.33v-3.43c0-1.284,0.753-2.33,2.037-2.33
			h0.126v1.154l3.078-2.307l-3.078-2.306V103.069z"/>
	</g>
	<g>
		<path fill="#FFD400" d="M31.418,36.101v4.005h-3.711v5.858l0,0c0.01,1.211,0.979,2.199,2.183,2.239v0.002h10.048
			c1.246,0,2.261-1.014,2.261-2.261v-9.844H31.418z M29.968,47.396c-0.801,0-1.451-0.652-1.451-1.452v-5.029h2.901v1.118H29.42
			v0.809h1.998v0.788H29.42v0.81h1.998v1.502C31.418,46.744,30.767,47.396,29.968,47.396z M41.389,45.945
			c0,0.799-0.651,1.452-1.451,1.452H31.7c0.329-0.394,0.528-0.899,0.528-1.452v-9.034h9.161L41.389,45.945L41.389,45.945
			L41.389,45.945z"/>
		<rect x="37.854" y="38.742" fill="#FFD400" width="2.738" height="0.81"/>
		<rect x="37.854" y="40.364" fill="#FFD400" width="2.738" height="0.81"/>
		<rect x="37.854" y="41.962" fill="#FFD400" width="2.738" height="0.809"/>
		<rect x="32.952" y="43.62" fill="#FFD400" width="7.639" height="0.81"/>
		<rect x="32.952" y="38.739" fill="#FFD400" width="3.744" height="3.7"/>
	</g>
	<circle fill="#FFD400" cx="186.628" cy="107.416" r="7.262"/>
	<text transform="matrix(1 0 0 1 182.0146 110.2881)" fill="#231F20" font-family="'Lato-Light'" font-size="7.9515">20</text>
	<circle fill="#FFD400" cx="186.627" cy="74.441" r="7.262"/>
	<text transform="matrix(1 0 0 1 182.0127 77.314)" fill="#231F20" font-family="'Lato-Light'" font-size="7.9515">20</text>
	<g>
		<line fill="none" stroke="#414042" stroke-miterlimit="10" x1="47.973" y1="57.906" x2="173.588" y2="57.906"/>
		<line fill="none" stroke="#414042" stroke-miterlimit="10" x1="48.22" y1="90.918" x2="173.834" y2="90.918"/>
		<line fill="none" stroke="#414042" stroke-miterlimit="10" x1="48.036" y1="156.719" x2="173.651" y2="156.719"/>
	</g>
	<rect x="48.584" y="125.64" fill="#CE9C14" width="124.885" height="25.689"/>
	<g>
		<rect x="27.685" y="169.732" fill="#DDDDD3" width="14.68" height="14.679"/>
		<polygon fill="#A4A59B" points="39.195,177.694 30.427,181.409 30.427,176.319 39.195,172.603 		"/>
	</g>
	<text transform="matrix(1 0 0 1 48.0645 44.9736)" fill="#F1F2F2" font-family="'Lato-Light'" font-size="9.7865">All Stories</text>
	<text transform="matrix(1 0 0 1 48.0645 78.0732)" fill="#F1F2F2" font-family="'Lato-Light'" font-size="9.7865">my favorites</text>
	<text transform="matrix(1 0 0 1 48.0645 110.9004)" fill="#F1F2F2" font-family="'Lato-Light'" font-size="9.7865">stories received</text>
	<text transform="matrix(1 0 0 1 48.0645 176.7041)"><tspan x="0" y="0" fill="#F1F2F2" font-family="'Lato-Light'" font-size="9.7865">guardian project </tspan><tspan x="0" y="12.845" fill="#F1F2F2" font-family="'Lato-Light'" font-size="9.7865">software</tspan></text>
	<g>
		<text transform="matrix(1 0 0 1 60.8643 141.4531)" fill="#F1F2F2" font-family="'Lato-Light'" font-size="7.9515">receive a share</text>
	</g>
</g>
</svg>
