<?xml version="1.0" encoding="utf-8"?>
<!-- Generator: Adobe Illustrator 15.0.0, SVG Export Plug-In . SVG Version: 6.00 Build 0)  -->
<!DOCTYPE svg PUBLIC "-//W3C//DTD SVG 1.1//EN" "http://www.w3.org/Graphics/SVG/1.1/DTD/svg11.dtd">
<svg version="1.1" id="Layer_1" xmlns="http://www.w3.org/2000/svg" xmlns:xlink="http://www.w3.org/1999/xlink" x="0px" y="0px"
	 width="350px" height="219px" viewBox="0 0 350 219" enable-background="new 0 0 350 219" xml:space="preserve">
<g>
	<g>
		<g>
			<path fill="#231F20" d="M69.315,204.404c-2.12,0-3.833-1.717-3.833-3.834v-38.896c0-2.116,1.712-3.829,3.833-3.829
				c2.113,0,3.827,1.713,3.827,3.829v38.896C73.142,202.688,71.428,204.404,69.315,204.404z"/>
		</g>
		<g>
			<path fill="#231F20" d="M118.098,204.404c-2.117,0-3.833-1.717-3.833-3.834v-49.123c0-2.115,1.716-3.827,3.833-3.827
				s3.833,1.712,3.833,3.827v49.123C121.931,202.688,120.215,204.404,118.098,204.404z"/>
		</g>
		<g>
			<path fill="#231F20" d="M118.098,154.001c-2.117,0-3.833-1.714-3.833-3.832c0-2.115,1.716-3.828,3.833-3.828
				c16.189,0,29.362-9.386,29.362-20.914c0-2.119,1.716-3.83,3.833-3.835c2.116,0,3.83,1.716,3.83,3.835
				C155.124,141.181,138.514,154.001,118.098,154.001z"/>
		</g>
		<g>
			<path fill="#231F20" d="M119.878,139.287c-4.957,0-9.69-1.638-13.375-4.756c-1.613-1.369-1.812-3.789-0.446-5.404
				c1.367-1.613,3.786-1.812,5.398-0.446c3.364,2.85,8.024,3.693,12.791,2.312c4.69-1.36,8.351-4.578,9.542-8.392
				c0.637-2.022,2.779-3.144,4.803-2.513c2.021,0.632,3.142,2.781,2.511,4.8c-1.952,6.238-7.59,11.396-14.724,13.463
				C124.212,138.979,122.024,139.287,119.878,139.287z"/>
		</g>
		<g>
			<path fill="#231F20" d="M58.747,187.031c-2.114,0-3.831-1.717-3.831-3.832v-37.479c0-2.114,1.717-3.833,3.831-3.833
				c2.119,0,3.833,1.717,3.833,3.833v37.479C62.581,185.314,60.866,187.031,58.747,187.031z"/>
		</g>
		<g>
			<path fill="#231F20" d="M67.129,196.691c-7.195,0-12.213-7.656-12.213-14.526c0-2.118,1.717-3.832,3.831-3.832
				c2.119,0,3.833,1.714,3.833,3.832c0,3.335,2.339,6.864,4.549,6.864c2.118,0,3.833,1.715,3.833,3.832
				C70.962,194.977,69.248,196.691,67.129,196.691z"/>
		</g>
		<g>
			<path fill="#231F20" d="M58.747,149.554c-2.114,0-3.831-1.714-3.831-3.833c0-2.703,1.22-11.572,16.931-12.21
				c2.125-0.101,3.899,1.559,3.982,3.673c0.085,2.117-1.559,3.897-3.672,3.985c-2.246,0.092-9.577,0.688-9.577,4.552
				C62.581,147.84,60.866,149.552,58.747,149.554z"/>
		</g>
		<g>
			<path fill="#231F20" d="M73.549,141.17c-2.121,0-3.833-1.712-3.833-3.831c0-2.113,1.712-3.83,3.833-3.83
				c3.334,0,6.861-2.341,6.861-4.552c0-2.115,1.716-3.831,3.834-3.831c2.116,0,3.827,1.716,3.827,3.831
				C88.071,136.155,80.417,141.17,73.549,141.17z"/>
		</g>
		<g>
			<circle fill="#231F20" cx="95.445" cy="104.15" r="30.072"/>
		</g>
	</g>
	<g>
		<path fill="#231F20" d="M279.101,204.402c2.116,0,3.829-1.715,3.829-3.832v-38.896c0-2.116-1.713-3.829-3.829-3.829
			c-2.12,0-3.834,1.713-3.834,3.829v38.896C275.267,202.688,276.98,204.402,279.101,204.402z"/>
	</g>
	<g>
		<path fill="#231F20" d="M230.313,204.402c2.114,0,3.831-1.715,3.831-3.832v-49.123c0-2.115-1.717-3.827-3.831-3.827
			c-2.118,0-3.832,1.712-3.832,3.827v49.123C226.481,202.688,228.195,204.402,230.313,204.402z"/>
	</g>
	<g>
		<path fill="#231F20" d="M230.313,154.001c2.114,0,3.831-1.717,3.831-3.832s-1.717-3.829-3.831-3.829
			c-16.188,0-29.364-9.385-29.364-20.913c0-2.119-1.715-3.835-3.833-3.835c-2.112,0-3.83,1.716-3.83,3.835
			C193.286,141.181,209.894,154.001,230.313,154.001z"/>
	</g>
	<g>
		<path fill="#231F20" d="M228.532,139.287c4.961,0,9.691-1.638,13.373-4.756c1.615-1.369,1.814-3.789,0.447-5.404
			c-1.367-1.616-3.785-1.812-5.396-0.446c-3.367,2.85-8.026,3.693-12.794,2.31c-4.689-1.358-8.347-4.576-9.543-8.392
			c-0.633-2.021-2.776-3.142-4.804-2.511c-2.018,0.632-3.142,2.781-2.509,4.8c1.95,6.235,7.595,11.396,14.726,13.463
			C224.196,138.979,226.384,139.287,228.532,139.287z"/>
	</g>
	<g>
		<path fill="#231F20" d="M289.66,187.031c2.12,0,3.834-1.717,3.834-3.834v-37.477c0-2.114-1.714-3.835-3.834-3.835
			c-2.115,0-3.83,1.717-3.83,3.835v37.477C285.83,185.314,287.545,187.031,289.66,187.031z"/>
	</g>
	<g>
		<path fill="#231F20" d="M281.279,196.567c7.196,0,12.215-7.657,12.215-14.527c0-2.116-1.714-3.83-3.834-3.83
			c-2.115,0-3.83,1.714-3.83,3.83c0,3.336-2.338,6.866-4.551,6.866c-2.117,0-3.831,1.715-3.831,3.828
			C277.448,194.854,279.162,196.567,281.279,196.567z"/>
	</g>
	<g>
		<path fill="#231F20" d="M289.66,149.554c2.12,0,3.834-1.719,3.834-3.833c0-2.703-1.224-11.572-16.931-12.21
			c-2.126-0.103-3.896,1.558-3.982,3.673c-0.088,2.115,1.559,3.897,3.67,3.985c2.246,0.092,9.579,0.688,9.579,4.552
			C285.83,147.835,287.545,149.552,289.66,149.554z"/>
	</g>
	<g>
		<path fill="#231F20" d="M274.865,141.17c2.115,0,3.832-1.712,3.832-3.831c0-2.113-1.717-3.83-3.832-3.83
			c-3.338,0-6.867-2.341-6.867-4.552c0-2.115-1.714-3.831-3.831-3.831c-2.114,0-3.829,1.716-3.829,3.831
			C260.338,136.155,267.993,141.17,274.865,141.17z"/>
	</g>
	<g>
		<circle fill="#231F20" cx="252.966" cy="104.15" r="30.071"/>
	</g>
	<g>
		<path fill="#231F20" d="M164.051,118.128h-30.169V70.673h30.169V118.128z M140.698,111.313h16.539V77.488h-16.539V111.313z"/>
	</g>
	<g>
		<path fill="#231F20" d="M207.7,118.128h-30.17V70.673h30.17V118.128z M184.345,111.313h16.541V77.488h-16.541V111.313z"/>
	</g>
	<path fill="#231F20" d="M171.995,33.365h-9.73c-5.076,0-7.873,3.741-7.873,8.341v17.99h-10.607v-17.99
		c0-10.449,7.554-18.949,18.48-18.949h9.73"/>
	<path fill="#231F20" d="M169.196,33.365h9.099c5.852,0,9.278,4.757,9.278,10.607v7.238h-5.196l5.196,6.937l0,0l5.305,7.077
		l5.301-7.077l0.002-0.004l0,0l5.195-6.933h-5.195v-7.238c0-11.698-8.185-21.215-19.886-21.215h-9.099"/>
</g>
</svg>
